%TF.GenerationSoftware,KiCad,Pcbnew,8.0.6*%
%TF.CreationDate,2025-02-16T10:37:52+01:00*%
%TF.ProjectId,USBTempLogger,55534254-656d-4704-9c6f-676765722e6b,rev?*%
%TF.SameCoordinates,Original*%
%TF.FileFunction,Copper,L4,Bot*%
%TF.FilePolarity,Positive*%
%FSLAX46Y46*%
G04 Gerber Fmt 4.6, Leading zero omitted, Abs format (unit mm)*
G04 Created by KiCad (PCBNEW 8.0.6) date 2025-02-16 10:37:52*
%MOMM*%
%LPD*%
G01*
G04 APERTURE LIST*
G04 Aperture macros list*
%AMRoundRect*
0 Rectangle with rounded corners*
0 $1 Rounding radius*
0 $2 $3 $4 $5 $6 $7 $8 $9 X,Y pos of 4 corners*
0 Add a 4 corners polygon primitive as box body*
4,1,4,$2,$3,$4,$5,$6,$7,$8,$9,$2,$3,0*
0 Add four circle primitives for the rounded corners*
1,1,$1+$1,$2,$3*
1,1,$1+$1,$4,$5*
1,1,$1+$1,$6,$7*
1,1,$1+$1,$8,$9*
0 Add four rect primitives between the rounded corners*
20,1,$1+$1,$2,$3,$4,$5,0*
20,1,$1+$1,$4,$5,$6,$7,0*
20,1,$1+$1,$6,$7,$8,$9,0*
20,1,$1+$1,$8,$9,$2,$3,0*%
G04 Aperture macros list end*
%TA.AperFunction,ComponentPad*%
%ADD10RoundRect,0.250000X-0.845000X0.620000X-0.845000X-0.620000X0.845000X-0.620000X0.845000X0.620000X0*%
%TD*%
%TA.AperFunction,ComponentPad*%
%ADD11O,2.190000X1.740000*%
%TD*%
%TA.AperFunction,ViaPad*%
%ADD12C,0.600000*%
%TD*%
%TA.AperFunction,Conductor*%
%ADD13C,0.127000*%
%TD*%
G04 APERTURE END LIST*
D10*
%TO.P,J4,1,Pin_1*%
%TO.N,Net-(IC2-T-)*%
X140100000Y-102560000D03*
D11*
%TO.P,J4,2,Pin_2*%
%TO.N,Net-(IC2-T+)*%
X140100000Y-105100000D03*
%TD*%
D10*
%TO.P,J1,1,Pin_1*%
%TO.N,Net-(IC1-T-)*%
X140080000Y-87630000D03*
D11*
%TO.P,J1,2,Pin_2*%
%TO.N,Net-(IC1-T+)*%
X140080000Y-90170000D03*
%TD*%
D12*
%TO.N,GNDD*%
X171600000Y-101200000D03*
X167900000Y-88100000D03*
X147800000Y-87200000D03*
X149400000Y-92900000D03*
X153200000Y-92200000D03*
X162700000Y-105900000D03*
X162536500Y-93502601D03*
X159300000Y-93400000D03*
X168307485Y-94495657D03*
X167100000Y-104600000D03*
X153400000Y-93900000D03*
X151600000Y-99000000D03*
X147900000Y-100900000D03*
X173700000Y-94100000D03*
X149300000Y-106600000D03*
X157200000Y-95500000D03*
X166300000Y-99500000D03*
%TO.N,+3V3*%
X147800000Y-104700000D03*
X147700000Y-90900000D03*
X155400000Y-97000000D03*
X155400000Y-100200000D03*
X146000000Y-92800000D03*
X157500000Y-91900000D03*
X156800000Y-91900000D03*
X145800000Y-106600000D03*
X164800000Y-103200000D03*
X169500000Y-99100000D03*
X155100000Y-99000000D03*
X165300000Y-104900000D03*
%TO.N,NRST*%
X163100000Y-89400000D03*
X157600000Y-99400000D03*
%TO.N,SCK*%
X150800000Y-102700000D03*
X150890500Y-100600000D03*
%TD*%
D13*
%TO.N,NRST*%
X163100000Y-93700000D02*
X163100000Y-93900000D01*
X163100000Y-89400000D02*
X163100000Y-93700000D01*
X163100000Y-93900000D02*
X157600000Y-99400000D01*
%TO.N,SCK*%
X150890500Y-100600000D02*
X150890500Y-102609500D01*
X150890500Y-102609500D02*
X150800000Y-102700000D01*
%TD*%
%TA.AperFunction,Conductor*%
%TO.N,GNDD*%
G36*
X183442539Y-85520185D02*
G01*
X183488294Y-85572989D01*
X183499500Y-85624500D01*
X183499500Y-107375500D01*
X183479815Y-107442539D01*
X183427011Y-107488294D01*
X183375500Y-107499500D01*
X146303476Y-107499500D01*
X146236437Y-107479815D01*
X146190682Y-107427011D01*
X146180738Y-107357853D01*
X146209763Y-107294297D01*
X146237504Y-107270506D01*
X146302262Y-107229816D01*
X146429816Y-107102262D01*
X146525789Y-106949522D01*
X146585368Y-106779255D01*
X146605565Y-106600000D01*
X146585368Y-106420745D01*
X146525789Y-106250478D01*
X146429816Y-106097738D01*
X146302262Y-105970184D01*
X146149523Y-105874211D01*
X145979254Y-105814631D01*
X145979249Y-105814630D01*
X145800004Y-105794435D01*
X145799996Y-105794435D01*
X145620750Y-105814630D01*
X145620745Y-105814631D01*
X145450476Y-105874211D01*
X145297737Y-105970184D01*
X145170184Y-106097737D01*
X145074211Y-106250476D01*
X145014631Y-106420745D01*
X145014630Y-106420750D01*
X144994435Y-106599996D01*
X144994435Y-106600003D01*
X145014630Y-106779249D01*
X145014631Y-106779254D01*
X145074211Y-106949523D01*
X145170184Y-107102262D01*
X145297738Y-107229816D01*
X145362496Y-107270506D01*
X145408787Y-107322841D01*
X145419435Y-107391894D01*
X145391060Y-107455743D01*
X145332670Y-107494115D01*
X145296524Y-107499500D01*
X137624500Y-107499500D01*
X137557461Y-107479815D01*
X137511706Y-107427011D01*
X137500500Y-107375500D01*
X137500500Y-101889983D01*
X138504500Y-101889983D01*
X138504500Y-103230001D01*
X138504501Y-103230018D01*
X138515000Y-103332796D01*
X138515001Y-103332799D01*
X138565558Y-103485368D01*
X138570186Y-103499334D01*
X138662288Y-103648656D01*
X138786344Y-103772712D01*
X138935666Y-103864814D01*
X138935668Y-103864814D01*
X138935669Y-103864815D01*
X138936348Y-103865132D01*
X138936735Y-103865473D01*
X138941813Y-103868605D01*
X138941277Y-103869472D01*
X138988787Y-103911304D01*
X139007939Y-103978498D01*
X138987723Y-104045379D01*
X138971625Y-104065195D01*
X138829640Y-104207180D01*
X138702843Y-104381700D01*
X138604909Y-104573908D01*
X138538245Y-104779077D01*
X138504500Y-104992133D01*
X138504500Y-105207866D01*
X138535290Y-105402262D01*
X138538246Y-105420926D01*
X138604908Y-105626089D01*
X138702843Y-105818299D01*
X138829641Y-105992821D01*
X138982179Y-106145359D01*
X139156701Y-106272157D01*
X139348911Y-106370092D01*
X139554074Y-106436754D01*
X139633973Y-106449408D01*
X139767134Y-106470500D01*
X139767139Y-106470500D01*
X140432866Y-106470500D01*
X140551230Y-106451752D01*
X140645926Y-106436754D01*
X140851089Y-106370092D01*
X141043299Y-106272157D01*
X141217821Y-106145359D01*
X141370359Y-105992821D01*
X141497157Y-105818299D01*
X141595092Y-105626089D01*
X141661754Y-105420926D01*
X141676752Y-105326230D01*
X141695500Y-105207866D01*
X141695500Y-104992133D01*
X141661754Y-104779077D01*
X141661754Y-104779074D01*
X141636060Y-104699996D01*
X146994435Y-104699996D01*
X146994435Y-104700003D01*
X147014630Y-104879249D01*
X147014631Y-104879254D01*
X147074211Y-105049523D01*
X147170184Y-105202262D01*
X147297738Y-105329816D01*
X147388080Y-105386582D01*
X147442738Y-105420926D01*
X147450478Y-105425789D01*
X147620745Y-105485368D01*
X147620750Y-105485369D01*
X147799996Y-105505565D01*
X147800000Y-105505565D01*
X147800004Y-105505565D01*
X147979249Y-105485369D01*
X147979252Y-105485368D01*
X147979255Y-105485368D01*
X148149522Y-105425789D01*
X148302262Y-105329816D01*
X148429816Y-105202262D01*
X148525789Y-105049522D01*
X148585368Y-104879255D01*
X148585369Y-104879249D01*
X148605565Y-104700003D01*
X148605565Y-104699996D01*
X148585369Y-104520750D01*
X148585368Y-104520745D01*
X148542326Y-104397738D01*
X148525789Y-104350478D01*
X148429816Y-104197738D01*
X148302262Y-104070184D01*
X148294322Y-104065195D01*
X148149523Y-103974211D01*
X147979254Y-103914631D01*
X147979249Y-103914630D01*
X147800004Y-103894435D01*
X147799996Y-103894435D01*
X147620750Y-103914630D01*
X147620745Y-103914631D01*
X147450476Y-103974211D01*
X147297737Y-104070184D01*
X147170184Y-104197737D01*
X147074211Y-104350476D01*
X147014631Y-104520745D01*
X147014630Y-104520750D01*
X146994435Y-104699996D01*
X141636060Y-104699996D01*
X141595092Y-104573911D01*
X141497157Y-104381701D01*
X141370359Y-104207179D01*
X141228375Y-104065195D01*
X141194890Y-104003872D01*
X141199874Y-103934180D01*
X141241746Y-103878247D01*
X141263657Y-103865129D01*
X141264322Y-103864817D01*
X141264334Y-103864814D01*
X141413656Y-103772712D01*
X141537712Y-103648656D01*
X141629814Y-103499334D01*
X141684999Y-103332797D01*
X141695500Y-103230009D01*
X141695500Y-102699996D01*
X149994435Y-102699996D01*
X149994435Y-102700003D01*
X150014630Y-102879249D01*
X150014631Y-102879254D01*
X150074211Y-103049523D01*
X150168760Y-103199996D01*
X150170184Y-103202262D01*
X150297738Y-103329816D01*
X150450478Y-103425789D01*
X150620745Y-103485368D01*
X150620750Y-103485369D01*
X150799996Y-103505565D01*
X150800000Y-103505565D01*
X150800004Y-103505565D01*
X150979249Y-103485369D01*
X150979252Y-103485368D01*
X150979255Y-103485368D01*
X151149522Y-103425789D01*
X151302262Y-103329816D01*
X151429816Y-103202262D01*
X151431240Y-103199996D01*
X163994435Y-103199996D01*
X163994435Y-103200003D01*
X164014630Y-103379249D01*
X164014631Y-103379254D01*
X164074211Y-103549523D01*
X164170184Y-103702262D01*
X164297738Y-103829816D01*
X164377106Y-103879686D01*
X164432721Y-103914632D01*
X164450478Y-103925789D01*
X164489925Y-103939592D01*
X164620745Y-103985368D01*
X164620750Y-103985369D01*
X164803041Y-104005908D01*
X164867455Y-104032974D01*
X164907010Y-104090569D01*
X164909148Y-104160406D01*
X164873190Y-104220312D01*
X164855131Y-104234121D01*
X164797739Y-104270182D01*
X164670184Y-104397737D01*
X164574211Y-104550476D01*
X164514631Y-104720745D01*
X164514630Y-104720750D01*
X164494435Y-104899996D01*
X164494435Y-104900003D01*
X164514630Y-105079249D01*
X164514631Y-105079254D01*
X164574211Y-105249523D01*
X164624662Y-105329815D01*
X164670184Y-105402262D01*
X164797738Y-105529816D01*
X164950478Y-105625789D01*
X165120745Y-105685368D01*
X165120750Y-105685369D01*
X165299996Y-105705565D01*
X165300000Y-105705565D01*
X165300004Y-105705565D01*
X165479249Y-105685369D01*
X165479252Y-105685368D01*
X165479255Y-105685368D01*
X165649522Y-105625789D01*
X165802262Y-105529816D01*
X165929816Y-105402262D01*
X166025789Y-105249522D01*
X166085368Y-105079255D01*
X166095184Y-104992139D01*
X166105565Y-104900003D01*
X166105565Y-104899996D01*
X166085369Y-104720750D01*
X166085368Y-104720745D01*
X166078108Y-104699996D01*
X166025789Y-104550478D01*
X166007106Y-104520745D01*
X165929815Y-104397737D01*
X165802262Y-104270184D01*
X165649523Y-104174211D01*
X165479254Y-104114631D01*
X165479250Y-104114630D01*
X165296957Y-104094091D01*
X165232543Y-104067024D01*
X165192988Y-104009429D01*
X165190851Y-103939592D01*
X165226809Y-103879686D01*
X165244856Y-103865886D01*
X165302262Y-103829816D01*
X165429816Y-103702262D01*
X165525789Y-103549522D01*
X165585368Y-103379255D01*
X165585369Y-103379249D01*
X165605565Y-103200003D01*
X165605565Y-103199996D01*
X165585369Y-103020750D01*
X165585368Y-103020745D01*
X165525789Y-102850478D01*
X165429816Y-102697738D01*
X165302262Y-102570184D01*
X165149523Y-102474211D01*
X164979254Y-102414631D01*
X164979249Y-102414630D01*
X164800004Y-102394435D01*
X164799996Y-102394435D01*
X164620750Y-102414630D01*
X164620745Y-102414631D01*
X164450476Y-102474211D01*
X164297737Y-102570184D01*
X164170184Y-102697737D01*
X164074211Y-102850476D01*
X164014631Y-103020745D01*
X164014630Y-103020750D01*
X163994435Y-103199996D01*
X151431240Y-103199996D01*
X151525789Y-103049522D01*
X151585368Y-102879255D01*
X151585369Y-102879249D01*
X151605565Y-102700003D01*
X151605565Y-102699996D01*
X151585369Y-102520750D01*
X151585366Y-102520737D01*
X151525790Y-102350481D01*
X151525789Y-102350478D01*
X151505473Y-102318145D01*
X151473506Y-102267269D01*
X151454500Y-102201297D01*
X151454500Y-101219440D01*
X151474185Y-101152401D01*
X151490819Y-101131759D01*
X151520316Y-101102262D01*
X151616289Y-100949522D01*
X151675868Y-100779255D01*
X151696065Y-100600000D01*
X151675868Y-100420745D01*
X151616289Y-100250478D01*
X151520316Y-100097738D01*
X151392762Y-99970184D01*
X151289922Y-99905565D01*
X151240023Y-99874211D01*
X151069754Y-99814631D01*
X151069749Y-99814630D01*
X150890504Y-99794435D01*
X150890496Y-99794435D01*
X150711250Y-99814630D01*
X150711245Y-99814631D01*
X150540976Y-99874211D01*
X150388237Y-99970184D01*
X150260684Y-100097737D01*
X150164711Y-100250476D01*
X150105131Y-100420745D01*
X150105130Y-100420750D01*
X150084935Y-100599996D01*
X150084935Y-100600003D01*
X150105130Y-100779249D01*
X150105131Y-100779254D01*
X150164711Y-100949523D01*
X150260684Y-101102262D01*
X150290181Y-101131759D01*
X150323666Y-101193082D01*
X150326500Y-101219440D01*
X150326500Y-101990059D01*
X150306815Y-102057098D01*
X150290182Y-102077740D01*
X150170183Y-102197739D01*
X150074211Y-102350476D01*
X150014631Y-102520745D01*
X150014630Y-102520750D01*
X149994435Y-102699996D01*
X141695500Y-102699996D01*
X141695499Y-101889992D01*
X141684999Y-101787203D01*
X141629814Y-101620666D01*
X141537712Y-101471344D01*
X141413656Y-101347288D01*
X141264334Y-101255186D01*
X141097797Y-101200001D01*
X141097795Y-101200000D01*
X140995010Y-101189500D01*
X139204998Y-101189500D01*
X139204981Y-101189501D01*
X139102203Y-101200000D01*
X139102200Y-101200001D01*
X138935668Y-101255185D01*
X138935663Y-101255187D01*
X138786342Y-101347289D01*
X138662289Y-101471342D01*
X138570187Y-101620663D01*
X138570186Y-101620666D01*
X138515001Y-101787203D01*
X138515001Y-101787204D01*
X138515000Y-101787204D01*
X138504500Y-101889983D01*
X137500500Y-101889983D01*
X137500500Y-98999996D01*
X154294435Y-98999996D01*
X154294435Y-99000003D01*
X154314630Y-99179249D01*
X154314631Y-99179254D01*
X154374211Y-99349523D01*
X154470184Y-99502262D01*
X154597740Y-99629818D01*
X154646974Y-99660753D01*
X154693266Y-99713087D01*
X154703915Y-99782141D01*
X154685999Y-99831715D01*
X154674210Y-99850478D01*
X154614633Y-100020737D01*
X154614630Y-100020750D01*
X154594435Y-100199996D01*
X154594435Y-100200003D01*
X154614630Y-100379249D01*
X154614631Y-100379254D01*
X154674211Y-100549523D01*
X154705926Y-100599996D01*
X154770184Y-100702262D01*
X154897738Y-100829816D01*
X155050478Y-100925789D01*
X155118306Y-100949523D01*
X155220745Y-100985368D01*
X155220750Y-100985369D01*
X155399996Y-101005565D01*
X155400000Y-101005565D01*
X155400004Y-101005565D01*
X155579249Y-100985369D01*
X155579252Y-100985368D01*
X155579255Y-100985368D01*
X155749522Y-100925789D01*
X155902262Y-100829816D01*
X156029816Y-100702262D01*
X156125789Y-100549522D01*
X156185368Y-100379255D01*
X156205565Y-100200000D01*
X156203916Y-100185369D01*
X156185369Y-100020750D01*
X156185368Y-100020745D01*
X156137998Y-99885369D01*
X156125789Y-99850478D01*
X156113999Y-99831715D01*
X156047816Y-99726385D01*
X156029816Y-99697738D01*
X155902262Y-99570184D01*
X155902260Y-99570182D01*
X155853022Y-99539244D01*
X155806732Y-99486910D01*
X155796084Y-99417856D01*
X155802539Y-99399996D01*
X156794435Y-99399996D01*
X156794435Y-99400003D01*
X156814630Y-99579249D01*
X156814631Y-99579254D01*
X156874211Y-99749523D01*
X156937646Y-99850478D01*
X156970184Y-99902262D01*
X157097738Y-100029816D01*
X157188080Y-100086582D01*
X157205833Y-100097737D01*
X157250478Y-100125789D01*
X157420745Y-100185368D01*
X157420750Y-100185369D01*
X157599996Y-100205565D01*
X157600000Y-100205565D01*
X157600004Y-100205565D01*
X157779249Y-100185369D01*
X157779252Y-100185368D01*
X157779255Y-100185368D01*
X157949522Y-100125789D01*
X158102262Y-100029816D01*
X158229816Y-99902262D01*
X158325789Y-99749522D01*
X158385368Y-99579255D01*
X158386391Y-99570182D01*
X158395773Y-99486910D01*
X158401716Y-99434156D01*
X158428782Y-99369744D01*
X158437245Y-99360370D01*
X158697619Y-99099996D01*
X168694435Y-99099996D01*
X168694435Y-99100003D01*
X168714630Y-99279249D01*
X168714631Y-99279254D01*
X168774211Y-99449523D01*
X168855727Y-99579254D01*
X168870184Y-99602262D01*
X168997738Y-99729816D01*
X169081013Y-99782141D01*
X169132721Y-99814632D01*
X169150478Y-99825789D01*
X169288860Y-99874211D01*
X169320745Y-99885368D01*
X169320750Y-99885369D01*
X169499996Y-99905565D01*
X169500000Y-99905565D01*
X169500004Y-99905565D01*
X169679249Y-99885369D01*
X169679252Y-99885368D01*
X169679255Y-99885368D01*
X169849522Y-99825789D01*
X170002262Y-99729816D01*
X170129816Y-99602262D01*
X170225789Y-99449522D01*
X170285368Y-99279255D01*
X170291960Y-99220750D01*
X170305565Y-99100003D01*
X170305565Y-99099996D01*
X170285369Y-98920750D01*
X170285368Y-98920745D01*
X170225789Y-98750478D01*
X170129816Y-98597738D01*
X170002262Y-98470184D01*
X169849523Y-98374211D01*
X169679254Y-98314631D01*
X169679249Y-98314630D01*
X169500004Y-98294435D01*
X169499996Y-98294435D01*
X169320750Y-98314630D01*
X169320745Y-98314631D01*
X169150476Y-98374211D01*
X168997737Y-98470184D01*
X168870184Y-98597737D01*
X168774211Y-98750476D01*
X168714631Y-98920745D01*
X168714630Y-98920750D01*
X168694435Y-99099996D01*
X158697619Y-99099996D01*
X160628621Y-97168995D01*
X177199499Y-97168995D01*
X177226418Y-97304322D01*
X177226421Y-97304332D01*
X177279221Y-97431804D01*
X177279228Y-97431817D01*
X177355885Y-97546541D01*
X177355888Y-97546545D01*
X177453454Y-97644111D01*
X177453458Y-97644114D01*
X177568182Y-97720771D01*
X177568195Y-97720778D01*
X177695667Y-97773578D01*
X177695672Y-97773580D01*
X177695676Y-97773580D01*
X177695677Y-97773581D01*
X177831004Y-97800500D01*
X177831007Y-97800500D01*
X177968995Y-97800500D01*
X178060041Y-97782389D01*
X178104328Y-97773580D01*
X178231811Y-97720775D01*
X178346542Y-97644114D01*
X178444114Y-97546542D01*
X178520775Y-97431811D01*
X178573580Y-97304328D01*
X178600500Y-97168993D01*
X178600500Y-97031007D01*
X178600500Y-97031004D01*
X178573581Y-96895677D01*
X178573580Y-96895676D01*
X178573580Y-96895672D01*
X178573578Y-96895667D01*
X178520778Y-96768195D01*
X178520771Y-96768182D01*
X178444114Y-96653458D01*
X178444111Y-96653454D01*
X178346545Y-96555888D01*
X178346541Y-96555885D01*
X178231817Y-96479228D01*
X178231804Y-96479221D01*
X178104332Y-96426421D01*
X178104322Y-96426418D01*
X177968995Y-96399500D01*
X177968993Y-96399500D01*
X177831007Y-96399500D01*
X177831005Y-96399500D01*
X177695677Y-96426418D01*
X177695667Y-96426421D01*
X177568195Y-96479221D01*
X177568182Y-96479228D01*
X177453458Y-96555885D01*
X177453454Y-96555888D01*
X177355888Y-96653454D01*
X177355885Y-96653458D01*
X177279228Y-96768182D01*
X177279221Y-96768195D01*
X177226421Y-96895667D01*
X177226418Y-96895677D01*
X177199500Y-97031004D01*
X177199500Y-97031007D01*
X177199500Y-97168993D01*
X177199500Y-97168995D01*
X177199499Y-97168995D01*
X160628621Y-97168995D01*
X163551313Y-94246304D01*
X163625565Y-94117696D01*
X163664001Y-93974252D01*
X163664001Y-93825747D01*
X163664001Y-93818152D01*
X163664000Y-93818134D01*
X163664000Y-92768995D01*
X177199499Y-92768995D01*
X177226418Y-92904322D01*
X177226421Y-92904332D01*
X177279221Y-93031804D01*
X177279228Y-93031817D01*
X177355885Y-93146541D01*
X177355888Y-93146545D01*
X177453454Y-93244111D01*
X177453458Y-93244114D01*
X177568182Y-93320771D01*
X177568195Y-93320778D01*
X177695667Y-93373578D01*
X177695672Y-93373580D01*
X177695676Y-93373580D01*
X177695677Y-93373581D01*
X177831004Y-93400500D01*
X177831007Y-93400500D01*
X177968995Y-93400500D01*
X178060041Y-93382389D01*
X178104328Y-93373580D01*
X178231811Y-93320775D01*
X178346542Y-93244114D01*
X178444114Y-93146542D01*
X178520775Y-93031811D01*
X178573580Y-92904328D01*
X178594332Y-92800003D01*
X178600500Y-92768995D01*
X178600500Y-92631004D01*
X178573581Y-92495677D01*
X178573580Y-92495676D01*
X178573580Y-92495672D01*
X178554859Y-92450476D01*
X178520778Y-92368195D01*
X178520771Y-92368182D01*
X178444114Y-92253458D01*
X178444111Y-92253454D01*
X178346545Y-92155888D01*
X178346541Y-92155885D01*
X178231817Y-92079228D01*
X178231804Y-92079221D01*
X178104332Y-92026421D01*
X178104322Y-92026418D01*
X177968995Y-91999500D01*
X177968993Y-91999500D01*
X177831007Y-91999500D01*
X177831005Y-91999500D01*
X177695677Y-92026418D01*
X177695667Y-92026421D01*
X177568195Y-92079221D01*
X177568182Y-92079228D01*
X177453458Y-92155885D01*
X177453454Y-92155888D01*
X177355888Y-92253454D01*
X177355885Y-92253458D01*
X177279228Y-92368182D01*
X177279221Y-92368195D01*
X177226421Y-92495667D01*
X177226418Y-92495677D01*
X177199500Y-92631004D01*
X177199500Y-92631007D01*
X177199500Y-92768993D01*
X177199500Y-92768995D01*
X177199499Y-92768995D01*
X163664000Y-92768995D01*
X163664000Y-90019440D01*
X163683685Y-89952401D01*
X163700319Y-89931759D01*
X163729816Y-89902262D01*
X163825789Y-89749522D01*
X163885368Y-89579255D01*
X163905565Y-89400000D01*
X163891726Y-89277177D01*
X163885369Y-89220750D01*
X163885368Y-89220745D01*
X163825788Y-89050476D01*
X163729815Y-88897737D01*
X163602262Y-88770184D01*
X163449523Y-88674211D01*
X163279254Y-88614631D01*
X163279249Y-88614630D01*
X163100004Y-88594435D01*
X163099996Y-88594435D01*
X162920750Y-88614630D01*
X162920745Y-88614631D01*
X162750476Y-88674211D01*
X162597737Y-88770184D01*
X162470184Y-88897737D01*
X162374211Y-89050476D01*
X162314631Y-89220745D01*
X162314630Y-89220750D01*
X162294435Y-89399996D01*
X162294435Y-89400003D01*
X162314630Y-89579249D01*
X162314631Y-89579254D01*
X162374211Y-89749523D01*
X162470184Y-89902262D01*
X162499681Y-89931759D01*
X162533166Y-89993082D01*
X162536000Y-90019440D01*
X162536000Y-93615020D01*
X162516315Y-93682059D01*
X162499681Y-93702701D01*
X157639637Y-98562744D01*
X157578314Y-98596229D01*
X157565840Y-98598283D01*
X157420749Y-98614630D01*
X157420745Y-98614631D01*
X157250476Y-98674211D01*
X157097737Y-98770184D01*
X156970184Y-98897737D01*
X156874211Y-99050476D01*
X156814631Y-99220745D01*
X156814630Y-99220750D01*
X156794435Y-99399996D01*
X155802539Y-99399996D01*
X155814001Y-99368282D01*
X155825789Y-99349522D01*
X155885368Y-99179255D01*
X155885369Y-99179249D01*
X155905565Y-99000003D01*
X155905565Y-98999996D01*
X155885369Y-98820750D01*
X155885368Y-98820745D01*
X155867676Y-98770184D01*
X155825789Y-98650478D01*
X155803265Y-98614632D01*
X155729815Y-98497737D01*
X155602262Y-98370184D01*
X155449523Y-98274211D01*
X155279254Y-98214631D01*
X155279249Y-98214630D01*
X155100004Y-98194435D01*
X155099996Y-98194435D01*
X154920750Y-98214630D01*
X154920745Y-98214631D01*
X154750476Y-98274211D01*
X154597737Y-98370184D01*
X154470184Y-98497737D01*
X154374211Y-98650476D01*
X154314631Y-98820745D01*
X154314630Y-98820750D01*
X154294435Y-98999996D01*
X137500500Y-98999996D01*
X137500500Y-96999996D01*
X154594435Y-96999996D01*
X154594435Y-97000003D01*
X154614630Y-97179249D01*
X154614631Y-97179254D01*
X154674211Y-97349523D01*
X154725920Y-97431817D01*
X154770184Y-97502262D01*
X154897738Y-97629816D01*
X155050478Y-97725789D01*
X155187051Y-97773578D01*
X155220745Y-97785368D01*
X155220750Y-97785369D01*
X155399996Y-97805565D01*
X155400000Y-97805565D01*
X155400004Y-97805565D01*
X155579249Y-97785369D01*
X155579252Y-97785368D01*
X155579255Y-97785368D01*
X155749522Y-97725789D01*
X155902262Y-97629816D01*
X156029816Y-97502262D01*
X156125789Y-97349522D01*
X156185368Y-97179255D01*
X156186524Y-97168995D01*
X156205565Y-97000003D01*
X156205565Y-96999996D01*
X156185369Y-96820750D01*
X156185368Y-96820745D01*
X156166975Y-96768182D01*
X156125789Y-96650478D01*
X156029816Y-96497738D01*
X155902262Y-96370184D01*
X155749523Y-96274211D01*
X155579254Y-96214631D01*
X155579249Y-96214630D01*
X155400004Y-96194435D01*
X155399996Y-96194435D01*
X155220750Y-96214630D01*
X155220745Y-96214631D01*
X155050476Y-96274211D01*
X154897737Y-96370184D01*
X154770184Y-96497737D01*
X154674211Y-96650476D01*
X154614631Y-96820745D01*
X154614630Y-96820750D01*
X154594435Y-96999996D01*
X137500500Y-96999996D01*
X137500500Y-92799996D01*
X145194435Y-92799996D01*
X145194435Y-92800003D01*
X145214630Y-92979249D01*
X145214631Y-92979254D01*
X145274211Y-93149523D01*
X145333645Y-93244111D01*
X145370184Y-93302262D01*
X145497738Y-93429816D01*
X145650478Y-93525789D01*
X145820745Y-93585368D01*
X145820750Y-93585369D01*
X145999996Y-93605565D01*
X146000000Y-93605565D01*
X146000004Y-93605565D01*
X146179249Y-93585369D01*
X146179252Y-93585368D01*
X146179255Y-93585368D01*
X146349522Y-93525789D01*
X146502262Y-93429816D01*
X146629816Y-93302262D01*
X146725789Y-93149522D01*
X146785368Y-92979255D01*
X146805565Y-92800000D01*
X146802071Y-92768993D01*
X146785369Y-92620750D01*
X146785368Y-92620745D01*
X146725789Y-92450478D01*
X146629816Y-92297738D01*
X146502262Y-92170184D01*
X146479505Y-92155885D01*
X146349523Y-92074211D01*
X146179254Y-92014631D01*
X146179249Y-92014630D01*
X146000004Y-91994435D01*
X145999996Y-91994435D01*
X145820750Y-92014630D01*
X145820745Y-92014631D01*
X145650476Y-92074211D01*
X145497737Y-92170184D01*
X145370184Y-92297737D01*
X145274211Y-92450476D01*
X145214631Y-92620745D01*
X145214630Y-92620750D01*
X145194435Y-92799996D01*
X137500500Y-92799996D01*
X137500500Y-91899996D01*
X155994435Y-91899996D01*
X155994435Y-91900003D01*
X156014630Y-92079249D01*
X156014631Y-92079254D01*
X156074211Y-92249523D01*
X156104507Y-92297738D01*
X156170184Y-92402262D01*
X156297738Y-92529816D01*
X156388080Y-92586582D01*
X156442450Y-92620745D01*
X156450478Y-92625789D01*
X156620739Y-92685366D01*
X156620745Y-92685368D01*
X156620750Y-92685369D01*
X156799996Y-92705565D01*
X156800000Y-92705565D01*
X156800004Y-92705565D01*
X156979249Y-92685369D01*
X156979251Y-92685368D01*
X156979255Y-92685368D01*
X156979258Y-92685366D01*
X156979262Y-92685366D01*
X157109045Y-92639953D01*
X157178824Y-92636391D01*
X157190955Y-92639953D01*
X157320737Y-92685366D01*
X157320743Y-92685367D01*
X157320745Y-92685368D01*
X157320746Y-92685368D01*
X157320750Y-92685369D01*
X157499996Y-92705565D01*
X157500000Y-92705565D01*
X157500004Y-92705565D01*
X157679249Y-92685369D01*
X157679252Y-92685368D01*
X157679255Y-92685368D01*
X157849522Y-92625789D01*
X158002262Y-92529816D01*
X158129816Y-92402262D01*
X158225789Y-92249522D01*
X158285368Y-92079255D01*
X158285371Y-92079228D01*
X158305565Y-91900003D01*
X158305565Y-91899996D01*
X158285369Y-91720750D01*
X158285368Y-91720745D01*
X158225788Y-91550476D01*
X158156429Y-91440092D01*
X158129816Y-91397738D01*
X158002262Y-91270184D01*
X157915004Y-91215356D01*
X157849523Y-91174211D01*
X157679254Y-91114631D01*
X157679249Y-91114630D01*
X157500004Y-91094435D01*
X157499996Y-91094435D01*
X157320750Y-91114630D01*
X157320742Y-91114632D01*
X157190954Y-91160047D01*
X157121175Y-91163608D01*
X157109046Y-91160047D01*
X156979257Y-91114632D01*
X156979249Y-91114630D01*
X156800004Y-91094435D01*
X156799996Y-91094435D01*
X156620750Y-91114630D01*
X156620745Y-91114631D01*
X156450476Y-91174211D01*
X156297737Y-91270184D01*
X156170184Y-91397737D01*
X156074211Y-91550476D01*
X156014631Y-91720745D01*
X156014630Y-91720750D01*
X155994435Y-91899996D01*
X137500500Y-91899996D01*
X137500500Y-86959983D01*
X138484500Y-86959983D01*
X138484500Y-88300001D01*
X138484501Y-88300018D01*
X138495000Y-88402796D01*
X138495001Y-88402799D01*
X138550185Y-88569331D01*
X138550186Y-88569334D01*
X138642288Y-88718656D01*
X138766344Y-88842712D01*
X138915666Y-88934814D01*
X138915668Y-88934814D01*
X138915669Y-88934815D01*
X138916348Y-88935132D01*
X138916735Y-88935473D01*
X138921813Y-88938605D01*
X138921277Y-88939472D01*
X138968787Y-88981304D01*
X138987939Y-89048498D01*
X138967723Y-89115379D01*
X138951625Y-89135195D01*
X138809640Y-89277180D01*
X138682843Y-89451700D01*
X138584909Y-89643908D01*
X138518245Y-89849077D01*
X138484500Y-90062133D01*
X138484500Y-90277866D01*
X138518245Y-90490922D01*
X138518246Y-90490926D01*
X138584908Y-90696089D01*
X138682843Y-90888299D01*
X138809641Y-91062821D01*
X138962179Y-91215359D01*
X139136701Y-91342157D01*
X139328911Y-91440092D01*
X139534074Y-91506754D01*
X139613973Y-91519408D01*
X139747134Y-91540500D01*
X139747139Y-91540500D01*
X140412866Y-91540500D01*
X140531230Y-91521752D01*
X140625926Y-91506754D01*
X140831089Y-91440092D01*
X141023299Y-91342157D01*
X141197821Y-91215359D01*
X141350359Y-91062821D01*
X141468659Y-90899996D01*
X146894435Y-90899996D01*
X146894435Y-90900003D01*
X146914630Y-91079249D01*
X146914631Y-91079254D01*
X146974211Y-91249523D01*
X147032417Y-91342156D01*
X147070184Y-91402262D01*
X147197738Y-91529816D01*
X147350478Y-91625789D01*
X147520745Y-91685368D01*
X147520750Y-91685369D01*
X147699996Y-91705565D01*
X147700000Y-91705565D01*
X147700004Y-91705565D01*
X147879249Y-91685369D01*
X147879252Y-91685368D01*
X147879255Y-91685368D01*
X148049522Y-91625789D01*
X148202262Y-91529816D01*
X148329816Y-91402262D01*
X148425789Y-91249522D01*
X148485368Y-91079255D01*
X148485369Y-91079249D01*
X148505565Y-90900003D01*
X148505565Y-90899996D01*
X148485369Y-90720750D01*
X148485368Y-90720745D01*
X148425788Y-90550476D01*
X148329815Y-90397737D01*
X148202262Y-90270184D01*
X148049523Y-90174211D01*
X147879254Y-90114631D01*
X147879249Y-90114630D01*
X147700004Y-90094435D01*
X147699996Y-90094435D01*
X147520750Y-90114630D01*
X147520745Y-90114631D01*
X147350476Y-90174211D01*
X147197737Y-90270184D01*
X147070184Y-90397737D01*
X146974211Y-90550476D01*
X146914631Y-90720745D01*
X146914630Y-90720750D01*
X146894435Y-90899996D01*
X141468659Y-90899996D01*
X141477157Y-90888299D01*
X141575092Y-90696089D01*
X141641754Y-90490926D01*
X141656752Y-90396230D01*
X141675500Y-90277866D01*
X141675500Y-90062133D01*
X141641754Y-89849077D01*
X141641754Y-89849074D01*
X141575092Y-89643911D01*
X141477157Y-89451701D01*
X141350359Y-89277179D01*
X141208375Y-89135195D01*
X141174890Y-89073872D01*
X141179874Y-89004180D01*
X141221746Y-88948247D01*
X141243657Y-88935129D01*
X141244322Y-88934817D01*
X141244334Y-88934814D01*
X141393656Y-88842712D01*
X141517712Y-88718656D01*
X141609814Y-88569334D01*
X141664999Y-88402797D01*
X141675500Y-88300009D01*
X141675499Y-86959992D01*
X141664999Y-86857203D01*
X141609814Y-86690666D01*
X141517712Y-86541344D01*
X141393656Y-86417288D01*
X141244334Y-86325186D01*
X141077797Y-86270001D01*
X141077795Y-86270000D01*
X140975010Y-86259500D01*
X139184998Y-86259500D01*
X139184981Y-86259501D01*
X139082203Y-86270000D01*
X139082200Y-86270001D01*
X138915668Y-86325185D01*
X138915663Y-86325187D01*
X138766342Y-86417289D01*
X138642289Y-86541342D01*
X138550187Y-86690663D01*
X138550186Y-86690666D01*
X138495001Y-86857203D01*
X138495001Y-86857204D01*
X138495000Y-86857204D01*
X138484500Y-86959983D01*
X137500500Y-86959983D01*
X137500500Y-85624500D01*
X137520185Y-85557461D01*
X137572989Y-85511706D01*
X137624500Y-85500500D01*
X183375500Y-85500500D01*
X183442539Y-85520185D01*
G37*
%TD.AperFunction*%
%TD*%
M02*
