M48
; DRILL file {KiCad 8.0.6} date 2025-02-16T10:37:54+0100
; FORMAT={-:-/ absolute / inch / decimal}
; #@! TF.CreationDate,2025-02-16T10:37:54+01:00
; #@! TF.GenerationSoftware,Kicad,Pcbnew,8.0.6
; #@! TF.FileFunction,Plated,1,4,PTH
FMAT,2
INCH
; #@! TA.AperFunction,Plated,PTH,ViaDrill
T1C0.0118
; #@! TA.AperFunction,Plated,PTH,ComponentDrill
T2C0.0469
%
G90
G05
T1
X5.7402Y-4.1969
X5.748Y-3.6535
X5.815Y-3.5787
X5.8189Y-3.4331
X5.8189Y-4.122
X5.8228Y-3.9724
X5.878Y-4.1969
X5.8819Y-3.6575
X5.937Y-4.0433
X5.9406Y-3.9606
X5.9685Y-3.8976
X6.0315Y-3.6299
X6.0394Y-3.6969
X6.1063Y-3.8976
X6.1181Y-3.8189
X6.1181Y-3.9449
X6.1732Y-3.6181
X6.189Y-3.7598
X6.2008Y-3.6181
X6.2047Y-3.9134
X6.2717Y-3.6772
X6.3991Y-3.6812
X6.4055Y-4.1693
X6.4213Y-3.5197
X6.4882Y-4.063
X6.5079Y-4.1299
X6.5472Y-3.9173
X6.5787Y-4.1181
X6.6102Y-3.4685
X6.6263Y-3.7203
X6.6732Y-3.9016
X6.7559Y-3.9843
X6.8386Y-3.7047
T2
X5.515Y-3.45
X5.515Y-3.55
X5.5157Y-4.0378
X5.5157Y-4.1378
M30
