%TF.GenerationSoftware,KiCad,Pcbnew,8.0.6*%
%TF.CreationDate,2025-02-16T10:37:52+01:00*%
%TF.ProjectId,USBTempLogger,55534254-656d-4704-9c6f-676765722e6b,rev?*%
%TF.SameCoordinates,Original*%
%TF.FileFunction,Copper,L3,Inr*%
%TF.FilePolarity,Positive*%
%FSLAX46Y46*%
G04 Gerber Fmt 4.6, Leading zero omitted, Abs format (unit mm)*
G04 Created by KiCad (PCBNEW 8.0.6) date 2025-02-16 10:37:52*
%MOMM*%
%LPD*%
G01*
G04 APERTURE LIST*
G04 Aperture macros list*
%AMRoundRect*
0 Rectangle with rounded corners*
0 $1 Rounding radius*
0 $2 $3 $4 $5 $6 $7 $8 $9 X,Y pos of 4 corners*
0 Add a 4 corners polygon primitive as box body*
4,1,4,$2,$3,$4,$5,$6,$7,$8,$9,$2,$3,0*
0 Add four circle primitives for the rounded corners*
1,1,$1+$1,$2,$3*
1,1,$1+$1,$4,$5*
1,1,$1+$1,$6,$7*
1,1,$1+$1,$8,$9*
0 Add four rect primitives between the rounded corners*
20,1,$1+$1,$2,$3,$4,$5,0*
20,1,$1+$1,$4,$5,$6,$7,0*
20,1,$1+$1,$6,$7,$8,$9,0*
20,1,$1+$1,$8,$9,$2,$3,0*%
G04 Aperture macros list end*
%TA.AperFunction,ComponentPad*%
%ADD10RoundRect,0.250000X-0.845000X0.620000X-0.845000X-0.620000X0.845000X-0.620000X0.845000X0.620000X0*%
%TD*%
%TA.AperFunction,ComponentPad*%
%ADD11O,2.190000X1.740000*%
%TD*%
%TA.AperFunction,ViaPad*%
%ADD12C,0.600000*%
%TD*%
G04 APERTURE END LIST*
D10*
%TO.N,Net-(IC2-T-)*%
%TO.C,J4*%
X140100000Y-102560000D03*
D11*
%TO.N,Net-(IC2-T+)*%
X140100000Y-105100000D03*
%TD*%
D10*
%TO.N,Net-(IC1-T-)*%
%TO.C,J1*%
X140080000Y-87630000D03*
D11*
%TO.N,Net-(IC1-T+)*%
X140080000Y-90170000D03*
%TD*%
D12*
%TO.N,GNDD*%
X171600000Y-101200000D03*
X167900000Y-88100000D03*
X147800000Y-87200000D03*
X149400000Y-92900000D03*
X153200000Y-92200000D03*
X162700000Y-105900000D03*
X162536500Y-93502601D03*
X159300000Y-93400000D03*
X168307485Y-94495657D03*
X167100000Y-104600000D03*
X153400000Y-93900000D03*
X151600000Y-99000000D03*
X147900000Y-100900000D03*
X173700000Y-94100000D03*
X149300000Y-106600000D03*
X157200000Y-95500000D03*
X166300000Y-99500000D03*
%TO.N,+3V3*%
X147800000Y-104700000D03*
X147700000Y-90900000D03*
X155400000Y-97000000D03*
X155400000Y-100200000D03*
X146000000Y-92800000D03*
X157500000Y-91900000D03*
X156800000Y-91900000D03*
X145800000Y-106600000D03*
X164800000Y-103200000D03*
X169500000Y-99100000D03*
X155100000Y-99000000D03*
X165300000Y-104900000D03*
%TO.N,NRST*%
X163100000Y-89400000D03*
X157600000Y-99400000D03*
%TO.N,SCK*%
X150800000Y-102700000D03*
X150890500Y-100600000D03*
%TD*%
%TA.AperFunction,Conductor*%
%TO.N,+3V3*%
G36*
X183442539Y-85520185D02*
G01*
X183488294Y-85572989D01*
X183499500Y-85624500D01*
X183499500Y-107375500D01*
X183479815Y-107442539D01*
X183427011Y-107488294D01*
X183375500Y-107499500D01*
X149803476Y-107499500D01*
X149736437Y-107479815D01*
X149690682Y-107427011D01*
X149680738Y-107357853D01*
X149709763Y-107294297D01*
X149737504Y-107270506D01*
X149802262Y-107229816D01*
X149929816Y-107102262D01*
X150025789Y-106949522D01*
X150085368Y-106779255D01*
X150093671Y-106705565D01*
X150105565Y-106600003D01*
X150105565Y-106599996D01*
X150085369Y-106420750D01*
X150085368Y-106420745D01*
X150025789Y-106250478D01*
X150025188Y-106249522D01*
X149929815Y-106097737D01*
X149802262Y-105970184D01*
X149690559Y-105899996D01*
X161894435Y-105899996D01*
X161894435Y-105900003D01*
X161914630Y-106079249D01*
X161914631Y-106079254D01*
X161974211Y-106249523D01*
X162049969Y-106370090D01*
X162070184Y-106402262D01*
X162197738Y-106529816D01*
X162350478Y-106625789D01*
X162520745Y-106685368D01*
X162520750Y-106685369D01*
X162699996Y-106705565D01*
X162700000Y-106705565D01*
X162700004Y-106705565D01*
X162879249Y-106685369D01*
X162879252Y-106685368D01*
X162879255Y-106685368D01*
X163049522Y-106625789D01*
X163202262Y-106529816D01*
X163329816Y-106402262D01*
X163425789Y-106249522D01*
X163485368Y-106079255D01*
X163485369Y-106079249D01*
X163505565Y-105900003D01*
X163505565Y-105899996D01*
X163485369Y-105720750D01*
X163485368Y-105720745D01*
X163425788Y-105550476D01*
X163329815Y-105397737D01*
X163202262Y-105270184D01*
X163049523Y-105174211D01*
X162879254Y-105114631D01*
X162879249Y-105114630D01*
X162700004Y-105094435D01*
X162699996Y-105094435D01*
X162520750Y-105114630D01*
X162520745Y-105114631D01*
X162350476Y-105174211D01*
X162197737Y-105270184D01*
X162070184Y-105397737D01*
X161974211Y-105550476D01*
X161914631Y-105720745D01*
X161914630Y-105720750D01*
X161894435Y-105899996D01*
X149690559Y-105899996D01*
X149649523Y-105874211D01*
X149479254Y-105814631D01*
X149479249Y-105814630D01*
X149300004Y-105794435D01*
X149299996Y-105794435D01*
X149120750Y-105814630D01*
X149120745Y-105814631D01*
X148950476Y-105874211D01*
X148797737Y-105970184D01*
X148670184Y-106097737D01*
X148574211Y-106250476D01*
X148514631Y-106420745D01*
X148514630Y-106420750D01*
X148494435Y-106599996D01*
X148494435Y-106600003D01*
X148514630Y-106779249D01*
X148514631Y-106779254D01*
X148574211Y-106949523D01*
X148670184Y-107102262D01*
X148797738Y-107229816D01*
X148862496Y-107270506D01*
X148908787Y-107322841D01*
X148919435Y-107391894D01*
X148891060Y-107455743D01*
X148832670Y-107494115D01*
X148796524Y-107499500D01*
X137624500Y-107499500D01*
X137557461Y-107479815D01*
X137511706Y-107427011D01*
X137500500Y-107375500D01*
X137500500Y-101889983D01*
X138504500Y-101889983D01*
X138504500Y-103230001D01*
X138504501Y-103230018D01*
X138515000Y-103332796D01*
X138515001Y-103332799D01*
X138565558Y-103485368D01*
X138570186Y-103499334D01*
X138662288Y-103648656D01*
X138786344Y-103772712D01*
X138935666Y-103864814D01*
X138935668Y-103864814D01*
X138935669Y-103864815D01*
X138936348Y-103865132D01*
X138936735Y-103865473D01*
X138941813Y-103868605D01*
X138941277Y-103869472D01*
X138988787Y-103911304D01*
X139007939Y-103978498D01*
X138987723Y-104045379D01*
X138971625Y-104065195D01*
X138829640Y-104207180D01*
X138702843Y-104381700D01*
X138604909Y-104573908D01*
X138538245Y-104779077D01*
X138504500Y-104992133D01*
X138504500Y-105207866D01*
X138532614Y-105385368D01*
X138538246Y-105420926D01*
X138604908Y-105626089D01*
X138702843Y-105818299D01*
X138829641Y-105992821D01*
X138982179Y-106145359D01*
X139156701Y-106272157D01*
X139348911Y-106370092D01*
X139554074Y-106436754D01*
X139633973Y-106449408D01*
X139767134Y-106470500D01*
X139767139Y-106470500D01*
X140432866Y-106470500D01*
X140551230Y-106451752D01*
X140645926Y-106436754D01*
X140851089Y-106370092D01*
X141043299Y-106272157D01*
X141217821Y-106145359D01*
X141370359Y-105992821D01*
X141497157Y-105818299D01*
X141595092Y-105626089D01*
X141661754Y-105420926D01*
X141692023Y-105229815D01*
X141695500Y-105207866D01*
X141695500Y-104992133D01*
X141673002Y-104850095D01*
X141661754Y-104779074D01*
X141603568Y-104599996D01*
X166294435Y-104599996D01*
X166294435Y-104600003D01*
X166314630Y-104779249D01*
X166314631Y-104779254D01*
X166374211Y-104949523D01*
X166400985Y-104992133D01*
X166470184Y-105102262D01*
X166597738Y-105229816D01*
X166750478Y-105325789D01*
X166920745Y-105385368D01*
X166920750Y-105385369D01*
X167099996Y-105405565D01*
X167100000Y-105405565D01*
X167100004Y-105405565D01*
X167279249Y-105385369D01*
X167279252Y-105385368D01*
X167279255Y-105385368D01*
X167449522Y-105325789D01*
X167602262Y-105229816D01*
X167729816Y-105102262D01*
X167825789Y-104949522D01*
X167885368Y-104779255D01*
X167885388Y-104779077D01*
X167905565Y-104600003D01*
X167905565Y-104599996D01*
X167885369Y-104420750D01*
X167885368Y-104420745D01*
X167871706Y-104381701D01*
X167825789Y-104250478D01*
X167729816Y-104097738D01*
X167602262Y-103970184D01*
X167531858Y-103925946D01*
X167449523Y-103874211D01*
X167279254Y-103814631D01*
X167279249Y-103814630D01*
X167100004Y-103794435D01*
X167099996Y-103794435D01*
X166920750Y-103814630D01*
X166920745Y-103814631D01*
X166750476Y-103874211D01*
X166597737Y-103970184D01*
X166470184Y-104097737D01*
X166374211Y-104250476D01*
X166314631Y-104420745D01*
X166314630Y-104420750D01*
X166294435Y-104599996D01*
X141603568Y-104599996D01*
X141595092Y-104573911D01*
X141497157Y-104381701D01*
X141370359Y-104207179D01*
X141228375Y-104065195D01*
X141194890Y-104003872D01*
X141199874Y-103934180D01*
X141241746Y-103878247D01*
X141263657Y-103865129D01*
X141264322Y-103864817D01*
X141264334Y-103864814D01*
X141413656Y-103772712D01*
X141537712Y-103648656D01*
X141629814Y-103499334D01*
X141684999Y-103332797D01*
X141695500Y-103230009D01*
X141695500Y-102699996D01*
X149994435Y-102699996D01*
X149994435Y-102700003D01*
X150014630Y-102879249D01*
X150014631Y-102879254D01*
X150074211Y-103049523D01*
X150170184Y-103202262D01*
X150297738Y-103329816D01*
X150450478Y-103425789D01*
X150620745Y-103485368D01*
X150620750Y-103485369D01*
X150799996Y-103505565D01*
X150800000Y-103505565D01*
X150800004Y-103505565D01*
X150979249Y-103485369D01*
X150979252Y-103485368D01*
X150979255Y-103485368D01*
X151149522Y-103425789D01*
X151302262Y-103329816D01*
X151429816Y-103202262D01*
X151525789Y-103049522D01*
X151585368Y-102879255D01*
X151605565Y-102700000D01*
X151585368Y-102520745D01*
X151525789Y-102350478D01*
X151429816Y-102197738D01*
X151302262Y-102070184D01*
X151199422Y-102005565D01*
X151149523Y-101974211D01*
X150979254Y-101914631D01*
X150979249Y-101914630D01*
X150800004Y-101894435D01*
X150799996Y-101894435D01*
X150620750Y-101914630D01*
X150620745Y-101914631D01*
X150450476Y-101974211D01*
X150297737Y-102070184D01*
X150170184Y-102197737D01*
X150074211Y-102350476D01*
X150014631Y-102520745D01*
X150014630Y-102520750D01*
X149994435Y-102699996D01*
X141695500Y-102699996D01*
X141695499Y-101889992D01*
X141684999Y-101787203D01*
X141629814Y-101620666D01*
X141537712Y-101471344D01*
X141413656Y-101347288D01*
X141264334Y-101255186D01*
X141097797Y-101200001D01*
X141097795Y-101200000D01*
X140995010Y-101189500D01*
X139204998Y-101189500D01*
X139204981Y-101189501D01*
X139102203Y-101200000D01*
X139102200Y-101200001D01*
X138935668Y-101255185D01*
X138935663Y-101255187D01*
X138786342Y-101347289D01*
X138662289Y-101471342D01*
X138570187Y-101620663D01*
X138570185Y-101620668D01*
X138543148Y-101702262D01*
X138515001Y-101787203D01*
X138515001Y-101787204D01*
X138515000Y-101787204D01*
X138504500Y-101889983D01*
X137500500Y-101889983D01*
X137500500Y-100899996D01*
X147094435Y-100899996D01*
X147094435Y-100900003D01*
X147114630Y-101079249D01*
X147114631Y-101079254D01*
X147174211Y-101249523D01*
X147235642Y-101347289D01*
X147270184Y-101402262D01*
X147397738Y-101529816D01*
X147488080Y-101586582D01*
X147542324Y-101620666D01*
X147550478Y-101625789D01*
X147720745Y-101685368D01*
X147720750Y-101685369D01*
X147899996Y-101705565D01*
X147900000Y-101705565D01*
X147900004Y-101705565D01*
X148079249Y-101685369D01*
X148079252Y-101685368D01*
X148079255Y-101685368D01*
X148249522Y-101625789D01*
X148402262Y-101529816D01*
X148529816Y-101402262D01*
X148625789Y-101249522D01*
X148685368Y-101079255D01*
X148691960Y-101020750D01*
X148705565Y-100900003D01*
X148705565Y-100899996D01*
X148685369Y-100720750D01*
X148685368Y-100720745D01*
X148643116Y-100599996D01*
X150084935Y-100599996D01*
X150084935Y-100600003D01*
X150105130Y-100779249D01*
X150105131Y-100779254D01*
X150164711Y-100949523D01*
X150246224Y-101079249D01*
X150260684Y-101102262D01*
X150388238Y-101229816D01*
X150540978Y-101325789D01*
X150693758Y-101379249D01*
X150711245Y-101385368D01*
X150711250Y-101385369D01*
X150890496Y-101405565D01*
X150890500Y-101405565D01*
X150890504Y-101405565D01*
X151069749Y-101385369D01*
X151069752Y-101385368D01*
X151069755Y-101385368D01*
X151240022Y-101325789D01*
X151392762Y-101229816D01*
X151422582Y-101199996D01*
X170794435Y-101199996D01*
X170794435Y-101200003D01*
X170814630Y-101379249D01*
X170814631Y-101379254D01*
X170874211Y-101549523D01*
X170959569Y-101685368D01*
X170970184Y-101702262D01*
X171097738Y-101829816D01*
X171188080Y-101886582D01*
X171232721Y-101914632D01*
X171250478Y-101925789D01*
X171388860Y-101974211D01*
X171420745Y-101985368D01*
X171420750Y-101985369D01*
X171599996Y-102005565D01*
X171600000Y-102005565D01*
X171600004Y-102005565D01*
X171779249Y-101985369D01*
X171779252Y-101985368D01*
X171779255Y-101985368D01*
X171949522Y-101925789D01*
X172102262Y-101829816D01*
X172229816Y-101702262D01*
X172325789Y-101549522D01*
X172385368Y-101379255D01*
X172391392Y-101325789D01*
X172405565Y-101200003D01*
X172405565Y-101199996D01*
X172385369Y-101020750D01*
X172385368Y-101020745D01*
X172360446Y-100949522D01*
X172325789Y-100850478D01*
X172229816Y-100697738D01*
X172102262Y-100570184D01*
X172070897Y-100550476D01*
X171949523Y-100474211D01*
X171779254Y-100414631D01*
X171779249Y-100414630D01*
X171600004Y-100394435D01*
X171599996Y-100394435D01*
X171420750Y-100414630D01*
X171420745Y-100414631D01*
X171250476Y-100474211D01*
X171097737Y-100570184D01*
X170970184Y-100697737D01*
X170874211Y-100850476D01*
X170814631Y-101020745D01*
X170814630Y-101020750D01*
X170794435Y-101199996D01*
X151422582Y-101199996D01*
X151520316Y-101102262D01*
X151616289Y-100949522D01*
X151675868Y-100779255D01*
X151682460Y-100720750D01*
X151696065Y-100600003D01*
X151696065Y-100599996D01*
X151675869Y-100420750D01*
X151675868Y-100420745D01*
X151673728Y-100414630D01*
X151616289Y-100250478D01*
X151520316Y-100097738D01*
X151431503Y-100008925D01*
X151398018Y-99947602D01*
X151403002Y-99877910D01*
X151444874Y-99821977D01*
X151510338Y-99797560D01*
X151533067Y-99798024D01*
X151599996Y-99805565D01*
X151600000Y-99805565D01*
X151600004Y-99805565D01*
X151779249Y-99785369D01*
X151779252Y-99785368D01*
X151779255Y-99785368D01*
X151949522Y-99725789D01*
X152102262Y-99629816D01*
X152229816Y-99502262D01*
X152294074Y-99399996D01*
X156794435Y-99399996D01*
X156794435Y-99400003D01*
X156814630Y-99579249D01*
X156814631Y-99579254D01*
X156874211Y-99749523D01*
X156937045Y-99849522D01*
X156970184Y-99902262D01*
X157097738Y-100029816D01*
X157188080Y-100086582D01*
X157232721Y-100114632D01*
X157250478Y-100125789D01*
X157261984Y-100129815D01*
X157420745Y-100185368D01*
X157420750Y-100185369D01*
X157599996Y-100205565D01*
X157600000Y-100205565D01*
X157600004Y-100205565D01*
X157779249Y-100185369D01*
X157779252Y-100185368D01*
X157779255Y-100185368D01*
X157949522Y-100125789D01*
X158102262Y-100029816D01*
X158229816Y-99902262D01*
X158325789Y-99749522D01*
X158385368Y-99579255D01*
X158394043Y-99502262D01*
X158394298Y-99499996D01*
X165494435Y-99499996D01*
X165494435Y-99500003D01*
X165514630Y-99679249D01*
X165514631Y-99679254D01*
X165574211Y-99849523D01*
X165635839Y-99947602D01*
X165670184Y-100002262D01*
X165797738Y-100129816D01*
X165950478Y-100225789D01*
X166077352Y-100270184D01*
X166120745Y-100285368D01*
X166120750Y-100285369D01*
X166299996Y-100305565D01*
X166300000Y-100305565D01*
X166300004Y-100305565D01*
X166479249Y-100285369D01*
X166479252Y-100285368D01*
X166479255Y-100285368D01*
X166649522Y-100225789D01*
X166802262Y-100129816D01*
X166929816Y-100002262D01*
X167025789Y-99849522D01*
X167085368Y-99679255D01*
X167088394Y-99652397D01*
X167105565Y-99500003D01*
X167105565Y-99499996D01*
X167085369Y-99320750D01*
X167085368Y-99320745D01*
X167050376Y-99220745D01*
X167025789Y-99150478D01*
X166929816Y-98997738D01*
X166802262Y-98870184D01*
X166649523Y-98774211D01*
X166479254Y-98714631D01*
X166479249Y-98714630D01*
X166300004Y-98694435D01*
X166299996Y-98694435D01*
X166120750Y-98714630D01*
X166120745Y-98714631D01*
X165950476Y-98774211D01*
X165797737Y-98870184D01*
X165670184Y-98997737D01*
X165574211Y-99150476D01*
X165514631Y-99320745D01*
X165514630Y-99320750D01*
X165494435Y-99499996D01*
X158394298Y-99499996D01*
X158405565Y-99400003D01*
X158405565Y-99399996D01*
X158385369Y-99220750D01*
X158385368Y-99220745D01*
X158370848Y-99179249D01*
X158325789Y-99050478D01*
X158229816Y-98897738D01*
X158102262Y-98770184D01*
X158013852Y-98714632D01*
X157949523Y-98674211D01*
X157779254Y-98614631D01*
X157779249Y-98614630D01*
X157600004Y-98594435D01*
X157599996Y-98594435D01*
X157420750Y-98614630D01*
X157420745Y-98614631D01*
X157250476Y-98674211D01*
X157097737Y-98770184D01*
X156970184Y-98897737D01*
X156874211Y-99050476D01*
X156814631Y-99220745D01*
X156814630Y-99220750D01*
X156794435Y-99399996D01*
X152294074Y-99399996D01*
X152325789Y-99349522D01*
X152385368Y-99179255D01*
X152385369Y-99179249D01*
X152405565Y-99000003D01*
X152405565Y-98999996D01*
X152385369Y-98820750D01*
X152385368Y-98820745D01*
X152341170Y-98694435D01*
X152325789Y-98650478D01*
X152303265Y-98614632D01*
X152229815Y-98497737D01*
X152102262Y-98370184D01*
X151949523Y-98274211D01*
X151779254Y-98214631D01*
X151779249Y-98214630D01*
X151600004Y-98194435D01*
X151599996Y-98194435D01*
X151420750Y-98214630D01*
X151420745Y-98214631D01*
X151250476Y-98274211D01*
X151097737Y-98370184D01*
X150970184Y-98497737D01*
X150874211Y-98650476D01*
X150814631Y-98820745D01*
X150814630Y-98820750D01*
X150794435Y-98999996D01*
X150794435Y-99000003D01*
X150814630Y-99179249D01*
X150814631Y-99179254D01*
X150874211Y-99349523D01*
X150970184Y-99502262D01*
X151058996Y-99591074D01*
X151092481Y-99652397D01*
X151087497Y-99722089D01*
X151045625Y-99778022D01*
X150980161Y-99802439D01*
X150957433Y-99801976D01*
X150918235Y-99797560D01*
X150890500Y-99794435D01*
X150890498Y-99794435D01*
X150890497Y-99794435D01*
X150890496Y-99794435D01*
X150711250Y-99814630D01*
X150711245Y-99814631D01*
X150540976Y-99874211D01*
X150388237Y-99970184D01*
X150260684Y-100097737D01*
X150164711Y-100250476D01*
X150105131Y-100420745D01*
X150105130Y-100420750D01*
X150084935Y-100599996D01*
X148643116Y-100599996D01*
X148625789Y-100550478D01*
X148529816Y-100397738D01*
X148402262Y-100270184D01*
X148331608Y-100225789D01*
X148249523Y-100174211D01*
X148079254Y-100114631D01*
X148079249Y-100114630D01*
X147900004Y-100094435D01*
X147899996Y-100094435D01*
X147720750Y-100114630D01*
X147720745Y-100114631D01*
X147550476Y-100174211D01*
X147397737Y-100270184D01*
X147270184Y-100397737D01*
X147174211Y-100550476D01*
X147114631Y-100720745D01*
X147114630Y-100720750D01*
X147094435Y-100899996D01*
X137500500Y-100899996D01*
X137500500Y-97168995D01*
X177199499Y-97168995D01*
X177226418Y-97304322D01*
X177226421Y-97304332D01*
X177279221Y-97431804D01*
X177279228Y-97431817D01*
X177355885Y-97546541D01*
X177355888Y-97546545D01*
X177453454Y-97644111D01*
X177453458Y-97644114D01*
X177568182Y-97720771D01*
X177568195Y-97720778D01*
X177695667Y-97773578D01*
X177695672Y-97773580D01*
X177695676Y-97773580D01*
X177695677Y-97773581D01*
X177831004Y-97800500D01*
X177831007Y-97800500D01*
X177968995Y-97800500D01*
X178060041Y-97782389D01*
X178104328Y-97773580D01*
X178231811Y-97720775D01*
X178346542Y-97644114D01*
X178444114Y-97546542D01*
X178520775Y-97431811D01*
X178573580Y-97304328D01*
X178600500Y-97168993D01*
X178600500Y-97031007D01*
X178600500Y-97031004D01*
X178573581Y-96895677D01*
X178573580Y-96895676D01*
X178573580Y-96895672D01*
X178573578Y-96895667D01*
X178520778Y-96768195D01*
X178520771Y-96768182D01*
X178444114Y-96653458D01*
X178444111Y-96653454D01*
X178346545Y-96555888D01*
X178346541Y-96555885D01*
X178231817Y-96479228D01*
X178231804Y-96479221D01*
X178104332Y-96426421D01*
X178104322Y-96426418D01*
X177968995Y-96399500D01*
X177968993Y-96399500D01*
X177831007Y-96399500D01*
X177831005Y-96399500D01*
X177695677Y-96426418D01*
X177695667Y-96426421D01*
X177568195Y-96479221D01*
X177568182Y-96479228D01*
X177453458Y-96555885D01*
X177453454Y-96555888D01*
X177355888Y-96653454D01*
X177355885Y-96653458D01*
X177279228Y-96768182D01*
X177279221Y-96768195D01*
X177226421Y-96895667D01*
X177226418Y-96895677D01*
X177199500Y-97031004D01*
X177199500Y-97031007D01*
X177199500Y-97168993D01*
X177199500Y-97168995D01*
X177199499Y-97168995D01*
X137500500Y-97168995D01*
X137500500Y-95499996D01*
X156394435Y-95499996D01*
X156394435Y-95500003D01*
X156414630Y-95679249D01*
X156414631Y-95679254D01*
X156474211Y-95849523D01*
X156570184Y-96002262D01*
X156697738Y-96129816D01*
X156850478Y-96225789D01*
X157020745Y-96285368D01*
X157020750Y-96285369D01*
X157199996Y-96305565D01*
X157200000Y-96305565D01*
X157200004Y-96305565D01*
X157379249Y-96285369D01*
X157379252Y-96285368D01*
X157379255Y-96285368D01*
X157549522Y-96225789D01*
X157702262Y-96129816D01*
X157829816Y-96002262D01*
X157925789Y-95849522D01*
X157985368Y-95679255D01*
X158005565Y-95500000D01*
X157985368Y-95320745D01*
X157925789Y-95150478D01*
X157829816Y-94997738D01*
X157702262Y-94870184D01*
X157549523Y-94774211D01*
X157379254Y-94714631D01*
X157379249Y-94714630D01*
X157200004Y-94694435D01*
X157199996Y-94694435D01*
X157020750Y-94714630D01*
X157020745Y-94714631D01*
X156850476Y-94774211D01*
X156697737Y-94870184D01*
X156570184Y-94997737D01*
X156474211Y-95150476D01*
X156414631Y-95320745D01*
X156414630Y-95320750D01*
X156394435Y-95499996D01*
X137500500Y-95499996D01*
X137500500Y-92899996D01*
X148594435Y-92899996D01*
X148594435Y-92900003D01*
X148614630Y-93079249D01*
X148614631Y-93079254D01*
X148674211Y-93249523D01*
X148752558Y-93374211D01*
X148770184Y-93402262D01*
X148897738Y-93529816D01*
X148976410Y-93579249D01*
X149005833Y-93597737D01*
X149050478Y-93625789D01*
X149210691Y-93681850D01*
X149220745Y-93685368D01*
X149220750Y-93685369D01*
X149399996Y-93705565D01*
X149400000Y-93705565D01*
X149400004Y-93705565D01*
X149579249Y-93685369D01*
X149579252Y-93685368D01*
X149579255Y-93685368D01*
X149749522Y-93625789D01*
X149902262Y-93529816D01*
X150029816Y-93402262D01*
X150125789Y-93249522D01*
X150185368Y-93079255D01*
X150185369Y-93079249D01*
X150205565Y-92900003D01*
X150205565Y-92899996D01*
X150185369Y-92720750D01*
X150185368Y-92720745D01*
X150184138Y-92717231D01*
X150125789Y-92550478D01*
X150125188Y-92549522D01*
X150029815Y-92397737D01*
X149902262Y-92270184D01*
X149790559Y-92199996D01*
X152394435Y-92199996D01*
X152394435Y-92200003D01*
X152414630Y-92379249D01*
X152414631Y-92379254D01*
X152474211Y-92549523D01*
X152525411Y-92631007D01*
X152570184Y-92702262D01*
X152697738Y-92829816D01*
X152850478Y-92925789D01*
X152975006Y-92969363D01*
X152989843Y-92974555D01*
X153046619Y-93015277D01*
X153072366Y-93080230D01*
X153058910Y-93148792D01*
X153014860Y-93196591D01*
X152897737Y-93270184D01*
X152770184Y-93397737D01*
X152674211Y-93550476D01*
X152614631Y-93720745D01*
X152614630Y-93720750D01*
X152594435Y-93899996D01*
X152594435Y-93900003D01*
X152614630Y-94079249D01*
X152614631Y-94079254D01*
X152674211Y-94249523D01*
X152770184Y-94402262D01*
X152897738Y-94529816D01*
X153050478Y-94625789D01*
X153220745Y-94685368D01*
X153220750Y-94685369D01*
X153399996Y-94705565D01*
X153400000Y-94705565D01*
X153400004Y-94705565D01*
X153579249Y-94685369D01*
X153579252Y-94685368D01*
X153579255Y-94685368D01*
X153749522Y-94625789D01*
X153902262Y-94529816D01*
X153936425Y-94495653D01*
X167501920Y-94495653D01*
X167501920Y-94495660D01*
X167522115Y-94674906D01*
X167522116Y-94674911D01*
X167581696Y-94845180D01*
X167606948Y-94885368D01*
X167677669Y-94997919D01*
X167805223Y-95125473D01*
X167957963Y-95221446D01*
X168128230Y-95281025D01*
X168128235Y-95281026D01*
X168307481Y-95301222D01*
X168307485Y-95301222D01*
X168307489Y-95301222D01*
X168486734Y-95281026D01*
X168486737Y-95281025D01*
X168486740Y-95281025D01*
X168657007Y-95221446D01*
X168809747Y-95125473D01*
X168937301Y-94997919D01*
X169033274Y-94845179D01*
X169092853Y-94674912D01*
X169101039Y-94602262D01*
X169113050Y-94495660D01*
X169113050Y-94495653D01*
X169092854Y-94316407D01*
X169092853Y-94316402D01*
X169054069Y-94205565D01*
X169033274Y-94146135D01*
X169024654Y-94132417D01*
X169004283Y-94099996D01*
X172894435Y-94099996D01*
X172894435Y-94100003D01*
X172914630Y-94279249D01*
X172914631Y-94279254D01*
X172974211Y-94449523D01*
X173003201Y-94495660D01*
X173070184Y-94602262D01*
X173197738Y-94729816D01*
X173350478Y-94825789D01*
X173477352Y-94870184D01*
X173520745Y-94885368D01*
X173520750Y-94885369D01*
X173699996Y-94905565D01*
X173700000Y-94905565D01*
X173700004Y-94905565D01*
X173879249Y-94885369D01*
X173879252Y-94885368D01*
X173879255Y-94885368D01*
X174049522Y-94825789D01*
X174202262Y-94729816D01*
X174329816Y-94602262D01*
X174425789Y-94449522D01*
X174485368Y-94279255D01*
X174493671Y-94205565D01*
X174505565Y-94100003D01*
X174505565Y-94099996D01*
X174485369Y-93920750D01*
X174485368Y-93920745D01*
X174425789Y-93750478D01*
X174425188Y-93749522D01*
X174382667Y-93681850D01*
X174329816Y-93597738D01*
X174202262Y-93470184D01*
X174049523Y-93374211D01*
X173879254Y-93314631D01*
X173879249Y-93314630D01*
X173700004Y-93294435D01*
X173699996Y-93294435D01*
X173520750Y-93314630D01*
X173520745Y-93314631D01*
X173350476Y-93374211D01*
X173197737Y-93470184D01*
X173070184Y-93597737D01*
X172974211Y-93750476D01*
X172914631Y-93920745D01*
X172914630Y-93920750D01*
X172894435Y-94099996D01*
X169004283Y-94099996D01*
X168937300Y-93993394D01*
X168809747Y-93865841D01*
X168657008Y-93769868D01*
X168486739Y-93710288D01*
X168486734Y-93710287D01*
X168307489Y-93690092D01*
X168307481Y-93690092D01*
X168128235Y-93710287D01*
X168128230Y-93710288D01*
X167957961Y-93769868D01*
X167805222Y-93865841D01*
X167677669Y-93993394D01*
X167581696Y-94146133D01*
X167522116Y-94316402D01*
X167522115Y-94316407D01*
X167501920Y-94495653D01*
X153936425Y-94495653D01*
X154029816Y-94402262D01*
X154125789Y-94249522D01*
X154185368Y-94079255D01*
X154185369Y-94079249D01*
X154205565Y-93900003D01*
X154205565Y-93899996D01*
X154185369Y-93720750D01*
X154185368Y-93720745D01*
X154142326Y-93597738D01*
X154125789Y-93550478D01*
X154031235Y-93399996D01*
X158494435Y-93399996D01*
X158494435Y-93400003D01*
X158514630Y-93579249D01*
X158514631Y-93579254D01*
X158574211Y-93749523D01*
X158638680Y-93852124D01*
X158670184Y-93902262D01*
X158797738Y-94029816D01*
X158950478Y-94125789D01*
X158969420Y-94132417D01*
X159120745Y-94185368D01*
X159120750Y-94185369D01*
X159299996Y-94205565D01*
X159300000Y-94205565D01*
X159300004Y-94205565D01*
X159479249Y-94185369D01*
X159479252Y-94185368D01*
X159479255Y-94185368D01*
X159649522Y-94125789D01*
X159802262Y-94029816D01*
X159929816Y-93902262D01*
X160025789Y-93749522D01*
X160085368Y-93579255D01*
X160085369Y-93579249D01*
X160094006Y-93502597D01*
X161730935Y-93502597D01*
X161730935Y-93502604D01*
X161751130Y-93681850D01*
X161751131Y-93681855D01*
X161810711Y-93852124D01*
X161899478Y-93993395D01*
X161906684Y-94004863D01*
X162034238Y-94132417D01*
X162186978Y-94228390D01*
X162247370Y-94249522D01*
X162357245Y-94287969D01*
X162357250Y-94287970D01*
X162536496Y-94308166D01*
X162536500Y-94308166D01*
X162536504Y-94308166D01*
X162715749Y-94287970D01*
X162715752Y-94287969D01*
X162715755Y-94287969D01*
X162886022Y-94228390D01*
X163038762Y-94132417D01*
X163166316Y-94004863D01*
X163262289Y-93852123D01*
X163321868Y-93681856D01*
X163321869Y-93681850D01*
X163342065Y-93502604D01*
X163342065Y-93502597D01*
X163321869Y-93323351D01*
X163321868Y-93323346D01*
X163296036Y-93249522D01*
X163262289Y-93153079D01*
X163259595Y-93148792D01*
X163186087Y-93031804D01*
X163166316Y-93000339D01*
X163038762Y-92872785D01*
X162886023Y-92776812D01*
X162863683Y-92768995D01*
X177199499Y-92768995D01*
X177226418Y-92904322D01*
X177226421Y-92904332D01*
X177279221Y-93031804D01*
X177279228Y-93031817D01*
X177355885Y-93146541D01*
X177355888Y-93146545D01*
X177453454Y-93244111D01*
X177453458Y-93244114D01*
X177568182Y-93320771D01*
X177568195Y-93320778D01*
X177695667Y-93373578D01*
X177695672Y-93373580D01*
X177695676Y-93373580D01*
X177695677Y-93373581D01*
X177831004Y-93400500D01*
X177831007Y-93400500D01*
X177968995Y-93400500D01*
X178060041Y-93382389D01*
X178104328Y-93373580D01*
X178231811Y-93320775D01*
X178346542Y-93244114D01*
X178444114Y-93146542D01*
X178520775Y-93031811D01*
X178573580Y-92904328D01*
X178588401Y-92829818D01*
X178600500Y-92768995D01*
X178600500Y-92631004D01*
X178573581Y-92495677D01*
X178573580Y-92495676D01*
X178573580Y-92495672D01*
X178533015Y-92397738D01*
X178520778Y-92368195D01*
X178520771Y-92368182D01*
X178444114Y-92253458D01*
X178444111Y-92253454D01*
X178346545Y-92155888D01*
X178346541Y-92155885D01*
X178231817Y-92079228D01*
X178231804Y-92079221D01*
X178104332Y-92026421D01*
X178104322Y-92026418D01*
X177968995Y-91999500D01*
X177968993Y-91999500D01*
X177831007Y-91999500D01*
X177831005Y-91999500D01*
X177695677Y-92026418D01*
X177695667Y-92026421D01*
X177568195Y-92079221D01*
X177568182Y-92079228D01*
X177453458Y-92155885D01*
X177453454Y-92155888D01*
X177355888Y-92253454D01*
X177355885Y-92253458D01*
X177279228Y-92368182D01*
X177279221Y-92368195D01*
X177226421Y-92495667D01*
X177226418Y-92495677D01*
X177199500Y-92631004D01*
X177199500Y-92631007D01*
X177199500Y-92768993D01*
X177199500Y-92768995D01*
X177199499Y-92768995D01*
X162863683Y-92768995D01*
X162715754Y-92717232D01*
X162715749Y-92717231D01*
X162536504Y-92697036D01*
X162536496Y-92697036D01*
X162357250Y-92717231D01*
X162357245Y-92717232D01*
X162186976Y-92776812D01*
X162034237Y-92872785D01*
X161906684Y-93000338D01*
X161810711Y-93153077D01*
X161751131Y-93323346D01*
X161751130Y-93323351D01*
X161730935Y-93502597D01*
X160094006Y-93502597D01*
X160105565Y-93400003D01*
X160105565Y-93399996D01*
X160085369Y-93220750D01*
X160085368Y-93220745D01*
X160061690Y-93153077D01*
X160025789Y-93050478D01*
X160014055Y-93031804D01*
X159963413Y-92951207D01*
X159929816Y-92897738D01*
X159802262Y-92770184D01*
X159800367Y-92768993D01*
X159649523Y-92674211D01*
X159479254Y-92614631D01*
X159479249Y-92614630D01*
X159300004Y-92594435D01*
X159299996Y-92594435D01*
X159120750Y-92614630D01*
X159120745Y-92614631D01*
X158950476Y-92674211D01*
X158797737Y-92770184D01*
X158670184Y-92897737D01*
X158574211Y-93050476D01*
X158514631Y-93220745D01*
X158514630Y-93220750D01*
X158494435Y-93399996D01*
X154031235Y-93399996D01*
X154029816Y-93397738D01*
X153902262Y-93270184D01*
X153749522Y-93174211D01*
X153749519Y-93174209D01*
X153610156Y-93125443D01*
X153553380Y-93084721D01*
X153527633Y-93019769D01*
X153541089Y-92951207D01*
X153585138Y-92903409D01*
X153702262Y-92829816D01*
X153829816Y-92702262D01*
X153925789Y-92549522D01*
X153985368Y-92379255D01*
X153986616Y-92368182D01*
X154005565Y-92200003D01*
X154005565Y-92199996D01*
X153985369Y-92020750D01*
X153985368Y-92020745D01*
X153925788Y-91850476D01*
X153829815Y-91697737D01*
X153702262Y-91570184D01*
X153549523Y-91474211D01*
X153379254Y-91414631D01*
X153379249Y-91414630D01*
X153200004Y-91394435D01*
X153199996Y-91394435D01*
X153020750Y-91414630D01*
X153020745Y-91414631D01*
X152850476Y-91474211D01*
X152697737Y-91570184D01*
X152570184Y-91697737D01*
X152474211Y-91850476D01*
X152414631Y-92020745D01*
X152414630Y-92020750D01*
X152394435Y-92199996D01*
X149790559Y-92199996D01*
X149749523Y-92174211D01*
X149579254Y-92114631D01*
X149579249Y-92114630D01*
X149400004Y-92094435D01*
X149399996Y-92094435D01*
X149220750Y-92114630D01*
X149220745Y-92114631D01*
X149050476Y-92174211D01*
X148897737Y-92270184D01*
X148770184Y-92397737D01*
X148674211Y-92550476D01*
X148614631Y-92720745D01*
X148614630Y-92720750D01*
X148594435Y-92899996D01*
X137500500Y-92899996D01*
X137500500Y-86959983D01*
X138484500Y-86959983D01*
X138484500Y-88300001D01*
X138484501Y-88300018D01*
X138495000Y-88402796D01*
X138495001Y-88402799D01*
X138510484Y-88449522D01*
X138550186Y-88569334D01*
X138642288Y-88718656D01*
X138766344Y-88842712D01*
X138915666Y-88934814D01*
X138915668Y-88934814D01*
X138915669Y-88934815D01*
X138916348Y-88935132D01*
X138916735Y-88935473D01*
X138921813Y-88938605D01*
X138921277Y-88939472D01*
X138968787Y-88981304D01*
X138987939Y-89048498D01*
X138967723Y-89115379D01*
X138951625Y-89135195D01*
X138809640Y-89277180D01*
X138682843Y-89451700D01*
X138584909Y-89643908D01*
X138518245Y-89849077D01*
X138484500Y-90062133D01*
X138484500Y-90277866D01*
X138518245Y-90490922D01*
X138518246Y-90490926D01*
X138584908Y-90696089D01*
X138682843Y-90888299D01*
X138809641Y-91062821D01*
X138962179Y-91215359D01*
X139136701Y-91342157D01*
X139328911Y-91440092D01*
X139534074Y-91506754D01*
X139613973Y-91519408D01*
X139747134Y-91540500D01*
X139747139Y-91540500D01*
X140412866Y-91540500D01*
X140531230Y-91521752D01*
X140625926Y-91506754D01*
X140831089Y-91440092D01*
X141023299Y-91342157D01*
X141197821Y-91215359D01*
X141350359Y-91062821D01*
X141477157Y-90888299D01*
X141575092Y-90696089D01*
X141641754Y-90490926D01*
X141656752Y-90396230D01*
X141675500Y-90277866D01*
X141675500Y-90062133D01*
X141641754Y-89849077D01*
X141641754Y-89849074D01*
X141575092Y-89643911D01*
X141477157Y-89451701D01*
X141439591Y-89399996D01*
X162294435Y-89399996D01*
X162294435Y-89400003D01*
X162314630Y-89579249D01*
X162314631Y-89579254D01*
X162374211Y-89749523D01*
X162470184Y-89902262D01*
X162597738Y-90029816D01*
X162750478Y-90125789D01*
X162920745Y-90185368D01*
X162920750Y-90185369D01*
X163099996Y-90205565D01*
X163100000Y-90205565D01*
X163100004Y-90205565D01*
X163279249Y-90185369D01*
X163279252Y-90185368D01*
X163279255Y-90185368D01*
X163449522Y-90125789D01*
X163602262Y-90029816D01*
X163729816Y-89902262D01*
X163825789Y-89749522D01*
X163885368Y-89579255D01*
X163905565Y-89400000D01*
X163891726Y-89277177D01*
X163885369Y-89220750D01*
X163885368Y-89220745D01*
X163825788Y-89050476D01*
X163729815Y-88897737D01*
X163602262Y-88770184D01*
X163449523Y-88674211D01*
X163279254Y-88614631D01*
X163279249Y-88614630D01*
X163100004Y-88594435D01*
X163099996Y-88594435D01*
X162920750Y-88614630D01*
X162920745Y-88614631D01*
X162750476Y-88674211D01*
X162597737Y-88770184D01*
X162470184Y-88897737D01*
X162374211Y-89050476D01*
X162314631Y-89220745D01*
X162314630Y-89220750D01*
X162294435Y-89399996D01*
X141439591Y-89399996D01*
X141350359Y-89277179D01*
X141208375Y-89135195D01*
X141174890Y-89073872D01*
X141179874Y-89004180D01*
X141221746Y-88948247D01*
X141243657Y-88935129D01*
X141244322Y-88934817D01*
X141244334Y-88934814D01*
X141393656Y-88842712D01*
X141517712Y-88718656D01*
X141609814Y-88569334D01*
X141664999Y-88402797D01*
X141675500Y-88300009D01*
X141675500Y-88099996D01*
X167094435Y-88099996D01*
X167094435Y-88100003D01*
X167114630Y-88279249D01*
X167114631Y-88279254D01*
X167174211Y-88449523D01*
X167249492Y-88569331D01*
X167270184Y-88602262D01*
X167397738Y-88729816D01*
X167550478Y-88825789D01*
X167720745Y-88885368D01*
X167720750Y-88885369D01*
X167899996Y-88905565D01*
X167900000Y-88905565D01*
X167900004Y-88905565D01*
X168079249Y-88885369D01*
X168079252Y-88885368D01*
X168079255Y-88885368D01*
X168249522Y-88825789D01*
X168402262Y-88729816D01*
X168529816Y-88602262D01*
X168625789Y-88449522D01*
X168685368Y-88279255D01*
X168705565Y-88100000D01*
X168692649Y-87985369D01*
X168685369Y-87920750D01*
X168685368Y-87920745D01*
X168625789Y-87750478D01*
X168529816Y-87597738D01*
X168402262Y-87470184D01*
X168249523Y-87374211D01*
X168079254Y-87314631D01*
X168079249Y-87314630D01*
X167900004Y-87294435D01*
X167899996Y-87294435D01*
X167720750Y-87314630D01*
X167720745Y-87314631D01*
X167550476Y-87374211D01*
X167397737Y-87470184D01*
X167270184Y-87597737D01*
X167174211Y-87750476D01*
X167114631Y-87920745D01*
X167114630Y-87920750D01*
X167094435Y-88099996D01*
X141675500Y-88099996D01*
X141675499Y-87199996D01*
X146994435Y-87199996D01*
X146994435Y-87200003D01*
X147014630Y-87379249D01*
X147014631Y-87379254D01*
X147074211Y-87549523D01*
X147104507Y-87597738D01*
X147170184Y-87702262D01*
X147297738Y-87829816D01*
X147388080Y-87886582D01*
X147442450Y-87920745D01*
X147450478Y-87925789D01*
X147620745Y-87985368D01*
X147620750Y-87985369D01*
X147799996Y-88005565D01*
X147800000Y-88005565D01*
X147800004Y-88005565D01*
X147979249Y-87985369D01*
X147979252Y-87985368D01*
X147979255Y-87985368D01*
X148149522Y-87925789D01*
X148302262Y-87829816D01*
X148429816Y-87702262D01*
X148525789Y-87549522D01*
X148585368Y-87379255D01*
X148585369Y-87379249D01*
X148605565Y-87200003D01*
X148605565Y-87199996D01*
X148585369Y-87020750D01*
X148585368Y-87020745D01*
X148564112Y-86959998D01*
X148525789Y-86850478D01*
X148429816Y-86697738D01*
X148302262Y-86570184D01*
X148149523Y-86474211D01*
X147979254Y-86414631D01*
X147979249Y-86414630D01*
X147800004Y-86394435D01*
X147799996Y-86394435D01*
X147620750Y-86414630D01*
X147620745Y-86414631D01*
X147450476Y-86474211D01*
X147297737Y-86570184D01*
X147170184Y-86697737D01*
X147074211Y-86850476D01*
X147014631Y-87020745D01*
X147014630Y-87020750D01*
X146994435Y-87199996D01*
X141675499Y-87199996D01*
X141675499Y-86959992D01*
X141664999Y-86857203D01*
X141609814Y-86690666D01*
X141517712Y-86541344D01*
X141393656Y-86417288D01*
X141244334Y-86325186D01*
X141077797Y-86270001D01*
X141077795Y-86270000D01*
X140975010Y-86259500D01*
X139184998Y-86259500D01*
X139184981Y-86259501D01*
X139082203Y-86270000D01*
X139082200Y-86270001D01*
X138915668Y-86325185D01*
X138915663Y-86325187D01*
X138766342Y-86417289D01*
X138642289Y-86541342D01*
X138550187Y-86690663D01*
X138550185Y-86690668D01*
X138522349Y-86774670D01*
X138495001Y-86857203D01*
X138495001Y-86857204D01*
X138495000Y-86857204D01*
X138484500Y-86959983D01*
X137500500Y-86959983D01*
X137500500Y-85624500D01*
X137520185Y-85557461D01*
X137572989Y-85511706D01*
X137624500Y-85500500D01*
X183375500Y-85500500D01*
X183442539Y-85520185D01*
G37*
%TD.AperFunction*%
%TD*%
M02*
