%TF.GenerationSoftware,KiCad,Pcbnew,8.0.6*%
%TF.CreationDate,2025-02-16T10:37:52+01:00*%
%TF.ProjectId,USBTempLogger,55534254-656d-4704-9c6f-676765722e6b,rev?*%
%TF.SameCoordinates,Original*%
%TF.FileFunction,Legend,Top*%
%TF.FilePolarity,Positive*%
%FSLAX46Y46*%
G04 Gerber Fmt 4.6, Leading zero omitted, Abs format (unit mm)*
G04 Created by KiCad (PCBNEW 8.0.6) date 2025-02-16 10:37:52*
%MOMM*%
%LPD*%
G01*
G04 APERTURE LIST*
%ADD10C,0.150000*%
%ADD11C,0.254000*%
%ADD12C,0.120000*%
%ADD13C,0.200000*%
G04 APERTURE END LIST*
D10*
X165983333Y-86679580D02*
X165935714Y-86727200D01*
X165935714Y-86727200D02*
X165792857Y-86774819D01*
X165792857Y-86774819D02*
X165697619Y-86774819D01*
X165697619Y-86774819D02*
X165554762Y-86727200D01*
X165554762Y-86727200D02*
X165459524Y-86631961D01*
X165459524Y-86631961D02*
X165411905Y-86536723D01*
X165411905Y-86536723D02*
X165364286Y-86346247D01*
X165364286Y-86346247D02*
X165364286Y-86203390D01*
X165364286Y-86203390D02*
X165411905Y-86012914D01*
X165411905Y-86012914D02*
X165459524Y-85917676D01*
X165459524Y-85917676D02*
X165554762Y-85822438D01*
X165554762Y-85822438D02*
X165697619Y-85774819D01*
X165697619Y-85774819D02*
X165792857Y-85774819D01*
X165792857Y-85774819D02*
X165935714Y-85822438D01*
X165935714Y-85822438D02*
X165983333Y-85870057D01*
X166840476Y-86108152D02*
X166840476Y-86774819D01*
X166602381Y-85727200D02*
X166364286Y-86441485D01*
X166364286Y-86441485D02*
X166983333Y-86441485D01*
X147483333Y-91479580D02*
X147435714Y-91527200D01*
X147435714Y-91527200D02*
X147292857Y-91574819D01*
X147292857Y-91574819D02*
X147197619Y-91574819D01*
X147197619Y-91574819D02*
X147054762Y-91527200D01*
X147054762Y-91527200D02*
X146959524Y-91431961D01*
X146959524Y-91431961D02*
X146911905Y-91336723D01*
X146911905Y-91336723D02*
X146864286Y-91146247D01*
X146864286Y-91146247D02*
X146864286Y-91003390D01*
X146864286Y-91003390D02*
X146911905Y-90812914D01*
X146911905Y-90812914D02*
X146959524Y-90717676D01*
X146959524Y-90717676D02*
X147054762Y-90622438D01*
X147054762Y-90622438D02*
X147197619Y-90574819D01*
X147197619Y-90574819D02*
X147292857Y-90574819D01*
X147292857Y-90574819D02*
X147435714Y-90622438D01*
X147435714Y-90622438D02*
X147483333Y-90670057D01*
X147959524Y-91574819D02*
X148150000Y-91574819D01*
X148150000Y-91574819D02*
X148245238Y-91527200D01*
X148245238Y-91527200D02*
X148292857Y-91479580D01*
X148292857Y-91479580D02*
X148388095Y-91336723D01*
X148388095Y-91336723D02*
X148435714Y-91146247D01*
X148435714Y-91146247D02*
X148435714Y-90765295D01*
X148435714Y-90765295D02*
X148388095Y-90670057D01*
X148388095Y-90670057D02*
X148340476Y-90622438D01*
X148340476Y-90622438D02*
X148245238Y-90574819D01*
X148245238Y-90574819D02*
X148054762Y-90574819D01*
X148054762Y-90574819D02*
X147959524Y-90622438D01*
X147959524Y-90622438D02*
X147911905Y-90670057D01*
X147911905Y-90670057D02*
X147864286Y-90765295D01*
X147864286Y-90765295D02*
X147864286Y-91003390D01*
X147864286Y-91003390D02*
X147911905Y-91098628D01*
X147911905Y-91098628D02*
X147959524Y-91146247D01*
X147959524Y-91146247D02*
X148054762Y-91193866D01*
X148054762Y-91193866D02*
X148245238Y-91193866D01*
X148245238Y-91193866D02*
X148340476Y-91146247D01*
X148340476Y-91146247D02*
X148388095Y-91098628D01*
X148388095Y-91098628D02*
X148435714Y-91003390D01*
X172104819Y-95233333D02*
X172819104Y-95233333D01*
X172819104Y-95233333D02*
X172961961Y-95280952D01*
X172961961Y-95280952D02*
X173057200Y-95376190D01*
X173057200Y-95376190D02*
X173104819Y-95519047D01*
X173104819Y-95519047D02*
X173104819Y-95614285D01*
X172104819Y-94852380D02*
X172104819Y-94233333D01*
X172104819Y-94233333D02*
X172485771Y-94566666D01*
X172485771Y-94566666D02*
X172485771Y-94423809D01*
X172485771Y-94423809D02*
X172533390Y-94328571D01*
X172533390Y-94328571D02*
X172581009Y-94280952D01*
X172581009Y-94280952D02*
X172676247Y-94233333D01*
X172676247Y-94233333D02*
X172914342Y-94233333D01*
X172914342Y-94233333D02*
X173009580Y-94280952D01*
X173009580Y-94280952D02*
X173057200Y-94328571D01*
X173057200Y-94328571D02*
X173104819Y-94423809D01*
X173104819Y-94423809D02*
X173104819Y-94709523D01*
X173104819Y-94709523D02*
X173057200Y-94804761D01*
X173057200Y-94804761D02*
X173009580Y-94852380D01*
D11*
X148272237Y-103339318D02*
X148272237Y-102069318D01*
X149602714Y-103218365D02*
X149542238Y-103278842D01*
X149542238Y-103278842D02*
X149360809Y-103339318D01*
X149360809Y-103339318D02*
X149239857Y-103339318D01*
X149239857Y-103339318D02*
X149058428Y-103278842D01*
X149058428Y-103278842D02*
X148937476Y-103157889D01*
X148937476Y-103157889D02*
X148876999Y-103036937D01*
X148876999Y-103036937D02*
X148816523Y-102795032D01*
X148816523Y-102795032D02*
X148816523Y-102613603D01*
X148816523Y-102613603D02*
X148876999Y-102371699D01*
X148876999Y-102371699D02*
X148937476Y-102250746D01*
X148937476Y-102250746D02*
X149058428Y-102129794D01*
X149058428Y-102129794D02*
X149239857Y-102069318D01*
X149239857Y-102069318D02*
X149360809Y-102069318D01*
X149360809Y-102069318D02*
X149542238Y-102129794D01*
X149542238Y-102129794D02*
X149602714Y-102190270D01*
X150086523Y-102190270D02*
X150146999Y-102129794D01*
X150146999Y-102129794D02*
X150267952Y-102069318D01*
X150267952Y-102069318D02*
X150570333Y-102069318D01*
X150570333Y-102069318D02*
X150691285Y-102129794D01*
X150691285Y-102129794D02*
X150751761Y-102190270D01*
X150751761Y-102190270D02*
X150812238Y-102311222D01*
X150812238Y-102311222D02*
X150812238Y-102432175D01*
X150812238Y-102432175D02*
X150751761Y-102613603D01*
X150751761Y-102613603D02*
X150026047Y-103339318D01*
X150026047Y-103339318D02*
X150812238Y-103339318D01*
D10*
X146839580Y-103592857D02*
X146887200Y-103640476D01*
X146887200Y-103640476D02*
X146934819Y-103783333D01*
X146934819Y-103783333D02*
X146934819Y-103878571D01*
X146934819Y-103878571D02*
X146887200Y-104021428D01*
X146887200Y-104021428D02*
X146791961Y-104116666D01*
X146791961Y-104116666D02*
X146696723Y-104164285D01*
X146696723Y-104164285D02*
X146506247Y-104211904D01*
X146506247Y-104211904D02*
X146363390Y-104211904D01*
X146363390Y-104211904D02*
X146172914Y-104164285D01*
X146172914Y-104164285D02*
X146077676Y-104116666D01*
X146077676Y-104116666D02*
X145982438Y-104021428D01*
X145982438Y-104021428D02*
X145934819Y-103878571D01*
X145934819Y-103878571D02*
X145934819Y-103783333D01*
X145934819Y-103783333D02*
X145982438Y-103640476D01*
X145982438Y-103640476D02*
X146030057Y-103592857D01*
X146934819Y-102640476D02*
X146934819Y-103211904D01*
X146934819Y-102926190D02*
X145934819Y-102926190D01*
X145934819Y-102926190D02*
X146077676Y-103021428D01*
X146077676Y-103021428D02*
X146172914Y-103116666D01*
X146172914Y-103116666D02*
X146220533Y-103211904D01*
X145934819Y-102021428D02*
X145934819Y-101926190D01*
X145934819Y-101926190D02*
X145982438Y-101830952D01*
X145982438Y-101830952D02*
X146030057Y-101783333D01*
X146030057Y-101783333D02*
X146125295Y-101735714D01*
X146125295Y-101735714D02*
X146315771Y-101688095D01*
X146315771Y-101688095D02*
X146553866Y-101688095D01*
X146553866Y-101688095D02*
X146744342Y-101735714D01*
X146744342Y-101735714D02*
X146839580Y-101783333D01*
X146839580Y-101783333D02*
X146887200Y-101830952D01*
X146887200Y-101830952D02*
X146934819Y-101926190D01*
X146934819Y-101926190D02*
X146934819Y-102021428D01*
X146934819Y-102021428D02*
X146887200Y-102116666D01*
X146887200Y-102116666D02*
X146839580Y-102164285D01*
X146839580Y-102164285D02*
X146744342Y-102211904D01*
X146744342Y-102211904D02*
X146553866Y-102259523D01*
X146553866Y-102259523D02*
X146315771Y-102259523D01*
X146315771Y-102259523D02*
X146125295Y-102211904D01*
X146125295Y-102211904D02*
X146030057Y-102164285D01*
X146030057Y-102164285D02*
X145982438Y-102116666D01*
X145982438Y-102116666D02*
X145934819Y-102021428D01*
X143674819Y-104163333D02*
X144389104Y-104163333D01*
X144389104Y-104163333D02*
X144531961Y-104210952D01*
X144531961Y-104210952D02*
X144627200Y-104306190D01*
X144627200Y-104306190D02*
X144674819Y-104449047D01*
X144674819Y-104449047D02*
X144674819Y-104544285D01*
X144008152Y-103258571D02*
X144674819Y-103258571D01*
X143627200Y-103496666D02*
X144341485Y-103734761D01*
X144341485Y-103734761D02*
X144341485Y-103115714D01*
X170429819Y-96079166D02*
X169953628Y-96412499D01*
X170429819Y-96650594D02*
X169429819Y-96650594D01*
X169429819Y-96650594D02*
X169429819Y-96269642D01*
X169429819Y-96269642D02*
X169477438Y-96174404D01*
X169477438Y-96174404D02*
X169525057Y-96126785D01*
X169525057Y-96126785D02*
X169620295Y-96079166D01*
X169620295Y-96079166D02*
X169763152Y-96079166D01*
X169763152Y-96079166D02*
X169858390Y-96126785D01*
X169858390Y-96126785D02*
X169906009Y-96174404D01*
X169906009Y-96174404D02*
X169953628Y-96269642D01*
X169953628Y-96269642D02*
X169953628Y-96650594D01*
X169525057Y-95698213D02*
X169477438Y-95650594D01*
X169477438Y-95650594D02*
X169429819Y-95555356D01*
X169429819Y-95555356D02*
X169429819Y-95317261D01*
X169429819Y-95317261D02*
X169477438Y-95222023D01*
X169477438Y-95222023D02*
X169525057Y-95174404D01*
X169525057Y-95174404D02*
X169620295Y-95126785D01*
X169620295Y-95126785D02*
X169715533Y-95126785D01*
X169715533Y-95126785D02*
X169858390Y-95174404D01*
X169858390Y-95174404D02*
X170429819Y-95745832D01*
X170429819Y-95745832D02*
X170429819Y-95126785D01*
X155819819Y-90283333D02*
X156534104Y-90283333D01*
X156534104Y-90283333D02*
X156676961Y-90330952D01*
X156676961Y-90330952D02*
X156772200Y-90426190D01*
X156772200Y-90426190D02*
X156819819Y-90569047D01*
X156819819Y-90569047D02*
X156819819Y-90664285D01*
X155915057Y-89854761D02*
X155867438Y-89807142D01*
X155867438Y-89807142D02*
X155819819Y-89711904D01*
X155819819Y-89711904D02*
X155819819Y-89473809D01*
X155819819Y-89473809D02*
X155867438Y-89378571D01*
X155867438Y-89378571D02*
X155915057Y-89330952D01*
X155915057Y-89330952D02*
X156010295Y-89283333D01*
X156010295Y-89283333D02*
X156105533Y-89283333D01*
X156105533Y-89283333D02*
X156248390Y-89330952D01*
X156248390Y-89330952D02*
X156819819Y-89902380D01*
X156819819Y-89902380D02*
X156819819Y-89283333D01*
X153183333Y-101039580D02*
X153135714Y-101087200D01*
X153135714Y-101087200D02*
X152992857Y-101134819D01*
X152992857Y-101134819D02*
X152897619Y-101134819D01*
X152897619Y-101134819D02*
X152754762Y-101087200D01*
X152754762Y-101087200D02*
X152659524Y-100991961D01*
X152659524Y-100991961D02*
X152611905Y-100896723D01*
X152611905Y-100896723D02*
X152564286Y-100706247D01*
X152564286Y-100706247D02*
X152564286Y-100563390D01*
X152564286Y-100563390D02*
X152611905Y-100372914D01*
X152611905Y-100372914D02*
X152659524Y-100277676D01*
X152659524Y-100277676D02*
X152754762Y-100182438D01*
X152754762Y-100182438D02*
X152897619Y-100134819D01*
X152897619Y-100134819D02*
X152992857Y-100134819D01*
X152992857Y-100134819D02*
X153135714Y-100182438D01*
X153135714Y-100182438D02*
X153183333Y-100230057D01*
X153516667Y-100134819D02*
X154135714Y-100134819D01*
X154135714Y-100134819D02*
X153802381Y-100515771D01*
X153802381Y-100515771D02*
X153945238Y-100515771D01*
X153945238Y-100515771D02*
X154040476Y-100563390D01*
X154040476Y-100563390D02*
X154088095Y-100611009D01*
X154088095Y-100611009D02*
X154135714Y-100706247D01*
X154135714Y-100706247D02*
X154135714Y-100944342D01*
X154135714Y-100944342D02*
X154088095Y-101039580D01*
X154088095Y-101039580D02*
X154040476Y-101087200D01*
X154040476Y-101087200D02*
X153945238Y-101134819D01*
X153945238Y-101134819D02*
X153659524Y-101134819D01*
X153659524Y-101134819D02*
X153564286Y-101087200D01*
X153564286Y-101087200D02*
X153516667Y-101039580D01*
X147383333Y-105279580D02*
X147335714Y-105327200D01*
X147335714Y-105327200D02*
X147192857Y-105374819D01*
X147192857Y-105374819D02*
X147097619Y-105374819D01*
X147097619Y-105374819D02*
X146954762Y-105327200D01*
X146954762Y-105327200D02*
X146859524Y-105231961D01*
X146859524Y-105231961D02*
X146811905Y-105136723D01*
X146811905Y-105136723D02*
X146764286Y-104946247D01*
X146764286Y-104946247D02*
X146764286Y-104803390D01*
X146764286Y-104803390D02*
X146811905Y-104612914D01*
X146811905Y-104612914D02*
X146859524Y-104517676D01*
X146859524Y-104517676D02*
X146954762Y-104422438D01*
X146954762Y-104422438D02*
X147097619Y-104374819D01*
X147097619Y-104374819D02*
X147192857Y-104374819D01*
X147192857Y-104374819D02*
X147335714Y-104422438D01*
X147335714Y-104422438D02*
X147383333Y-104470057D01*
X147954762Y-104803390D02*
X147859524Y-104755771D01*
X147859524Y-104755771D02*
X147811905Y-104708152D01*
X147811905Y-104708152D02*
X147764286Y-104612914D01*
X147764286Y-104612914D02*
X147764286Y-104565295D01*
X147764286Y-104565295D02*
X147811905Y-104470057D01*
X147811905Y-104470057D02*
X147859524Y-104422438D01*
X147859524Y-104422438D02*
X147954762Y-104374819D01*
X147954762Y-104374819D02*
X148145238Y-104374819D01*
X148145238Y-104374819D02*
X148240476Y-104422438D01*
X148240476Y-104422438D02*
X148288095Y-104470057D01*
X148288095Y-104470057D02*
X148335714Y-104565295D01*
X148335714Y-104565295D02*
X148335714Y-104612914D01*
X148335714Y-104612914D02*
X148288095Y-104708152D01*
X148288095Y-104708152D02*
X148240476Y-104755771D01*
X148240476Y-104755771D02*
X148145238Y-104803390D01*
X148145238Y-104803390D02*
X147954762Y-104803390D01*
X147954762Y-104803390D02*
X147859524Y-104851009D01*
X147859524Y-104851009D02*
X147811905Y-104898628D01*
X147811905Y-104898628D02*
X147764286Y-104993866D01*
X147764286Y-104993866D02*
X147764286Y-105184342D01*
X147764286Y-105184342D02*
X147811905Y-105279580D01*
X147811905Y-105279580D02*
X147859524Y-105327200D01*
X147859524Y-105327200D02*
X147954762Y-105374819D01*
X147954762Y-105374819D02*
X148145238Y-105374819D01*
X148145238Y-105374819D02*
X148240476Y-105327200D01*
X148240476Y-105327200D02*
X148288095Y-105279580D01*
X148288095Y-105279580D02*
X148335714Y-105184342D01*
X148335714Y-105184342D02*
X148335714Y-104993866D01*
X148335714Y-104993866D02*
X148288095Y-104898628D01*
X148288095Y-104898628D02*
X148240476Y-104851009D01*
X148240476Y-104851009D02*
X148145238Y-104803390D01*
X169239580Y-103016666D02*
X169287200Y-103064285D01*
X169287200Y-103064285D02*
X169334819Y-103207142D01*
X169334819Y-103207142D02*
X169334819Y-103302380D01*
X169334819Y-103302380D02*
X169287200Y-103445237D01*
X169287200Y-103445237D02*
X169191961Y-103540475D01*
X169191961Y-103540475D02*
X169096723Y-103588094D01*
X169096723Y-103588094D02*
X168906247Y-103635713D01*
X168906247Y-103635713D02*
X168763390Y-103635713D01*
X168763390Y-103635713D02*
X168572914Y-103588094D01*
X168572914Y-103588094D02*
X168477676Y-103540475D01*
X168477676Y-103540475D02*
X168382438Y-103445237D01*
X168382438Y-103445237D02*
X168334819Y-103302380D01*
X168334819Y-103302380D02*
X168334819Y-103207142D01*
X168334819Y-103207142D02*
X168382438Y-103064285D01*
X168382438Y-103064285D02*
X168430057Y-103016666D01*
X168334819Y-102683332D02*
X168334819Y-102016666D01*
X168334819Y-102016666D02*
X169334819Y-102445237D01*
X154883333Y-93939580D02*
X154835714Y-93987200D01*
X154835714Y-93987200D02*
X154692857Y-94034819D01*
X154692857Y-94034819D02*
X154597619Y-94034819D01*
X154597619Y-94034819D02*
X154454762Y-93987200D01*
X154454762Y-93987200D02*
X154359524Y-93891961D01*
X154359524Y-93891961D02*
X154311905Y-93796723D01*
X154311905Y-93796723D02*
X154264286Y-93606247D01*
X154264286Y-93606247D02*
X154264286Y-93463390D01*
X154264286Y-93463390D02*
X154311905Y-93272914D01*
X154311905Y-93272914D02*
X154359524Y-93177676D01*
X154359524Y-93177676D02*
X154454762Y-93082438D01*
X154454762Y-93082438D02*
X154597619Y-93034819D01*
X154597619Y-93034819D02*
X154692857Y-93034819D01*
X154692857Y-93034819D02*
X154835714Y-93082438D01*
X154835714Y-93082438D02*
X154883333Y-93130057D01*
X155740476Y-93034819D02*
X155550000Y-93034819D01*
X155550000Y-93034819D02*
X155454762Y-93082438D01*
X155454762Y-93082438D02*
X155407143Y-93130057D01*
X155407143Y-93130057D02*
X155311905Y-93272914D01*
X155311905Y-93272914D02*
X155264286Y-93463390D01*
X155264286Y-93463390D02*
X155264286Y-93844342D01*
X155264286Y-93844342D02*
X155311905Y-93939580D01*
X155311905Y-93939580D02*
X155359524Y-93987200D01*
X155359524Y-93987200D02*
X155454762Y-94034819D01*
X155454762Y-94034819D02*
X155645238Y-94034819D01*
X155645238Y-94034819D02*
X155740476Y-93987200D01*
X155740476Y-93987200D02*
X155788095Y-93939580D01*
X155788095Y-93939580D02*
X155835714Y-93844342D01*
X155835714Y-93844342D02*
X155835714Y-93606247D01*
X155835714Y-93606247D02*
X155788095Y-93511009D01*
X155788095Y-93511009D02*
X155740476Y-93463390D01*
X155740476Y-93463390D02*
X155645238Y-93415771D01*
X155645238Y-93415771D02*
X155454762Y-93415771D01*
X155454762Y-93415771D02*
X155359524Y-93463390D01*
X155359524Y-93463390D02*
X155311905Y-93511009D01*
X155311905Y-93511009D02*
X155264286Y-93606247D01*
D11*
X148260237Y-89574318D02*
X148260237Y-88304318D01*
X149590714Y-89453365D02*
X149530238Y-89513842D01*
X149530238Y-89513842D02*
X149348809Y-89574318D01*
X149348809Y-89574318D02*
X149227857Y-89574318D01*
X149227857Y-89574318D02*
X149046428Y-89513842D01*
X149046428Y-89513842D02*
X148925476Y-89392889D01*
X148925476Y-89392889D02*
X148864999Y-89271937D01*
X148864999Y-89271937D02*
X148804523Y-89030032D01*
X148804523Y-89030032D02*
X148804523Y-88848603D01*
X148804523Y-88848603D02*
X148864999Y-88606699D01*
X148864999Y-88606699D02*
X148925476Y-88485746D01*
X148925476Y-88485746D02*
X149046428Y-88364794D01*
X149046428Y-88364794D02*
X149227857Y-88304318D01*
X149227857Y-88304318D02*
X149348809Y-88304318D01*
X149348809Y-88304318D02*
X149530238Y-88364794D01*
X149530238Y-88364794D02*
X149590714Y-88425270D01*
X150800238Y-89574318D02*
X150074523Y-89574318D01*
X150437380Y-89574318D02*
X150437380Y-88304318D01*
X150437380Y-88304318D02*
X150316428Y-88485746D01*
X150316428Y-88485746D02*
X150195476Y-88606699D01*
X150195476Y-88606699D02*
X150074523Y-88667175D01*
D10*
X167625595Y-93004819D02*
X167625595Y-93814342D01*
X167625595Y-93814342D02*
X167673214Y-93909580D01*
X167673214Y-93909580D02*
X167720833Y-93957200D01*
X167720833Y-93957200D02*
X167816071Y-94004819D01*
X167816071Y-94004819D02*
X168006547Y-94004819D01*
X168006547Y-94004819D02*
X168101785Y-93957200D01*
X168101785Y-93957200D02*
X168149404Y-93909580D01*
X168149404Y-93909580D02*
X168197023Y-93814342D01*
X168197023Y-93814342D02*
X168197023Y-93004819D01*
X168625595Y-93100057D02*
X168673214Y-93052438D01*
X168673214Y-93052438D02*
X168768452Y-93004819D01*
X168768452Y-93004819D02*
X169006547Y-93004819D01*
X169006547Y-93004819D02*
X169101785Y-93052438D01*
X169101785Y-93052438D02*
X169149404Y-93100057D01*
X169149404Y-93100057D02*
X169197023Y-93195295D01*
X169197023Y-93195295D02*
X169197023Y-93290533D01*
X169197023Y-93290533D02*
X169149404Y-93433390D01*
X169149404Y-93433390D02*
X168577976Y-94004819D01*
X168577976Y-94004819D02*
X169197023Y-94004819D01*
X164183333Y-107939580D02*
X164135714Y-107987200D01*
X164135714Y-107987200D02*
X163992857Y-108034819D01*
X163992857Y-108034819D02*
X163897619Y-108034819D01*
X163897619Y-108034819D02*
X163754762Y-107987200D01*
X163754762Y-107987200D02*
X163659524Y-107891961D01*
X163659524Y-107891961D02*
X163611905Y-107796723D01*
X163611905Y-107796723D02*
X163564286Y-107606247D01*
X163564286Y-107606247D02*
X163564286Y-107463390D01*
X163564286Y-107463390D02*
X163611905Y-107272914D01*
X163611905Y-107272914D02*
X163659524Y-107177676D01*
X163659524Y-107177676D02*
X163754762Y-107082438D01*
X163754762Y-107082438D02*
X163897619Y-107034819D01*
X163897619Y-107034819D02*
X163992857Y-107034819D01*
X163992857Y-107034819D02*
X164135714Y-107082438D01*
X164135714Y-107082438D02*
X164183333Y-107130057D01*
X164564286Y-107130057D02*
X164611905Y-107082438D01*
X164611905Y-107082438D02*
X164707143Y-107034819D01*
X164707143Y-107034819D02*
X164945238Y-107034819D01*
X164945238Y-107034819D02*
X165040476Y-107082438D01*
X165040476Y-107082438D02*
X165088095Y-107130057D01*
X165088095Y-107130057D02*
X165135714Y-107225295D01*
X165135714Y-107225295D02*
X165135714Y-107320533D01*
X165135714Y-107320533D02*
X165088095Y-107463390D01*
X165088095Y-107463390D02*
X164516667Y-108034819D01*
X164516667Y-108034819D02*
X165135714Y-108034819D01*
X159838095Y-93299819D02*
X159838095Y-94109342D01*
X159838095Y-94109342D02*
X159885714Y-94204580D01*
X159885714Y-94204580D02*
X159933333Y-94252200D01*
X159933333Y-94252200D02*
X160028571Y-94299819D01*
X160028571Y-94299819D02*
X160219047Y-94299819D01*
X160219047Y-94299819D02*
X160314285Y-94252200D01*
X160314285Y-94252200D02*
X160361904Y-94204580D01*
X160361904Y-94204580D02*
X160409523Y-94109342D01*
X160409523Y-94109342D02*
X160409523Y-93299819D01*
X161409523Y-94299819D02*
X160838095Y-94299819D01*
X161123809Y-94299819D02*
X161123809Y-93299819D01*
X161123809Y-93299819D02*
X161028571Y-93442676D01*
X161028571Y-93442676D02*
X160933333Y-93537914D01*
X160933333Y-93537914D02*
X160838095Y-93585533D01*
X167525595Y-96504819D02*
X167525595Y-97314342D01*
X167525595Y-97314342D02*
X167573214Y-97409580D01*
X167573214Y-97409580D02*
X167620833Y-97457200D01*
X167620833Y-97457200D02*
X167716071Y-97504819D01*
X167716071Y-97504819D02*
X167906547Y-97504819D01*
X167906547Y-97504819D02*
X168001785Y-97457200D01*
X168001785Y-97457200D02*
X168049404Y-97409580D01*
X168049404Y-97409580D02*
X168097023Y-97314342D01*
X168097023Y-97314342D02*
X168097023Y-96504819D01*
X168477976Y-96504819D02*
X169097023Y-96504819D01*
X169097023Y-96504819D02*
X168763690Y-96885771D01*
X168763690Y-96885771D02*
X168906547Y-96885771D01*
X168906547Y-96885771D02*
X169001785Y-96933390D01*
X169001785Y-96933390D02*
X169049404Y-96981009D01*
X169049404Y-96981009D02*
X169097023Y-97076247D01*
X169097023Y-97076247D02*
X169097023Y-97314342D01*
X169097023Y-97314342D02*
X169049404Y-97409580D01*
X169049404Y-97409580D02*
X169001785Y-97457200D01*
X169001785Y-97457200D02*
X168906547Y-97504819D01*
X168906547Y-97504819D02*
X168620833Y-97504819D01*
X168620833Y-97504819D02*
X168525595Y-97457200D01*
X168525595Y-97457200D02*
X168477976Y-97409580D01*
X154920833Y-96104819D02*
X154587500Y-95628628D01*
X154349405Y-96104819D02*
X154349405Y-95104819D01*
X154349405Y-95104819D02*
X154730357Y-95104819D01*
X154730357Y-95104819D02*
X154825595Y-95152438D01*
X154825595Y-95152438D02*
X154873214Y-95200057D01*
X154873214Y-95200057D02*
X154920833Y-95295295D01*
X154920833Y-95295295D02*
X154920833Y-95438152D01*
X154920833Y-95438152D02*
X154873214Y-95533390D01*
X154873214Y-95533390D02*
X154825595Y-95581009D01*
X154825595Y-95581009D02*
X154730357Y-95628628D01*
X154730357Y-95628628D02*
X154349405Y-95628628D01*
X155873214Y-96104819D02*
X155301786Y-96104819D01*
X155587500Y-96104819D02*
X155587500Y-95104819D01*
X155587500Y-95104819D02*
X155492262Y-95247676D01*
X155492262Y-95247676D02*
X155397024Y-95342914D01*
X155397024Y-95342914D02*
X155301786Y-95390533D01*
X173664580Y-99616666D02*
X173712200Y-99664285D01*
X173712200Y-99664285D02*
X173759819Y-99807142D01*
X173759819Y-99807142D02*
X173759819Y-99902380D01*
X173759819Y-99902380D02*
X173712200Y-100045237D01*
X173712200Y-100045237D02*
X173616961Y-100140475D01*
X173616961Y-100140475D02*
X173521723Y-100188094D01*
X173521723Y-100188094D02*
X173331247Y-100235713D01*
X173331247Y-100235713D02*
X173188390Y-100235713D01*
X173188390Y-100235713D02*
X172997914Y-100188094D01*
X172997914Y-100188094D02*
X172902676Y-100140475D01*
X172902676Y-100140475D02*
X172807438Y-100045237D01*
X172807438Y-100045237D02*
X172759819Y-99902380D01*
X172759819Y-99902380D02*
X172759819Y-99807142D01*
X172759819Y-99807142D02*
X172807438Y-99664285D01*
X172807438Y-99664285D02*
X172855057Y-99616666D01*
X172759819Y-98711904D02*
X172759819Y-99188094D01*
X172759819Y-99188094D02*
X173236009Y-99235713D01*
X173236009Y-99235713D02*
X173188390Y-99188094D01*
X173188390Y-99188094D02*
X173140771Y-99092856D01*
X173140771Y-99092856D02*
X173140771Y-98854761D01*
X173140771Y-98854761D02*
X173188390Y-98759523D01*
X173188390Y-98759523D02*
X173236009Y-98711904D01*
X173236009Y-98711904D02*
X173331247Y-98664285D01*
X173331247Y-98664285D02*
X173569342Y-98664285D01*
X173569342Y-98664285D02*
X173664580Y-98711904D01*
X173664580Y-98711904D02*
X173712200Y-98759523D01*
X173712200Y-98759523D02*
X173759819Y-98854761D01*
X173759819Y-98854761D02*
X173759819Y-99092856D01*
X173759819Y-99092856D02*
X173712200Y-99188094D01*
X173712200Y-99188094D02*
X173664580Y-99235713D01*
X143654819Y-89233333D02*
X144369104Y-89233333D01*
X144369104Y-89233333D02*
X144511961Y-89280952D01*
X144511961Y-89280952D02*
X144607200Y-89376190D01*
X144607200Y-89376190D02*
X144654819Y-89519047D01*
X144654819Y-89519047D02*
X144654819Y-89614285D01*
X144654819Y-88233333D02*
X144654819Y-88804761D01*
X144654819Y-88519047D02*
X143654819Y-88519047D01*
X143654819Y-88519047D02*
X143797676Y-88614285D01*
X143797676Y-88614285D02*
X143892914Y-88709523D01*
X143892914Y-88709523D02*
X143940533Y-88804761D01*
X146739580Y-89216666D02*
X146787200Y-89264285D01*
X146787200Y-89264285D02*
X146834819Y-89407142D01*
X146834819Y-89407142D02*
X146834819Y-89502380D01*
X146834819Y-89502380D02*
X146787200Y-89645237D01*
X146787200Y-89645237D02*
X146691961Y-89740475D01*
X146691961Y-89740475D02*
X146596723Y-89788094D01*
X146596723Y-89788094D02*
X146406247Y-89835713D01*
X146406247Y-89835713D02*
X146263390Y-89835713D01*
X146263390Y-89835713D02*
X146072914Y-89788094D01*
X146072914Y-89788094D02*
X145977676Y-89740475D01*
X145977676Y-89740475D02*
X145882438Y-89645237D01*
X145882438Y-89645237D02*
X145834819Y-89502380D01*
X145834819Y-89502380D02*
X145834819Y-89407142D01*
X145834819Y-89407142D02*
X145882438Y-89264285D01*
X145882438Y-89264285D02*
X145930057Y-89216666D01*
X146834819Y-88264285D02*
X146834819Y-88835713D01*
X146834819Y-88549999D02*
X145834819Y-88549999D01*
X145834819Y-88549999D02*
X145977676Y-88645237D01*
X145977676Y-88645237D02*
X146072914Y-88740475D01*
X146072914Y-88740475D02*
X146120533Y-88835713D01*
D12*
%TO.C,C4*%
X165888748Y-87265000D02*
X166411252Y-87265000D01*
X165888748Y-88735000D02*
X166411252Y-88735000D01*
%TO.C,C9*%
X147388748Y-92065000D02*
X147911252Y-92065000D01*
X147388748Y-93535000D02*
X147911252Y-93535000D01*
%TO.C,J3*%
X173850000Y-96950000D02*
X173850000Y-96250000D01*
X174440000Y-92850000D02*
X174440000Y-91700000D01*
X174440000Y-96950000D02*
X173850000Y-96950000D01*
X174440000Y-98100000D02*
X174440000Y-96950000D01*
X176750000Y-90940000D02*
X179350000Y-90940000D01*
X179350000Y-98860000D02*
X176750000Y-98860000D01*
X182250000Y-98860000D02*
X183910000Y-98860000D01*
X183910000Y-90940000D02*
X182250000Y-90940000D01*
X183910000Y-98860000D02*
X183910000Y-90940000D01*
D13*
%TO.C,IC2*%
X146037000Y-100185000D02*
X147562000Y-100185000D01*
X147912000Y-100315000D02*
X151112000Y-100315000D01*
X147912000Y-105215000D02*
X147912000Y-100315000D01*
X151112000Y-100315000D02*
X151112000Y-105215000D01*
X151112000Y-105215000D02*
X147912000Y-105215000D01*
D12*
%TO.C,C10*%
X144065000Y-102688748D02*
X144065000Y-103211252D01*
X145535000Y-102688748D02*
X145535000Y-103211252D01*
%TO.C,J4*%
X137110000Y-101180000D02*
X137110000Y-106480000D01*
X137110000Y-102560000D02*
X138110000Y-102560000D01*
X137110000Y-102810000D02*
X138110000Y-102810000D01*
X137110000Y-104850000D02*
X138110000Y-104850000D01*
X137110000Y-106480000D02*
X143130000Y-106480000D01*
X138110000Y-102560000D02*
X138110000Y-105100000D01*
X138110000Y-102560000D02*
X138640000Y-102810000D01*
X138110000Y-105100000D02*
X137110000Y-105100000D01*
X138640000Y-102810000D02*
X138640000Y-104850000D01*
X138640000Y-104850000D02*
X138110000Y-105100000D01*
X142100000Y-100890000D02*
X138100000Y-100890000D01*
X142530000Y-101760000D02*
X142530000Y-103360000D01*
X142530000Y-103360000D02*
X143130000Y-103360000D01*
X142530000Y-104300000D02*
X142530000Y-105900000D01*
X142530000Y-105900000D02*
X143130000Y-105900000D01*
X143130000Y-101180000D02*
X137110000Y-101180000D01*
X143130000Y-101760000D02*
X142530000Y-101760000D01*
X143130000Y-104300000D02*
X142530000Y-104300000D01*
X143130000Y-106480000D02*
X143130000Y-101180000D01*
%TO.C,R2*%
X170890000Y-96139564D02*
X170890000Y-95685436D01*
X172360000Y-96139564D02*
X172360000Y-95685436D01*
%TO.C,J2*%
X157365000Y-88185000D02*
X157430000Y-88185000D01*
X157365000Y-91715000D02*
X157365000Y-88185000D01*
X157365000Y-91715000D02*
X157430000Y-91715000D01*
X157430000Y-93040000D02*
X157430000Y-91715000D01*
X163770000Y-88185000D02*
X163835000Y-88185000D01*
X163770000Y-91715000D02*
X163835000Y-91715000D01*
X163835000Y-91715000D02*
X163835000Y-88185000D01*
%TO.C,C3*%
X153611252Y-98265000D02*
X153088748Y-98265000D01*
X153611252Y-99735000D02*
X153088748Y-99735000D01*
%TO.C,C8*%
X147288748Y-105865000D02*
X147811252Y-105865000D01*
X147288748Y-107335000D02*
X147811252Y-107335000D01*
%TO.C,C7*%
X166465000Y-102588748D02*
X166465000Y-103111252D01*
X167935000Y-102588748D02*
X167935000Y-103111252D01*
%TO.C,C6*%
X155311252Y-91165000D02*
X154788748Y-91165000D01*
X155311252Y-92635000D02*
X154788748Y-92635000D01*
D13*
%TO.C,IC1*%
X146025000Y-86420000D02*
X147550000Y-86420000D01*
X147900000Y-86550000D02*
X151100000Y-86550000D01*
X147900000Y-91450000D02*
X147900000Y-86550000D01*
X151100000Y-86550000D02*
X151100000Y-91450000D01*
X151100000Y-91450000D02*
X147900000Y-91450000D01*
D12*
%TO.C,U2*%
X168387500Y-94390000D02*
X167587500Y-94390000D01*
X168387500Y-94390000D02*
X169187500Y-94390000D01*
X168387500Y-97510000D02*
X167587500Y-97510000D01*
X168387500Y-97510000D02*
X169187500Y-97510000D01*
X167087500Y-94440000D02*
X166847500Y-94110000D01*
X167327500Y-94110000D01*
X167087500Y-94440000D01*
G36*
X167087500Y-94440000D02*
G01*
X166847500Y-94110000D01*
X167327500Y-94110000D01*
X167087500Y-94440000D01*
G37*
%TO.C,C2*%
X164611252Y-105165000D02*
X164088748Y-105165000D01*
X164611252Y-106635000D02*
X164088748Y-106635000D01*
%TO.C,U1*%
X156990000Y-96115000D02*
X156990000Y-96415000D01*
X156990000Y-103335000D02*
X156990000Y-103035000D01*
X157290000Y-96115000D02*
X156990000Y-96115000D01*
X157290000Y-103335000D02*
X156990000Y-103335000D01*
X163910000Y-96115000D02*
X164210000Y-96115000D01*
X163910000Y-103335000D02*
X164210000Y-103335000D01*
X164210000Y-96115000D02*
X164210000Y-96415000D01*
X164210000Y-103335000D02*
X164210000Y-103035000D01*
X156387500Y-96415000D02*
X156047500Y-95945000D01*
X156727500Y-95945000D01*
X156387500Y-96415000D01*
G36*
X156387500Y-96415000D02*
G01*
X156047500Y-95945000D01*
X156727500Y-95945000D01*
X156387500Y-96415000D01*
G37*
%TO.C,U3*%
X168287500Y-97890000D02*
X167487500Y-97890000D01*
X168287500Y-97890000D02*
X169087500Y-97890000D01*
X168287500Y-101010000D02*
X167487500Y-101010000D01*
X168287500Y-101010000D02*
X169087500Y-101010000D01*
X166987500Y-97940000D02*
X166747500Y-97610000D01*
X167227500Y-97610000D01*
X166987500Y-97940000D01*
G36*
X166987500Y-97940000D02*
G01*
X166747500Y-97610000D01*
X167227500Y-97610000D01*
X166987500Y-97940000D01*
G37*
%TO.C,R1*%
X155314564Y-93265000D02*
X154860436Y-93265000D01*
X155314564Y-94735000D02*
X154860436Y-94735000D01*
%TO.C,C5*%
X170890000Y-99188748D02*
X170890000Y-99711252D01*
X172360000Y-99188748D02*
X172360000Y-99711252D01*
%TO.C,J1*%
X137090000Y-86250000D02*
X137090000Y-91550000D01*
X137090000Y-87630000D02*
X138090000Y-87630000D01*
X137090000Y-87880000D02*
X138090000Y-87880000D01*
X137090000Y-89920000D02*
X138090000Y-89920000D01*
X137090000Y-91550000D02*
X143110000Y-91550000D01*
X138090000Y-87630000D02*
X138090000Y-90170000D01*
X138090000Y-87630000D02*
X138620000Y-87880000D01*
X138090000Y-90170000D02*
X137090000Y-90170000D01*
X138620000Y-87880000D02*
X138620000Y-89920000D01*
X138620000Y-89920000D02*
X138090000Y-90170000D01*
X142080000Y-85960000D02*
X138080000Y-85960000D01*
X142510000Y-86830000D02*
X142510000Y-88430000D01*
X142510000Y-88430000D02*
X143110000Y-88430000D01*
X142510000Y-89370000D02*
X142510000Y-90970000D01*
X142510000Y-90970000D02*
X143110000Y-90970000D01*
X143110000Y-86250000D02*
X137090000Y-86250000D01*
X143110000Y-86830000D02*
X142510000Y-86830000D01*
X143110000Y-89370000D02*
X142510000Y-89370000D01*
X143110000Y-91550000D02*
X143110000Y-86250000D01*
%TO.C,C1*%
X143965000Y-88788748D02*
X143965000Y-89311252D01*
X145435000Y-88788748D02*
X145435000Y-89311252D01*
%TD*%
M02*
