%TF.GenerationSoftware,KiCad,Pcbnew,8.0.6*%
%TF.CreationDate,2025-02-18T13:58:57+01:00*%
%TF.ProjectId,DifferentialProbe,44696666-6572-4656-9e74-69616c50726f,rev?*%
%TF.SameCoordinates,Original*%
%TF.FileFunction,Legend,Top*%
%TF.FilePolarity,Positive*%
%FSLAX46Y46*%
G04 Gerber Fmt 4.6, Leading zero omitted, Abs format (unit mm)*
G04 Created by KiCad (PCBNEW 8.0.6) date 2025-02-18 13:58:57*
%MOMM*%
%LPD*%
G01*
G04 APERTURE LIST*
%ADD10C,0.300000*%
%ADD11C,0.150000*%
%ADD12C,0.120000*%
G04 APERTURE END LIST*
D10*
X94054510Y-83015114D02*
X93554510Y-83015114D01*
X93554510Y-83800828D02*
X93554510Y-82300828D01*
X93554510Y-82300828D02*
X94268796Y-82300828D01*
X94840224Y-83800828D02*
X94840224Y-82800828D01*
X94840224Y-82300828D02*
X94768796Y-82372257D01*
X94768796Y-82372257D02*
X94840224Y-82443685D01*
X94840224Y-82443685D02*
X94911653Y-82372257D01*
X94911653Y-82372257D02*
X94840224Y-82300828D01*
X94840224Y-82300828D02*
X94840224Y-82443685D01*
X96125939Y-83729400D02*
X95983082Y-83800828D01*
X95983082Y-83800828D02*
X95697368Y-83800828D01*
X95697368Y-83800828D02*
X95554510Y-83729400D01*
X95554510Y-83729400D02*
X95483082Y-83586542D01*
X95483082Y-83586542D02*
X95483082Y-83015114D01*
X95483082Y-83015114D02*
X95554510Y-82872257D01*
X95554510Y-82872257D02*
X95697368Y-82800828D01*
X95697368Y-82800828D02*
X95983082Y-82800828D01*
X95983082Y-82800828D02*
X96125939Y-82872257D01*
X96125939Y-82872257D02*
X96197368Y-83015114D01*
X96197368Y-83015114D02*
X96197368Y-83157971D01*
X96197368Y-83157971D02*
X95483082Y-83300828D01*
X97054510Y-83800828D02*
X96911653Y-83729400D01*
X96911653Y-83729400D02*
X96840224Y-83586542D01*
X96840224Y-83586542D02*
X96840224Y-82300828D01*
X98268796Y-83800828D02*
X98268796Y-82300828D01*
X98268796Y-83729400D02*
X98125938Y-83800828D01*
X98125938Y-83800828D02*
X97840224Y-83800828D01*
X97840224Y-83800828D02*
X97697367Y-83729400D01*
X97697367Y-83729400D02*
X97625938Y-83657971D01*
X97625938Y-83657971D02*
X97554510Y-83515114D01*
X97554510Y-83515114D02*
X97554510Y-83086542D01*
X97554510Y-83086542D02*
X97625938Y-82943685D01*
X97625938Y-82943685D02*
X97697367Y-82872257D01*
X97697367Y-82872257D02*
X97840224Y-82800828D01*
X97840224Y-82800828D02*
X98125938Y-82800828D01*
X98125938Y-82800828D02*
X98268796Y-82872257D01*
X98768796Y-82800828D02*
X99340224Y-82800828D01*
X98983081Y-82300828D02*
X98983081Y-83586542D01*
X98983081Y-83586542D02*
X99054510Y-83729400D01*
X99054510Y-83729400D02*
X99197367Y-83800828D01*
X99197367Y-83800828D02*
X99340224Y-83800828D01*
X100411653Y-83729400D02*
X100268796Y-83800828D01*
X100268796Y-83800828D02*
X99983082Y-83800828D01*
X99983082Y-83800828D02*
X99840224Y-83729400D01*
X99840224Y-83729400D02*
X99768796Y-83586542D01*
X99768796Y-83586542D02*
X99768796Y-83015114D01*
X99768796Y-83015114D02*
X99840224Y-82872257D01*
X99840224Y-82872257D02*
X99983082Y-82800828D01*
X99983082Y-82800828D02*
X100268796Y-82800828D01*
X100268796Y-82800828D02*
X100411653Y-82872257D01*
X100411653Y-82872257D02*
X100483082Y-83015114D01*
X100483082Y-83015114D02*
X100483082Y-83157971D01*
X100483082Y-83157971D02*
X99768796Y-83300828D01*
X101054510Y-83729400D02*
X101197367Y-83800828D01*
X101197367Y-83800828D02*
X101483081Y-83800828D01*
X101483081Y-83800828D02*
X101625938Y-83729400D01*
X101625938Y-83729400D02*
X101697367Y-83586542D01*
X101697367Y-83586542D02*
X101697367Y-83515114D01*
X101697367Y-83515114D02*
X101625938Y-83372257D01*
X101625938Y-83372257D02*
X101483081Y-83300828D01*
X101483081Y-83300828D02*
X101268796Y-83300828D01*
X101268796Y-83300828D02*
X101125938Y-83229400D01*
X101125938Y-83229400D02*
X101054510Y-83086542D01*
X101054510Y-83086542D02*
X101054510Y-83015114D01*
X101054510Y-83015114D02*
X101125938Y-82872257D01*
X101125938Y-82872257D02*
X101268796Y-82800828D01*
X101268796Y-82800828D02*
X101483081Y-82800828D01*
X101483081Y-82800828D02*
X101625938Y-82872257D01*
X102125939Y-82800828D02*
X102697367Y-82800828D01*
X102340224Y-82300828D02*
X102340224Y-83586542D01*
X102340224Y-83586542D02*
X102411653Y-83729400D01*
X102411653Y-83729400D02*
X102554510Y-83800828D01*
X102554510Y-83800828D02*
X102697367Y-83800828D01*
X104340224Y-83800828D02*
X104340224Y-82300828D01*
X104340224Y-82300828D02*
X104697367Y-82300828D01*
X104697367Y-82300828D02*
X104911653Y-82372257D01*
X104911653Y-82372257D02*
X105054510Y-82515114D01*
X105054510Y-82515114D02*
X105125939Y-82657971D01*
X105125939Y-82657971D02*
X105197367Y-82943685D01*
X105197367Y-82943685D02*
X105197367Y-83157971D01*
X105197367Y-83157971D02*
X105125939Y-83443685D01*
X105125939Y-83443685D02*
X105054510Y-83586542D01*
X105054510Y-83586542D02*
X104911653Y-83729400D01*
X104911653Y-83729400D02*
X104697367Y-83800828D01*
X104697367Y-83800828D02*
X104340224Y-83800828D01*
X105840224Y-83800828D02*
X105840224Y-82800828D01*
X105840224Y-82300828D02*
X105768796Y-82372257D01*
X105768796Y-82372257D02*
X105840224Y-82443685D01*
X105840224Y-82443685D02*
X105911653Y-82372257D01*
X105911653Y-82372257D02*
X105840224Y-82300828D01*
X105840224Y-82300828D02*
X105840224Y-82443685D01*
X106340225Y-82800828D02*
X106911653Y-82800828D01*
X106554510Y-83800828D02*
X106554510Y-82515114D01*
X106554510Y-82515114D02*
X106625939Y-82372257D01*
X106625939Y-82372257D02*
X106768796Y-82300828D01*
X106768796Y-82300828D02*
X106911653Y-82300828D01*
X107197368Y-82800828D02*
X107768796Y-82800828D01*
X107411653Y-83800828D02*
X107411653Y-82515114D01*
X107411653Y-82515114D02*
X107483082Y-82372257D01*
X107483082Y-82372257D02*
X107625939Y-82300828D01*
X107625939Y-82300828D02*
X107768796Y-82300828D01*
X109411653Y-83800828D02*
X109411653Y-82300828D01*
X109411653Y-82300828D02*
X109983082Y-82300828D01*
X109983082Y-82300828D02*
X110125939Y-82372257D01*
X110125939Y-82372257D02*
X110197368Y-82443685D01*
X110197368Y-82443685D02*
X110268796Y-82586542D01*
X110268796Y-82586542D02*
X110268796Y-82800828D01*
X110268796Y-82800828D02*
X110197368Y-82943685D01*
X110197368Y-82943685D02*
X110125939Y-83015114D01*
X110125939Y-83015114D02*
X109983082Y-83086542D01*
X109983082Y-83086542D02*
X109411653Y-83086542D01*
X110911653Y-83800828D02*
X110911653Y-82800828D01*
X110911653Y-83086542D02*
X110983082Y-82943685D01*
X110983082Y-82943685D02*
X111054511Y-82872257D01*
X111054511Y-82872257D02*
X111197368Y-82800828D01*
X111197368Y-82800828D02*
X111340225Y-82800828D01*
X112054510Y-83800828D02*
X111911653Y-83729400D01*
X111911653Y-83729400D02*
X111840224Y-83657971D01*
X111840224Y-83657971D02*
X111768796Y-83515114D01*
X111768796Y-83515114D02*
X111768796Y-83086542D01*
X111768796Y-83086542D02*
X111840224Y-82943685D01*
X111840224Y-82943685D02*
X111911653Y-82872257D01*
X111911653Y-82872257D02*
X112054510Y-82800828D01*
X112054510Y-82800828D02*
X112268796Y-82800828D01*
X112268796Y-82800828D02*
X112411653Y-82872257D01*
X112411653Y-82872257D02*
X112483082Y-82943685D01*
X112483082Y-82943685D02*
X112554510Y-83086542D01*
X112554510Y-83086542D02*
X112554510Y-83515114D01*
X112554510Y-83515114D02*
X112483082Y-83657971D01*
X112483082Y-83657971D02*
X112411653Y-83729400D01*
X112411653Y-83729400D02*
X112268796Y-83800828D01*
X112268796Y-83800828D02*
X112054510Y-83800828D01*
X113197367Y-83800828D02*
X113197367Y-82300828D01*
X113197367Y-82872257D02*
X113340225Y-82800828D01*
X113340225Y-82800828D02*
X113625939Y-82800828D01*
X113625939Y-82800828D02*
X113768796Y-82872257D01*
X113768796Y-82872257D02*
X113840225Y-82943685D01*
X113840225Y-82943685D02*
X113911653Y-83086542D01*
X113911653Y-83086542D02*
X113911653Y-83515114D01*
X113911653Y-83515114D02*
X113840225Y-83657971D01*
X113840225Y-83657971D02*
X113768796Y-83729400D01*
X113768796Y-83729400D02*
X113625939Y-83800828D01*
X113625939Y-83800828D02*
X113340225Y-83800828D01*
X113340225Y-83800828D02*
X113197367Y-83729400D01*
X115125939Y-83729400D02*
X114983082Y-83800828D01*
X114983082Y-83800828D02*
X114697368Y-83800828D01*
X114697368Y-83800828D02*
X114554510Y-83729400D01*
X114554510Y-83729400D02*
X114483082Y-83586542D01*
X114483082Y-83586542D02*
X114483082Y-83015114D01*
X114483082Y-83015114D02*
X114554510Y-82872257D01*
X114554510Y-82872257D02*
X114697368Y-82800828D01*
X114697368Y-82800828D02*
X114983082Y-82800828D01*
X114983082Y-82800828D02*
X115125939Y-82872257D01*
X115125939Y-82872257D02*
X115197368Y-83015114D01*
X115197368Y-83015114D02*
X115197368Y-83157971D01*
X115197368Y-83157971D02*
X114483082Y-83300828D01*
D11*
X123869642Y-84669819D02*
X123536309Y-84193628D01*
X123298214Y-84669819D02*
X123298214Y-83669819D01*
X123298214Y-83669819D02*
X123679166Y-83669819D01*
X123679166Y-83669819D02*
X123774404Y-83717438D01*
X123774404Y-83717438D02*
X123822023Y-83765057D01*
X123822023Y-83765057D02*
X123869642Y-83860295D01*
X123869642Y-83860295D02*
X123869642Y-84003152D01*
X123869642Y-84003152D02*
X123822023Y-84098390D01*
X123822023Y-84098390D02*
X123774404Y-84146009D01*
X123774404Y-84146009D02*
X123679166Y-84193628D01*
X123679166Y-84193628D02*
X123298214Y-84193628D01*
X124822023Y-84669819D02*
X124250595Y-84669819D01*
X124536309Y-84669819D02*
X124536309Y-83669819D01*
X124536309Y-83669819D02*
X124441071Y-83812676D01*
X124441071Y-83812676D02*
X124345833Y-83907914D01*
X124345833Y-83907914D02*
X124250595Y-83955533D01*
X125155357Y-83669819D02*
X125774404Y-83669819D01*
X125774404Y-83669819D02*
X125441071Y-84050771D01*
X125441071Y-84050771D02*
X125583928Y-84050771D01*
X125583928Y-84050771D02*
X125679166Y-84098390D01*
X125679166Y-84098390D02*
X125726785Y-84146009D01*
X125726785Y-84146009D02*
X125774404Y-84241247D01*
X125774404Y-84241247D02*
X125774404Y-84479342D01*
X125774404Y-84479342D02*
X125726785Y-84574580D01*
X125726785Y-84574580D02*
X125679166Y-84622200D01*
X125679166Y-84622200D02*
X125583928Y-84669819D01*
X125583928Y-84669819D02*
X125298214Y-84669819D01*
X125298214Y-84669819D02*
X125202976Y-84622200D01*
X125202976Y-84622200D02*
X125155357Y-84574580D01*
X139946666Y-79454819D02*
X139946666Y-80169104D01*
X139946666Y-80169104D02*
X139899047Y-80311961D01*
X139899047Y-80311961D02*
X139803809Y-80407200D01*
X139803809Y-80407200D02*
X139660952Y-80454819D01*
X139660952Y-80454819D02*
X139565714Y-80454819D01*
X140946666Y-80454819D02*
X140375238Y-80454819D01*
X140660952Y-80454819D02*
X140660952Y-79454819D01*
X140660952Y-79454819D02*
X140565714Y-79597676D01*
X140565714Y-79597676D02*
X140470476Y-79692914D01*
X140470476Y-79692914D02*
X140375238Y-79740533D01*
X131179819Y-99533333D02*
X131894104Y-99533333D01*
X131894104Y-99533333D02*
X132036961Y-99580952D01*
X132036961Y-99580952D02*
X132132200Y-99676190D01*
X132132200Y-99676190D02*
X132179819Y-99819047D01*
X132179819Y-99819047D02*
X132179819Y-99914285D01*
X131179819Y-99152380D02*
X131179819Y-98533333D01*
X131179819Y-98533333D02*
X131560771Y-98866666D01*
X131560771Y-98866666D02*
X131560771Y-98723809D01*
X131560771Y-98723809D02*
X131608390Y-98628571D01*
X131608390Y-98628571D02*
X131656009Y-98580952D01*
X131656009Y-98580952D02*
X131751247Y-98533333D01*
X131751247Y-98533333D02*
X131989342Y-98533333D01*
X131989342Y-98533333D02*
X132084580Y-98580952D01*
X132084580Y-98580952D02*
X132132200Y-98628571D01*
X132132200Y-98628571D02*
X132179819Y-98723809D01*
X132179819Y-98723809D02*
X132179819Y-99009523D01*
X132179819Y-99009523D02*
X132132200Y-99104761D01*
X132132200Y-99104761D02*
X132084580Y-99152380D01*
X128419642Y-93469819D02*
X128086309Y-92993628D01*
X127848214Y-93469819D02*
X127848214Y-92469819D01*
X127848214Y-92469819D02*
X128229166Y-92469819D01*
X128229166Y-92469819D02*
X128324404Y-92517438D01*
X128324404Y-92517438D02*
X128372023Y-92565057D01*
X128372023Y-92565057D02*
X128419642Y-92660295D01*
X128419642Y-92660295D02*
X128419642Y-92803152D01*
X128419642Y-92803152D02*
X128372023Y-92898390D01*
X128372023Y-92898390D02*
X128324404Y-92946009D01*
X128324404Y-92946009D02*
X128229166Y-92993628D01*
X128229166Y-92993628D02*
X127848214Y-92993628D01*
X129372023Y-93469819D02*
X128800595Y-93469819D01*
X129086309Y-93469819D02*
X129086309Y-92469819D01*
X129086309Y-92469819D02*
X128991071Y-92612676D01*
X128991071Y-92612676D02*
X128895833Y-92707914D01*
X128895833Y-92707914D02*
X128800595Y-92755533D01*
X129705357Y-92469819D02*
X130372023Y-92469819D01*
X130372023Y-92469819D02*
X129943452Y-93469819D01*
X122238095Y-86054819D02*
X122238095Y-86864342D01*
X122238095Y-86864342D02*
X122285714Y-86959580D01*
X122285714Y-86959580D02*
X122333333Y-87007200D01*
X122333333Y-87007200D02*
X122428571Y-87054819D01*
X122428571Y-87054819D02*
X122619047Y-87054819D01*
X122619047Y-87054819D02*
X122714285Y-87007200D01*
X122714285Y-87007200D02*
X122761904Y-86959580D01*
X122761904Y-86959580D02*
X122809523Y-86864342D01*
X122809523Y-86864342D02*
X122809523Y-86054819D01*
X123809523Y-87054819D02*
X123238095Y-87054819D01*
X123523809Y-87054819D02*
X123523809Y-86054819D01*
X123523809Y-86054819D02*
X123428571Y-86197676D01*
X123428571Y-86197676D02*
X123333333Y-86292914D01*
X123333333Y-86292914D02*
X123238095Y-86340533D01*
X100745833Y-92804819D02*
X100412500Y-92328628D01*
X100174405Y-92804819D02*
X100174405Y-91804819D01*
X100174405Y-91804819D02*
X100555357Y-91804819D01*
X100555357Y-91804819D02*
X100650595Y-91852438D01*
X100650595Y-91852438D02*
X100698214Y-91900057D01*
X100698214Y-91900057D02*
X100745833Y-91995295D01*
X100745833Y-91995295D02*
X100745833Y-92138152D01*
X100745833Y-92138152D02*
X100698214Y-92233390D01*
X100698214Y-92233390D02*
X100650595Y-92281009D01*
X100650595Y-92281009D02*
X100555357Y-92328628D01*
X100555357Y-92328628D02*
X100174405Y-92328628D01*
X101602976Y-91804819D02*
X101412500Y-91804819D01*
X101412500Y-91804819D02*
X101317262Y-91852438D01*
X101317262Y-91852438D02*
X101269643Y-91900057D01*
X101269643Y-91900057D02*
X101174405Y-92042914D01*
X101174405Y-92042914D02*
X101126786Y-92233390D01*
X101126786Y-92233390D02*
X101126786Y-92614342D01*
X101126786Y-92614342D02*
X101174405Y-92709580D01*
X101174405Y-92709580D02*
X101222024Y-92757200D01*
X101222024Y-92757200D02*
X101317262Y-92804819D01*
X101317262Y-92804819D02*
X101507738Y-92804819D01*
X101507738Y-92804819D02*
X101602976Y-92757200D01*
X101602976Y-92757200D02*
X101650595Y-92709580D01*
X101650595Y-92709580D02*
X101698214Y-92614342D01*
X101698214Y-92614342D02*
X101698214Y-92376247D01*
X101698214Y-92376247D02*
X101650595Y-92281009D01*
X101650595Y-92281009D02*
X101602976Y-92233390D01*
X101602976Y-92233390D02*
X101507738Y-92185771D01*
X101507738Y-92185771D02*
X101317262Y-92185771D01*
X101317262Y-92185771D02*
X101222024Y-92233390D01*
X101222024Y-92233390D02*
X101174405Y-92281009D01*
X101174405Y-92281009D02*
X101126786Y-92376247D01*
X112745833Y-86804819D02*
X112412500Y-86328628D01*
X112174405Y-86804819D02*
X112174405Y-85804819D01*
X112174405Y-85804819D02*
X112555357Y-85804819D01*
X112555357Y-85804819D02*
X112650595Y-85852438D01*
X112650595Y-85852438D02*
X112698214Y-85900057D01*
X112698214Y-85900057D02*
X112745833Y-85995295D01*
X112745833Y-85995295D02*
X112745833Y-86138152D01*
X112745833Y-86138152D02*
X112698214Y-86233390D01*
X112698214Y-86233390D02*
X112650595Y-86281009D01*
X112650595Y-86281009D02*
X112555357Y-86328628D01*
X112555357Y-86328628D02*
X112174405Y-86328628D01*
X113602976Y-86138152D02*
X113602976Y-86804819D01*
X113364881Y-85757200D02*
X113126786Y-86471485D01*
X113126786Y-86471485D02*
X113745833Y-86471485D01*
X112269642Y-90804819D02*
X111936309Y-90328628D01*
X111698214Y-90804819D02*
X111698214Y-89804819D01*
X111698214Y-89804819D02*
X112079166Y-89804819D01*
X112079166Y-89804819D02*
X112174404Y-89852438D01*
X112174404Y-89852438D02*
X112222023Y-89900057D01*
X112222023Y-89900057D02*
X112269642Y-89995295D01*
X112269642Y-89995295D02*
X112269642Y-90138152D01*
X112269642Y-90138152D02*
X112222023Y-90233390D01*
X112222023Y-90233390D02*
X112174404Y-90281009D01*
X112174404Y-90281009D02*
X112079166Y-90328628D01*
X112079166Y-90328628D02*
X111698214Y-90328628D01*
X113222023Y-90804819D02*
X112650595Y-90804819D01*
X112936309Y-90804819D02*
X112936309Y-89804819D01*
X112936309Y-89804819D02*
X112841071Y-89947676D01*
X112841071Y-89947676D02*
X112745833Y-90042914D01*
X112745833Y-90042914D02*
X112650595Y-90090533D01*
X113841071Y-89804819D02*
X113936309Y-89804819D01*
X113936309Y-89804819D02*
X114031547Y-89852438D01*
X114031547Y-89852438D02*
X114079166Y-89900057D01*
X114079166Y-89900057D02*
X114126785Y-89995295D01*
X114126785Y-89995295D02*
X114174404Y-90185771D01*
X114174404Y-90185771D02*
X114174404Y-90423866D01*
X114174404Y-90423866D02*
X114126785Y-90614342D01*
X114126785Y-90614342D02*
X114079166Y-90709580D01*
X114079166Y-90709580D02*
X114031547Y-90757200D01*
X114031547Y-90757200D02*
X113936309Y-90804819D01*
X113936309Y-90804819D02*
X113841071Y-90804819D01*
X113841071Y-90804819D02*
X113745833Y-90757200D01*
X113745833Y-90757200D02*
X113698214Y-90709580D01*
X113698214Y-90709580D02*
X113650595Y-90614342D01*
X113650595Y-90614342D02*
X113602976Y-90423866D01*
X113602976Y-90423866D02*
X113602976Y-90185771D01*
X113602976Y-90185771D02*
X113650595Y-89995295D01*
X113650595Y-89995295D02*
X113698214Y-89900057D01*
X113698214Y-89900057D02*
X113745833Y-89852438D01*
X113745833Y-89852438D02*
X113841071Y-89804819D01*
X108833333Y-92804819D02*
X108500000Y-92328628D01*
X108261905Y-92804819D02*
X108261905Y-91804819D01*
X108261905Y-91804819D02*
X108642857Y-91804819D01*
X108642857Y-91804819D02*
X108738095Y-91852438D01*
X108738095Y-91852438D02*
X108785714Y-91900057D01*
X108785714Y-91900057D02*
X108833333Y-91995295D01*
X108833333Y-91995295D02*
X108833333Y-92138152D01*
X108833333Y-92138152D02*
X108785714Y-92233390D01*
X108785714Y-92233390D02*
X108738095Y-92281009D01*
X108738095Y-92281009D02*
X108642857Y-92328628D01*
X108642857Y-92328628D02*
X108261905Y-92328628D01*
X109404762Y-92233390D02*
X109309524Y-92185771D01*
X109309524Y-92185771D02*
X109261905Y-92138152D01*
X109261905Y-92138152D02*
X109214286Y-92042914D01*
X109214286Y-92042914D02*
X109214286Y-91995295D01*
X109214286Y-91995295D02*
X109261905Y-91900057D01*
X109261905Y-91900057D02*
X109309524Y-91852438D01*
X109309524Y-91852438D02*
X109404762Y-91804819D01*
X109404762Y-91804819D02*
X109595238Y-91804819D01*
X109595238Y-91804819D02*
X109690476Y-91852438D01*
X109690476Y-91852438D02*
X109738095Y-91900057D01*
X109738095Y-91900057D02*
X109785714Y-91995295D01*
X109785714Y-91995295D02*
X109785714Y-92042914D01*
X109785714Y-92042914D02*
X109738095Y-92138152D01*
X109738095Y-92138152D02*
X109690476Y-92185771D01*
X109690476Y-92185771D02*
X109595238Y-92233390D01*
X109595238Y-92233390D02*
X109404762Y-92233390D01*
X109404762Y-92233390D02*
X109309524Y-92281009D01*
X109309524Y-92281009D02*
X109261905Y-92328628D01*
X109261905Y-92328628D02*
X109214286Y-92423866D01*
X109214286Y-92423866D02*
X109214286Y-92614342D01*
X109214286Y-92614342D02*
X109261905Y-92709580D01*
X109261905Y-92709580D02*
X109309524Y-92757200D01*
X109309524Y-92757200D02*
X109404762Y-92804819D01*
X109404762Y-92804819D02*
X109595238Y-92804819D01*
X109595238Y-92804819D02*
X109690476Y-92757200D01*
X109690476Y-92757200D02*
X109738095Y-92709580D01*
X109738095Y-92709580D02*
X109785714Y-92614342D01*
X109785714Y-92614342D02*
X109785714Y-92423866D01*
X109785714Y-92423866D02*
X109738095Y-92328628D01*
X109738095Y-92328628D02*
X109690476Y-92281009D01*
X109690476Y-92281009D02*
X109595238Y-92233390D01*
X116783333Y-94679580D02*
X116735714Y-94727200D01*
X116735714Y-94727200D02*
X116592857Y-94774819D01*
X116592857Y-94774819D02*
X116497619Y-94774819D01*
X116497619Y-94774819D02*
X116354762Y-94727200D01*
X116354762Y-94727200D02*
X116259524Y-94631961D01*
X116259524Y-94631961D02*
X116211905Y-94536723D01*
X116211905Y-94536723D02*
X116164286Y-94346247D01*
X116164286Y-94346247D02*
X116164286Y-94203390D01*
X116164286Y-94203390D02*
X116211905Y-94012914D01*
X116211905Y-94012914D02*
X116259524Y-93917676D01*
X116259524Y-93917676D02*
X116354762Y-93822438D01*
X116354762Y-93822438D02*
X116497619Y-93774819D01*
X116497619Y-93774819D02*
X116592857Y-93774819D01*
X116592857Y-93774819D02*
X116735714Y-93822438D01*
X116735714Y-93822438D02*
X116783333Y-93870057D01*
X117640476Y-94108152D02*
X117640476Y-94774819D01*
X117402381Y-93727200D02*
X117164286Y-94441485D01*
X117164286Y-94441485D02*
X117783333Y-94441485D01*
X112745833Y-88804819D02*
X112412500Y-88328628D01*
X112174405Y-88804819D02*
X112174405Y-87804819D01*
X112174405Y-87804819D02*
X112555357Y-87804819D01*
X112555357Y-87804819D02*
X112650595Y-87852438D01*
X112650595Y-87852438D02*
X112698214Y-87900057D01*
X112698214Y-87900057D02*
X112745833Y-87995295D01*
X112745833Y-87995295D02*
X112745833Y-88138152D01*
X112745833Y-88138152D02*
X112698214Y-88233390D01*
X112698214Y-88233390D02*
X112650595Y-88281009D01*
X112650595Y-88281009D02*
X112555357Y-88328628D01*
X112555357Y-88328628D02*
X112174405Y-88328628D01*
X113650595Y-87804819D02*
X113174405Y-87804819D01*
X113174405Y-87804819D02*
X113126786Y-88281009D01*
X113126786Y-88281009D02*
X113174405Y-88233390D01*
X113174405Y-88233390D02*
X113269643Y-88185771D01*
X113269643Y-88185771D02*
X113507738Y-88185771D01*
X113507738Y-88185771D02*
X113602976Y-88233390D01*
X113602976Y-88233390D02*
X113650595Y-88281009D01*
X113650595Y-88281009D02*
X113698214Y-88376247D01*
X113698214Y-88376247D02*
X113698214Y-88614342D01*
X113698214Y-88614342D02*
X113650595Y-88709580D01*
X113650595Y-88709580D02*
X113602976Y-88757200D01*
X113602976Y-88757200D02*
X113507738Y-88804819D01*
X113507738Y-88804819D02*
X113269643Y-88804819D01*
X113269643Y-88804819D02*
X113174405Y-88757200D01*
X113174405Y-88757200D02*
X113126786Y-88709580D01*
X128244642Y-88169819D02*
X127911309Y-87693628D01*
X127673214Y-88169819D02*
X127673214Y-87169819D01*
X127673214Y-87169819D02*
X128054166Y-87169819D01*
X128054166Y-87169819D02*
X128149404Y-87217438D01*
X128149404Y-87217438D02*
X128197023Y-87265057D01*
X128197023Y-87265057D02*
X128244642Y-87360295D01*
X128244642Y-87360295D02*
X128244642Y-87503152D01*
X128244642Y-87503152D02*
X128197023Y-87598390D01*
X128197023Y-87598390D02*
X128149404Y-87646009D01*
X128149404Y-87646009D02*
X128054166Y-87693628D01*
X128054166Y-87693628D02*
X127673214Y-87693628D01*
X129197023Y-88169819D02*
X128625595Y-88169819D01*
X128911309Y-88169819D02*
X128911309Y-87169819D01*
X128911309Y-87169819D02*
X128816071Y-87312676D01*
X128816071Y-87312676D02*
X128720833Y-87407914D01*
X128720833Y-87407914D02*
X128625595Y-87455533D01*
X130101785Y-87169819D02*
X129625595Y-87169819D01*
X129625595Y-87169819D02*
X129577976Y-87646009D01*
X129577976Y-87646009D02*
X129625595Y-87598390D01*
X129625595Y-87598390D02*
X129720833Y-87550771D01*
X129720833Y-87550771D02*
X129958928Y-87550771D01*
X129958928Y-87550771D02*
X130054166Y-87598390D01*
X130054166Y-87598390D02*
X130101785Y-87646009D01*
X130101785Y-87646009D02*
X130149404Y-87741247D01*
X130149404Y-87741247D02*
X130149404Y-87979342D01*
X130149404Y-87979342D02*
X130101785Y-88074580D01*
X130101785Y-88074580D02*
X130054166Y-88122200D01*
X130054166Y-88122200D02*
X129958928Y-88169819D01*
X129958928Y-88169819D02*
X129720833Y-88169819D01*
X129720833Y-88169819D02*
X129625595Y-88122200D01*
X129625595Y-88122200D02*
X129577976Y-88074580D01*
X104745833Y-92804819D02*
X104412500Y-92328628D01*
X104174405Y-92804819D02*
X104174405Y-91804819D01*
X104174405Y-91804819D02*
X104555357Y-91804819D01*
X104555357Y-91804819D02*
X104650595Y-91852438D01*
X104650595Y-91852438D02*
X104698214Y-91900057D01*
X104698214Y-91900057D02*
X104745833Y-91995295D01*
X104745833Y-91995295D02*
X104745833Y-92138152D01*
X104745833Y-92138152D02*
X104698214Y-92233390D01*
X104698214Y-92233390D02*
X104650595Y-92281009D01*
X104650595Y-92281009D02*
X104555357Y-92328628D01*
X104555357Y-92328628D02*
X104174405Y-92328628D01*
X105079167Y-91804819D02*
X105745833Y-91804819D01*
X105745833Y-91804819D02*
X105317262Y-92804819D01*
X132454819Y-86188094D02*
X131454819Y-86188094D01*
X131454819Y-86188094D02*
X131454819Y-85949999D01*
X131454819Y-85949999D02*
X131502438Y-85807142D01*
X131502438Y-85807142D02*
X131597676Y-85711904D01*
X131597676Y-85711904D02*
X131692914Y-85664285D01*
X131692914Y-85664285D02*
X131883390Y-85616666D01*
X131883390Y-85616666D02*
X132026247Y-85616666D01*
X132026247Y-85616666D02*
X132216723Y-85664285D01*
X132216723Y-85664285D02*
X132311961Y-85711904D01*
X132311961Y-85711904D02*
X132407200Y-85807142D01*
X132407200Y-85807142D02*
X132454819Y-85949999D01*
X132454819Y-85949999D02*
X132454819Y-86188094D01*
X132454819Y-84664285D02*
X132454819Y-85235713D01*
X132454819Y-84949999D02*
X131454819Y-84949999D01*
X131454819Y-84949999D02*
X131597676Y-85045237D01*
X131597676Y-85045237D02*
X131692914Y-85140475D01*
X131692914Y-85140475D02*
X131740533Y-85235713D01*
X116269642Y-90104819D02*
X115936309Y-89628628D01*
X115698214Y-90104819D02*
X115698214Y-89104819D01*
X115698214Y-89104819D02*
X116079166Y-89104819D01*
X116079166Y-89104819D02*
X116174404Y-89152438D01*
X116174404Y-89152438D02*
X116222023Y-89200057D01*
X116222023Y-89200057D02*
X116269642Y-89295295D01*
X116269642Y-89295295D02*
X116269642Y-89438152D01*
X116269642Y-89438152D02*
X116222023Y-89533390D01*
X116222023Y-89533390D02*
X116174404Y-89581009D01*
X116174404Y-89581009D02*
X116079166Y-89628628D01*
X116079166Y-89628628D02*
X115698214Y-89628628D01*
X117222023Y-90104819D02*
X116650595Y-90104819D01*
X116936309Y-90104819D02*
X116936309Y-89104819D01*
X116936309Y-89104819D02*
X116841071Y-89247676D01*
X116841071Y-89247676D02*
X116745833Y-89342914D01*
X116745833Y-89342914D02*
X116650595Y-89390533D01*
X118174404Y-90104819D02*
X117602976Y-90104819D01*
X117888690Y-90104819D02*
X117888690Y-89104819D01*
X117888690Y-89104819D02*
X117793452Y-89247676D01*
X117793452Y-89247676D02*
X117698214Y-89342914D01*
X117698214Y-89342914D02*
X117602976Y-89390533D01*
X120419642Y-84669819D02*
X120086309Y-84193628D01*
X119848214Y-84669819D02*
X119848214Y-83669819D01*
X119848214Y-83669819D02*
X120229166Y-83669819D01*
X120229166Y-83669819D02*
X120324404Y-83717438D01*
X120324404Y-83717438D02*
X120372023Y-83765057D01*
X120372023Y-83765057D02*
X120419642Y-83860295D01*
X120419642Y-83860295D02*
X120419642Y-84003152D01*
X120419642Y-84003152D02*
X120372023Y-84098390D01*
X120372023Y-84098390D02*
X120324404Y-84146009D01*
X120324404Y-84146009D02*
X120229166Y-84193628D01*
X120229166Y-84193628D02*
X119848214Y-84193628D01*
X121372023Y-84669819D02*
X120800595Y-84669819D01*
X121086309Y-84669819D02*
X121086309Y-83669819D01*
X121086309Y-83669819D02*
X120991071Y-83812676D01*
X120991071Y-83812676D02*
X120895833Y-83907914D01*
X120895833Y-83907914D02*
X120800595Y-83955533D01*
X122229166Y-84003152D02*
X122229166Y-84669819D01*
X121991071Y-83622200D02*
X121752976Y-84336485D01*
X121752976Y-84336485D02*
X122372023Y-84336485D01*
X112783333Y-94679580D02*
X112735714Y-94727200D01*
X112735714Y-94727200D02*
X112592857Y-94774819D01*
X112592857Y-94774819D02*
X112497619Y-94774819D01*
X112497619Y-94774819D02*
X112354762Y-94727200D01*
X112354762Y-94727200D02*
X112259524Y-94631961D01*
X112259524Y-94631961D02*
X112211905Y-94536723D01*
X112211905Y-94536723D02*
X112164286Y-94346247D01*
X112164286Y-94346247D02*
X112164286Y-94203390D01*
X112164286Y-94203390D02*
X112211905Y-94012914D01*
X112211905Y-94012914D02*
X112259524Y-93917676D01*
X112259524Y-93917676D02*
X112354762Y-93822438D01*
X112354762Y-93822438D02*
X112497619Y-93774819D01*
X112497619Y-93774819D02*
X112592857Y-93774819D01*
X112592857Y-93774819D02*
X112735714Y-93822438D01*
X112735714Y-93822438D02*
X112783333Y-93870057D01*
X113735714Y-94774819D02*
X113164286Y-94774819D01*
X113450000Y-94774819D02*
X113450000Y-93774819D01*
X113450000Y-93774819D02*
X113354762Y-93917676D01*
X113354762Y-93917676D02*
X113259524Y-94012914D01*
X113259524Y-94012914D02*
X113164286Y-94060533D01*
X119907142Y-94679580D02*
X119859523Y-94727200D01*
X119859523Y-94727200D02*
X119716666Y-94774819D01*
X119716666Y-94774819D02*
X119621428Y-94774819D01*
X119621428Y-94774819D02*
X119478571Y-94727200D01*
X119478571Y-94727200D02*
X119383333Y-94631961D01*
X119383333Y-94631961D02*
X119335714Y-94536723D01*
X119335714Y-94536723D02*
X119288095Y-94346247D01*
X119288095Y-94346247D02*
X119288095Y-94203390D01*
X119288095Y-94203390D02*
X119335714Y-94012914D01*
X119335714Y-94012914D02*
X119383333Y-93917676D01*
X119383333Y-93917676D02*
X119478571Y-93822438D01*
X119478571Y-93822438D02*
X119621428Y-93774819D01*
X119621428Y-93774819D02*
X119716666Y-93774819D01*
X119716666Y-93774819D02*
X119859523Y-93822438D01*
X119859523Y-93822438D02*
X119907142Y-93870057D01*
X120859523Y-94774819D02*
X120288095Y-94774819D01*
X120573809Y-94774819D02*
X120573809Y-93774819D01*
X120573809Y-93774819D02*
X120478571Y-93917676D01*
X120478571Y-93917676D02*
X120383333Y-94012914D01*
X120383333Y-94012914D02*
X120288095Y-94060533D01*
X121478571Y-93774819D02*
X121573809Y-93774819D01*
X121573809Y-93774819D02*
X121669047Y-93822438D01*
X121669047Y-93822438D02*
X121716666Y-93870057D01*
X121716666Y-93870057D02*
X121764285Y-93965295D01*
X121764285Y-93965295D02*
X121811904Y-94155771D01*
X121811904Y-94155771D02*
X121811904Y-94393866D01*
X121811904Y-94393866D02*
X121764285Y-94584342D01*
X121764285Y-94584342D02*
X121716666Y-94679580D01*
X121716666Y-94679580D02*
X121669047Y-94727200D01*
X121669047Y-94727200D02*
X121573809Y-94774819D01*
X121573809Y-94774819D02*
X121478571Y-94774819D01*
X121478571Y-94774819D02*
X121383333Y-94727200D01*
X121383333Y-94727200D02*
X121335714Y-94679580D01*
X121335714Y-94679580D02*
X121288095Y-94584342D01*
X121288095Y-94584342D02*
X121240476Y-94393866D01*
X121240476Y-94393866D02*
X121240476Y-94155771D01*
X121240476Y-94155771D02*
X121288095Y-93965295D01*
X121288095Y-93965295D02*
X121335714Y-93870057D01*
X121335714Y-93870057D02*
X121383333Y-93822438D01*
X121383333Y-93822438D02*
X121478571Y-93774819D01*
X128883333Y-84679580D02*
X128835714Y-84727200D01*
X128835714Y-84727200D02*
X128692857Y-84774819D01*
X128692857Y-84774819D02*
X128597619Y-84774819D01*
X128597619Y-84774819D02*
X128454762Y-84727200D01*
X128454762Y-84727200D02*
X128359524Y-84631961D01*
X128359524Y-84631961D02*
X128311905Y-84536723D01*
X128311905Y-84536723D02*
X128264286Y-84346247D01*
X128264286Y-84346247D02*
X128264286Y-84203390D01*
X128264286Y-84203390D02*
X128311905Y-84012914D01*
X128311905Y-84012914D02*
X128359524Y-83917676D01*
X128359524Y-83917676D02*
X128454762Y-83822438D01*
X128454762Y-83822438D02*
X128597619Y-83774819D01*
X128597619Y-83774819D02*
X128692857Y-83774819D01*
X128692857Y-83774819D02*
X128835714Y-83822438D01*
X128835714Y-83822438D02*
X128883333Y-83870057D01*
X129359524Y-84774819D02*
X129550000Y-84774819D01*
X129550000Y-84774819D02*
X129645238Y-84727200D01*
X129645238Y-84727200D02*
X129692857Y-84679580D01*
X129692857Y-84679580D02*
X129788095Y-84536723D01*
X129788095Y-84536723D02*
X129835714Y-84346247D01*
X129835714Y-84346247D02*
X129835714Y-83965295D01*
X129835714Y-83965295D02*
X129788095Y-83870057D01*
X129788095Y-83870057D02*
X129740476Y-83822438D01*
X129740476Y-83822438D02*
X129645238Y-83774819D01*
X129645238Y-83774819D02*
X129454762Y-83774819D01*
X129454762Y-83774819D02*
X129359524Y-83822438D01*
X129359524Y-83822438D02*
X129311905Y-83870057D01*
X129311905Y-83870057D02*
X129264286Y-83965295D01*
X129264286Y-83965295D02*
X129264286Y-84203390D01*
X129264286Y-84203390D02*
X129311905Y-84298628D01*
X129311905Y-84298628D02*
X129359524Y-84346247D01*
X129359524Y-84346247D02*
X129454762Y-84393866D01*
X129454762Y-84393866D02*
X129645238Y-84393866D01*
X129645238Y-84393866D02*
X129740476Y-84346247D01*
X129740476Y-84346247D02*
X129788095Y-84298628D01*
X129788095Y-84298628D02*
X129835714Y-84203390D01*
X104745833Y-86779819D02*
X104412500Y-86303628D01*
X104174405Y-86779819D02*
X104174405Y-85779819D01*
X104174405Y-85779819D02*
X104555357Y-85779819D01*
X104555357Y-85779819D02*
X104650595Y-85827438D01*
X104650595Y-85827438D02*
X104698214Y-85875057D01*
X104698214Y-85875057D02*
X104745833Y-85970295D01*
X104745833Y-85970295D02*
X104745833Y-86113152D01*
X104745833Y-86113152D02*
X104698214Y-86208390D01*
X104698214Y-86208390D02*
X104650595Y-86256009D01*
X104650595Y-86256009D02*
X104555357Y-86303628D01*
X104555357Y-86303628D02*
X104174405Y-86303628D01*
X105126786Y-85875057D02*
X105174405Y-85827438D01*
X105174405Y-85827438D02*
X105269643Y-85779819D01*
X105269643Y-85779819D02*
X105507738Y-85779819D01*
X105507738Y-85779819D02*
X105602976Y-85827438D01*
X105602976Y-85827438D02*
X105650595Y-85875057D01*
X105650595Y-85875057D02*
X105698214Y-85970295D01*
X105698214Y-85970295D02*
X105698214Y-86065533D01*
X105698214Y-86065533D02*
X105650595Y-86208390D01*
X105650595Y-86208390D02*
X105079167Y-86779819D01*
X105079167Y-86779819D02*
X105698214Y-86779819D01*
X112783333Y-84679580D02*
X112735714Y-84727200D01*
X112735714Y-84727200D02*
X112592857Y-84774819D01*
X112592857Y-84774819D02*
X112497619Y-84774819D01*
X112497619Y-84774819D02*
X112354762Y-84727200D01*
X112354762Y-84727200D02*
X112259524Y-84631961D01*
X112259524Y-84631961D02*
X112211905Y-84536723D01*
X112211905Y-84536723D02*
X112164286Y-84346247D01*
X112164286Y-84346247D02*
X112164286Y-84203390D01*
X112164286Y-84203390D02*
X112211905Y-84012914D01*
X112211905Y-84012914D02*
X112259524Y-83917676D01*
X112259524Y-83917676D02*
X112354762Y-83822438D01*
X112354762Y-83822438D02*
X112497619Y-83774819D01*
X112497619Y-83774819D02*
X112592857Y-83774819D01*
X112592857Y-83774819D02*
X112735714Y-83822438D01*
X112735714Y-83822438D02*
X112783333Y-83870057D01*
X113164286Y-83870057D02*
X113211905Y-83822438D01*
X113211905Y-83822438D02*
X113307143Y-83774819D01*
X113307143Y-83774819D02*
X113545238Y-83774819D01*
X113545238Y-83774819D02*
X113640476Y-83822438D01*
X113640476Y-83822438D02*
X113688095Y-83870057D01*
X113688095Y-83870057D02*
X113735714Y-83965295D01*
X113735714Y-83965295D02*
X113735714Y-84060533D01*
X113735714Y-84060533D02*
X113688095Y-84203390D01*
X113688095Y-84203390D02*
X113116667Y-84774819D01*
X113116667Y-84774819D02*
X113735714Y-84774819D01*
X116269642Y-92804819D02*
X115936309Y-92328628D01*
X115698214Y-92804819D02*
X115698214Y-91804819D01*
X115698214Y-91804819D02*
X116079166Y-91804819D01*
X116079166Y-91804819D02*
X116174404Y-91852438D01*
X116174404Y-91852438D02*
X116222023Y-91900057D01*
X116222023Y-91900057D02*
X116269642Y-91995295D01*
X116269642Y-91995295D02*
X116269642Y-92138152D01*
X116269642Y-92138152D02*
X116222023Y-92233390D01*
X116222023Y-92233390D02*
X116174404Y-92281009D01*
X116174404Y-92281009D02*
X116079166Y-92328628D01*
X116079166Y-92328628D02*
X115698214Y-92328628D01*
X117222023Y-92804819D02*
X116650595Y-92804819D01*
X116936309Y-92804819D02*
X116936309Y-91804819D01*
X116936309Y-91804819D02*
X116841071Y-91947676D01*
X116841071Y-91947676D02*
X116745833Y-92042914D01*
X116745833Y-92042914D02*
X116650595Y-92090533D01*
X117602976Y-91900057D02*
X117650595Y-91852438D01*
X117650595Y-91852438D02*
X117745833Y-91804819D01*
X117745833Y-91804819D02*
X117983928Y-91804819D01*
X117983928Y-91804819D02*
X118079166Y-91852438D01*
X118079166Y-91852438D02*
X118126785Y-91900057D01*
X118126785Y-91900057D02*
X118174404Y-91995295D01*
X118174404Y-91995295D02*
X118174404Y-92090533D01*
X118174404Y-92090533D02*
X118126785Y-92233390D01*
X118126785Y-92233390D02*
X117555357Y-92804819D01*
X117555357Y-92804819D02*
X118174404Y-92804819D01*
X108745833Y-86804819D02*
X108412500Y-86328628D01*
X108174405Y-86804819D02*
X108174405Y-85804819D01*
X108174405Y-85804819D02*
X108555357Y-85804819D01*
X108555357Y-85804819D02*
X108650595Y-85852438D01*
X108650595Y-85852438D02*
X108698214Y-85900057D01*
X108698214Y-85900057D02*
X108745833Y-85995295D01*
X108745833Y-85995295D02*
X108745833Y-86138152D01*
X108745833Y-86138152D02*
X108698214Y-86233390D01*
X108698214Y-86233390D02*
X108650595Y-86281009D01*
X108650595Y-86281009D02*
X108555357Y-86328628D01*
X108555357Y-86328628D02*
X108174405Y-86328628D01*
X109079167Y-85804819D02*
X109698214Y-85804819D01*
X109698214Y-85804819D02*
X109364881Y-86185771D01*
X109364881Y-86185771D02*
X109507738Y-86185771D01*
X109507738Y-86185771D02*
X109602976Y-86233390D01*
X109602976Y-86233390D02*
X109650595Y-86281009D01*
X109650595Y-86281009D02*
X109698214Y-86376247D01*
X109698214Y-86376247D02*
X109698214Y-86614342D01*
X109698214Y-86614342D02*
X109650595Y-86709580D01*
X109650595Y-86709580D02*
X109602976Y-86757200D01*
X109602976Y-86757200D02*
X109507738Y-86804819D01*
X109507738Y-86804819D02*
X109222024Y-86804819D01*
X109222024Y-86804819D02*
X109126786Y-86757200D01*
X109126786Y-86757200D02*
X109079167Y-86709580D01*
X91054819Y-90833333D02*
X91769104Y-90833333D01*
X91769104Y-90833333D02*
X91911961Y-90880952D01*
X91911961Y-90880952D02*
X92007200Y-90976190D01*
X92007200Y-90976190D02*
X92054819Y-91119047D01*
X92054819Y-91119047D02*
X92054819Y-91214285D01*
X91150057Y-90404761D02*
X91102438Y-90357142D01*
X91102438Y-90357142D02*
X91054819Y-90261904D01*
X91054819Y-90261904D02*
X91054819Y-90023809D01*
X91054819Y-90023809D02*
X91102438Y-89928571D01*
X91102438Y-89928571D02*
X91150057Y-89880952D01*
X91150057Y-89880952D02*
X91245295Y-89833333D01*
X91245295Y-89833333D02*
X91340533Y-89833333D01*
X91340533Y-89833333D02*
X91483390Y-89880952D01*
X91483390Y-89880952D02*
X92054819Y-90452380D01*
X92054819Y-90452380D02*
X92054819Y-89833333D01*
X112833333Y-92804819D02*
X112500000Y-92328628D01*
X112261905Y-92804819D02*
X112261905Y-91804819D01*
X112261905Y-91804819D02*
X112642857Y-91804819D01*
X112642857Y-91804819D02*
X112738095Y-91852438D01*
X112738095Y-91852438D02*
X112785714Y-91900057D01*
X112785714Y-91900057D02*
X112833333Y-91995295D01*
X112833333Y-91995295D02*
X112833333Y-92138152D01*
X112833333Y-92138152D02*
X112785714Y-92233390D01*
X112785714Y-92233390D02*
X112738095Y-92281009D01*
X112738095Y-92281009D02*
X112642857Y-92328628D01*
X112642857Y-92328628D02*
X112261905Y-92328628D01*
X113309524Y-92804819D02*
X113500000Y-92804819D01*
X113500000Y-92804819D02*
X113595238Y-92757200D01*
X113595238Y-92757200D02*
X113642857Y-92709580D01*
X113642857Y-92709580D02*
X113738095Y-92566723D01*
X113738095Y-92566723D02*
X113785714Y-92376247D01*
X113785714Y-92376247D02*
X113785714Y-91995295D01*
X113785714Y-91995295D02*
X113738095Y-91900057D01*
X113738095Y-91900057D02*
X113690476Y-91852438D01*
X113690476Y-91852438D02*
X113595238Y-91804819D01*
X113595238Y-91804819D02*
X113404762Y-91804819D01*
X113404762Y-91804819D02*
X113309524Y-91852438D01*
X113309524Y-91852438D02*
X113261905Y-91900057D01*
X113261905Y-91900057D02*
X113214286Y-91995295D01*
X113214286Y-91995295D02*
X113214286Y-92233390D01*
X113214286Y-92233390D02*
X113261905Y-92328628D01*
X113261905Y-92328628D02*
X113309524Y-92376247D01*
X113309524Y-92376247D02*
X113404762Y-92423866D01*
X113404762Y-92423866D02*
X113595238Y-92423866D01*
X113595238Y-92423866D02*
X113690476Y-92376247D01*
X113690476Y-92376247D02*
X113738095Y-92328628D01*
X113738095Y-92328628D02*
X113785714Y-92233390D01*
X120444642Y-82704819D02*
X120111309Y-82228628D01*
X119873214Y-82704819D02*
X119873214Y-81704819D01*
X119873214Y-81704819D02*
X120254166Y-81704819D01*
X120254166Y-81704819D02*
X120349404Y-81752438D01*
X120349404Y-81752438D02*
X120397023Y-81800057D01*
X120397023Y-81800057D02*
X120444642Y-81895295D01*
X120444642Y-81895295D02*
X120444642Y-82038152D01*
X120444642Y-82038152D02*
X120397023Y-82133390D01*
X120397023Y-82133390D02*
X120349404Y-82181009D01*
X120349404Y-82181009D02*
X120254166Y-82228628D01*
X120254166Y-82228628D02*
X119873214Y-82228628D01*
X121397023Y-82704819D02*
X120825595Y-82704819D01*
X121111309Y-82704819D02*
X121111309Y-81704819D01*
X121111309Y-81704819D02*
X121016071Y-81847676D01*
X121016071Y-81847676D02*
X120920833Y-81942914D01*
X120920833Y-81942914D02*
X120825595Y-81990533D01*
X122254166Y-81704819D02*
X122063690Y-81704819D01*
X122063690Y-81704819D02*
X121968452Y-81752438D01*
X121968452Y-81752438D02*
X121920833Y-81800057D01*
X121920833Y-81800057D02*
X121825595Y-81942914D01*
X121825595Y-81942914D02*
X121777976Y-82133390D01*
X121777976Y-82133390D02*
X121777976Y-82514342D01*
X121777976Y-82514342D02*
X121825595Y-82609580D01*
X121825595Y-82609580D02*
X121873214Y-82657200D01*
X121873214Y-82657200D02*
X121968452Y-82704819D01*
X121968452Y-82704819D02*
X122158928Y-82704819D01*
X122158928Y-82704819D02*
X122254166Y-82657200D01*
X122254166Y-82657200D02*
X122301785Y-82609580D01*
X122301785Y-82609580D02*
X122349404Y-82514342D01*
X122349404Y-82514342D02*
X122349404Y-82276247D01*
X122349404Y-82276247D02*
X122301785Y-82181009D01*
X122301785Y-82181009D02*
X122254166Y-82133390D01*
X122254166Y-82133390D02*
X122158928Y-82085771D01*
X122158928Y-82085771D02*
X121968452Y-82085771D01*
X121968452Y-82085771D02*
X121873214Y-82133390D01*
X121873214Y-82133390D02*
X121825595Y-82181009D01*
X121825595Y-82181009D02*
X121777976Y-82276247D01*
X116783333Y-88039580D02*
X116735714Y-88087200D01*
X116735714Y-88087200D02*
X116592857Y-88134819D01*
X116592857Y-88134819D02*
X116497619Y-88134819D01*
X116497619Y-88134819D02*
X116354762Y-88087200D01*
X116354762Y-88087200D02*
X116259524Y-87991961D01*
X116259524Y-87991961D02*
X116211905Y-87896723D01*
X116211905Y-87896723D02*
X116164286Y-87706247D01*
X116164286Y-87706247D02*
X116164286Y-87563390D01*
X116164286Y-87563390D02*
X116211905Y-87372914D01*
X116211905Y-87372914D02*
X116259524Y-87277676D01*
X116259524Y-87277676D02*
X116354762Y-87182438D01*
X116354762Y-87182438D02*
X116497619Y-87134819D01*
X116497619Y-87134819D02*
X116592857Y-87134819D01*
X116592857Y-87134819D02*
X116735714Y-87182438D01*
X116735714Y-87182438D02*
X116783333Y-87230057D01*
X117116667Y-87134819D02*
X117735714Y-87134819D01*
X117735714Y-87134819D02*
X117402381Y-87515771D01*
X117402381Y-87515771D02*
X117545238Y-87515771D01*
X117545238Y-87515771D02*
X117640476Y-87563390D01*
X117640476Y-87563390D02*
X117688095Y-87611009D01*
X117688095Y-87611009D02*
X117735714Y-87706247D01*
X117735714Y-87706247D02*
X117735714Y-87944342D01*
X117735714Y-87944342D02*
X117688095Y-88039580D01*
X117688095Y-88039580D02*
X117640476Y-88087200D01*
X117640476Y-88087200D02*
X117545238Y-88134819D01*
X117545238Y-88134819D02*
X117259524Y-88134819D01*
X117259524Y-88134819D02*
X117164286Y-88087200D01*
X117164286Y-88087200D02*
X117116667Y-88039580D01*
X100745833Y-86804819D02*
X100412500Y-86328628D01*
X100174405Y-86804819D02*
X100174405Y-85804819D01*
X100174405Y-85804819D02*
X100555357Y-85804819D01*
X100555357Y-85804819D02*
X100650595Y-85852438D01*
X100650595Y-85852438D02*
X100698214Y-85900057D01*
X100698214Y-85900057D02*
X100745833Y-85995295D01*
X100745833Y-85995295D02*
X100745833Y-86138152D01*
X100745833Y-86138152D02*
X100698214Y-86233390D01*
X100698214Y-86233390D02*
X100650595Y-86281009D01*
X100650595Y-86281009D02*
X100555357Y-86328628D01*
X100555357Y-86328628D02*
X100174405Y-86328628D01*
X101698214Y-86804819D02*
X101126786Y-86804819D01*
X101412500Y-86804819D02*
X101412500Y-85804819D01*
X101412500Y-85804819D02*
X101317262Y-85947676D01*
X101317262Y-85947676D02*
X101222024Y-86042914D01*
X101222024Y-86042914D02*
X101126786Y-86090533D01*
X131662319Y-100551904D02*
X132471842Y-100551904D01*
X132471842Y-100551904D02*
X132567080Y-100504285D01*
X132567080Y-100504285D02*
X132614700Y-100456666D01*
X132614700Y-100456666D02*
X132662319Y-100361428D01*
X132662319Y-100361428D02*
X132662319Y-100170952D01*
X132662319Y-100170952D02*
X132614700Y-100075714D01*
X132614700Y-100075714D02*
X132567080Y-100028095D01*
X132567080Y-100028095D02*
X132471842Y-99980476D01*
X132471842Y-99980476D02*
X131662319Y-99980476D01*
X131757557Y-99551904D02*
X131709938Y-99504285D01*
X131709938Y-99504285D02*
X131662319Y-99409047D01*
X131662319Y-99409047D02*
X131662319Y-99170952D01*
X131662319Y-99170952D02*
X131709938Y-99075714D01*
X131709938Y-99075714D02*
X131757557Y-99028095D01*
X131757557Y-99028095D02*
X131852795Y-98980476D01*
X131852795Y-98980476D02*
X131948033Y-98980476D01*
X131948033Y-98980476D02*
X132090890Y-99028095D01*
X132090890Y-99028095D02*
X132662319Y-99599523D01*
X132662319Y-99599523D02*
X132662319Y-98980476D01*
D12*
%TO.C,R13*%
X124285436Y-85130000D02*
X124739564Y-85130000D01*
X124285436Y-86600000D02*
X124739564Y-86600000D01*
%TO.C,J1*%
X136280000Y-86750000D02*
X136780000Y-87000000D01*
X136280000Y-87250000D02*
X136280000Y-86750000D01*
X136780000Y-87000000D02*
X136280000Y-87250000D01*
%TO.C,J3*%
X132925000Y-101250000D02*
X132925000Y-100550000D01*
X133515000Y-97150000D02*
X133515000Y-96000000D01*
X133515000Y-101250000D02*
X132925000Y-101250000D01*
X133515000Y-102400000D02*
X133515000Y-101250000D01*
X135825000Y-95240000D02*
X138425000Y-95240000D01*
X138425000Y-103160000D02*
X135825000Y-103160000D01*
X141325000Y-103160000D02*
X142985000Y-103160000D01*
X142985000Y-95240000D02*
X141325000Y-95240000D01*
X142985000Y-103160000D02*
X142985000Y-95240000D01*
%TO.C,R17*%
X129289564Y-90630000D02*
X128835436Y-90630000D01*
X129289564Y-92100000D02*
X128835436Y-92100000D01*
%TO.C,U1*%
X123000000Y-87440000D02*
X121050000Y-87440000D01*
X123000000Y-87440000D02*
X124950000Y-87440000D01*
X123000000Y-92560000D02*
X121050000Y-92560000D01*
X123000000Y-92560000D02*
X124950000Y-92560000D01*
X120300000Y-87535000D02*
X120060000Y-87205000D01*
X120540000Y-87205000D01*
X120300000Y-87535000D01*
G36*
X120300000Y-87535000D02*
G01*
X120060000Y-87205000D01*
X120540000Y-87205000D01*
X120300000Y-87535000D01*
G37*
%TO.C,R6*%
X100685436Y-93265000D02*
X101139564Y-93265000D01*
X100685436Y-94735000D02*
X101139564Y-94735000D01*
%TO.C,R4*%
X112685436Y-87265000D02*
X113139564Y-87265000D01*
X112685436Y-88735000D02*
X113139564Y-88735000D01*
%TO.C,R10*%
X112685436Y-91265000D02*
X113139564Y-91265000D01*
X112685436Y-92735000D02*
X113139564Y-92735000D01*
%TO.C,R8*%
X108772936Y-93265000D02*
X109227064Y-93265000D01*
X108772936Y-94735000D02*
X109227064Y-94735000D01*
%TO.C,C4*%
X116688748Y-95265000D02*
X117211252Y-95265000D01*
X116688748Y-96735000D02*
X117211252Y-96735000D01*
%TO.C,R5*%
X112685436Y-89265000D02*
X113139564Y-89265000D01*
X112685436Y-90735000D02*
X113139564Y-90735000D01*
%TO.C,R15*%
X128660436Y-88630000D02*
X129114564Y-88630000D01*
X128660436Y-90100000D02*
X129114564Y-90100000D01*
%TO.C,R7*%
X104685436Y-93265000D02*
X105139564Y-93265000D01*
X104685436Y-94735000D02*
X105139564Y-94735000D01*
%TO.C,D1*%
X132990000Y-87810000D02*
X132990000Y-84050000D01*
X132990000Y-87810000D02*
X135010000Y-87810000D01*
X135010000Y-87810000D02*
X135010000Y-84050000D01*
%TO.C,R11*%
X117139564Y-87265000D02*
X116685436Y-87265000D01*
X117139564Y-88735000D02*
X116685436Y-88735000D01*
%TO.C,R14*%
X120835436Y-85130000D02*
X121289564Y-85130000D01*
X120835436Y-86600000D02*
X121289564Y-86600000D01*
%TO.C,C1*%
X112688748Y-95265000D02*
X113211252Y-95265000D01*
X112688748Y-96735000D02*
X113211252Y-96735000D01*
%TO.C,C10*%
X120288748Y-95265000D02*
X120811252Y-95265000D01*
X120288748Y-96735000D02*
X120811252Y-96735000D01*
%TO.C,C9*%
X128788748Y-85265000D02*
X129311252Y-85265000D01*
X128788748Y-86735000D02*
X129311252Y-86735000D01*
%TO.C,R2*%
X104685436Y-87240000D02*
X105139564Y-87240000D01*
X104685436Y-88710000D02*
X105139564Y-88710000D01*
%TO.C,C2*%
X112688748Y-85265000D02*
X113211252Y-85265000D01*
X112688748Y-86735000D02*
X113211252Y-86735000D01*
%TO.C,R12*%
X116685436Y-93265000D02*
X117139564Y-93265000D01*
X116685436Y-94735000D02*
X117139564Y-94735000D01*
%TO.C,R3*%
X108685436Y-87265000D02*
X109139564Y-87265000D01*
X108685436Y-88735000D02*
X109139564Y-88735000D01*
%TO.C,J2*%
X92350000Y-86550000D02*
X98400000Y-86550000D01*
X92350000Y-94350000D02*
X92350000Y-86550000D01*
X97290000Y-87920000D02*
X98300000Y-87920000D01*
X97290000Y-93000000D02*
X97290000Y-87920000D01*
X98300000Y-93000000D02*
X97290000Y-93000000D01*
X98400000Y-86550000D02*
X98400000Y-94350000D01*
X98400000Y-94350000D02*
X92350000Y-94350000D01*
%TO.C,R9*%
X112772936Y-93265000D02*
X113227064Y-93265000D01*
X112772936Y-94735000D02*
X113227064Y-94735000D01*
%TO.C,R16*%
X120860436Y-83165000D02*
X121314564Y-83165000D01*
X120860436Y-84635000D02*
X121314564Y-84635000D01*
%TO.C,C3*%
X117211252Y-85265000D02*
X116688748Y-85265000D01*
X117211252Y-86735000D02*
X116688748Y-86735000D01*
%TO.C,R1*%
X100685436Y-87265000D02*
X101139564Y-87265000D01*
X100685436Y-88735000D02*
X101139564Y-88735000D01*
%TO.C,U2*%
X111387500Y-97170000D02*
X111387500Y-103510000D01*
X129474167Y-96790000D02*
X131507500Y-96790000D01*
X131127500Y-97170000D02*
X111387500Y-97170000D01*
X131127500Y-97170000D02*
X131127500Y-103510000D01*
X131127500Y-103510000D02*
X111387500Y-103510000D01*
X131507500Y-96790000D02*
X131507500Y-98823333D01*
%TD*%
M02*
