%TF.GenerationSoftware,KiCad,Pcbnew,8.0.6*%
%TF.CreationDate,2025-02-18T13:58:57+01:00*%
%TF.ProjectId,DifferentialProbe,44696666-6572-4656-9e74-69616c50726f,rev?*%
%TF.SameCoordinates,Original*%
%TF.FileFunction,Copper,L2,Bot*%
%TF.FilePolarity,Positive*%
%FSLAX46Y46*%
G04 Gerber Fmt 4.6, Leading zero omitted, Abs format (unit mm)*
G04 Created by KiCad (PCBNEW 8.0.6) date 2025-02-18 13:58:57*
%MOMM*%
%LPD*%
G01*
G04 APERTURE LIST*
G04 Aperture macros list*
%AMRoundRect*
0 Rectangle with rounded corners*
0 $1 Rounding radius*
0 $2 $3 $4 $5 $6 $7 $8 $9 X,Y pos of 4 corners*
0 Add a 4 corners polygon primitive as box body*
4,1,4,$2,$3,$4,$5,$6,$7,$8,$9,$2,$3,0*
0 Add four circle primitives for the rounded corners*
1,1,$1+$1,$2,$3*
1,1,$1+$1,$4,$5*
1,1,$1+$1,$6,$7*
1,1,$1+$1,$8,$9*
0 Add four rect primitives between the rounded corners*
20,1,$1+$1,$2,$3,$4,$5,0*
20,1,$1+$1,$4,$5,$6,$7,0*
20,1,$1+$1,$6,$7,$8,$9,0*
20,1,$1+$1,$8,$9,$2,$3,0*%
G04 Aperture macros list end*
%TA.AperFunction,SMDPad,CuDef*%
%ADD10R,5.080000X2.420000*%
%TD*%
%TA.AperFunction,SMDPad,CuDef*%
%ADD11R,0.950000X0.460000*%
%TD*%
%TA.AperFunction,ComponentPad*%
%ADD12C,0.970000*%
%TD*%
%TA.AperFunction,ComponentPad*%
%ADD13R,2.030000X1.730000*%
%TD*%
%TA.AperFunction,ComponentPad*%
%ADD14O,2.030000X1.730000*%
%TD*%
%TA.AperFunction,ComponentPad*%
%ADD15R,1.500000X1.500000*%
%TD*%
%TA.AperFunction,ComponentPad*%
%ADD16C,1.500000*%
%TD*%
%TA.AperFunction,SMDPad,CuDef*%
%ADD17RoundRect,0.150000X-0.825000X-0.150000X0.825000X-0.150000X0.825000X0.150000X-0.825000X0.150000X0*%
%TD*%
%TA.AperFunction,SMDPad,CuDef*%
%ADD18RoundRect,0.250000X0.250000X0.475000X-0.250000X0.475000X-0.250000X-0.475000X0.250000X-0.475000X0*%
%TD*%
%TA.AperFunction,SMDPad,CuDef*%
%ADD19RoundRect,0.250000X-0.250000X-0.475000X0.250000X-0.475000X0.250000X0.475000X-0.250000X0.475000X0*%
%TD*%
%TA.AperFunction,ViaPad*%
%ADD20C,0.600000*%
%TD*%
%TA.AperFunction,Conductor*%
%ADD21C,0.200000*%
%TD*%
G04 APERTURE END LIST*
D10*
%TO.P,J1,2,Ext*%
%TO.N,GND*%
X140500000Y-91380000D03*
X140500000Y-82620000D03*
D11*
X137510000Y-91380000D03*
X137510000Y-82620000D03*
D12*
X137060000Y-91380000D03*
X137060000Y-82620000D03*
%TD*%
D13*
%TO.P,J2,1,Pin_1*%
%TO.N,Net-(J2-Pin_1)*%
X95000000Y-93000000D03*
D14*
%TO.P,J2,3,Pin_3*%
%TO.N,Net-(J2-Pin_3)*%
X95000000Y-87920000D03*
%TD*%
D15*
%TO.P,U2,1,+Vin*%
%TO.N,Net-(J3-VBUS)*%
X128907500Y-102215000D03*
D16*
%TO.P,U2,2,-Vin*%
%TO.N,GNDD*%
X126367500Y-102215000D03*
%TO.P,U2,4,-Vout*%
%TO.N,Net-(U2--Vout)*%
X121287500Y-102215000D03*
%TO.P,U2,5,Com*%
%TO.N,GND*%
X118747500Y-102215000D03*
%TO.P,U2,6,+Vout*%
%TO.N,Net-(U2-+Vout)*%
X116207500Y-102215000D03*
%TD*%
D17*
%TO.P,U4,1,OUT*%
%TO.N,Net-(U1C-V-)*%
X115800000Y-92010000D03*
%TO.P,U4,2,IN*%
%TO.N,Net-(U2--Vout)*%
X115800000Y-90740000D03*
%TO.P,U4,3,IN*%
X115800000Y-89470000D03*
%TO.P,U4,4,NC*%
%TO.N,unconnected-(U4-NC-Pad4)*%
X115800000Y-88200000D03*
%TO.P,U4,5,GND*%
%TO.N,GND*%
X120750000Y-88200000D03*
%TO.P,U4,6,IN*%
%TO.N,Net-(U2--Vout)*%
X120750000Y-89470000D03*
%TO.P,U4,7,IN*%
X120750000Y-90740000D03*
%TO.P,U4,8,NC*%
%TO.N,unconnected-(U4-NC-Pad8)*%
X120750000Y-92010000D03*
%TD*%
D18*
%TO.P,C6,1*%
%TO.N,GND*%
X116700000Y-94200000D03*
%TO.P,C6,2*%
%TO.N,Net-(U1C-V-)*%
X114800000Y-94200000D03*
%TD*%
%TO.P,C8,1*%
%TO.N,Net-(U2-+Vout)*%
X129800000Y-94200000D03*
%TO.P,C8,2*%
%TO.N,GND*%
X127900000Y-94200000D03*
%TD*%
D19*
%TO.P,C5,1*%
%TO.N,Net-(U1C-V+)*%
X123900000Y-94200000D03*
%TO.P,C5,2*%
%TO.N,GND*%
X125800000Y-94200000D03*
%TD*%
%TO.P,C7,1*%
%TO.N,GND*%
X118900000Y-94200000D03*
%TO.P,C7,2*%
%TO.N,Net-(U2--Vout)*%
X120800000Y-94200000D03*
%TD*%
D17*
%TO.P,U3,1,OUT*%
%TO.N,Net-(U1C-V+)*%
X124325000Y-92105000D03*
%TO.P,U3,2,GND*%
%TO.N,GND*%
X124325000Y-90835000D03*
%TO.P,U3,3,GND*%
X124325000Y-89565000D03*
%TO.P,U3,4,NC*%
%TO.N,unconnected-(U3-NC-Pad4)*%
X124325000Y-88295000D03*
%TO.P,U3,5,NC*%
%TO.N,unconnected-(U3-NC-Pad5)*%
X129275000Y-88295000D03*
%TO.P,U3,6,GND*%
%TO.N,GND*%
X129275000Y-89565000D03*
%TO.P,U3,7,GND*%
X129275000Y-90835000D03*
%TO.P,U3,8,IN*%
%TO.N,Net-(U2-+Vout)*%
X129275000Y-92105000D03*
%TD*%
D20*
%TO.N,GND*%
X115000000Y-82000000D03*
X136000000Y-90000000D03*
X114000000Y-84000000D03*
X132000000Y-97000000D03*
X114000000Y-101000000D03*
X121000000Y-82000000D03*
X122000000Y-82000000D03*
X118000000Y-82000000D03*
X135000000Y-82000000D03*
X132000000Y-82000000D03*
X116000000Y-82000000D03*
X114000000Y-83000000D03*
X129900000Y-84800000D03*
X125000000Y-82000000D03*
X124000000Y-104000000D03*
X136000000Y-86000000D03*
X132000000Y-89000000D03*
X114000000Y-103000000D03*
X127000000Y-82000000D03*
X119000000Y-82000000D03*
X132000000Y-93000000D03*
X114000000Y-99000000D03*
X134000000Y-92000000D03*
X125000000Y-104000000D03*
X125400000Y-84700000D03*
X124000000Y-82000000D03*
X116000000Y-104000000D03*
X132000000Y-86000000D03*
X117000000Y-104000000D03*
X134000000Y-83000000D03*
X132000000Y-87000000D03*
X120000000Y-104000000D03*
X129000000Y-82000000D03*
X115000000Y-104000000D03*
X137000000Y-89000000D03*
X114000000Y-102000000D03*
X119000000Y-104000000D03*
X118000000Y-104000000D03*
X117000000Y-82000000D03*
X132000000Y-88000000D03*
X132000000Y-90000000D03*
X130000000Y-82000000D03*
X117800000Y-97100000D03*
X131000000Y-82000000D03*
X132000000Y-96000000D03*
X134000000Y-82000000D03*
X126000000Y-82000000D03*
X128000000Y-82000000D03*
X122000000Y-104000000D03*
X123000000Y-82000000D03*
X133000000Y-82000000D03*
X119500000Y-97000000D03*
X112000000Y-91000000D03*
X120000000Y-82000000D03*
X114000000Y-104000000D03*
X111200000Y-92000000D03*
X121000000Y-104000000D03*
X137000000Y-85000000D03*
X114000000Y-82000000D03*
X135000000Y-91000000D03*
X114000000Y-100000000D03*
X132000000Y-94000000D03*
X117900000Y-84900000D03*
X132000000Y-95000000D03*
X123000000Y-104000000D03*
%TO.N,Net-(U1C-V+)*%
X127570000Y-86000000D03*
%TO.N,Net-(U1C-V-)*%
X120525771Y-92975000D03*
%TD*%
D21*
%TO.N,GND*%
X124325000Y-90835000D02*
X129275000Y-90835000D01*
X129275000Y-89565000D02*
X129275000Y-90835000D01*
X124325000Y-89565000D02*
X124325000Y-90835000D01*
X129275000Y-89565000D02*
X124325000Y-89565000D01*
%TO.N,Net-(U1C-V+)*%
X123050000Y-91804999D02*
X123350001Y-92105000D01*
X123900000Y-92530000D02*
X124325000Y-92105000D01*
X123050000Y-87954448D02*
X123050000Y-91804999D01*
X127570000Y-86000000D02*
X125004448Y-86000000D01*
X123350001Y-92105000D02*
X124325000Y-92105000D01*
X125004448Y-86000000D02*
X123050000Y-87954448D01*
X123900000Y-94200000D02*
X123900000Y-92530000D01*
%TO.N,Net-(U1C-V-)*%
X118475000Y-92975000D02*
X117500000Y-92000000D01*
X114800000Y-94200000D02*
X114800000Y-93010000D01*
X120525771Y-92975000D02*
X118475000Y-92975000D01*
X117490000Y-92010000D02*
X115800000Y-92010000D01*
X114800000Y-93010000D02*
X115800000Y-92010000D01*
X117500000Y-92000000D02*
X117490000Y-92010000D01*
%TO.N,Net-(U2--Vout)*%
X115800000Y-89470000D02*
X115800000Y-90740000D01*
X122025000Y-90880000D02*
X121885000Y-90740000D01*
X115800000Y-89470000D02*
X120750000Y-89470000D01*
X121885000Y-90740000D02*
X120750000Y-90740000D01*
X120800000Y-94200000D02*
X122025000Y-92975000D01*
X122025000Y-92975000D02*
X122025000Y-90880000D01*
X120750000Y-89470000D02*
X120750000Y-90740000D01*
X121287500Y-102215000D02*
X121287500Y-94687500D01*
X121287500Y-94687500D02*
X120800000Y-94200000D01*
%TO.N,Net-(U2-+Vout)*%
X129800000Y-92630000D02*
X129275000Y-92105000D01*
X116207500Y-102215000D02*
X117257500Y-103265000D01*
X121722425Y-103265000D02*
X129800000Y-95187425D01*
X117257500Y-103265000D02*
X121722425Y-103265000D01*
X129800000Y-94200000D02*
X129800000Y-92630000D01*
X129800000Y-95187425D02*
X129800000Y-94200000D01*
%TD*%
%TA.AperFunction,Conductor*%
%TO.N,GND*%
G36*
X136636905Y-81520185D02*
G01*
X136682660Y-81572989D01*
X136692604Y-81642147D01*
X136663579Y-81705703D01*
X136628319Y-81733858D01*
X136562560Y-81769006D01*
X136562560Y-81769007D01*
X137279999Y-82486446D01*
X137289210Y-82482631D01*
X137299685Y-82446961D01*
X137352489Y-82401206D01*
X137404000Y-82390000D01*
X137430567Y-82390000D01*
X137462004Y-82372834D01*
X137488362Y-82370000D01*
X140626000Y-82370000D01*
X140693039Y-82389685D01*
X140738794Y-82442489D01*
X140750000Y-82494000D01*
X140750000Y-84330000D01*
X142375500Y-84330000D01*
X142442539Y-84349685D01*
X142488294Y-84402489D01*
X142499500Y-84454000D01*
X142499500Y-89546000D01*
X142479815Y-89613039D01*
X142427011Y-89658794D01*
X142375500Y-89670000D01*
X140750000Y-89670000D01*
X140750000Y-93090000D01*
X142375500Y-93090000D01*
X142442539Y-93109685D01*
X142488294Y-93162489D01*
X142499500Y-93214000D01*
X142499500Y-104375500D01*
X142479815Y-104442539D01*
X142427011Y-104488294D01*
X142375500Y-104499500D01*
X114124000Y-104499500D01*
X114056961Y-104479815D01*
X114011206Y-104427011D01*
X114000000Y-104375500D01*
X114000000Y-95439712D01*
X114019685Y-95372673D01*
X114072489Y-95326918D01*
X114141647Y-95316974D01*
X114189094Y-95334172D01*
X114230666Y-95359814D01*
X114397203Y-95414999D01*
X114499991Y-95425500D01*
X115100008Y-95425499D01*
X115100016Y-95425498D01*
X115100019Y-95425498D01*
X115161574Y-95419210D01*
X115202797Y-95414999D01*
X115369334Y-95359814D01*
X115518656Y-95267712D01*
X115642712Y-95143656D01*
X115644752Y-95140347D01*
X115646745Y-95138555D01*
X115647193Y-95137989D01*
X115647289Y-95138065D01*
X115696694Y-95093623D01*
X115765656Y-95082395D01*
X115829740Y-95110234D01*
X115855829Y-95140339D01*
X115857681Y-95143341D01*
X115857683Y-95143344D01*
X115981654Y-95267315D01*
X116130875Y-95359356D01*
X116130880Y-95359358D01*
X116297302Y-95414505D01*
X116297309Y-95414506D01*
X116400019Y-95424999D01*
X116449999Y-95424998D01*
X116450000Y-95424998D01*
X116450000Y-94074000D01*
X116469685Y-94006961D01*
X116522489Y-93961206D01*
X116574000Y-93950000D01*
X116826000Y-93950000D01*
X116893039Y-93969685D01*
X116938794Y-94022489D01*
X116950000Y-94074000D01*
X116950000Y-95424999D01*
X116999972Y-95424999D01*
X116999986Y-95424998D01*
X117102697Y-95414505D01*
X117269119Y-95359358D01*
X117269124Y-95359356D01*
X117418345Y-95267315D01*
X117542315Y-95143345D01*
X117634356Y-94994124D01*
X117634359Y-94994117D01*
X117682293Y-94849461D01*
X117722065Y-94792016D01*
X117786581Y-94765192D01*
X117855357Y-94777507D01*
X117906557Y-94825049D01*
X117917705Y-94849459D01*
X117965642Y-94994121D01*
X117965643Y-94994124D01*
X118057684Y-95143345D01*
X118181654Y-95267315D01*
X118330875Y-95359356D01*
X118330880Y-95359358D01*
X118497302Y-95414505D01*
X118497309Y-95414506D01*
X118600019Y-95424999D01*
X118649999Y-95424998D01*
X118650000Y-95424998D01*
X118650000Y-94074000D01*
X118669685Y-94006961D01*
X118722489Y-93961206D01*
X118774000Y-93950000D01*
X119026000Y-93950000D01*
X119093039Y-93969685D01*
X119138794Y-94022489D01*
X119150000Y-94074000D01*
X119150000Y-95424999D01*
X119199972Y-95424999D01*
X119199986Y-95424998D01*
X119302697Y-95414505D01*
X119469119Y-95359358D01*
X119469124Y-95359356D01*
X119618345Y-95267315D01*
X119742318Y-95143342D01*
X119744165Y-95140348D01*
X119745969Y-95138724D01*
X119746798Y-95137677D01*
X119746976Y-95137818D01*
X119796110Y-95093621D01*
X119865073Y-95082396D01*
X119929156Y-95110236D01*
X119955242Y-95140339D01*
X119957288Y-95143656D01*
X120081344Y-95267712D01*
X120230666Y-95359814D01*
X120397203Y-95414999D01*
X120499991Y-95425500D01*
X120563000Y-95425499D01*
X120630038Y-95445183D01*
X120675794Y-95497986D01*
X120687000Y-95549499D01*
X120687000Y-101044345D01*
X120667315Y-101111384D01*
X120634123Y-101145920D01*
X120480621Y-101253402D01*
X120325902Y-101408121D01*
X120200400Y-101587357D01*
X120200400Y-101587358D01*
X120200398Y-101587361D01*
X120200398Y-101587362D01*
X120196402Y-101595932D01*
X120129605Y-101739176D01*
X120083432Y-101791615D01*
X120016238Y-101810766D01*
X119949357Y-101790550D01*
X119904841Y-101739175D01*
X119834167Y-101587614D01*
X119834166Y-101587612D01*
X119790624Y-101525428D01*
X119790624Y-101525427D01*
X119230462Y-102085589D01*
X119213425Y-102022007D01*
X119147599Y-101907993D01*
X119054507Y-101814901D01*
X118940493Y-101749075D01*
X118876909Y-101732037D01*
X119437071Y-101171874D01*
X119374887Y-101128333D01*
X119176659Y-101035898D01*
X119176650Y-101035894D01*
X118965394Y-100979289D01*
X118965384Y-100979287D01*
X118747501Y-100960225D01*
X118747499Y-100960225D01*
X118529615Y-100979287D01*
X118529605Y-100979289D01*
X118318349Y-101035894D01*
X118318340Y-101035898D01*
X118120113Y-101128333D01*
X118057928Y-101171874D01*
X118618091Y-101732037D01*
X118554507Y-101749075D01*
X118440493Y-101814901D01*
X118347401Y-101907993D01*
X118281575Y-102022007D01*
X118264537Y-102085591D01*
X117704374Y-101525428D01*
X117660833Y-101587613D01*
X117590158Y-101739175D01*
X117543985Y-101791614D01*
X117476792Y-101810766D01*
X117409911Y-101790550D01*
X117365394Y-101739175D01*
X117354121Y-101715000D01*
X117294602Y-101587362D01*
X117294599Y-101587358D01*
X117294599Y-101587357D01*
X117169099Y-101408124D01*
X117091979Y-101331004D01*
X117014377Y-101253402D01*
X116860874Y-101145918D01*
X116835138Y-101127897D01*
X116707105Y-101068195D01*
X116636830Y-101035425D01*
X116636826Y-101035424D01*
X116636822Y-101035422D01*
X116425477Y-100978793D01*
X116207502Y-100959723D01*
X116207498Y-100959723D01*
X116079651Y-100970908D01*
X115989523Y-100978793D01*
X115989520Y-100978793D01*
X115778177Y-101035422D01*
X115778168Y-101035426D01*
X115579861Y-101127898D01*
X115579857Y-101127900D01*
X115400621Y-101253402D01*
X115245902Y-101408121D01*
X115120400Y-101587357D01*
X115120398Y-101587361D01*
X115027926Y-101785668D01*
X115027922Y-101785677D01*
X114971293Y-101997020D01*
X114971293Y-101997024D01*
X114952223Y-102214997D01*
X114952223Y-102215002D01*
X114971293Y-102432975D01*
X114971293Y-102432979D01*
X115027922Y-102644322D01*
X115027924Y-102644326D01*
X115027925Y-102644330D01*
X115044990Y-102680925D01*
X115120397Y-102842638D01*
X115145498Y-102878486D01*
X115245902Y-103021877D01*
X115400623Y-103176598D01*
X115579861Y-103302102D01*
X115778170Y-103394575D01*
X115989523Y-103451207D01*
X116159950Y-103466117D01*
X116207498Y-103470277D01*
X116207500Y-103470277D01*
X116207502Y-103470277D01*
X116235754Y-103467805D01*
X116425477Y-103451207D01*
X116489608Y-103434023D01*
X116559457Y-103435686D01*
X116609382Y-103466117D01*
X116772639Y-103629374D01*
X116772649Y-103629385D01*
X116776979Y-103633715D01*
X116776980Y-103633716D01*
X116888784Y-103745520D01*
X116975595Y-103795639D01*
X116975597Y-103795641D01*
X117025713Y-103824576D01*
X117025715Y-103824577D01*
X117178442Y-103865500D01*
X117178443Y-103865500D01*
X121635756Y-103865500D01*
X121635772Y-103865501D01*
X121643368Y-103865501D01*
X121801479Y-103865501D01*
X121801482Y-103865501D01*
X121954210Y-103824577D01*
X122004329Y-103795639D01*
X122091141Y-103745520D01*
X122202945Y-103633716D01*
X122202945Y-103633714D01*
X122213153Y-103623507D01*
X122213155Y-103623504D01*
X123621662Y-102214997D01*
X125112223Y-102214997D01*
X125112223Y-102215002D01*
X125131293Y-102432975D01*
X125131293Y-102432979D01*
X125187922Y-102644322D01*
X125187924Y-102644326D01*
X125187925Y-102644330D01*
X125204990Y-102680925D01*
X125280397Y-102842638D01*
X125305498Y-102878486D01*
X125405902Y-103021877D01*
X125560623Y-103176598D01*
X125739861Y-103302102D01*
X125938170Y-103394575D01*
X126149523Y-103451207D01*
X126319950Y-103466117D01*
X126367498Y-103470277D01*
X126367500Y-103470277D01*
X126367502Y-103470277D01*
X126395754Y-103467805D01*
X126585477Y-103451207D01*
X126796830Y-103394575D01*
X126995139Y-103302102D01*
X127174377Y-103176598D01*
X127329098Y-103021877D01*
X127431428Y-102875734D01*
X127486002Y-102832112D01*
X127555500Y-102824918D01*
X127617855Y-102856441D01*
X127653269Y-102916670D01*
X127657000Y-102946858D01*
X127657000Y-103012869D01*
X127657001Y-103012876D01*
X127663408Y-103072483D01*
X127713702Y-103207328D01*
X127713706Y-103207335D01*
X127799952Y-103322544D01*
X127799955Y-103322547D01*
X127915164Y-103408793D01*
X127915171Y-103408797D01*
X128050017Y-103459091D01*
X128050016Y-103459091D01*
X128056944Y-103459835D01*
X128109627Y-103465500D01*
X129705372Y-103465499D01*
X129764983Y-103459091D01*
X129899831Y-103408796D01*
X130015046Y-103322546D01*
X130101296Y-103207331D01*
X130151591Y-103072483D01*
X130158000Y-103012873D01*
X130157999Y-101468995D01*
X136274499Y-101468995D01*
X136301418Y-101604322D01*
X136301421Y-101604332D01*
X136354221Y-101731804D01*
X136354228Y-101731817D01*
X136430885Y-101846541D01*
X136430888Y-101846545D01*
X136528454Y-101944111D01*
X136528458Y-101944114D01*
X136643182Y-102020771D01*
X136643195Y-102020778D01*
X136770667Y-102073578D01*
X136770672Y-102073580D01*
X136770676Y-102073580D01*
X136770677Y-102073581D01*
X136906004Y-102100500D01*
X136906007Y-102100500D01*
X137043995Y-102100500D01*
X137135041Y-102082389D01*
X137179328Y-102073580D01*
X137306811Y-102020775D01*
X137421542Y-101944114D01*
X137519114Y-101846542D01*
X137595775Y-101731811D01*
X137648580Y-101604328D01*
X137664274Y-101525428D01*
X137675500Y-101468995D01*
X137675500Y-101331004D01*
X137648581Y-101195677D01*
X137648580Y-101195676D01*
X137648580Y-101195672D01*
X137627972Y-101145920D01*
X137595778Y-101068195D01*
X137595771Y-101068182D01*
X137519114Y-100953458D01*
X137519111Y-100953454D01*
X137421545Y-100855888D01*
X137421541Y-100855885D01*
X137306817Y-100779228D01*
X137306804Y-100779221D01*
X137179332Y-100726421D01*
X137179322Y-100726418D01*
X137043995Y-100699500D01*
X137043993Y-100699500D01*
X136906007Y-100699500D01*
X136906005Y-100699500D01*
X136770677Y-100726418D01*
X136770667Y-100726421D01*
X136643195Y-100779221D01*
X136643182Y-100779228D01*
X136528458Y-100855885D01*
X136528454Y-100855888D01*
X136430888Y-100953454D01*
X136430885Y-100953458D01*
X136354228Y-101068182D01*
X136354221Y-101068195D01*
X136301421Y-101195667D01*
X136301418Y-101195677D01*
X136274500Y-101331004D01*
X136274500Y-101331007D01*
X136274500Y-101468993D01*
X136274500Y-101468995D01*
X136274499Y-101468995D01*
X130157999Y-101468995D01*
X130157999Y-101417128D01*
X130151591Y-101357517D01*
X130141703Y-101331007D01*
X130101297Y-101222671D01*
X130101293Y-101222664D01*
X130015047Y-101107455D01*
X130015044Y-101107452D01*
X129899835Y-101021206D01*
X129899828Y-101021202D01*
X129764982Y-100970908D01*
X129764983Y-100970908D01*
X129705383Y-100964501D01*
X129705381Y-100964500D01*
X129705373Y-100964500D01*
X129705364Y-100964500D01*
X128109629Y-100964500D01*
X128109623Y-100964501D01*
X128050016Y-100970908D01*
X127915171Y-101021202D01*
X127915164Y-101021206D01*
X127799955Y-101107452D01*
X127799952Y-101107455D01*
X127713706Y-101222664D01*
X127713702Y-101222671D01*
X127663408Y-101357517D01*
X127657968Y-101408121D01*
X127657001Y-101417123D01*
X127657000Y-101417135D01*
X127657000Y-101483138D01*
X127637315Y-101550177D01*
X127584511Y-101595932D01*
X127515353Y-101605876D01*
X127451797Y-101576851D01*
X127431425Y-101554261D01*
X127329099Y-101408124D01*
X127251979Y-101331004D01*
X127174377Y-101253402D01*
X127020874Y-101145918D01*
X126995138Y-101127897D01*
X126867105Y-101068195D01*
X126796830Y-101035425D01*
X126796826Y-101035424D01*
X126796822Y-101035422D01*
X126585477Y-100978793D01*
X126367502Y-100959723D01*
X126367498Y-100959723D01*
X126239651Y-100970908D01*
X126149523Y-100978793D01*
X126149520Y-100978793D01*
X125938177Y-101035422D01*
X125938168Y-101035426D01*
X125739861Y-101127898D01*
X125739857Y-101127900D01*
X125560621Y-101253402D01*
X125405902Y-101408121D01*
X125280400Y-101587357D01*
X125280398Y-101587361D01*
X125187926Y-101785668D01*
X125187922Y-101785677D01*
X125131293Y-101997020D01*
X125131293Y-101997024D01*
X125112223Y-102214997D01*
X123621662Y-102214997D01*
X128767664Y-97068995D01*
X136274499Y-97068995D01*
X136301418Y-97204322D01*
X136301421Y-97204332D01*
X136354221Y-97331804D01*
X136354228Y-97331817D01*
X136430885Y-97446541D01*
X136430888Y-97446545D01*
X136528454Y-97544111D01*
X136528458Y-97544114D01*
X136643182Y-97620771D01*
X136643195Y-97620778D01*
X136770667Y-97673578D01*
X136770672Y-97673580D01*
X136770676Y-97673580D01*
X136770677Y-97673581D01*
X136906004Y-97700500D01*
X136906007Y-97700500D01*
X137043995Y-97700500D01*
X137135041Y-97682389D01*
X137179328Y-97673580D01*
X137306811Y-97620775D01*
X137421542Y-97544114D01*
X137519114Y-97446542D01*
X137595775Y-97331811D01*
X137648580Y-97204328D01*
X137675500Y-97068993D01*
X137675500Y-96931007D01*
X137675500Y-96931004D01*
X137648581Y-96795677D01*
X137648580Y-96795676D01*
X137648580Y-96795672D01*
X137648578Y-96795667D01*
X137595778Y-96668195D01*
X137595771Y-96668182D01*
X137519114Y-96553458D01*
X137519111Y-96553454D01*
X137421545Y-96455888D01*
X137421541Y-96455885D01*
X137306817Y-96379228D01*
X137306804Y-96379221D01*
X137179332Y-96326421D01*
X137179322Y-96326418D01*
X137043995Y-96299500D01*
X137043993Y-96299500D01*
X136906007Y-96299500D01*
X136906005Y-96299500D01*
X136770677Y-96326418D01*
X136770667Y-96326421D01*
X136643195Y-96379221D01*
X136643182Y-96379228D01*
X136528458Y-96455885D01*
X136528454Y-96455888D01*
X136430888Y-96553454D01*
X136430885Y-96553458D01*
X136354228Y-96668182D01*
X136354221Y-96668195D01*
X136301421Y-96795667D01*
X136301418Y-96795677D01*
X136274500Y-96931004D01*
X136274500Y-96931007D01*
X136274500Y-97068993D01*
X136274500Y-97068995D01*
X136274499Y-97068995D01*
X128767664Y-97068995D01*
X130158506Y-95678153D01*
X130158511Y-95678149D01*
X130168714Y-95667945D01*
X130168716Y-95667945D01*
X130280520Y-95556141D01*
X130355946Y-95425499D01*
X130359577Y-95419210D01*
X130363961Y-95402845D01*
X130400322Y-95343189D01*
X130418629Y-95329407D01*
X130518656Y-95267712D01*
X130642712Y-95143656D01*
X130734814Y-94994334D01*
X130789999Y-94827797D01*
X130800500Y-94725009D01*
X130800499Y-93674992D01*
X130789999Y-93572203D01*
X130734814Y-93405666D01*
X130642712Y-93256344D01*
X130518656Y-93132288D01*
X130518655Y-93132287D01*
X130459402Y-93095739D01*
X130412678Y-93043791D01*
X130400500Y-92990201D01*
X130400500Y-92903756D01*
X130420185Y-92836717D01*
X130461379Y-92797023D01*
X130501865Y-92773081D01*
X130618081Y-92656865D01*
X130701744Y-92515398D01*
X130747598Y-92357569D01*
X130750500Y-92320694D01*
X130750500Y-92230992D01*
X136562559Y-92230992D01*
X136681230Y-92294423D01*
X136866907Y-92350748D01*
X137060000Y-92369765D01*
X137253095Y-92350747D01*
X137300004Y-92336518D01*
X137369871Y-92335894D01*
X137428984Y-92373141D01*
X137458575Y-92436435D01*
X137460000Y-92455178D01*
X137460000Y-92637844D01*
X137466401Y-92697372D01*
X137466403Y-92697379D01*
X137516645Y-92832086D01*
X137516649Y-92832093D01*
X137602809Y-92947187D01*
X137602812Y-92947190D01*
X137717906Y-93033350D01*
X137717913Y-93033354D01*
X137852620Y-93083596D01*
X137852627Y-93083598D01*
X137912155Y-93089999D01*
X137912172Y-93090000D01*
X140250000Y-93090000D01*
X140250000Y-91630000D01*
X137488362Y-91630000D01*
X137421323Y-91610315D01*
X137420932Y-91610000D01*
X137404000Y-91610000D01*
X137336961Y-91590315D01*
X137291206Y-91537511D01*
X137286587Y-91516281D01*
X137279999Y-91513552D01*
X136562559Y-92230992D01*
X130750500Y-92230992D01*
X130750500Y-91889306D01*
X130747598Y-91852431D01*
X130720386Y-91758769D01*
X130701745Y-91694606D01*
X130701744Y-91694603D01*
X130701744Y-91694602D01*
X130618081Y-91553135D01*
X130618078Y-91553132D01*
X130613298Y-91546969D01*
X130615635Y-91545155D01*
X130588798Y-91496050D01*
X130593756Y-91426356D01*
X130614554Y-91393998D01*
X130612903Y-91392717D01*
X130617686Y-91386550D01*
X130621560Y-91380000D01*
X136070234Y-91380000D01*
X136089251Y-91573092D01*
X136145576Y-91758769D01*
X136209007Y-91877439D01*
X136706447Y-91380000D01*
X136660697Y-91334250D01*
X136830000Y-91334250D01*
X136830000Y-91425750D01*
X136865015Y-91510285D01*
X136929715Y-91574985D01*
X137014250Y-91610000D01*
X137105750Y-91610000D01*
X137190285Y-91574985D01*
X137254985Y-91510285D01*
X137290000Y-91425750D01*
X137290000Y-91334250D01*
X137254985Y-91249715D01*
X137190285Y-91185015D01*
X137105750Y-91150000D01*
X137014250Y-91150000D01*
X136929715Y-91185015D01*
X136865015Y-91249715D01*
X136830000Y-91334250D01*
X136660697Y-91334250D01*
X136209007Y-90882560D01*
X136145576Y-91001230D01*
X136089251Y-91186907D01*
X136070234Y-91380000D01*
X130621560Y-91380000D01*
X130701281Y-91245198D01*
X130747100Y-91087486D01*
X130747295Y-91085001D01*
X130747295Y-91085000D01*
X127802705Y-91085000D01*
X127802704Y-91085001D01*
X127802899Y-91087486D01*
X127848718Y-91245198D01*
X127932314Y-91386552D01*
X127937100Y-91392722D01*
X127934640Y-91394629D01*
X127961210Y-91443288D01*
X127956226Y-91512980D01*
X127935162Y-91545781D01*
X127936699Y-91546974D01*
X127931915Y-91553140D01*
X127848255Y-91694603D01*
X127848254Y-91694606D01*
X127802402Y-91852426D01*
X127802401Y-91852432D01*
X127799500Y-91889298D01*
X127799500Y-92320701D01*
X127802401Y-92357567D01*
X127802402Y-92357573D01*
X127848254Y-92515393D01*
X127848255Y-92515396D01*
X127931917Y-92656862D01*
X127931923Y-92656870D01*
X128048129Y-92773076D01*
X128048135Y-92773081D01*
X128101428Y-92804598D01*
X128149111Y-92855666D01*
X128161615Y-92924408D01*
X128150000Y-92952563D01*
X128150000Y-95424999D01*
X128199972Y-95424999D01*
X128199986Y-95424998D01*
X128302695Y-95414506D01*
X128435677Y-95370439D01*
X128505505Y-95368037D01*
X128565548Y-95403768D01*
X128596741Y-95466288D01*
X128589181Y-95535748D01*
X128562363Y-95575826D01*
X122551672Y-101586516D01*
X122490349Y-101620001D01*
X122420657Y-101615017D01*
X122364724Y-101573145D01*
X122362416Y-101569958D01*
X122249099Y-101408124D01*
X122171979Y-101331004D01*
X122094377Y-101253402D01*
X122050479Y-101222664D01*
X121940876Y-101145918D01*
X121897251Y-101091341D01*
X121888000Y-101044344D01*
X121888000Y-94608445D01*
X121888000Y-94608443D01*
X121847077Y-94455716D01*
X121847077Y-94455715D01*
X121818140Y-94405598D01*
X121818135Y-94405575D01*
X121818130Y-94405578D01*
X121817101Y-94403795D01*
X121800499Y-94341814D01*
X121800499Y-94100098D01*
X121820184Y-94033059D01*
X121836818Y-94012417D01*
X121899235Y-93950000D01*
X122505520Y-93343716D01*
X122584577Y-93206784D01*
X122625501Y-93054057D01*
X122625501Y-92895942D01*
X122625501Y-92888347D01*
X122625500Y-92888329D01*
X122625500Y-92529096D01*
X122645185Y-92462057D01*
X122697989Y-92416302D01*
X122767147Y-92406358D01*
X122830703Y-92435383D01*
X122837181Y-92441415D01*
X122865140Y-92469374D01*
X122865161Y-92469397D01*
X122871683Y-92475919D01*
X122894047Y-92508824D01*
X122894285Y-92508684D01*
X122896517Y-92512459D01*
X122897802Y-92514349D01*
X122898256Y-92515400D01*
X122981916Y-92656861D01*
X122981923Y-92656870D01*
X123098129Y-92773076D01*
X123098140Y-92773085D01*
X123200050Y-92833353D01*
X123237779Y-92855666D01*
X123238620Y-92856163D01*
X123286304Y-92907231D01*
X123299500Y-92962895D01*
X123299500Y-92990201D01*
X123279815Y-93057240D01*
X123240598Y-93095739D01*
X123181344Y-93132287D01*
X123057289Y-93256342D01*
X122965187Y-93405663D01*
X122965185Y-93405668D01*
X122939254Y-93483922D01*
X122910001Y-93572203D01*
X122910001Y-93572204D01*
X122910000Y-93572204D01*
X122899500Y-93674983D01*
X122899500Y-94725001D01*
X122899501Y-94725019D01*
X122910000Y-94827796D01*
X122910001Y-94827799D01*
X122959035Y-94975771D01*
X122965186Y-94994334D01*
X123057288Y-95143656D01*
X123181344Y-95267712D01*
X123330666Y-95359814D01*
X123497203Y-95414999D01*
X123599991Y-95425500D01*
X124200008Y-95425499D01*
X124200016Y-95425498D01*
X124200019Y-95425498D01*
X124261574Y-95419210D01*
X124302797Y-95414999D01*
X124469334Y-95359814D01*
X124618656Y-95267712D01*
X124742712Y-95143656D01*
X124744752Y-95140347D01*
X124746745Y-95138555D01*
X124747193Y-95137989D01*
X124747289Y-95138065D01*
X124796694Y-95093623D01*
X124865656Y-95082395D01*
X124929740Y-95110234D01*
X124955829Y-95140339D01*
X124957681Y-95143341D01*
X124957683Y-95143344D01*
X125081654Y-95267315D01*
X125230875Y-95359356D01*
X125230880Y-95359358D01*
X125397302Y-95414505D01*
X125397309Y-95414506D01*
X125500019Y-95424999D01*
X125549999Y-95424998D01*
X125550000Y-95424998D01*
X125550000Y-92975000D01*
X126050000Y-92975000D01*
X126050000Y-95424999D01*
X126099972Y-95424999D01*
X126099986Y-95424998D01*
X126202697Y-95414505D01*
X126369119Y-95359358D01*
X126369124Y-95359356D01*
X126518345Y-95267315D01*
X126642315Y-95143345D01*
X126734356Y-94994124D01*
X126737408Y-94987579D01*
X126740255Y-94988906D01*
X126771914Y-94943027D01*
X126836387Y-94916102D01*
X126905182Y-94928309D01*
X126956457Y-94975771D01*
X126961997Y-94987856D01*
X126962592Y-94987579D01*
X126965643Y-94994124D01*
X127057684Y-95143345D01*
X127181654Y-95267315D01*
X127330875Y-95359356D01*
X127330880Y-95359358D01*
X127497302Y-95414505D01*
X127497309Y-95414506D01*
X127600019Y-95424999D01*
X127649999Y-95424998D01*
X127650000Y-95424998D01*
X127650000Y-92975000D01*
X127649999Y-92974999D01*
X127600029Y-92975000D01*
X127600011Y-92975001D01*
X127497302Y-92985494D01*
X127330880Y-93040641D01*
X127330875Y-93040643D01*
X127181654Y-93132684D01*
X127057684Y-93256654D01*
X126965643Y-93405875D01*
X126962592Y-93412421D01*
X126959780Y-93411109D01*
X126927901Y-93457121D01*
X126863376Y-93483922D01*
X126794605Y-93471585D01*
X126743421Y-93424024D01*
X126737996Y-93412146D01*
X126737408Y-93412421D01*
X126734356Y-93405875D01*
X126642315Y-93256654D01*
X126518345Y-93132684D01*
X126369124Y-93040643D01*
X126369119Y-93040641D01*
X126202697Y-92985494D01*
X126202690Y-92985493D01*
X126099986Y-92975000D01*
X126050000Y-92975000D01*
X125550000Y-92975000D01*
X125550000Y-92974999D01*
X125536556Y-92961555D01*
X125503071Y-92900232D01*
X125508055Y-92830540D01*
X125548244Y-92775889D01*
X125551858Y-92773084D01*
X125551865Y-92773081D01*
X125668081Y-92656865D01*
X125751744Y-92515398D01*
X125797598Y-92357569D01*
X125800500Y-92320694D01*
X125800500Y-91889306D01*
X125797598Y-91852431D01*
X125770386Y-91758769D01*
X125751745Y-91694606D01*
X125751744Y-91694603D01*
X125751744Y-91694602D01*
X125668081Y-91553135D01*
X125668078Y-91553132D01*
X125663298Y-91546969D01*
X125665635Y-91545155D01*
X125638798Y-91496050D01*
X125643756Y-91426356D01*
X125664554Y-91393998D01*
X125662903Y-91392717D01*
X125667686Y-91386550D01*
X125751281Y-91245198D01*
X125797100Y-91087486D01*
X125797295Y-91085001D01*
X125797295Y-91085000D01*
X124199000Y-91085000D01*
X124131961Y-91065315D01*
X124086206Y-91012511D01*
X124075000Y-90961000D01*
X124075000Y-90585000D01*
X124575000Y-90585000D01*
X125797295Y-90585000D01*
X125797295Y-90584998D01*
X125797100Y-90582513D01*
X125751281Y-90424801D01*
X125667685Y-90283447D01*
X125662900Y-90277278D01*
X125665252Y-90275453D01*
X125638445Y-90226405D01*
X125643402Y-90156712D01*
X125664465Y-90123936D01*
X125662900Y-90122722D01*
X125667685Y-90116552D01*
X125751281Y-89975198D01*
X125797100Y-89817486D01*
X125797295Y-89815001D01*
X127802704Y-89815001D01*
X127802899Y-89817486D01*
X127848718Y-89975198D01*
X127932314Y-90116552D01*
X127937100Y-90122722D01*
X127934753Y-90124542D01*
X127961564Y-90173642D01*
X127956580Y-90243334D01*
X127935541Y-90276069D01*
X127937100Y-90277278D01*
X127932314Y-90283447D01*
X127848718Y-90424801D01*
X127802899Y-90582513D01*
X127802704Y-90584998D01*
X127802705Y-90585000D01*
X129025000Y-90585000D01*
X129525000Y-90585000D01*
X130747295Y-90585000D01*
X130747295Y-90584998D01*
X130747100Y-90582513D01*
X130731555Y-90529007D01*
X136562560Y-90529007D01*
X137279999Y-91246446D01*
X137289210Y-91242631D01*
X137299685Y-91206961D01*
X137352489Y-91161206D01*
X137404000Y-91150000D01*
X137430567Y-91150000D01*
X137462004Y-91132834D01*
X137488362Y-91130000D01*
X140250000Y-91130000D01*
X140250000Y-89670000D01*
X137912155Y-89670000D01*
X137852627Y-89676401D01*
X137852620Y-89676403D01*
X137717913Y-89726645D01*
X137717906Y-89726649D01*
X137602812Y-89812809D01*
X137602809Y-89812812D01*
X137516649Y-89927906D01*
X137516645Y-89927913D01*
X137466403Y-90062620D01*
X137466401Y-90062627D01*
X137460000Y-90122155D01*
X137460000Y-90304821D01*
X137440315Y-90371860D01*
X137387511Y-90417615D01*
X137318353Y-90427559D01*
X137300006Y-90423482D01*
X137253094Y-90409252D01*
X137060000Y-90390234D01*
X136866907Y-90409251D01*
X136681230Y-90465576D01*
X136562560Y-90529007D01*
X130731555Y-90529007D01*
X130701281Y-90424801D01*
X130617685Y-90283447D01*
X130612900Y-90277278D01*
X130615252Y-90275453D01*
X130588445Y-90226405D01*
X130593402Y-90156712D01*
X130614465Y-90123936D01*
X130612900Y-90122722D01*
X130617685Y-90116552D01*
X130701281Y-89975198D01*
X130747100Y-89817486D01*
X130747295Y-89815001D01*
X130747295Y-89815000D01*
X129525000Y-89815000D01*
X129525000Y-90585000D01*
X129025000Y-90585000D01*
X129025000Y-89815000D01*
X127802705Y-89815000D01*
X127802704Y-89815001D01*
X125797295Y-89815001D01*
X125797295Y-89815000D01*
X124575000Y-89815000D01*
X124575000Y-90585000D01*
X124075000Y-90585000D01*
X124075000Y-89439000D01*
X124094685Y-89371961D01*
X124147489Y-89326206D01*
X124199000Y-89315000D01*
X125797295Y-89315000D01*
X125797295Y-89314998D01*
X125797100Y-89312513D01*
X125751281Y-89154801D01*
X125667685Y-89013447D01*
X125662900Y-89007278D01*
X125665366Y-89005364D01*
X125638802Y-88956776D01*
X125643749Y-88887082D01*
X125664856Y-88854232D01*
X125663301Y-88853026D01*
X125668077Y-88846868D01*
X125668081Y-88846865D01*
X125751744Y-88705398D01*
X125797598Y-88547569D01*
X125800500Y-88510694D01*
X125800500Y-88079306D01*
X125800499Y-88079298D01*
X127799500Y-88079298D01*
X127799500Y-88510701D01*
X127802401Y-88547567D01*
X127802402Y-88547573D01*
X127848254Y-88705393D01*
X127848255Y-88705396D01*
X127931917Y-88846862D01*
X127936702Y-88853031D01*
X127934369Y-88854840D01*
X127961210Y-88903995D01*
X127956226Y-88973687D01*
X127935470Y-89006021D01*
X127937097Y-89007283D01*
X127932313Y-89013449D01*
X127848718Y-89154801D01*
X127802899Y-89312513D01*
X127802704Y-89314998D01*
X127802705Y-89315000D01*
X130747295Y-89315000D01*
X130747295Y-89314998D01*
X130747100Y-89312513D01*
X130701281Y-89154801D01*
X130617685Y-89013447D01*
X130612900Y-89007278D01*
X130615366Y-89005364D01*
X130588802Y-88956776D01*
X130593749Y-88887082D01*
X130614856Y-88854232D01*
X130613301Y-88853026D01*
X130618077Y-88846868D01*
X130618081Y-88846865D01*
X130701744Y-88705398D01*
X130747598Y-88547569D01*
X130750500Y-88510694D01*
X130750500Y-88079306D01*
X130747598Y-88042431D01*
X130729488Y-87980098D01*
X130713836Y-87926224D01*
X130701744Y-87884602D01*
X130618081Y-87743135D01*
X130618079Y-87743133D01*
X130618076Y-87743129D01*
X130501870Y-87626923D01*
X130501862Y-87626917D01*
X130360396Y-87543255D01*
X130360393Y-87543254D01*
X130202573Y-87497402D01*
X130202567Y-87497401D01*
X130165701Y-87494500D01*
X130165694Y-87494500D01*
X128384306Y-87494500D01*
X128384298Y-87494500D01*
X128347432Y-87497401D01*
X128347426Y-87497402D01*
X128189606Y-87543254D01*
X128189603Y-87543255D01*
X128048137Y-87626917D01*
X128048129Y-87626923D01*
X127931923Y-87743129D01*
X127931917Y-87743137D01*
X127848255Y-87884603D01*
X127848254Y-87884606D01*
X127802402Y-88042426D01*
X127802401Y-88042432D01*
X127799500Y-88079298D01*
X125800499Y-88079298D01*
X125797598Y-88042431D01*
X125779488Y-87980098D01*
X125763836Y-87926224D01*
X125751744Y-87884602D01*
X125668081Y-87743135D01*
X125668079Y-87743133D01*
X125668076Y-87743129D01*
X125551870Y-87626923D01*
X125551862Y-87626917D01*
X125410396Y-87543255D01*
X125410393Y-87543254D01*
X125252573Y-87497402D01*
X125252567Y-87497401D01*
X125215701Y-87494500D01*
X125215694Y-87494500D01*
X124658545Y-87494500D01*
X124591506Y-87474815D01*
X124545751Y-87422011D01*
X124535807Y-87352853D01*
X124564832Y-87289297D01*
X124570864Y-87282819D01*
X125216864Y-86636819D01*
X125278187Y-86603334D01*
X125304545Y-86600500D01*
X126987588Y-86600500D01*
X127054627Y-86620185D01*
X127064903Y-86627555D01*
X127067736Y-86629814D01*
X127067738Y-86629816D01*
X127220478Y-86725789D01*
X127390745Y-86785368D01*
X127390750Y-86785369D01*
X127569996Y-86805565D01*
X127570000Y-86805565D01*
X127570004Y-86805565D01*
X127749249Y-86785369D01*
X127749252Y-86785368D01*
X127749255Y-86785368D01*
X127919522Y-86725789D01*
X128072262Y-86629816D01*
X128199816Y-86502262D01*
X128295789Y-86349522D01*
X128355368Y-86179255D01*
X128375565Y-86000000D01*
X128355368Y-85820745D01*
X128295789Y-85650478D01*
X128199816Y-85497738D01*
X128072262Y-85370184D01*
X127919523Y-85274211D01*
X127749254Y-85214631D01*
X127749249Y-85214630D01*
X127570004Y-85194435D01*
X127569996Y-85194435D01*
X127390750Y-85214630D01*
X127390745Y-85214631D01*
X127220476Y-85274211D01*
X127067736Y-85370185D01*
X127064903Y-85372445D01*
X127062724Y-85373334D01*
X127061842Y-85373889D01*
X127061744Y-85373734D01*
X127000217Y-85398855D01*
X126987588Y-85399500D01*
X125091117Y-85399500D01*
X125091101Y-85399499D01*
X125083505Y-85399499D01*
X124925391Y-85399499D01*
X124818035Y-85428265D01*
X124772658Y-85440424D01*
X124772657Y-85440425D01*
X124737514Y-85460716D01*
X124737512Y-85460717D01*
X124635738Y-85519475D01*
X124635730Y-85519481D01*
X122569479Y-87585732D01*
X122552765Y-87614682D01*
X122545701Y-87626919D01*
X122490423Y-87722663D01*
X122472433Y-87789801D01*
X122449497Y-87875399D01*
X122449190Y-87877734D01*
X122448383Y-87879557D01*
X122447396Y-87883242D01*
X122446821Y-87883087D01*
X122420921Y-87941629D01*
X122362595Y-87980098D01*
X122292730Y-87980926D01*
X122233508Y-87943851D01*
X122207176Y-87896138D01*
X122176283Y-87789806D01*
X122176282Y-87789803D01*
X122092685Y-87648447D01*
X122092678Y-87648438D01*
X121976561Y-87532321D01*
X121976552Y-87532314D01*
X121835196Y-87448717D01*
X121835193Y-87448716D01*
X121677495Y-87402900D01*
X121677489Y-87402899D01*
X121640649Y-87400000D01*
X121000000Y-87400000D01*
X121000000Y-88326000D01*
X120980315Y-88393039D01*
X120927511Y-88438794D01*
X120876000Y-88450000D01*
X119277705Y-88450000D01*
X119277704Y-88450001D01*
X119277899Y-88452486D01*
X119323718Y-88610198D01*
X119366406Y-88682379D01*
X119383589Y-88750103D01*
X119361429Y-88816365D01*
X119306963Y-88860129D01*
X119259674Y-88869500D01*
X117290907Y-88869500D01*
X117223868Y-88849815D01*
X117178113Y-88797011D01*
X117168169Y-88727853D01*
X117184175Y-88682380D01*
X117205973Y-88645518D01*
X117226744Y-88610398D01*
X117260505Y-88494191D01*
X117272597Y-88452573D01*
X117272598Y-88452567D01*
X117275500Y-88415694D01*
X117275500Y-87984306D01*
X117272800Y-87949998D01*
X119277704Y-87949998D01*
X119277705Y-87950000D01*
X120500000Y-87950000D01*
X120500000Y-87400000D01*
X119859350Y-87400000D01*
X119822510Y-87402899D01*
X119822504Y-87402900D01*
X119664806Y-87448716D01*
X119664803Y-87448717D01*
X119523447Y-87532314D01*
X119523438Y-87532321D01*
X119407321Y-87648438D01*
X119407314Y-87648447D01*
X119323718Y-87789801D01*
X119277899Y-87947513D01*
X119277704Y-87949998D01*
X117272800Y-87949998D01*
X117272598Y-87947431D01*
X117270912Y-87941629D01*
X117226745Y-87789606D01*
X117226744Y-87789603D01*
X117226744Y-87789602D01*
X117143081Y-87648135D01*
X117143079Y-87648133D01*
X117143076Y-87648129D01*
X117026870Y-87531923D01*
X117026862Y-87531917D01*
X116928804Y-87473926D01*
X116885398Y-87448256D01*
X116885397Y-87448255D01*
X116885396Y-87448255D01*
X116885393Y-87448254D01*
X116727573Y-87402402D01*
X116727567Y-87402401D01*
X116690701Y-87399500D01*
X116690694Y-87399500D01*
X114909306Y-87399500D01*
X114909298Y-87399500D01*
X114872432Y-87402401D01*
X114872426Y-87402402D01*
X114714606Y-87448254D01*
X114714603Y-87448255D01*
X114573137Y-87531917D01*
X114573129Y-87531923D01*
X114456923Y-87648129D01*
X114456917Y-87648137D01*
X114373255Y-87789603D01*
X114373254Y-87789606D01*
X114327402Y-87947426D01*
X114327401Y-87947432D01*
X114324500Y-87984298D01*
X114324500Y-88415701D01*
X114327401Y-88452567D01*
X114327402Y-88452573D01*
X114373254Y-88610393D01*
X114373255Y-88610396D01*
X114456917Y-88751862D01*
X114461702Y-88758031D01*
X114459256Y-88759927D01*
X114485857Y-88808642D01*
X114480873Y-88878334D01*
X114460069Y-88910703D01*
X114461702Y-88911969D01*
X114456917Y-88918137D01*
X114373255Y-89059603D01*
X114373254Y-89059606D01*
X114327402Y-89217426D01*
X114327401Y-89217432D01*
X114324500Y-89254298D01*
X114324500Y-89685701D01*
X114327401Y-89722567D01*
X114327402Y-89722573D01*
X114373254Y-89880393D01*
X114373255Y-89880396D01*
X114456917Y-90021862D01*
X114461702Y-90028031D01*
X114459256Y-90029927D01*
X114485857Y-90078642D01*
X114480873Y-90148334D01*
X114460069Y-90180703D01*
X114461702Y-90181969D01*
X114456917Y-90188137D01*
X114373255Y-90329603D01*
X114373254Y-90329606D01*
X114327402Y-90487426D01*
X114327401Y-90487432D01*
X114324500Y-90524298D01*
X114324500Y-90955701D01*
X114327401Y-90992567D01*
X114327402Y-90992573D01*
X114373254Y-91150393D01*
X114373255Y-91150396D01*
X114456917Y-91291862D01*
X114461702Y-91298031D01*
X114459256Y-91299927D01*
X114485857Y-91348642D01*
X114480873Y-91418334D01*
X114460069Y-91450703D01*
X114461702Y-91451969D01*
X114456917Y-91458137D01*
X114373255Y-91599603D01*
X114373254Y-91599606D01*
X114327402Y-91757426D01*
X114327401Y-91757432D01*
X114324500Y-91794298D01*
X114324500Y-92225701D01*
X114327401Y-92262567D01*
X114327402Y-92262573D01*
X114373254Y-92420394D01*
X114373256Y-92420400D01*
X114386396Y-92442618D01*
X114403577Y-92510342D01*
X114381417Y-92576605D01*
X114367345Y-92593418D01*
X114319481Y-92641282D01*
X114319475Y-92641290D01*
X114282405Y-92705499D01*
X114282405Y-92705500D01*
X114267038Y-92732116D01*
X114240422Y-92778215D01*
X114238562Y-92782708D01*
X114194722Y-92837112D01*
X114128428Y-92859178D01*
X114060728Y-92841900D01*
X114013117Y-92790763D01*
X114000000Y-92735257D01*
X114000000Y-92000000D01*
X110624500Y-92000000D01*
X110557461Y-91980315D01*
X110511706Y-91927511D01*
X110500500Y-91876000D01*
X110500500Y-90124000D01*
X110520185Y-90056961D01*
X110572989Y-90011206D01*
X110624500Y-90000000D01*
X114000000Y-90000000D01*
X114000000Y-83470992D01*
X136562559Y-83470992D01*
X136681230Y-83534423D01*
X136866907Y-83590748D01*
X137060000Y-83609765D01*
X137253095Y-83590747D01*
X137300004Y-83576518D01*
X137369871Y-83575894D01*
X137428984Y-83613141D01*
X137458575Y-83676435D01*
X137460000Y-83695178D01*
X137460000Y-83877844D01*
X137466401Y-83937372D01*
X137466403Y-83937379D01*
X137516645Y-84072086D01*
X137516649Y-84072093D01*
X137602809Y-84187187D01*
X137602812Y-84187190D01*
X137717906Y-84273350D01*
X137717913Y-84273354D01*
X137852620Y-84323596D01*
X137852627Y-84323598D01*
X137912155Y-84329999D01*
X137912172Y-84330000D01*
X140250000Y-84330000D01*
X140250000Y-82870000D01*
X137488362Y-82870000D01*
X137421323Y-82850315D01*
X137420932Y-82850000D01*
X137404000Y-82850000D01*
X137336961Y-82830315D01*
X137291206Y-82777511D01*
X137286587Y-82756281D01*
X137279999Y-82753552D01*
X136562559Y-83470992D01*
X114000000Y-83470992D01*
X114000000Y-82620000D01*
X136070234Y-82620000D01*
X136089251Y-82813092D01*
X136145576Y-82998769D01*
X136209007Y-83117439D01*
X136706447Y-82620000D01*
X136660697Y-82574250D01*
X136830000Y-82574250D01*
X136830000Y-82665750D01*
X136865015Y-82750285D01*
X136929715Y-82814985D01*
X137014250Y-82850000D01*
X137105750Y-82850000D01*
X137190285Y-82814985D01*
X137254985Y-82750285D01*
X137290000Y-82665750D01*
X137290000Y-82574250D01*
X137254985Y-82489715D01*
X137190285Y-82425015D01*
X137105750Y-82390000D01*
X137014250Y-82390000D01*
X136929715Y-82425015D01*
X136865015Y-82489715D01*
X136830000Y-82574250D01*
X136660697Y-82574250D01*
X136209007Y-82122560D01*
X136145576Y-82241230D01*
X136089251Y-82426907D01*
X136070234Y-82620000D01*
X114000000Y-82620000D01*
X114000000Y-81624500D01*
X114019685Y-81557461D01*
X114072489Y-81511706D01*
X114124000Y-81500500D01*
X136569866Y-81500500D01*
X136636905Y-81520185D01*
G37*
%TD.AperFunction*%
%TD*%
M02*
