M48
; DRILL file {KiCad 8.0.6} date 2025-02-18T13:59:00+0100
; FORMAT={-:-/ absolute / inch / decimal}
; #@! TF.CreationDate,2025-02-18T13:59:00+01:00
; #@! TF.GenerationSoftware,Kicad,Pcbnew,8.0.6
; #@! TF.FileFunction,Plated,1,2,PTH
FMAT,2
INCH
; #@! TA.AperFunction,Plated,PTH,ViaDrill
T1C0.0118
; #@! TA.AperFunction,Plated,PTH,ComponentDrill
T2C0.0181
; #@! TA.AperFunction,Plated,PTH,ComponentDrill
T3C0.0394
; #@! TA.AperFunction,Plated,PTH,ComponentDrill
T4C0.0402
%
G90
G05
T1
X4.378Y-3.622
X4.4094Y-3.5827
X4.4882Y-3.2283
X4.4882Y-3.2677
X4.4882Y-3.3071
X4.4882Y-3.8976
X4.4882Y-3.937
X4.4882Y-3.9764
X4.4882Y-4.0157
X4.4882Y-4.0551
X4.4882Y-4.0945
X4.5276Y-3.2283
X4.5276Y-4.0945
X4.5669Y-3.2283
X4.5669Y-4.0945
X4.6063Y-3.2283
X4.6063Y-4.0945
X4.6378Y-3.8228
X4.6417Y-3.3425
X4.6457Y-3.2283
X4.6457Y-4.0945
X4.685Y-3.2283
X4.685Y-4.0945
X4.7047Y-3.8189
X4.7244Y-3.2283
X4.7244Y-4.0945
X4.7451Y-3.6604
X4.7638Y-3.2283
X4.7638Y-4.0945
X4.8031Y-3.2283
X4.8031Y-4.0945
X4.8425Y-3.2283
X4.8425Y-4.0945
X4.8819Y-3.2283
X4.8819Y-4.0945
X4.9213Y-3.2283
X4.9213Y-4.0945
X4.937Y-3.3346
X4.9606Y-3.2283
X5.0Y-3.2283
X5.0224Y-3.3858
X5.0394Y-3.2283
X5.0787Y-3.2283
X5.1142Y-3.3386
X5.1181Y-3.2283
X5.1575Y-3.2283
X5.1969Y-3.2283
X5.1969Y-3.3858
X5.1969Y-3.4252
X5.1969Y-3.4646
X5.1969Y-3.5039
X5.1969Y-3.5433
X5.1969Y-3.6614
X5.1969Y-3.7008
X5.1969Y-3.7402
X5.1969Y-3.7795
X5.1969Y-3.8189
X5.2362Y-3.2283
X5.2756Y-3.2283
X5.2756Y-3.2677
X5.2756Y-3.622
X5.315Y-3.2283
X5.315Y-3.5827
X5.3543Y-3.3858
X5.3543Y-3.5433
X5.3937Y-3.3465
X5.3937Y-3.5039
T2
X5.3961Y-3.2528
X5.3961Y-3.5976
T3
X4.5751Y-4.0242
X4.6751Y-4.0242
X4.7751Y-4.0242
X4.9751Y-4.0242
X5.0751Y-4.0242
T4
X3.7402Y-3.4614
X3.7402Y-3.6614
M30
