%TF.GenerationSoftware,KiCad,Pcbnew,8.0.6*%
%TF.CreationDate,2025-02-18T13:58:57+01:00*%
%TF.ProjectId,DifferentialProbe,44696666-6572-4656-9e74-69616c50726f,rev?*%
%TF.SameCoordinates,Original*%
%TF.FileFunction,Copper,L1,Top*%
%TF.FilePolarity,Positive*%
%FSLAX46Y46*%
G04 Gerber Fmt 4.6, Leading zero omitted, Abs format (unit mm)*
G04 Created by KiCad (PCBNEW 8.0.6) date 2025-02-18 13:58:57*
%MOMM*%
%LPD*%
G01*
G04 APERTURE LIST*
G04 Aperture macros list*
%AMRoundRect*
0 Rectangle with rounded corners*
0 $1 Rounding radius*
0 $2 $3 $4 $5 $6 $7 $8 $9 X,Y pos of 4 corners*
0 Add a 4 corners polygon primitive as box body*
4,1,4,$2,$3,$4,$5,$6,$7,$8,$9,$2,$3,0*
0 Add four circle primitives for the rounded corners*
1,1,$1+$1,$2,$3*
1,1,$1+$1,$4,$5*
1,1,$1+$1,$6,$7*
1,1,$1+$1,$8,$9*
0 Add four rect primitives between the rounded corners*
20,1,$1+$1,$2,$3,$4,$5,0*
20,1,$1+$1,$4,$5,$6,$7,0*
20,1,$1+$1,$6,$7,$8,$9,0*
20,1,$1+$1,$8,$9,$2,$3,0*%
G04 Aperture macros list end*
%TA.AperFunction,SMDPad,CuDef*%
%ADD10RoundRect,0.250000X-0.262500X-0.450000X0.262500X-0.450000X0.262500X0.450000X-0.262500X0.450000X0*%
%TD*%
%TA.AperFunction,SMDPad,CuDef*%
%ADD11R,5.080000X2.290000*%
%TD*%
%TA.AperFunction,SMDPad,CuDef*%
%ADD12R,5.080000X2.420000*%
%TD*%
%TA.AperFunction,SMDPad,CuDef*%
%ADD13R,0.950000X0.460000*%
%TD*%
%TA.AperFunction,ComponentPad*%
%ADD14C,0.970000*%
%TD*%
%TA.AperFunction,SMDPad,CuDef*%
%ADD15R,2.500000X0.500000*%
%TD*%
%TA.AperFunction,SMDPad,CuDef*%
%ADD16R,2.500000X2.000000*%
%TD*%
%TA.AperFunction,SMDPad,CuDef*%
%ADD17RoundRect,0.250000X0.262500X0.450000X-0.262500X0.450000X-0.262500X-0.450000X0.262500X-0.450000X0*%
%TD*%
%TA.AperFunction,SMDPad,CuDef*%
%ADD18RoundRect,0.150000X-0.825000X-0.150000X0.825000X-0.150000X0.825000X0.150000X-0.825000X0.150000X0*%
%TD*%
%TA.AperFunction,SMDPad,CuDef*%
%ADD19RoundRect,0.250000X-0.250000X-0.475000X0.250000X-0.475000X0.250000X0.475000X-0.250000X0.475000X0*%
%TD*%
%TA.AperFunction,SMDPad,CuDef*%
%ADD20RoundRect,0.250000X0.450000X-0.400000X0.450000X0.400000X-0.450000X0.400000X-0.450000X-0.400000X0*%
%TD*%
%TA.AperFunction,ComponentPad*%
%ADD21R,2.030000X1.730000*%
%TD*%
%TA.AperFunction,ComponentPad*%
%ADD22O,2.030000X1.730000*%
%TD*%
%TA.AperFunction,SMDPad,CuDef*%
%ADD23RoundRect,0.250000X0.250000X0.475000X-0.250000X0.475000X-0.250000X-0.475000X0.250000X-0.475000X0*%
%TD*%
%TA.AperFunction,ComponentPad*%
%ADD24R,1.500000X1.500000*%
%TD*%
%TA.AperFunction,ComponentPad*%
%ADD25C,1.500000*%
%TD*%
%TA.AperFunction,ViaPad*%
%ADD26C,0.600000*%
%TD*%
%TA.AperFunction,Conductor*%
%ADD27C,0.200000*%
%TD*%
G04 APERTURE END LIST*
D10*
%TO.P,R13,1*%
%TO.N,Net-(U1A--)*%
X123600000Y-85865000D03*
%TO.P,R13,2*%
%TO.N,GND*%
X125425000Y-85865000D03*
%TD*%
D11*
%TO.P,J1,1,In*%
%TO.N,Net-(D1-A1)*%
X140500000Y-87000000D03*
D12*
%TO.P,J1,2,Ext*%
%TO.N,GND*%
X140500000Y-91380000D03*
X140500000Y-82620000D03*
D13*
X137510000Y-91380000D03*
X137510000Y-82620000D03*
D14*
X137060000Y-91380000D03*
X137060000Y-82620000D03*
%TD*%
D15*
%TO.P,J3,1,VBUS*%
%TO.N,Net-(J3-VBUS)*%
X134375000Y-100800000D03*
%TO.P,J3,2,D-*%
%TO.N,D_N*%
X134375000Y-100000000D03*
%TO.P,J3,3,D+*%
%TO.N,D_P*%
X134375000Y-99200000D03*
%TO.P,J3,4,GND*%
%TO.N,GNDD*%
X134375000Y-98400000D03*
%TO.P,J3,5,Shield*%
X134375000Y-97600000D03*
D16*
%TO.P,J3,6*%
%TO.N,N/C*%
X134375000Y-103600000D03*
X139875000Y-103600000D03*
X134375000Y-94800000D03*
X139875000Y-94800000D03*
%TD*%
D17*
%TO.P,R17,1*%
%TO.N,Net-(D1-A1)*%
X129975000Y-91365000D03*
%TO.P,R17,2*%
%TO.N,Net-(R15-Pad1)*%
X128150000Y-91365000D03*
%TD*%
D18*
%TO.P,U1,1*%
%TO.N,Net-(R14-Pad1)*%
X120525000Y-88095000D03*
%TO.P,U1,2,-*%
%TO.N,Net-(U1A--)*%
X120525000Y-89365000D03*
%TO.P,U1,3,+*%
%TO.N,Net-(U1A-+)*%
X120525000Y-90635000D03*
%TO.P,U1,4,V-*%
%TO.N,Net-(U1C-V-)*%
X120525000Y-91905000D03*
%TO.P,U1,5,+*%
%TO.N,Net-(U1B-+)*%
X125475000Y-91905000D03*
%TO.P,U1,6,-*%
%TO.N,Net-(U1B--)*%
X125475000Y-90635000D03*
%TO.P,U1,7*%
%TO.N,Net-(R15-Pad1)*%
X125475000Y-89365000D03*
%TO.P,U1,8,V+*%
%TO.N,Net-(U1C-V+)*%
X125475000Y-88095000D03*
%TD*%
D10*
%TO.P,R6,1*%
%TO.N,Net-(J2-Pin_1)*%
X100000000Y-94000000D03*
%TO.P,R6,2*%
%TO.N,Net-(R6-Pad2)*%
X101825000Y-94000000D03*
%TD*%
%TO.P,R4,1*%
%TO.N,Net-(C2-Pad1)*%
X112000000Y-88000000D03*
%TO.P,R4,2*%
%TO.N,Net-(U1A-+)*%
X113825000Y-88000000D03*
%TD*%
%TO.P,R10,1*%
%TO.N,GND*%
X112000000Y-92000000D03*
%TO.P,R10,2*%
%TO.N,Net-(U1B-+)*%
X113825000Y-92000000D03*
%TD*%
%TO.P,R8,1*%
%TO.N,Net-(R7-Pad2)*%
X108087500Y-94000000D03*
%TO.P,R8,2*%
%TO.N,Net-(C1-Pad1)*%
X109912500Y-94000000D03*
%TD*%
D19*
%TO.P,C4,1*%
%TO.N,Net-(U1B-+)*%
X116000000Y-96000000D03*
%TO.P,C4,2*%
%TO.N,GND*%
X117900000Y-96000000D03*
%TD*%
D10*
%TO.P,R5,1*%
%TO.N,GND*%
X112000000Y-90000000D03*
%TO.P,R5,2*%
%TO.N,Net-(U1A-+)*%
X113825000Y-90000000D03*
%TD*%
%TO.P,R15,1*%
%TO.N,Net-(R15-Pad1)*%
X127975000Y-89365000D03*
%TO.P,R15,2*%
%TO.N,Net-(U1B--)*%
X129800000Y-89365000D03*
%TD*%
%TO.P,R7,1*%
%TO.N,Net-(R6-Pad2)*%
X104000000Y-94000000D03*
%TO.P,R7,2*%
%TO.N,Net-(R7-Pad2)*%
X105825000Y-94000000D03*
%TD*%
D20*
%TO.P,D1,1,A1*%
%TO.N,Net-(D1-A1)*%
X134000000Y-86900000D03*
%TO.P,D1,2,A2*%
%TO.N,GND*%
X134000000Y-84000000D03*
%TD*%
D17*
%TO.P,R11,1*%
%TO.N,Net-(R11-Pad1)*%
X117825000Y-88000000D03*
%TO.P,R11,2*%
%TO.N,Net-(U1A-+)*%
X116000000Y-88000000D03*
%TD*%
D10*
%TO.P,R14,1*%
%TO.N,Net-(R14-Pad1)*%
X120150000Y-85865000D03*
%TO.P,R14,2*%
%TO.N,Net-(U1A--)*%
X121975000Y-85865000D03*
%TD*%
D19*
%TO.P,C1,1*%
%TO.N,Net-(C1-Pad1)*%
X112000000Y-96000000D03*
%TO.P,C1,2*%
%TO.N,Net-(U1B-+)*%
X113900000Y-96000000D03*
%TD*%
%TO.P,C10,1*%
%TO.N,GND*%
X119600000Y-96000000D03*
%TO.P,C10,2*%
%TO.N,Net-(U1C-V-)*%
X121500000Y-96000000D03*
%TD*%
%TO.P,C9,1*%
%TO.N,Net-(U1C-V+)*%
X128100000Y-86000000D03*
%TO.P,C9,2*%
%TO.N,GND*%
X130000000Y-86000000D03*
%TD*%
D10*
%TO.P,R2,1*%
%TO.N,Net-(R1-Pad2)*%
X104000000Y-87975000D03*
%TO.P,R2,2*%
%TO.N,Net-(R2-Pad2)*%
X105825000Y-87975000D03*
%TD*%
D19*
%TO.P,C2,1*%
%TO.N,Net-(C2-Pad1)*%
X112000000Y-86000000D03*
%TO.P,C2,2*%
%TO.N,Net-(U1A-+)*%
X113900000Y-86000000D03*
%TD*%
D10*
%TO.P,R12,1*%
%TO.N,Net-(U1B-+)*%
X116000000Y-94000000D03*
%TO.P,R12,2*%
%TO.N,Net-(R11-Pad1)*%
X117825000Y-94000000D03*
%TD*%
%TO.P,R3,1*%
%TO.N,Net-(R2-Pad2)*%
X108000000Y-88000000D03*
%TO.P,R3,2*%
%TO.N,Net-(C2-Pad1)*%
X109825000Y-88000000D03*
%TD*%
D21*
%TO.P,J2,1,Pin_1*%
%TO.N,Net-(J2-Pin_1)*%
X95000000Y-93000000D03*
D22*
%TO.P,J2,3,Pin_3*%
%TO.N,Net-(J2-Pin_3)*%
X95000000Y-87920000D03*
%TD*%
D10*
%TO.P,R9,1*%
%TO.N,Net-(C1-Pad1)*%
X112087500Y-94000000D03*
%TO.P,R9,2*%
%TO.N,Net-(U1B-+)*%
X113912500Y-94000000D03*
%TD*%
%TO.P,R16,1*%
%TO.N,Net-(R14-Pad1)*%
X120175000Y-83900000D03*
%TO.P,R16,2*%
%TO.N,Net-(U1B--)*%
X122000000Y-83900000D03*
%TD*%
D23*
%TO.P,C3,1*%
%TO.N,GND*%
X117900000Y-86000000D03*
%TO.P,C3,2*%
%TO.N,Net-(U1A-+)*%
X116000000Y-86000000D03*
%TD*%
D10*
%TO.P,R1,1*%
%TO.N,Net-(J2-Pin_3)*%
X100000000Y-88000000D03*
%TO.P,R1,2*%
%TO.N,Net-(R1-Pad2)*%
X101825000Y-88000000D03*
%TD*%
D24*
%TO.P,U2,1,+Vin*%
%TO.N,Net-(J3-VBUS)*%
X128907500Y-102215000D03*
D25*
%TO.P,U2,2,-Vin*%
%TO.N,GNDD*%
X126367500Y-102215000D03*
%TO.P,U2,4,-Vout*%
%TO.N,Net-(U2--Vout)*%
X121287500Y-102215000D03*
%TO.P,U2,5,Com*%
%TO.N,GND*%
X118747500Y-102215000D03*
%TO.P,U2,6,+Vout*%
%TO.N,Net-(U2-+Vout)*%
X116207500Y-102215000D03*
%TD*%
D26*
%TO.N,GND*%
X115000000Y-82000000D03*
X136000000Y-90000000D03*
X114000000Y-84000000D03*
X132000000Y-97000000D03*
X114000000Y-101000000D03*
X121000000Y-82000000D03*
X122000000Y-82000000D03*
X118000000Y-82000000D03*
X135000000Y-82000000D03*
X132000000Y-82000000D03*
X116000000Y-82000000D03*
X114000000Y-83000000D03*
X129900000Y-84800000D03*
X125000000Y-82000000D03*
X124000000Y-104000000D03*
X136000000Y-86000000D03*
X132000000Y-89000000D03*
X114000000Y-103000000D03*
X127000000Y-82000000D03*
X119000000Y-82000000D03*
X132000000Y-93000000D03*
X114000000Y-99000000D03*
X134000000Y-92000000D03*
X125000000Y-104000000D03*
X125400000Y-84700000D03*
X124000000Y-82000000D03*
X116000000Y-104000000D03*
X132000000Y-86000000D03*
X117000000Y-104000000D03*
X134000000Y-83000000D03*
X132000000Y-87000000D03*
X120000000Y-104000000D03*
X129000000Y-82000000D03*
X115000000Y-104000000D03*
X137000000Y-89000000D03*
X114000000Y-102000000D03*
X119000000Y-104000000D03*
X118000000Y-104000000D03*
X117000000Y-82000000D03*
X132000000Y-88000000D03*
X132000000Y-90000000D03*
X130000000Y-82000000D03*
X117800000Y-97100000D03*
X131000000Y-82000000D03*
X132000000Y-96000000D03*
X134000000Y-82000000D03*
X126000000Y-82000000D03*
X128000000Y-82000000D03*
X122000000Y-104000000D03*
X123000000Y-82000000D03*
X133000000Y-82000000D03*
X119500000Y-97000000D03*
X112000000Y-91000000D03*
X120000000Y-82000000D03*
X114000000Y-104000000D03*
X111200000Y-92000000D03*
X121000000Y-104000000D03*
X137000000Y-85000000D03*
X114000000Y-82000000D03*
X135000000Y-91000000D03*
X114000000Y-100000000D03*
X132000000Y-94000000D03*
X117900000Y-84900000D03*
X132000000Y-95000000D03*
X123000000Y-104000000D03*
%TO.N,Net-(U1C-V+)*%
X127570000Y-86000000D03*
%TO.N,Net-(U1C-V-)*%
X120525771Y-92975000D03*
%TD*%
D27*
%TO.N,Net-(C1-Pad1)*%
X112000000Y-96000000D02*
X112000000Y-94087500D01*
X109912500Y-94000000D02*
X112087500Y-94000000D01*
X112000000Y-94087500D02*
X112087500Y-94000000D01*
%TO.N,Net-(U1B-+)*%
X116975000Y-97700000D02*
X116000000Y-96725000D01*
X125475000Y-91905000D02*
X125475000Y-93534744D01*
X116000000Y-96725000D02*
X116000000Y-96000000D01*
X116000000Y-94000000D02*
X116000000Y-96000000D01*
X113825000Y-92000000D02*
X113825000Y-93912500D01*
X125475000Y-93534744D02*
X121309744Y-97700000D01*
X113900000Y-94012500D02*
X113912500Y-94000000D01*
X121309744Y-97700000D02*
X116975000Y-97700000D01*
X113825000Y-93912500D02*
X113912500Y-94000000D01*
X113900000Y-96000000D02*
X113900000Y-94012500D01*
X116000000Y-96000000D02*
X113900000Y-96000000D01*
%TO.N,Net-(C2-Pad1)*%
X112000000Y-88000000D02*
X112000000Y-86000000D01*
X112000000Y-88000000D02*
X109825000Y-88000000D01*
%TO.N,Net-(U1A-+)*%
X116000000Y-86000000D02*
X113900000Y-86000000D01*
X113900000Y-87925000D02*
X113825000Y-88000000D01*
X113825000Y-88000000D02*
X113825000Y-90000000D01*
X113900000Y-86000000D02*
X113900000Y-87925000D01*
X116000000Y-88000000D02*
X116000000Y-86000000D01*
X120525000Y-90635000D02*
X118635000Y-90635000D01*
X118635000Y-90635000D02*
X116000000Y-88000000D01*
%TO.N,GND*%
X125425000Y-85865000D02*
X125425000Y-84725000D01*
X112000000Y-92000000D02*
X112000000Y-91000000D01*
X112000000Y-92000000D02*
X111200000Y-92000000D01*
X112000000Y-91000000D02*
X112000000Y-90000000D01*
X130000000Y-84900000D02*
X129900000Y-84800000D01*
X117900000Y-86000000D02*
X117900000Y-84900000D01*
X134000000Y-84000000D02*
X134000000Y-83000000D01*
X125425000Y-84725000D02*
X125400000Y-84700000D01*
X117900000Y-96000000D02*
X117900000Y-97000000D01*
X130000000Y-86000000D02*
X130000000Y-84900000D01*
X117900000Y-97000000D02*
X117800000Y-97100000D01*
X119600000Y-96000000D02*
X119600000Y-96900000D01*
X119600000Y-96900000D02*
X119500000Y-97000000D01*
%TO.N,Net-(U1C-V+)*%
X125475000Y-88095000D02*
X127570000Y-86000000D01*
X128100000Y-86000000D02*
X127570000Y-86000000D01*
%TO.N,Net-(U1C-V-)*%
X120525000Y-92974229D02*
X120525771Y-92975000D01*
X120525000Y-91905000D02*
X120525000Y-92974229D01*
X120525000Y-95025000D02*
X121500000Y-96000000D01*
X120525000Y-91905000D02*
X120525000Y-95025000D01*
%TO.N,Net-(D1-A1)*%
X134000000Y-89000000D02*
X134500000Y-89500000D01*
X129975000Y-91365000D02*
X132635000Y-91365000D01*
X134000000Y-86900000D02*
X134000000Y-89000000D01*
X134500000Y-89500000D02*
X137000000Y-87000000D01*
X137000000Y-87000000D02*
X140500000Y-87000000D01*
X132635000Y-91365000D02*
X134500000Y-89500000D01*
%TO.N,Net-(J2-Pin_1)*%
X99000000Y-93000000D02*
X100000000Y-94000000D01*
X95000000Y-93000000D02*
X99000000Y-93000000D01*
%TO.N,Net-(J2-Pin_3)*%
X95000000Y-87920000D02*
X99920000Y-87920000D01*
X99920000Y-87920000D02*
X100000000Y-88000000D01*
%TO.N,GNDD*%
X133900000Y-97600000D02*
X133900000Y-98400000D01*
X130182500Y-98400000D02*
X133900000Y-98400000D01*
X126367500Y-102215000D02*
X130182500Y-98400000D01*
%TO.N,Net-(J3-VBUS)*%
X133900000Y-100800000D02*
X130322500Y-100800000D01*
X130322500Y-100800000D02*
X128907500Y-102215000D01*
%TO.N,Net-(R1-Pad2)*%
X104000000Y-87975000D02*
X101850000Y-87975000D01*
X101850000Y-87975000D02*
X101825000Y-88000000D01*
%TO.N,Net-(R2-Pad2)*%
X105850000Y-88000000D02*
X105825000Y-87975000D01*
X108000000Y-88000000D02*
X105850000Y-88000000D01*
%TO.N,Net-(R6-Pad2)*%
X101825000Y-94000000D02*
X104000000Y-94000000D01*
%TO.N,Net-(R7-Pad2)*%
X105825000Y-94000000D02*
X108087500Y-94000000D01*
%TO.N,Net-(R11-Pad1)*%
X121800000Y-90975552D02*
X121800000Y-90224448D01*
X121540552Y-89965000D02*
X119509448Y-89965000D01*
X117825000Y-88280552D02*
X117825000Y-88000000D01*
X117825000Y-94000000D02*
X117825000Y-92989448D01*
X121800000Y-90224448D02*
X121540552Y-89965000D01*
X119514448Y-91300000D02*
X121475552Y-91300000D01*
X121475552Y-91300000D02*
X121800000Y-90975552D01*
X117825000Y-92989448D02*
X119514448Y-91300000D01*
X119509448Y-89965000D02*
X117825000Y-88280552D01*
%TO.N,Net-(U1A--)*%
X121499999Y-89365000D02*
X121975000Y-88889999D01*
X121975000Y-88889999D02*
X121975000Y-85865000D01*
X123600000Y-85865000D02*
X121975000Y-85865000D01*
X120525000Y-89365000D02*
X121499999Y-89365000D01*
%TO.N,Net-(R14-Pad1)*%
X120150000Y-85865000D02*
X120150000Y-83925000D01*
X120150000Y-87720000D02*
X120150000Y-85865000D01*
X120150000Y-83925000D02*
X120175000Y-83900000D01*
X120525000Y-88095000D02*
X120150000Y-87720000D01*
%TO.N,Net-(R15-Pad1)*%
X128150000Y-91365000D02*
X128150000Y-89540000D01*
X127975000Y-89365000D02*
X125475000Y-89365000D01*
X128150000Y-89540000D02*
X127975000Y-89365000D01*
%TO.N,Net-(U1B--)*%
X128800000Y-88365000D02*
X126935000Y-88365000D01*
X124132244Y-88765000D02*
X124097244Y-88800000D01*
X125475000Y-90635000D02*
X124500001Y-90635000D01*
X129800000Y-89365000D02*
X128800000Y-88365000D01*
X124097244Y-86865000D02*
X124412500Y-86549744D01*
X124097244Y-90232243D02*
X124097244Y-88800000D01*
X126535000Y-88765000D02*
X124132244Y-88765000D01*
X124412500Y-85180256D02*
X123132244Y-83900000D01*
X124097244Y-88800000D02*
X124097244Y-86865000D01*
X124500001Y-90635000D02*
X124097244Y-90232243D01*
X124412500Y-86549744D02*
X124412500Y-85180256D01*
X123132244Y-83900000D02*
X122000000Y-83900000D01*
X126935000Y-88365000D02*
X126535000Y-88765000D01*
%TD*%
%TA.AperFunction,Conductor*%
%TO.N,GND*%
G36*
X137402540Y-87620185D02*
G01*
X137448295Y-87672989D01*
X137459501Y-87724500D01*
X137459501Y-88192876D01*
X137465908Y-88252483D01*
X137516202Y-88387328D01*
X137516206Y-88387335D01*
X137602452Y-88502544D01*
X137602455Y-88502547D01*
X137717664Y-88588793D01*
X137717671Y-88588797D01*
X137852517Y-88639091D01*
X137852516Y-88639091D01*
X137859444Y-88639835D01*
X137912127Y-88645500D01*
X142375500Y-88645499D01*
X142442539Y-88665184D01*
X142488294Y-88717988D01*
X142499500Y-88769499D01*
X142499500Y-89546000D01*
X142479815Y-89613039D01*
X142427011Y-89658794D01*
X142375500Y-89670000D01*
X140750000Y-89670000D01*
X140750000Y-91506000D01*
X140730315Y-91573039D01*
X140677511Y-91618794D01*
X140626000Y-91630000D01*
X137488362Y-91630000D01*
X137421323Y-91610315D01*
X137420932Y-91610000D01*
X137404000Y-91610000D01*
X137336961Y-91590315D01*
X137291206Y-91537511D01*
X137286587Y-91516281D01*
X137279999Y-91513552D01*
X136562559Y-92230992D01*
X136681230Y-92294423D01*
X136866907Y-92350748D01*
X137060000Y-92369765D01*
X137253095Y-92350747D01*
X137300004Y-92336518D01*
X137369871Y-92335894D01*
X137428984Y-92373141D01*
X137458575Y-92436435D01*
X137460000Y-92455178D01*
X137460000Y-92637844D01*
X137466401Y-92697372D01*
X137466403Y-92697379D01*
X137516645Y-92832086D01*
X137516649Y-92832093D01*
X137602809Y-92947187D01*
X137602812Y-92947190D01*
X137717906Y-93033350D01*
X137717913Y-93033354D01*
X137852620Y-93083596D01*
X137852627Y-93083598D01*
X137912155Y-93089999D01*
X137912172Y-93090000D01*
X138409104Y-93090000D01*
X138476143Y-93109685D01*
X138521898Y-93162489D01*
X138531842Y-93231647D01*
X138502817Y-93295203D01*
X138452437Y-93330182D01*
X138382671Y-93356202D01*
X138382664Y-93356206D01*
X138267455Y-93442452D01*
X138267452Y-93442455D01*
X138181206Y-93557664D01*
X138181202Y-93557671D01*
X138130908Y-93692517D01*
X138124501Y-93752116D01*
X138124501Y-93752123D01*
X138124500Y-93752135D01*
X138124500Y-95847870D01*
X138124501Y-95847876D01*
X138130908Y-95907483D01*
X138181202Y-96042328D01*
X138181206Y-96042335D01*
X138267452Y-96157544D01*
X138267455Y-96157547D01*
X138382664Y-96243793D01*
X138382671Y-96243797D01*
X138517517Y-96294091D01*
X138517516Y-96294091D01*
X138524444Y-96294835D01*
X138577127Y-96300500D01*
X141172872Y-96300499D01*
X141232483Y-96294091D01*
X141367331Y-96243796D01*
X141482546Y-96157546D01*
X141568796Y-96042331D01*
X141619091Y-95907483D01*
X141625500Y-95847873D01*
X141625499Y-93752128D01*
X141619091Y-93692517D01*
X141569060Y-93558378D01*
X141568797Y-93557671D01*
X141568793Y-93557664D01*
X141482547Y-93442455D01*
X141482544Y-93442452D01*
X141367335Y-93356206D01*
X141367328Y-93356202D01*
X141297563Y-93330182D01*
X141241629Y-93288311D01*
X141217212Y-93222847D01*
X141232063Y-93154574D01*
X141281468Y-93105168D01*
X141340896Y-93090000D01*
X142375500Y-93090000D01*
X142442539Y-93109685D01*
X142488294Y-93162489D01*
X142499500Y-93214000D01*
X142499500Y-104375500D01*
X142479815Y-104442539D01*
X142427011Y-104488294D01*
X142375500Y-104499500D01*
X141749500Y-104499500D01*
X141682461Y-104479815D01*
X141636706Y-104427011D01*
X141625500Y-104375500D01*
X141625499Y-102552129D01*
X141625498Y-102552123D01*
X141625497Y-102552116D01*
X141619091Y-102492517D01*
X141596883Y-102432975D01*
X141568797Y-102357671D01*
X141568793Y-102357664D01*
X141482547Y-102242455D01*
X141482544Y-102242452D01*
X141367335Y-102156206D01*
X141367328Y-102156202D01*
X141232482Y-102105908D01*
X141232483Y-102105908D01*
X141172883Y-102099501D01*
X141172881Y-102099500D01*
X141172873Y-102099500D01*
X141172864Y-102099500D01*
X138577129Y-102099500D01*
X138577123Y-102099501D01*
X138517516Y-102105908D01*
X138382671Y-102156202D01*
X138382664Y-102156206D01*
X138267455Y-102242452D01*
X138267452Y-102242455D01*
X138181206Y-102357664D01*
X138181202Y-102357671D01*
X138130908Y-102492517D01*
X138127738Y-102522007D01*
X138124500Y-102552127D01*
X138124500Y-103470277D01*
X138124501Y-104375500D01*
X138104816Y-104442539D01*
X138052013Y-104488294D01*
X138000501Y-104499500D01*
X136249500Y-104499500D01*
X136182461Y-104479815D01*
X136136706Y-104427011D01*
X136125500Y-104375500D01*
X136125499Y-102552129D01*
X136125498Y-102552123D01*
X136125497Y-102552116D01*
X136119091Y-102492517D01*
X136096883Y-102432975D01*
X136068797Y-102357671D01*
X136068793Y-102357664D01*
X135982547Y-102242455D01*
X135982544Y-102242452D01*
X135867335Y-102156206D01*
X135867328Y-102156202D01*
X135732482Y-102105908D01*
X135732483Y-102105908D01*
X135672883Y-102099501D01*
X135672881Y-102099500D01*
X135672873Y-102099500D01*
X135672864Y-102099500D01*
X133077129Y-102099500D01*
X133077123Y-102099501D01*
X133017516Y-102105908D01*
X132882671Y-102156202D01*
X132882664Y-102156206D01*
X132767455Y-102242452D01*
X132767452Y-102242455D01*
X132681206Y-102357664D01*
X132681202Y-102357671D01*
X132630908Y-102492517D01*
X132627738Y-102522007D01*
X132624500Y-102552127D01*
X132624500Y-103470277D01*
X132624501Y-104375500D01*
X132604816Y-104442539D01*
X132552013Y-104488294D01*
X132500501Y-104499500D01*
X114124000Y-104499500D01*
X114056961Y-104479815D01*
X114011206Y-104427011D01*
X114000000Y-104375500D01*
X114000000Y-102214997D01*
X114952223Y-102214997D01*
X114952223Y-102215002D01*
X114971293Y-102432975D01*
X114971293Y-102432979D01*
X115027922Y-102644322D01*
X115027924Y-102644326D01*
X115027925Y-102644330D01*
X115044990Y-102680925D01*
X115120397Y-102842638D01*
X115145498Y-102878486D01*
X115245902Y-103021877D01*
X115400623Y-103176598D01*
X115579861Y-103302102D01*
X115778170Y-103394575D01*
X115989523Y-103451207D01*
X116172426Y-103467208D01*
X116207498Y-103470277D01*
X116207500Y-103470277D01*
X116207502Y-103470277D01*
X116235754Y-103467805D01*
X116425477Y-103451207D01*
X116636830Y-103394575D01*
X116835139Y-103302102D01*
X117014377Y-103176598D01*
X117169098Y-103021877D01*
X117294602Y-102842639D01*
X117365395Y-102690822D01*
X117411566Y-102638385D01*
X117478760Y-102619233D01*
X117545641Y-102639449D01*
X117590158Y-102690824D01*
X117660833Y-102842387D01*
X117704374Y-102904571D01*
X118264537Y-102344408D01*
X118281575Y-102407993D01*
X118347401Y-102522007D01*
X118440493Y-102615099D01*
X118554507Y-102680925D01*
X118618090Y-102697962D01*
X118057927Y-103258124D01*
X118120112Y-103301666D01*
X118318340Y-103394101D01*
X118318349Y-103394105D01*
X118529605Y-103450710D01*
X118529615Y-103450712D01*
X118747499Y-103469775D01*
X118747501Y-103469775D01*
X118965384Y-103450712D01*
X118965394Y-103450710D01*
X119176650Y-103394105D01*
X119176664Y-103394100D01*
X119374883Y-103301669D01*
X119374885Y-103301668D01*
X119437071Y-103258124D01*
X118876910Y-102697962D01*
X118940493Y-102680925D01*
X119054507Y-102615099D01*
X119147599Y-102522007D01*
X119213425Y-102407993D01*
X119230462Y-102344409D01*
X119790624Y-102904570D01*
X119834166Y-102842388D01*
X119904840Y-102690825D01*
X119951012Y-102638386D01*
X120018206Y-102619233D01*
X120085087Y-102639448D01*
X120129605Y-102690824D01*
X120200397Y-102842638D01*
X120225498Y-102878486D01*
X120325902Y-103021877D01*
X120480623Y-103176598D01*
X120659861Y-103302102D01*
X120858170Y-103394575D01*
X121069523Y-103451207D01*
X121252426Y-103467208D01*
X121287498Y-103470277D01*
X121287500Y-103470277D01*
X121287502Y-103470277D01*
X121315754Y-103467805D01*
X121505477Y-103451207D01*
X121716830Y-103394575D01*
X121915139Y-103302102D01*
X122094377Y-103176598D01*
X122249098Y-103021877D01*
X122374602Y-102842639D01*
X122467075Y-102644330D01*
X122523707Y-102432977D01*
X122542777Y-102215000D01*
X122542777Y-102214997D01*
X125112223Y-102214997D01*
X125112223Y-102215002D01*
X125131293Y-102432975D01*
X125131293Y-102432979D01*
X125187922Y-102644322D01*
X125187924Y-102644326D01*
X125187925Y-102644330D01*
X125204990Y-102680925D01*
X125280397Y-102842638D01*
X125305498Y-102878486D01*
X125405902Y-103021877D01*
X125560623Y-103176598D01*
X125739861Y-103302102D01*
X125938170Y-103394575D01*
X126149523Y-103451207D01*
X126332426Y-103467208D01*
X126367498Y-103470277D01*
X126367500Y-103470277D01*
X126367502Y-103470277D01*
X126395754Y-103467805D01*
X126585477Y-103451207D01*
X126796830Y-103394575D01*
X126995139Y-103302102D01*
X127174377Y-103176598D01*
X127329098Y-103021877D01*
X127431428Y-102875734D01*
X127486002Y-102832112D01*
X127555500Y-102824918D01*
X127617855Y-102856441D01*
X127653269Y-102916670D01*
X127657000Y-102946858D01*
X127657000Y-103012869D01*
X127657001Y-103012876D01*
X127663408Y-103072483D01*
X127713702Y-103207328D01*
X127713706Y-103207335D01*
X127799952Y-103322544D01*
X127799955Y-103322547D01*
X127915164Y-103408793D01*
X127915171Y-103408797D01*
X128050017Y-103459091D01*
X128050016Y-103459091D01*
X128056944Y-103459835D01*
X128109627Y-103465500D01*
X129705372Y-103465499D01*
X129764983Y-103459091D01*
X129899831Y-103408796D01*
X130015046Y-103322546D01*
X130101296Y-103207331D01*
X130151591Y-103072483D01*
X130158000Y-103012873D01*
X130157999Y-101865096D01*
X130177684Y-101798058D01*
X130194318Y-101777416D01*
X130534916Y-101436819D01*
X130596239Y-101403334D01*
X130622597Y-101400500D01*
X132716769Y-101400500D01*
X132783808Y-101420185D01*
X132791080Y-101425233D01*
X132882668Y-101493795D01*
X132882671Y-101493797D01*
X133017517Y-101544091D01*
X133017516Y-101544091D01*
X133024444Y-101544835D01*
X133077127Y-101550500D01*
X135672872Y-101550499D01*
X135732483Y-101544091D01*
X135867331Y-101493796D01*
X135982546Y-101407546D01*
X136051234Y-101315789D01*
X136107167Y-101273920D01*
X136176859Y-101268936D01*
X136238182Y-101302421D01*
X136271666Y-101363745D01*
X136274500Y-101390102D01*
X136274500Y-101468993D01*
X136274500Y-101468995D01*
X136274499Y-101468995D01*
X136301418Y-101604322D01*
X136301421Y-101604332D01*
X136354221Y-101731804D01*
X136354228Y-101731817D01*
X136430885Y-101846541D01*
X136430888Y-101846545D01*
X136528454Y-101944111D01*
X136528458Y-101944114D01*
X136643182Y-102020771D01*
X136643195Y-102020778D01*
X136770667Y-102073578D01*
X136770672Y-102073580D01*
X136770676Y-102073580D01*
X136770677Y-102073581D01*
X136906004Y-102100500D01*
X136906007Y-102100500D01*
X137043995Y-102100500D01*
X137135041Y-102082389D01*
X137179328Y-102073580D01*
X137306811Y-102020775D01*
X137421542Y-101944114D01*
X137519114Y-101846542D01*
X137595775Y-101731811D01*
X137648580Y-101604328D01*
X137664274Y-101525428D01*
X137675500Y-101468995D01*
X137675500Y-101331004D01*
X137648581Y-101195677D01*
X137648580Y-101195676D01*
X137648580Y-101195672D01*
X137632762Y-101157483D01*
X137595778Y-101068195D01*
X137595771Y-101068182D01*
X137519114Y-100953458D01*
X137519111Y-100953454D01*
X137421545Y-100855888D01*
X137421541Y-100855885D01*
X137306817Y-100779228D01*
X137306804Y-100779221D01*
X137179332Y-100726421D01*
X137179322Y-100726418D01*
X137043995Y-100699500D01*
X137043993Y-100699500D01*
X136906007Y-100699500D01*
X136906005Y-100699500D01*
X136770677Y-100726418D01*
X136770667Y-100726421D01*
X136643195Y-100779221D01*
X136643182Y-100779228D01*
X136528458Y-100855885D01*
X136528454Y-100855888D01*
X136430888Y-100953454D01*
X136352601Y-101070618D01*
X136298988Y-101115422D01*
X136229663Y-101124129D01*
X136166636Y-101093974D01*
X136129917Y-101034531D01*
X136125499Y-101001732D01*
X136125499Y-100502128D01*
X136119091Y-100442517D01*
X136119090Y-100442515D01*
X136119090Y-100442512D01*
X136117308Y-100434969D01*
X136118773Y-100434622D01*
X136114409Y-100373651D01*
X136118819Y-100358633D01*
X136119089Y-100357488D01*
X136119088Y-100357488D01*
X136119091Y-100357483D01*
X136125500Y-100297873D01*
X136125499Y-99702128D01*
X136119091Y-99642517D01*
X136119090Y-99642515D01*
X136119090Y-99642512D01*
X136117308Y-99634969D01*
X136118773Y-99634622D01*
X136114409Y-99573651D01*
X136118819Y-99558633D01*
X136119089Y-99557488D01*
X136119088Y-99557488D01*
X136119091Y-99557483D01*
X136125500Y-99497873D01*
X136125499Y-98902128D01*
X136119091Y-98842517D01*
X136119090Y-98842515D01*
X136119090Y-98842512D01*
X136117308Y-98834969D01*
X136118773Y-98834622D01*
X136114409Y-98773651D01*
X136118819Y-98758633D01*
X136119089Y-98757488D01*
X136119088Y-98757488D01*
X136119091Y-98757483D01*
X136125500Y-98697873D01*
X136125499Y-98102128D01*
X136119091Y-98042517D01*
X136119090Y-98042515D01*
X136119090Y-98042512D01*
X136117308Y-98034969D01*
X136118773Y-98034622D01*
X136114409Y-97973651D01*
X136118819Y-97958633D01*
X136119089Y-97957488D01*
X136119088Y-97957488D01*
X136119091Y-97957483D01*
X136125500Y-97897873D01*
X136125499Y-97398271D01*
X136145183Y-97331233D01*
X136197987Y-97285478D01*
X136267146Y-97275534D01*
X136330702Y-97304559D01*
X136352601Y-97329381D01*
X136430885Y-97446541D01*
X136430888Y-97446545D01*
X136528454Y-97544111D01*
X136528458Y-97544114D01*
X136643182Y-97620771D01*
X136643195Y-97620778D01*
X136770667Y-97673578D01*
X136770672Y-97673580D01*
X136770676Y-97673580D01*
X136770677Y-97673581D01*
X136906004Y-97700500D01*
X136906007Y-97700500D01*
X137043995Y-97700500D01*
X137135041Y-97682389D01*
X137179328Y-97673580D01*
X137306811Y-97620775D01*
X137421542Y-97544114D01*
X137519114Y-97446542D01*
X137595775Y-97331811D01*
X137596015Y-97331233D01*
X137629186Y-97251149D01*
X137648580Y-97204328D01*
X137664819Y-97122691D01*
X137675500Y-97068995D01*
X137675500Y-96931004D01*
X137648581Y-96795677D01*
X137648580Y-96795676D01*
X137648580Y-96795672D01*
X137645537Y-96788325D01*
X137595778Y-96668195D01*
X137595771Y-96668182D01*
X137519114Y-96553458D01*
X137519111Y-96553454D01*
X137421545Y-96455888D01*
X137421541Y-96455885D01*
X137306817Y-96379228D01*
X137306804Y-96379221D01*
X137179332Y-96326421D01*
X137179322Y-96326418D01*
X137043995Y-96299500D01*
X137043993Y-96299500D01*
X136906007Y-96299500D01*
X136906005Y-96299500D01*
X136770677Y-96326418D01*
X136770667Y-96326421D01*
X136643195Y-96379221D01*
X136643182Y-96379228D01*
X136528458Y-96455885D01*
X136528454Y-96455888D01*
X136430888Y-96553454D01*
X136430885Y-96553458D01*
X136354228Y-96668182D01*
X136354221Y-96668195D01*
X136301421Y-96795667D01*
X136301418Y-96795677D01*
X136274500Y-96931004D01*
X136274500Y-97009897D01*
X136254815Y-97076936D01*
X136202011Y-97122691D01*
X136132853Y-97132635D01*
X136069297Y-97103610D01*
X136051234Y-97084208D01*
X135982547Y-96992455D01*
X135982544Y-96992452D01*
X135867335Y-96906206D01*
X135867328Y-96906202D01*
X135732482Y-96855908D01*
X135732483Y-96855908D01*
X135672883Y-96849501D01*
X135672881Y-96849500D01*
X135672873Y-96849500D01*
X135672864Y-96849500D01*
X133077129Y-96849500D01*
X133077123Y-96849501D01*
X133017516Y-96855908D01*
X132882671Y-96906202D01*
X132882664Y-96906206D01*
X132767455Y-96992452D01*
X132767452Y-96992455D01*
X132681206Y-97107664D01*
X132681202Y-97107671D01*
X132631151Y-97241867D01*
X132630909Y-97242517D01*
X132624500Y-97302127D01*
X132624500Y-97544114D01*
X132624501Y-97675500D01*
X132604817Y-97742539D01*
X132552013Y-97788294D01*
X132500501Y-97799500D01*
X130269170Y-97799500D01*
X130269154Y-97799499D01*
X130261558Y-97799499D01*
X130103443Y-97799499D01*
X130027079Y-97819961D01*
X129950714Y-97840423D01*
X129950709Y-97840426D01*
X129813790Y-97919475D01*
X129813782Y-97919481D01*
X126769380Y-100963882D01*
X126708057Y-100997367D01*
X126649606Y-100995976D01*
X126585477Y-100978793D01*
X126367502Y-100959723D01*
X126367498Y-100959723D01*
X126222182Y-100972436D01*
X126149523Y-100978793D01*
X126149520Y-100978793D01*
X125938177Y-101035422D01*
X125938168Y-101035426D01*
X125739861Y-101127898D01*
X125739857Y-101127900D01*
X125560621Y-101253402D01*
X125405902Y-101408121D01*
X125280400Y-101587357D01*
X125280398Y-101587361D01*
X125187926Y-101785668D01*
X125187922Y-101785677D01*
X125131293Y-101997020D01*
X125131293Y-101997024D01*
X125112223Y-102214997D01*
X122542777Y-102214997D01*
X122523707Y-101997023D01*
X122483385Y-101846541D01*
X122467077Y-101785677D01*
X122467076Y-101785676D01*
X122467075Y-101785670D01*
X122374602Y-101587362D01*
X122374599Y-101587358D01*
X122374599Y-101587357D01*
X122249099Y-101408124D01*
X122171979Y-101331004D01*
X122094377Y-101253402D01*
X121956478Y-101156844D01*
X121915138Y-101127897D01*
X121815984Y-101081661D01*
X121716830Y-101035425D01*
X121716826Y-101035424D01*
X121716822Y-101035422D01*
X121505477Y-100978793D01*
X121287502Y-100959723D01*
X121287498Y-100959723D01*
X121142182Y-100972436D01*
X121069523Y-100978793D01*
X121069520Y-100978793D01*
X120858177Y-101035422D01*
X120858168Y-101035426D01*
X120659861Y-101127898D01*
X120659857Y-101127900D01*
X120480621Y-101253402D01*
X120325902Y-101408121D01*
X120200400Y-101587357D01*
X120200400Y-101587358D01*
X120200398Y-101587361D01*
X120200398Y-101587362D01*
X120192489Y-101604322D01*
X120129605Y-101739176D01*
X120083432Y-101791615D01*
X120016238Y-101810766D01*
X119949357Y-101790550D01*
X119904841Y-101739175D01*
X119834167Y-101587614D01*
X119834166Y-101587612D01*
X119790624Y-101525428D01*
X119790624Y-101525427D01*
X119230462Y-102085589D01*
X119213425Y-102022007D01*
X119147599Y-101907993D01*
X119054507Y-101814901D01*
X118940493Y-101749075D01*
X118876909Y-101732037D01*
X119437071Y-101171874D01*
X119374887Y-101128333D01*
X119176659Y-101035898D01*
X119176650Y-101035894D01*
X118965394Y-100979289D01*
X118965384Y-100979287D01*
X118747501Y-100960225D01*
X118747499Y-100960225D01*
X118529615Y-100979287D01*
X118529605Y-100979289D01*
X118318349Y-101035894D01*
X118318340Y-101035898D01*
X118120113Y-101128333D01*
X118057928Y-101171874D01*
X118618091Y-101732037D01*
X118554507Y-101749075D01*
X118440493Y-101814901D01*
X118347401Y-101907993D01*
X118281575Y-102022007D01*
X118264537Y-102085591D01*
X117704374Y-101525428D01*
X117660833Y-101587613D01*
X117590158Y-101739175D01*
X117543985Y-101791614D01*
X117476792Y-101810766D01*
X117409911Y-101790550D01*
X117365394Y-101739175D01*
X117302513Y-101604328D01*
X117294602Y-101587362D01*
X117294599Y-101587358D01*
X117294599Y-101587357D01*
X117169099Y-101408124D01*
X117091979Y-101331004D01*
X117014377Y-101253402D01*
X116876478Y-101156844D01*
X116835138Y-101127897D01*
X116735984Y-101081661D01*
X116636830Y-101035425D01*
X116636826Y-101035424D01*
X116636822Y-101035422D01*
X116425477Y-100978793D01*
X116207502Y-100959723D01*
X116207498Y-100959723D01*
X116062182Y-100972436D01*
X115989523Y-100978793D01*
X115989520Y-100978793D01*
X115778177Y-101035422D01*
X115778168Y-101035426D01*
X115579861Y-101127898D01*
X115579857Y-101127900D01*
X115400621Y-101253402D01*
X115245902Y-101408121D01*
X115120400Y-101587357D01*
X115120398Y-101587361D01*
X115027926Y-101785668D01*
X115027922Y-101785677D01*
X114971293Y-101997020D01*
X114971293Y-101997024D01*
X114952223Y-102214997D01*
X114000000Y-102214997D01*
X114000000Y-97349499D01*
X114019685Y-97282460D01*
X114072489Y-97236705D01*
X114123999Y-97225499D01*
X114200008Y-97225499D01*
X114302797Y-97214999D01*
X114469334Y-97159814D01*
X114618656Y-97067712D01*
X114742712Y-96943656D01*
X114834814Y-96794334D01*
X114834817Y-96794322D01*
X114837615Y-96788325D01*
X114883785Y-96735884D01*
X114950977Y-96716728D01*
X115017859Y-96736940D01*
X115062385Y-96788325D01*
X115065184Y-96794330D01*
X115065186Y-96794334D01*
X115157288Y-96943656D01*
X115281344Y-97067712D01*
X115430666Y-97159814D01*
X115597203Y-97214999D01*
X115601834Y-97215472D01*
X115666526Y-97241867D01*
X115676914Y-97251149D01*
X116490139Y-98064374D01*
X116490149Y-98064385D01*
X116494479Y-98068715D01*
X116494480Y-98068716D01*
X116606284Y-98180520D01*
X116693095Y-98230639D01*
X116693097Y-98230641D01*
X116743213Y-98259576D01*
X116743215Y-98259577D01*
X116895942Y-98300500D01*
X116895943Y-98300500D01*
X121223075Y-98300500D01*
X121223091Y-98300501D01*
X121230687Y-98300501D01*
X121388798Y-98300501D01*
X121388801Y-98300501D01*
X121541529Y-98259577D01*
X121591648Y-98230639D01*
X121678460Y-98180520D01*
X121790264Y-98068716D01*
X121790264Y-98068714D01*
X121800472Y-98058507D01*
X121800473Y-98058504D01*
X125955520Y-93903460D01*
X126034577Y-93766528D01*
X126038434Y-93752135D01*
X132624500Y-93752135D01*
X132624500Y-95847870D01*
X132624501Y-95847876D01*
X132630908Y-95907483D01*
X132681202Y-96042328D01*
X132681206Y-96042335D01*
X132767452Y-96157544D01*
X132767455Y-96157547D01*
X132882664Y-96243793D01*
X132882671Y-96243797D01*
X133017517Y-96294091D01*
X133017516Y-96294091D01*
X133024444Y-96294835D01*
X133077127Y-96300500D01*
X135672872Y-96300499D01*
X135732483Y-96294091D01*
X135867331Y-96243796D01*
X135982546Y-96157546D01*
X136068796Y-96042331D01*
X136119091Y-95907483D01*
X136125500Y-95847873D01*
X136125499Y-93752128D01*
X136119091Y-93692517D01*
X136069060Y-93558378D01*
X136068797Y-93557671D01*
X136068793Y-93557664D01*
X135982547Y-93442455D01*
X135982544Y-93442452D01*
X135867335Y-93356206D01*
X135867328Y-93356202D01*
X135732482Y-93305908D01*
X135732483Y-93305908D01*
X135672883Y-93299501D01*
X135672881Y-93299500D01*
X135672873Y-93299500D01*
X135672864Y-93299500D01*
X133077129Y-93299500D01*
X133077123Y-93299501D01*
X133017516Y-93305908D01*
X132882671Y-93356202D01*
X132882664Y-93356206D01*
X132767455Y-93442452D01*
X132767452Y-93442455D01*
X132681206Y-93557664D01*
X132681202Y-93557671D01*
X132630908Y-93692517D01*
X132624501Y-93752116D01*
X132624501Y-93752123D01*
X132624500Y-93752135D01*
X126038434Y-93752135D01*
X126075501Y-93613801D01*
X126075501Y-93455686D01*
X126075501Y-93448091D01*
X126075500Y-93448073D01*
X126075500Y-92829500D01*
X126095185Y-92762461D01*
X126147989Y-92716706D01*
X126199500Y-92705500D01*
X126365686Y-92705500D01*
X126365694Y-92705500D01*
X126402569Y-92702598D01*
X126402571Y-92702597D01*
X126402573Y-92702597D01*
X126444191Y-92690505D01*
X126560398Y-92656744D01*
X126701865Y-92573081D01*
X126818081Y-92456865D01*
X126901744Y-92315398D01*
X126947598Y-92157569D01*
X126949855Y-92128884D01*
X126974737Y-92063597D01*
X127030968Y-92022125D01*
X127100693Y-92017637D01*
X127161776Y-92051557D01*
X127191178Y-92099605D01*
X127200881Y-92128886D01*
X127202686Y-92134333D01*
X127202687Y-92134336D01*
X127217016Y-92157567D01*
X127294788Y-92283656D01*
X127418844Y-92407712D01*
X127568166Y-92499814D01*
X127734703Y-92554999D01*
X127837491Y-92565500D01*
X128462508Y-92565499D01*
X128462516Y-92565498D01*
X128462519Y-92565498D01*
X128545757Y-92556995D01*
X128565297Y-92554999D01*
X128731834Y-92499814D01*
X128881156Y-92407712D01*
X128974819Y-92314049D01*
X129036142Y-92280564D01*
X129105834Y-92285548D01*
X129150181Y-92314049D01*
X129243844Y-92407712D01*
X129393166Y-92499814D01*
X129559703Y-92554999D01*
X129662491Y-92565500D01*
X130287508Y-92565499D01*
X130287516Y-92565498D01*
X130287519Y-92565498D01*
X130370757Y-92556995D01*
X130390297Y-92554999D01*
X130556834Y-92499814D01*
X130706156Y-92407712D01*
X130830212Y-92283656D01*
X130922314Y-92134334D01*
X130950095Y-92050495D01*
X130989868Y-91993051D01*
X131054384Y-91966228D01*
X131067801Y-91965500D01*
X132548331Y-91965500D01*
X132548347Y-91965501D01*
X132555943Y-91965501D01*
X132714054Y-91965501D01*
X132714057Y-91965501D01*
X132866785Y-91924577D01*
X132916904Y-91895639D01*
X133003716Y-91845520D01*
X133115520Y-91733716D01*
X133115520Y-91733714D01*
X133125728Y-91723507D01*
X133125730Y-91723504D01*
X133469234Y-91380000D01*
X136070234Y-91380000D01*
X136089251Y-91573092D01*
X136145576Y-91758769D01*
X136209007Y-91877439D01*
X136706447Y-91380000D01*
X136660697Y-91334250D01*
X136830000Y-91334250D01*
X136830000Y-91425750D01*
X136865015Y-91510285D01*
X136929715Y-91574985D01*
X137014250Y-91610000D01*
X137105750Y-91610000D01*
X137190285Y-91574985D01*
X137254985Y-91510285D01*
X137290000Y-91425750D01*
X137290000Y-91334250D01*
X137254985Y-91249715D01*
X137190285Y-91185015D01*
X137105750Y-91150000D01*
X137014250Y-91150000D01*
X136929715Y-91185015D01*
X136865015Y-91249715D01*
X136830000Y-91334250D01*
X136660697Y-91334250D01*
X136209007Y-90882560D01*
X136145576Y-91001230D01*
X136089251Y-91186907D01*
X136070234Y-91380000D01*
X133469234Y-91380000D01*
X134320227Y-90529007D01*
X136562560Y-90529007D01*
X137279999Y-91246446D01*
X137289210Y-91242631D01*
X137299685Y-91206961D01*
X137352489Y-91161206D01*
X137404000Y-91150000D01*
X137430567Y-91150000D01*
X137462004Y-91132834D01*
X137488362Y-91130000D01*
X140250000Y-91130000D01*
X140250000Y-89670000D01*
X137912155Y-89670000D01*
X137852627Y-89676401D01*
X137852620Y-89676403D01*
X137717913Y-89726645D01*
X137717906Y-89726649D01*
X137602812Y-89812809D01*
X137602809Y-89812812D01*
X137516649Y-89927906D01*
X137516645Y-89927913D01*
X137466403Y-90062620D01*
X137466401Y-90062627D01*
X137460000Y-90122155D01*
X137460000Y-90304821D01*
X137440315Y-90371860D01*
X137387511Y-90417615D01*
X137318353Y-90427559D01*
X137300006Y-90423482D01*
X137253094Y-90409252D01*
X137060000Y-90390234D01*
X136866907Y-90409251D01*
X136681230Y-90465576D01*
X136562560Y-90529007D01*
X134320227Y-90529007D01*
X134858506Y-89990728D01*
X134858511Y-89990724D01*
X134868714Y-89980520D01*
X134868716Y-89980520D01*
X134980520Y-89868716D01*
X134980520Y-89868714D01*
X134990724Y-89858511D01*
X134990727Y-89858506D01*
X137212416Y-87636819D01*
X137273739Y-87603334D01*
X137300097Y-87600500D01*
X137335501Y-87600500D01*
X137402540Y-87620185D01*
G37*
%TD.AperFunction*%
%TA.AperFunction,Conductor*%
G36*
X119237701Y-92528494D02*
G01*
X119282048Y-92556995D01*
X119298129Y-92573076D01*
X119298133Y-92573079D01*
X119298135Y-92573081D01*
X119439602Y-92656744D01*
X119481224Y-92668836D01*
X119597426Y-92702597D01*
X119597429Y-92702597D01*
X119597431Y-92702598D01*
X119621695Y-92704507D01*
X119686983Y-92729389D01*
X119728456Y-92785619D01*
X119735189Y-92842008D01*
X119720206Y-92974995D01*
X119720206Y-92975003D01*
X119740401Y-93154249D01*
X119740402Y-93154254D01*
X119799982Y-93324523D01*
X119852799Y-93408580D01*
X119895955Y-93477262D01*
X119895960Y-93477267D01*
X119897444Y-93479128D01*
X119898030Y-93480565D01*
X119899660Y-93483158D01*
X119899205Y-93483443D01*
X119923855Y-93543814D01*
X119924500Y-93556445D01*
X119924500Y-94651000D01*
X119904815Y-94718039D01*
X119883846Y-94736208D01*
X119886319Y-94738681D01*
X119850000Y-94775000D01*
X119850000Y-96126000D01*
X119830315Y-96193039D01*
X119777511Y-96238794D01*
X119726000Y-96250000D01*
X117774000Y-96250000D01*
X117706961Y-96230315D01*
X117661206Y-96177511D01*
X117650000Y-96126000D01*
X117650000Y-95874000D01*
X117669685Y-95806961D01*
X117722489Y-95761206D01*
X117774000Y-95750000D01*
X119350000Y-95750000D01*
X119350000Y-94775000D01*
X119349999Y-94774999D01*
X119300029Y-94775000D01*
X119300011Y-94775001D01*
X119197302Y-94785494D01*
X119030880Y-94840641D01*
X119030871Y-94840646D01*
X118966154Y-94880563D01*
X118898761Y-94899003D01*
X118832098Y-94878080D01*
X118787329Y-94824437D01*
X118778668Y-94755107D01*
X118783347Y-94736036D01*
X118827499Y-94602797D01*
X118838000Y-94500009D01*
X118837999Y-93499992D01*
X118836279Y-93483158D01*
X118827499Y-93397203D01*
X118827498Y-93397200D01*
X118813913Y-93356204D01*
X118772314Y-93230666D01*
X118694343Y-93104254D01*
X118675904Y-93036864D01*
X118696827Y-92970201D01*
X118712197Y-92951484D01*
X119106688Y-92556993D01*
X119168009Y-92523510D01*
X119237701Y-92528494D01*
G37*
%TD.AperFunction*%
%TA.AperFunction,Conductor*%
G36*
X136636905Y-81520185D02*
G01*
X136682660Y-81572989D01*
X136692604Y-81642147D01*
X136663579Y-81705703D01*
X136628319Y-81733858D01*
X136562560Y-81769006D01*
X136562560Y-81769007D01*
X137279999Y-82486446D01*
X137289210Y-82482631D01*
X137299685Y-82446961D01*
X137352489Y-82401206D01*
X137404000Y-82390000D01*
X137430567Y-82390000D01*
X137462004Y-82372834D01*
X137488362Y-82370000D01*
X140626000Y-82370000D01*
X140693039Y-82389685D01*
X140738794Y-82442489D01*
X140750000Y-82494000D01*
X140750000Y-84330000D01*
X142375500Y-84330000D01*
X142442539Y-84349685D01*
X142488294Y-84402489D01*
X142499500Y-84454000D01*
X142499500Y-85230500D01*
X142479815Y-85297539D01*
X142427011Y-85343294D01*
X142375500Y-85354500D01*
X137912129Y-85354500D01*
X137912123Y-85354501D01*
X137852516Y-85360908D01*
X137717671Y-85411202D01*
X137717664Y-85411206D01*
X137602455Y-85497452D01*
X137602452Y-85497455D01*
X137516206Y-85612664D01*
X137516202Y-85612671D01*
X137465908Y-85747517D01*
X137459501Y-85807116D01*
X137459500Y-85807135D01*
X137459500Y-86275500D01*
X137439815Y-86342539D01*
X137387011Y-86388294D01*
X137335500Y-86399500D01*
X137086669Y-86399500D01*
X137086653Y-86399499D01*
X137079057Y-86399499D01*
X136920943Y-86399499D01*
X136806397Y-86430192D01*
X136768214Y-86440423D01*
X136724781Y-86465500D01*
X136724780Y-86465500D01*
X136631287Y-86519477D01*
X136631282Y-86519481D01*
X135246556Y-87904208D01*
X135185233Y-87937693D01*
X135115541Y-87932709D01*
X135059608Y-87890837D01*
X135035191Y-87825373D01*
X135050043Y-87757100D01*
X135053319Y-87751458D01*
X135134814Y-87619334D01*
X135189999Y-87452797D01*
X135200500Y-87350009D01*
X135200499Y-86449992D01*
X135194196Y-86388294D01*
X135189999Y-86347203D01*
X135189998Y-86347200D01*
X135134814Y-86180666D01*
X135042712Y-86031344D01*
X134918656Y-85907288D01*
X134769334Y-85815186D01*
X134602797Y-85760001D01*
X134602795Y-85760000D01*
X134500010Y-85749500D01*
X133499998Y-85749500D01*
X133499980Y-85749501D01*
X133397203Y-85760000D01*
X133397200Y-85760001D01*
X133230668Y-85815185D01*
X133230663Y-85815187D01*
X133081342Y-85907289D01*
X132957289Y-86031342D01*
X132865187Y-86180663D01*
X132865186Y-86180666D01*
X132810001Y-86347203D01*
X132810001Y-86347204D01*
X132810000Y-86347204D01*
X132799500Y-86449983D01*
X132799500Y-87350001D01*
X132799501Y-87350019D01*
X132810000Y-87452796D01*
X132810001Y-87452799D01*
X132852017Y-87579592D01*
X132865186Y-87619334D01*
X132957288Y-87768656D01*
X133081344Y-87892712D01*
X133230666Y-87984814D01*
X133314505Y-88012595D01*
X133371948Y-88052366D01*
X133398772Y-88116882D01*
X133399500Y-88130300D01*
X133399500Y-88913330D01*
X133399499Y-88913348D01*
X133399499Y-89079054D01*
X133399498Y-89079054D01*
X133440423Y-89231787D01*
X133440424Y-89231788D01*
X133448351Y-89245517D01*
X133448353Y-89245520D01*
X133519477Y-89368712D01*
X133519481Y-89368717D01*
X133563083Y-89412319D01*
X133596568Y-89473642D01*
X133591584Y-89543334D01*
X133563083Y-89587681D01*
X132422584Y-90728181D01*
X132361261Y-90761666D01*
X132334903Y-90764500D01*
X131067801Y-90764500D01*
X131000762Y-90744815D01*
X130955007Y-90692011D01*
X130950095Y-90679504D01*
X130922314Y-90595666D01*
X130830212Y-90446344D01*
X130729237Y-90345369D01*
X130695752Y-90284046D01*
X130700736Y-90214354D01*
X130711373Y-90192602D01*
X130747314Y-90134334D01*
X130802499Y-89967797D01*
X130813000Y-89865009D01*
X130812999Y-88864992D01*
X130802499Y-88762203D01*
X130747314Y-88595666D01*
X130655212Y-88446344D01*
X130531156Y-88322288D01*
X130438388Y-88265069D01*
X130381836Y-88230187D01*
X130381831Y-88230185D01*
X130380362Y-88229698D01*
X130215297Y-88175001D01*
X130215295Y-88175000D01*
X130112516Y-88164500D01*
X129500097Y-88164500D01*
X129433058Y-88144815D01*
X129412416Y-88128181D01*
X129287590Y-88003355D01*
X129287588Y-88003352D01*
X129168717Y-87884481D01*
X129168716Y-87884480D01*
X129081904Y-87834360D01*
X129081904Y-87834359D01*
X129081900Y-87834358D01*
X129031785Y-87805423D01*
X128879057Y-87764499D01*
X128720943Y-87764499D01*
X128713347Y-87764499D01*
X128713331Y-87764500D01*
X127017772Y-87764500D01*
X126950733Y-87744815D01*
X126904978Y-87692011D01*
X126903972Y-87689751D01*
X126901742Y-87684598D01*
X126888602Y-87662379D01*
X126871421Y-87594655D01*
X126893581Y-87528393D01*
X126907648Y-87511585D01*
X127293571Y-87125662D01*
X127354892Y-87092179D01*
X127424584Y-87097163D01*
X127446346Y-87107806D01*
X127530659Y-87159810D01*
X127530660Y-87159810D01*
X127530666Y-87159814D01*
X127697203Y-87214999D01*
X127799991Y-87225500D01*
X128400008Y-87225499D01*
X128400016Y-87225498D01*
X128400019Y-87225498D01*
X128471216Y-87218225D01*
X128502797Y-87214999D01*
X128669334Y-87159814D01*
X128818656Y-87067712D01*
X128942712Y-86943656D01*
X128944752Y-86940347D01*
X128946745Y-86938555D01*
X128947193Y-86937989D01*
X128947289Y-86938065D01*
X128996694Y-86893623D01*
X129065656Y-86882395D01*
X129129740Y-86910234D01*
X129155829Y-86940339D01*
X129157681Y-86943341D01*
X129157683Y-86943344D01*
X129281654Y-87067315D01*
X129430875Y-87159356D01*
X129430880Y-87159358D01*
X129597302Y-87214505D01*
X129597309Y-87214506D01*
X129700019Y-87224999D01*
X130250000Y-87224999D01*
X130299972Y-87224999D01*
X130299986Y-87224998D01*
X130402697Y-87214505D01*
X130569119Y-87159358D01*
X130569124Y-87159356D01*
X130718345Y-87067315D01*
X130842315Y-86943345D01*
X130934356Y-86794124D01*
X130934358Y-86794119D01*
X130989505Y-86627697D01*
X130989506Y-86627690D01*
X130999999Y-86524986D01*
X131000000Y-86524973D01*
X131000000Y-86250000D01*
X130250000Y-86250000D01*
X130250000Y-87224999D01*
X129700019Y-87224999D01*
X129749999Y-87224998D01*
X129750000Y-87224998D01*
X129750000Y-85750000D01*
X130250000Y-85750000D01*
X130999999Y-85750000D01*
X130999999Y-85475028D01*
X130999998Y-85475013D01*
X130989505Y-85372302D01*
X130934358Y-85205880D01*
X130934356Y-85205875D01*
X130842315Y-85056654D01*
X130718345Y-84932684D01*
X130569124Y-84840643D01*
X130569119Y-84840641D01*
X130402697Y-84785494D01*
X130402690Y-84785493D01*
X130299986Y-84775000D01*
X130250000Y-84775000D01*
X130250000Y-85750000D01*
X129750000Y-85750000D01*
X129750000Y-84775000D01*
X129749999Y-84774999D01*
X129700029Y-84775000D01*
X129700011Y-84775001D01*
X129597302Y-84785494D01*
X129430880Y-84840641D01*
X129430875Y-84840643D01*
X129281654Y-84932684D01*
X129157683Y-85056655D01*
X129157679Y-85056660D01*
X129155826Y-85059665D01*
X129154018Y-85061290D01*
X129153202Y-85062323D01*
X129153025Y-85062183D01*
X129103874Y-85106385D01*
X129034911Y-85117601D01*
X128970831Y-85089752D01*
X128944753Y-85059653D01*
X128944737Y-85059628D01*
X128942712Y-85056344D01*
X128818656Y-84932288D01*
X128725888Y-84875069D01*
X128669336Y-84840187D01*
X128669331Y-84840185D01*
X128667862Y-84839698D01*
X128502797Y-84785001D01*
X128502795Y-84785000D01*
X128400010Y-84774500D01*
X127799998Y-84774500D01*
X127799980Y-84774501D01*
X127697203Y-84785000D01*
X127697200Y-84785001D01*
X127530668Y-84840185D01*
X127530663Y-84840187D01*
X127381342Y-84932289D01*
X127257289Y-85056342D01*
X127165184Y-85205668D01*
X127135970Y-85293828D01*
X127096197Y-85351272D01*
X127084243Y-85359812D01*
X127067740Y-85370182D01*
X127067735Y-85370186D01*
X126940184Y-85497737D01*
X126844210Y-85650478D01*
X126784630Y-85820750D01*
X126774837Y-85907668D01*
X126747770Y-85972082D01*
X126739298Y-85981465D01*
X126609313Y-86111450D01*
X126547990Y-86144935D01*
X126478298Y-86139951D01*
X126439475Y-86115000D01*
X125299000Y-86115000D01*
X125231961Y-86095315D01*
X125186206Y-86042511D01*
X125175000Y-85991000D01*
X125175000Y-85615000D01*
X125675000Y-85615000D01*
X126437499Y-85615000D01*
X126437499Y-85365028D01*
X126437498Y-85365013D01*
X126427005Y-85262302D01*
X126371858Y-85095880D01*
X126371856Y-85095875D01*
X126279815Y-84946654D01*
X126155845Y-84822684D01*
X126006624Y-84730643D01*
X126006619Y-84730641D01*
X125840197Y-84675494D01*
X125840190Y-84675493D01*
X125737486Y-84665000D01*
X125675000Y-84665000D01*
X125675000Y-85615000D01*
X125175000Y-85615000D01*
X125175000Y-84665000D01*
X125174999Y-84664999D01*
X125112528Y-84665000D01*
X125112511Y-84665001D01*
X125009801Y-84675494D01*
X124892501Y-84714363D01*
X124822673Y-84716765D01*
X124765817Y-84684338D01*
X124531465Y-84449986D01*
X132800001Y-84449986D01*
X132810494Y-84552697D01*
X132865641Y-84719119D01*
X132865643Y-84719124D01*
X132957684Y-84868345D01*
X133081654Y-84992315D01*
X133230875Y-85084356D01*
X133230880Y-85084358D01*
X133397302Y-85139505D01*
X133397309Y-85139506D01*
X133500019Y-85149999D01*
X133749999Y-85149999D01*
X134250000Y-85149999D01*
X134499972Y-85149999D01*
X134499986Y-85149998D01*
X134602697Y-85139505D01*
X134769119Y-85084358D01*
X134769124Y-85084356D01*
X134918345Y-84992315D01*
X135042315Y-84868345D01*
X135134356Y-84719124D01*
X135134358Y-84719119D01*
X135189505Y-84552697D01*
X135189506Y-84552690D01*
X135199999Y-84449986D01*
X135200000Y-84449973D01*
X135200000Y-84250000D01*
X134250000Y-84250000D01*
X134250000Y-85149999D01*
X133749999Y-85149999D01*
X133750000Y-85149998D01*
X133750000Y-84250000D01*
X132800001Y-84250000D01*
X132800001Y-84449986D01*
X124531465Y-84449986D01*
X123631492Y-83550013D01*
X132800000Y-83550013D01*
X132800000Y-83750000D01*
X133750000Y-83750000D01*
X134250000Y-83750000D01*
X135199999Y-83750000D01*
X135199999Y-83550028D01*
X135199998Y-83550013D01*
X135191925Y-83470992D01*
X136562559Y-83470992D01*
X136681230Y-83534423D01*
X136866907Y-83590748D01*
X137060000Y-83609765D01*
X137253095Y-83590747D01*
X137300004Y-83576518D01*
X137369871Y-83575894D01*
X137428984Y-83613141D01*
X137458575Y-83676435D01*
X137460000Y-83695178D01*
X137460000Y-83877844D01*
X137466401Y-83937372D01*
X137466403Y-83937379D01*
X137516645Y-84072086D01*
X137516649Y-84072093D01*
X137602809Y-84187187D01*
X137602812Y-84187190D01*
X137717906Y-84273350D01*
X137717913Y-84273354D01*
X137852620Y-84323596D01*
X137852627Y-84323598D01*
X137912155Y-84329999D01*
X137912172Y-84330000D01*
X140250000Y-84330000D01*
X140250000Y-82870000D01*
X137488362Y-82870000D01*
X137421323Y-82850315D01*
X137420932Y-82850000D01*
X137404000Y-82850000D01*
X137336961Y-82830315D01*
X137291206Y-82777511D01*
X137286587Y-82756281D01*
X137279999Y-82753552D01*
X136562559Y-83470992D01*
X135191925Y-83470992D01*
X135189505Y-83447302D01*
X135134358Y-83280880D01*
X135134356Y-83280875D01*
X135042315Y-83131654D01*
X134918345Y-83007684D01*
X134769124Y-82915643D01*
X134769119Y-82915641D01*
X134602697Y-82860494D01*
X134602690Y-82860493D01*
X134499986Y-82850000D01*
X134250000Y-82850000D01*
X134250000Y-83750000D01*
X133750000Y-83750000D01*
X133750000Y-82850000D01*
X133500029Y-82850000D01*
X133500012Y-82850001D01*
X133397302Y-82860494D01*
X133230880Y-82915641D01*
X133230875Y-82915643D01*
X133081654Y-83007684D01*
X132957684Y-83131654D01*
X132865643Y-83280875D01*
X132865641Y-83280880D01*
X132810494Y-83447302D01*
X132810493Y-83447309D01*
X132800000Y-83550013D01*
X123631492Y-83550013D01*
X123619834Y-83538355D01*
X123619832Y-83538352D01*
X123500961Y-83419481D01*
X123500953Y-83419475D01*
X123407331Y-83365423D01*
X123407329Y-83365422D01*
X123364034Y-83340425D01*
X123364033Y-83340424D01*
X123351507Y-83337067D01*
X123211301Y-83299499D01*
X123092801Y-83299499D01*
X123025762Y-83279814D01*
X122980007Y-83227010D01*
X122975095Y-83214504D01*
X122947314Y-83130666D01*
X122855212Y-82981344D01*
X122731156Y-82857288D01*
X122581834Y-82765186D01*
X122415297Y-82710001D01*
X122415295Y-82710000D01*
X122312510Y-82699500D01*
X121687498Y-82699500D01*
X121687480Y-82699501D01*
X121584703Y-82710000D01*
X121584700Y-82710001D01*
X121418168Y-82765185D01*
X121418163Y-82765187D01*
X121268842Y-82857289D01*
X121175181Y-82950951D01*
X121113858Y-82984436D01*
X121044166Y-82979452D01*
X120999819Y-82950951D01*
X120906157Y-82857289D01*
X120906156Y-82857288D01*
X120756834Y-82765186D01*
X120590297Y-82710001D01*
X120590295Y-82710000D01*
X120487510Y-82699500D01*
X119862498Y-82699500D01*
X119862480Y-82699501D01*
X119759703Y-82710000D01*
X119759700Y-82710001D01*
X119593168Y-82765185D01*
X119593163Y-82765187D01*
X119443842Y-82857289D01*
X119319789Y-82981342D01*
X119227687Y-83130663D01*
X119227685Y-83130668D01*
X119199905Y-83214504D01*
X119172501Y-83297203D01*
X119172501Y-83297204D01*
X119172500Y-83297204D01*
X119162000Y-83399983D01*
X119162000Y-84400001D01*
X119162001Y-84400019D01*
X119172500Y-84502796D01*
X119172501Y-84502799D01*
X119227685Y-84669331D01*
X119227689Y-84669340D01*
X119307496Y-84798728D01*
X119325936Y-84866120D01*
X119305013Y-84932784D01*
X119299224Y-84940734D01*
X119294789Y-84946341D01*
X119202687Y-85095663D01*
X119202685Y-85095668D01*
X119199134Y-85106385D01*
X119147501Y-85262203D01*
X119147501Y-85262204D01*
X119147500Y-85262204D01*
X119136998Y-85365000D01*
X119136866Y-85367609D01*
X119113796Y-85433560D01*
X119058732Y-85476569D01*
X118989157Y-85482980D01*
X118927161Y-85450758D01*
X118892426Y-85390134D01*
X118889669Y-85373898D01*
X118889506Y-85372303D01*
X118834358Y-85205880D01*
X118834356Y-85205875D01*
X118742315Y-85056654D01*
X118618345Y-84932684D01*
X118469124Y-84840643D01*
X118469119Y-84840641D01*
X118302697Y-84785494D01*
X118302690Y-84785493D01*
X118199986Y-84775000D01*
X118150000Y-84775000D01*
X118150000Y-86126000D01*
X118130315Y-86193039D01*
X118077511Y-86238794D01*
X118026000Y-86250000D01*
X117774000Y-86250000D01*
X117706961Y-86230315D01*
X117661206Y-86177511D01*
X117650000Y-86126000D01*
X117650000Y-84775000D01*
X117649999Y-84774999D01*
X117600029Y-84775000D01*
X117600011Y-84775001D01*
X117497302Y-84785494D01*
X117330880Y-84840641D01*
X117330875Y-84840643D01*
X117181654Y-84932684D01*
X117057683Y-85056655D01*
X117057679Y-85056660D01*
X117055826Y-85059665D01*
X117054018Y-85061290D01*
X117053202Y-85062323D01*
X117053025Y-85062183D01*
X117003874Y-85106385D01*
X116934911Y-85117601D01*
X116870831Y-85089752D01*
X116844753Y-85059653D01*
X116844737Y-85059628D01*
X116842712Y-85056344D01*
X116718656Y-84932288D01*
X116625888Y-84875069D01*
X116569336Y-84840187D01*
X116569331Y-84840185D01*
X116567862Y-84839698D01*
X116402797Y-84785001D01*
X116402795Y-84785000D01*
X116300010Y-84774500D01*
X115699998Y-84774500D01*
X115699980Y-84774501D01*
X115597203Y-84785000D01*
X115597200Y-84785001D01*
X115430668Y-84840185D01*
X115430663Y-84840187D01*
X115281342Y-84932289D01*
X115157289Y-85056342D01*
X115065183Y-85205670D01*
X115062383Y-85211677D01*
X115016212Y-85264117D01*
X114949019Y-85283271D01*
X114882138Y-85263057D01*
X114837617Y-85211677D01*
X114834816Y-85205670D01*
X114834814Y-85205666D01*
X114742712Y-85056344D01*
X114618656Y-84932288D01*
X114525888Y-84875069D01*
X114469336Y-84840187D01*
X114469331Y-84840185D01*
X114467862Y-84839698D01*
X114302797Y-84785001D01*
X114302795Y-84785000D01*
X114200016Y-84774500D01*
X114124000Y-84774500D01*
X114056961Y-84754815D01*
X114011206Y-84702011D01*
X114000000Y-84650500D01*
X114000000Y-82620000D01*
X136070234Y-82620000D01*
X136089251Y-82813092D01*
X136145576Y-82998769D01*
X136209007Y-83117439D01*
X136706447Y-82620000D01*
X136660697Y-82574250D01*
X136830000Y-82574250D01*
X136830000Y-82665750D01*
X136865015Y-82750285D01*
X136929715Y-82814985D01*
X137014250Y-82850000D01*
X137105750Y-82850000D01*
X137190285Y-82814985D01*
X137254985Y-82750285D01*
X137290000Y-82665750D01*
X137290000Y-82574250D01*
X137254985Y-82489715D01*
X137190285Y-82425015D01*
X137105750Y-82390000D01*
X137014250Y-82390000D01*
X136929715Y-82425015D01*
X136865015Y-82489715D01*
X136830000Y-82574250D01*
X136660697Y-82574250D01*
X136209007Y-82122560D01*
X136145576Y-82241230D01*
X136089251Y-82426907D01*
X136070234Y-82620000D01*
X114000000Y-82620000D01*
X114000000Y-81624500D01*
X114019685Y-81557461D01*
X114072489Y-81511706D01*
X114124000Y-81500500D01*
X136569866Y-81500500D01*
X136636905Y-81520185D01*
G37*
%TD.AperFunction*%
%TD*%
M02*
