%TF.GenerationSoftware,KiCad,Pcbnew,8.0.6*%
%TF.CreationDate,2025-02-18T13:58:57+01:00*%
%TF.ProjectId,DifferentialProbe,44696666-6572-4656-9e74-69616c50726f,rev?*%
%TF.SameCoordinates,Original*%
%TF.FileFunction,Paste,Top*%
%TF.FilePolarity,Positive*%
%FSLAX46Y46*%
G04 Gerber Fmt 4.6, Leading zero omitted, Abs format (unit mm)*
G04 Created by KiCad (PCBNEW 8.0.6) date 2025-02-18 13:58:57*
%MOMM*%
%LPD*%
G01*
G04 APERTURE LIST*
G04 Aperture macros list*
%AMRoundRect*
0 Rectangle with rounded corners*
0 $1 Rounding radius*
0 $2 $3 $4 $5 $6 $7 $8 $9 X,Y pos of 4 corners*
0 Add a 4 corners polygon primitive as box body*
4,1,4,$2,$3,$4,$5,$6,$7,$8,$9,$2,$3,0*
0 Add four circle primitives for the rounded corners*
1,1,$1+$1,$2,$3*
1,1,$1+$1,$4,$5*
1,1,$1+$1,$6,$7*
1,1,$1+$1,$8,$9*
0 Add four rect primitives between the rounded corners*
20,1,$1+$1,$2,$3,$4,$5,0*
20,1,$1+$1,$4,$5,$6,$7,0*
20,1,$1+$1,$6,$7,$8,$9,0*
20,1,$1+$1,$8,$9,$2,$3,0*%
G04 Aperture macros list end*
%ADD10RoundRect,0.250000X-0.262500X-0.450000X0.262500X-0.450000X0.262500X0.450000X-0.262500X0.450000X0*%
%ADD11R,5.080000X2.290000*%
%ADD12R,5.080000X2.420000*%
%ADD13R,2.500000X0.500000*%
%ADD14R,2.500000X2.000000*%
%ADD15RoundRect,0.250000X0.262500X0.450000X-0.262500X0.450000X-0.262500X-0.450000X0.262500X-0.450000X0*%
%ADD16RoundRect,0.150000X-0.825000X-0.150000X0.825000X-0.150000X0.825000X0.150000X-0.825000X0.150000X0*%
%ADD17RoundRect,0.250000X-0.250000X-0.475000X0.250000X-0.475000X0.250000X0.475000X-0.250000X0.475000X0*%
%ADD18RoundRect,0.250000X0.450000X-0.400000X0.450000X0.400000X-0.450000X0.400000X-0.450000X-0.400000X0*%
%ADD19RoundRect,0.250000X0.250000X0.475000X-0.250000X0.475000X-0.250000X-0.475000X0.250000X-0.475000X0*%
G04 APERTURE END LIST*
D10*
%TO.C,R13*%
X123600000Y-85865000D03*
X125425000Y-85865000D03*
%TD*%
D11*
%TO.C,J1*%
X140500000Y-87000000D03*
D12*
X140500000Y-91380000D03*
X140500000Y-82620000D03*
%TD*%
D13*
%TO.C,J3*%
X134375000Y-100800000D03*
X134375000Y-100000000D03*
X134375000Y-99200000D03*
X134375000Y-98400000D03*
X134375000Y-97600000D03*
D14*
X134375000Y-103600000D03*
X139875000Y-103600000D03*
X134375000Y-94800000D03*
X139875000Y-94800000D03*
%TD*%
D15*
%TO.C,R17*%
X129975000Y-91365000D03*
X128150000Y-91365000D03*
%TD*%
D16*
%TO.C,U1*%
X120525000Y-88095000D03*
X120525000Y-89365000D03*
X120525000Y-90635000D03*
X120525000Y-91905000D03*
X125475000Y-91905000D03*
X125475000Y-90635000D03*
X125475000Y-89365000D03*
X125475000Y-88095000D03*
%TD*%
D10*
%TO.C,R6*%
X100000000Y-94000000D03*
X101825000Y-94000000D03*
%TD*%
%TO.C,R4*%
X112000000Y-88000000D03*
X113825000Y-88000000D03*
%TD*%
%TO.C,R10*%
X112000000Y-92000000D03*
X113825000Y-92000000D03*
%TD*%
%TO.C,R8*%
X108087500Y-94000000D03*
X109912500Y-94000000D03*
%TD*%
D17*
%TO.C,C4*%
X116000000Y-96000000D03*
X117900000Y-96000000D03*
%TD*%
D10*
%TO.C,R5*%
X112000000Y-90000000D03*
X113825000Y-90000000D03*
%TD*%
%TO.C,R15*%
X127975000Y-89365000D03*
X129800000Y-89365000D03*
%TD*%
%TO.C,R7*%
X104000000Y-94000000D03*
X105825000Y-94000000D03*
%TD*%
D18*
%TO.C,D1*%
X134000000Y-86900000D03*
X134000000Y-84000000D03*
%TD*%
D15*
%TO.C,R11*%
X117825000Y-88000000D03*
X116000000Y-88000000D03*
%TD*%
D10*
%TO.C,R14*%
X120150000Y-85865000D03*
X121975000Y-85865000D03*
%TD*%
D17*
%TO.C,C1*%
X112000000Y-96000000D03*
X113900000Y-96000000D03*
%TD*%
%TO.C,C10*%
X119600000Y-96000000D03*
X121500000Y-96000000D03*
%TD*%
%TO.C,C9*%
X128100000Y-86000000D03*
X130000000Y-86000000D03*
%TD*%
D10*
%TO.C,R2*%
X104000000Y-87975000D03*
X105825000Y-87975000D03*
%TD*%
D17*
%TO.C,C2*%
X112000000Y-86000000D03*
X113900000Y-86000000D03*
%TD*%
D10*
%TO.C,R12*%
X116000000Y-94000000D03*
X117825000Y-94000000D03*
%TD*%
%TO.C,R3*%
X108000000Y-88000000D03*
X109825000Y-88000000D03*
%TD*%
%TO.C,R9*%
X112087500Y-94000000D03*
X113912500Y-94000000D03*
%TD*%
%TO.C,R16*%
X120175000Y-83900000D03*
X122000000Y-83900000D03*
%TD*%
D19*
%TO.C,C3*%
X117900000Y-86000000D03*
X116000000Y-86000000D03*
%TD*%
D10*
%TO.C,R1*%
X100000000Y-88000000D03*
X101825000Y-88000000D03*
%TD*%
M02*
