%TF.GenerationSoftware,KiCad,Pcbnew,8.0.6*%
%TF.CreationDate,2025-02-18T13:58:59+01:00*%
%TF.ProjectId,DifferentialProbe,44696666-6572-4656-9e74-69616c50726f,rev?*%
%TF.SameCoordinates,Original*%
%TF.FileFunction,Drillmap*%
%TF.FilePolarity,Positive*%
%FSLAX45Y45*%
G04 Gerber Fmt 4.5, Leading zero omitted, Abs format (unit mm)*
G04 Created by KiCad (PCBNEW 8.0.6) date 2025-02-18 13:58:59*
%MOMM*%
%LPD*%
G01*
G04 APERTURE LIST*
%ADD10C,0.050000*%
%ADD11C,0.200000*%
%ADD12C,0.100000*%
G04 APERTURE END LIST*
D10*
X9200000Y-8100000D02*
X14300000Y-8100000D01*
X14300000Y-10500000D01*
X9200000Y-10500000D01*
X9200000Y-8100000D01*
X9200000Y-9200000D02*
X11000000Y-9200000D01*
X11000000Y-8900000D02*
X11000000Y-9200000D01*
X9200000Y-8900000D02*
X11000000Y-8900000D01*
D11*
D12*
X13652500Y-9655000D02*
X13742500Y-9745000D01*
X13742500Y-9655000D02*
X13652500Y-9745000D01*
X13652500Y-10095000D02*
X13742500Y-10185000D01*
X13742500Y-10095000D02*
X13652500Y-10185000D01*
D11*
X9458277Y-10813984D02*
X9458277Y-10613984D01*
X9458277Y-10613984D02*
X9505896Y-10613984D01*
X9505896Y-10613984D02*
X9534467Y-10623508D01*
X9534467Y-10623508D02*
X9553515Y-10642555D01*
X9553515Y-10642555D02*
X9563039Y-10661603D01*
X9563039Y-10661603D02*
X9572563Y-10699698D01*
X9572563Y-10699698D02*
X9572563Y-10728270D01*
X9572563Y-10728270D02*
X9563039Y-10766365D01*
X9563039Y-10766365D02*
X9553515Y-10785412D01*
X9553515Y-10785412D02*
X9534467Y-10804460D01*
X9534467Y-10804460D02*
X9505896Y-10813984D01*
X9505896Y-10813984D02*
X9458277Y-10813984D01*
X9658277Y-10813984D02*
X9658277Y-10680650D01*
X9658277Y-10718746D02*
X9667801Y-10699698D01*
X9667801Y-10699698D02*
X9677324Y-10690174D01*
X9677324Y-10690174D02*
X9696372Y-10680650D01*
X9696372Y-10680650D02*
X9715420Y-10680650D01*
X9782086Y-10813984D02*
X9782086Y-10680650D01*
X9782086Y-10613984D02*
X9772563Y-10623508D01*
X9772563Y-10623508D02*
X9782086Y-10633031D01*
X9782086Y-10633031D02*
X9791610Y-10623508D01*
X9791610Y-10623508D02*
X9782086Y-10613984D01*
X9782086Y-10613984D02*
X9782086Y-10633031D01*
X9905896Y-10813984D02*
X9886848Y-10804460D01*
X9886848Y-10804460D02*
X9877324Y-10785412D01*
X9877324Y-10785412D02*
X9877324Y-10613984D01*
X10010658Y-10813984D02*
X9991610Y-10804460D01*
X9991610Y-10804460D02*
X9982086Y-10785412D01*
X9982086Y-10785412D02*
X9982086Y-10613984D01*
X10239229Y-10813984D02*
X10239229Y-10613984D01*
X10239229Y-10613984D02*
X10305896Y-10756841D01*
X10305896Y-10756841D02*
X10372563Y-10613984D01*
X10372563Y-10613984D02*
X10372563Y-10813984D01*
X10553515Y-10813984D02*
X10553515Y-10709222D01*
X10553515Y-10709222D02*
X10543991Y-10690174D01*
X10543991Y-10690174D02*
X10524944Y-10680650D01*
X10524944Y-10680650D02*
X10486848Y-10680650D01*
X10486848Y-10680650D02*
X10467801Y-10690174D01*
X10553515Y-10804460D02*
X10534467Y-10813984D01*
X10534467Y-10813984D02*
X10486848Y-10813984D01*
X10486848Y-10813984D02*
X10467801Y-10804460D01*
X10467801Y-10804460D02*
X10458277Y-10785412D01*
X10458277Y-10785412D02*
X10458277Y-10766365D01*
X10458277Y-10766365D02*
X10467801Y-10747317D01*
X10467801Y-10747317D02*
X10486848Y-10737793D01*
X10486848Y-10737793D02*
X10534467Y-10737793D01*
X10534467Y-10737793D02*
X10553515Y-10728270D01*
X10648753Y-10680650D02*
X10648753Y-10880650D01*
X10648753Y-10690174D02*
X10667801Y-10680650D01*
X10667801Y-10680650D02*
X10705896Y-10680650D01*
X10705896Y-10680650D02*
X10724944Y-10690174D01*
X10724944Y-10690174D02*
X10734467Y-10699698D01*
X10734467Y-10699698D02*
X10743991Y-10718746D01*
X10743991Y-10718746D02*
X10743991Y-10775889D01*
X10743991Y-10775889D02*
X10734467Y-10794936D01*
X10734467Y-10794936D02*
X10724944Y-10804460D01*
X10724944Y-10804460D02*
X10705896Y-10813984D01*
X10705896Y-10813984D02*
X10667801Y-10813984D01*
X10667801Y-10813984D02*
X10648753Y-10804460D01*
X10829705Y-10794936D02*
X10839229Y-10804460D01*
X10839229Y-10804460D02*
X10829705Y-10813984D01*
X10829705Y-10813984D02*
X10820182Y-10804460D01*
X10820182Y-10804460D02*
X10829705Y-10794936D01*
X10829705Y-10794936D02*
X10829705Y-10813984D01*
X10829705Y-10690174D02*
X10839229Y-10699698D01*
X10839229Y-10699698D02*
X10829705Y-10709222D01*
X10829705Y-10709222D02*
X10820182Y-10699698D01*
X10820182Y-10699698D02*
X10829705Y-10690174D01*
X10829705Y-10690174D02*
X10829705Y-10709222D01*
D12*
X9107500Y-11097500D02*
X9197500Y-11187500D01*
X9197500Y-11097500D02*
X9107500Y-11187500D01*
D11*
X9496372Y-11033984D02*
X9515420Y-11033984D01*
X9515420Y-11033984D02*
X9534467Y-11043508D01*
X9534467Y-11043508D02*
X9543991Y-11053031D01*
X9543991Y-11053031D02*
X9553515Y-11072079D01*
X9553515Y-11072079D02*
X9563039Y-11110174D01*
X9563039Y-11110174D02*
X9563039Y-11157793D01*
X9563039Y-11157793D02*
X9553515Y-11195888D01*
X9553515Y-11195888D02*
X9543991Y-11214936D01*
X9543991Y-11214936D02*
X9534467Y-11224460D01*
X9534467Y-11224460D02*
X9515420Y-11233984D01*
X9515420Y-11233984D02*
X9496372Y-11233984D01*
X9496372Y-11233984D02*
X9477324Y-11224460D01*
X9477324Y-11224460D02*
X9467801Y-11214936D01*
X9467801Y-11214936D02*
X9458277Y-11195888D01*
X9458277Y-11195888D02*
X9448753Y-11157793D01*
X9448753Y-11157793D02*
X9448753Y-11110174D01*
X9448753Y-11110174D02*
X9458277Y-11072079D01*
X9458277Y-11072079D02*
X9467801Y-11053031D01*
X9467801Y-11053031D02*
X9477324Y-11043508D01*
X9477324Y-11043508D02*
X9496372Y-11033984D01*
X9648753Y-11214936D02*
X9658277Y-11224460D01*
X9658277Y-11224460D02*
X9648753Y-11233984D01*
X9648753Y-11233984D02*
X9639229Y-11224460D01*
X9639229Y-11224460D02*
X9648753Y-11214936D01*
X9648753Y-11214936D02*
X9648753Y-11233984D01*
X9753515Y-11233984D02*
X9791610Y-11233984D01*
X9791610Y-11233984D02*
X9810658Y-11224460D01*
X9810658Y-11224460D02*
X9820182Y-11214936D01*
X9820182Y-11214936D02*
X9839229Y-11186365D01*
X9839229Y-11186365D02*
X9848753Y-11148270D01*
X9848753Y-11148270D02*
X9848753Y-11072079D01*
X9848753Y-11072079D02*
X9839229Y-11053031D01*
X9839229Y-11053031D02*
X9829705Y-11043508D01*
X9829705Y-11043508D02*
X9810658Y-11033984D01*
X9810658Y-11033984D02*
X9772563Y-11033984D01*
X9772563Y-11033984D02*
X9753515Y-11043508D01*
X9753515Y-11043508D02*
X9743991Y-11053031D01*
X9743991Y-11053031D02*
X9734467Y-11072079D01*
X9734467Y-11072079D02*
X9734467Y-11119698D01*
X9734467Y-11119698D02*
X9743991Y-11138746D01*
X9743991Y-11138746D02*
X9753515Y-11148270D01*
X9753515Y-11148270D02*
X9772563Y-11157793D01*
X9772563Y-11157793D02*
X9810658Y-11157793D01*
X9810658Y-11157793D02*
X9829705Y-11148270D01*
X9829705Y-11148270D02*
X9839229Y-11138746D01*
X9839229Y-11138746D02*
X9848753Y-11119698D01*
X9972563Y-11033984D02*
X9991610Y-11033984D01*
X9991610Y-11033984D02*
X10010658Y-11043508D01*
X10010658Y-11043508D02*
X10020182Y-11053031D01*
X10020182Y-11053031D02*
X10029705Y-11072079D01*
X10029705Y-11072079D02*
X10039229Y-11110174D01*
X10039229Y-11110174D02*
X10039229Y-11157793D01*
X10039229Y-11157793D02*
X10029705Y-11195888D01*
X10029705Y-11195888D02*
X10020182Y-11214936D01*
X10020182Y-11214936D02*
X10010658Y-11224460D01*
X10010658Y-11224460D02*
X9991610Y-11233984D01*
X9991610Y-11233984D02*
X9972563Y-11233984D01*
X9972563Y-11233984D02*
X9953515Y-11224460D01*
X9953515Y-11224460D02*
X9943991Y-11214936D01*
X9943991Y-11214936D02*
X9934467Y-11195888D01*
X9934467Y-11195888D02*
X9924944Y-11157793D01*
X9924944Y-11157793D02*
X9924944Y-11110174D01*
X9924944Y-11110174D02*
X9934467Y-11072079D01*
X9934467Y-11072079D02*
X9943991Y-11053031D01*
X9943991Y-11053031D02*
X9953515Y-11043508D01*
X9953515Y-11043508D02*
X9972563Y-11033984D01*
X10163039Y-11033984D02*
X10182086Y-11033984D01*
X10182086Y-11033984D02*
X10201134Y-11043508D01*
X10201134Y-11043508D02*
X10210658Y-11053031D01*
X10210658Y-11053031D02*
X10220182Y-11072079D01*
X10220182Y-11072079D02*
X10229705Y-11110174D01*
X10229705Y-11110174D02*
X10229705Y-11157793D01*
X10229705Y-11157793D02*
X10220182Y-11195888D01*
X10220182Y-11195888D02*
X10210658Y-11214936D01*
X10210658Y-11214936D02*
X10201134Y-11224460D01*
X10201134Y-11224460D02*
X10182086Y-11233984D01*
X10182086Y-11233984D02*
X10163039Y-11233984D01*
X10163039Y-11233984D02*
X10143991Y-11224460D01*
X10143991Y-11224460D02*
X10134467Y-11214936D01*
X10134467Y-11214936D02*
X10124944Y-11195888D01*
X10124944Y-11195888D02*
X10115420Y-11157793D01*
X10115420Y-11157793D02*
X10115420Y-11110174D01*
X10115420Y-11110174D02*
X10124944Y-11072079D01*
X10124944Y-11072079D02*
X10134467Y-11053031D01*
X10134467Y-11053031D02*
X10143991Y-11043508D01*
X10143991Y-11043508D02*
X10163039Y-11033984D01*
X10315420Y-11233984D02*
X10315420Y-11100650D01*
X10315420Y-11119698D02*
X10324944Y-11110174D01*
X10324944Y-11110174D02*
X10343991Y-11100650D01*
X10343991Y-11100650D02*
X10372563Y-11100650D01*
X10372563Y-11100650D02*
X10391610Y-11110174D01*
X10391610Y-11110174D02*
X10401134Y-11129222D01*
X10401134Y-11129222D02*
X10401134Y-11233984D01*
X10401134Y-11129222D02*
X10410658Y-11110174D01*
X10410658Y-11110174D02*
X10429705Y-11100650D01*
X10429705Y-11100650D02*
X10458277Y-11100650D01*
X10458277Y-11100650D02*
X10477325Y-11110174D01*
X10477325Y-11110174D02*
X10486848Y-11129222D01*
X10486848Y-11129222D02*
X10486848Y-11233984D01*
X10582086Y-11233984D02*
X10582086Y-11100650D01*
X10582086Y-11119698D02*
X10591610Y-11110174D01*
X10591610Y-11110174D02*
X10610658Y-11100650D01*
X10610658Y-11100650D02*
X10639229Y-11100650D01*
X10639229Y-11100650D02*
X10658277Y-11110174D01*
X10658277Y-11110174D02*
X10667801Y-11129222D01*
X10667801Y-11129222D02*
X10667801Y-11233984D01*
X10667801Y-11129222D02*
X10677325Y-11110174D01*
X10677325Y-11110174D02*
X10696372Y-11100650D01*
X10696372Y-11100650D02*
X10724944Y-11100650D01*
X10724944Y-11100650D02*
X10743991Y-11110174D01*
X10743991Y-11110174D02*
X10753515Y-11129222D01*
X10753515Y-11129222D02*
X10753515Y-11233984D01*
X11143991Y-11024460D02*
X10972563Y-11281603D01*
X11401134Y-11033984D02*
X11420182Y-11033984D01*
X11420182Y-11033984D02*
X11439229Y-11043508D01*
X11439229Y-11043508D02*
X11448753Y-11053031D01*
X11448753Y-11053031D02*
X11458277Y-11072079D01*
X11458277Y-11072079D02*
X11467801Y-11110174D01*
X11467801Y-11110174D02*
X11467801Y-11157793D01*
X11467801Y-11157793D02*
X11458277Y-11195888D01*
X11458277Y-11195888D02*
X11448753Y-11214936D01*
X11448753Y-11214936D02*
X11439229Y-11224460D01*
X11439229Y-11224460D02*
X11420182Y-11233984D01*
X11420182Y-11233984D02*
X11401134Y-11233984D01*
X11401134Y-11233984D02*
X11382086Y-11224460D01*
X11382086Y-11224460D02*
X11372563Y-11214936D01*
X11372563Y-11214936D02*
X11363039Y-11195888D01*
X11363039Y-11195888D02*
X11353515Y-11157793D01*
X11353515Y-11157793D02*
X11353515Y-11110174D01*
X11353515Y-11110174D02*
X11363039Y-11072079D01*
X11363039Y-11072079D02*
X11372563Y-11053031D01*
X11372563Y-11053031D02*
X11382086Y-11043508D01*
X11382086Y-11043508D02*
X11401134Y-11033984D01*
X11553515Y-11214936D02*
X11563039Y-11224460D01*
X11563039Y-11224460D02*
X11553515Y-11233984D01*
X11553515Y-11233984D02*
X11543991Y-11224460D01*
X11543991Y-11224460D02*
X11553515Y-11214936D01*
X11553515Y-11214936D02*
X11553515Y-11233984D01*
X11686848Y-11033984D02*
X11705896Y-11033984D01*
X11705896Y-11033984D02*
X11724944Y-11043508D01*
X11724944Y-11043508D02*
X11734467Y-11053031D01*
X11734467Y-11053031D02*
X11743991Y-11072079D01*
X11743991Y-11072079D02*
X11753515Y-11110174D01*
X11753515Y-11110174D02*
X11753515Y-11157793D01*
X11753515Y-11157793D02*
X11743991Y-11195888D01*
X11743991Y-11195888D02*
X11734467Y-11214936D01*
X11734467Y-11214936D02*
X11724944Y-11224460D01*
X11724944Y-11224460D02*
X11705896Y-11233984D01*
X11705896Y-11233984D02*
X11686848Y-11233984D01*
X11686848Y-11233984D02*
X11667801Y-11224460D01*
X11667801Y-11224460D02*
X11658277Y-11214936D01*
X11658277Y-11214936D02*
X11648753Y-11195888D01*
X11648753Y-11195888D02*
X11639229Y-11157793D01*
X11639229Y-11157793D02*
X11639229Y-11110174D01*
X11639229Y-11110174D02*
X11648753Y-11072079D01*
X11648753Y-11072079D02*
X11658277Y-11053031D01*
X11658277Y-11053031D02*
X11667801Y-11043508D01*
X11667801Y-11043508D02*
X11686848Y-11033984D01*
X11820182Y-11033984D02*
X11943991Y-11033984D01*
X11943991Y-11033984D02*
X11877325Y-11110174D01*
X11877325Y-11110174D02*
X11905896Y-11110174D01*
X11905896Y-11110174D02*
X11924944Y-11119698D01*
X11924944Y-11119698D02*
X11934467Y-11129222D01*
X11934467Y-11129222D02*
X11943991Y-11148270D01*
X11943991Y-11148270D02*
X11943991Y-11195888D01*
X11943991Y-11195888D02*
X11934467Y-11214936D01*
X11934467Y-11214936D02*
X11924944Y-11224460D01*
X11924944Y-11224460D02*
X11905896Y-11233984D01*
X11905896Y-11233984D02*
X11848753Y-11233984D01*
X11848753Y-11233984D02*
X11829706Y-11224460D01*
X11829706Y-11224460D02*
X11820182Y-11214936D01*
X12124944Y-11033984D02*
X12029706Y-11033984D01*
X12029706Y-11033984D02*
X12020182Y-11129222D01*
X12020182Y-11129222D02*
X12029706Y-11119698D01*
X12029706Y-11119698D02*
X12048753Y-11110174D01*
X12048753Y-11110174D02*
X12096372Y-11110174D01*
X12096372Y-11110174D02*
X12115420Y-11119698D01*
X12115420Y-11119698D02*
X12124944Y-11129222D01*
X12124944Y-11129222D02*
X12134467Y-11148270D01*
X12134467Y-11148270D02*
X12134467Y-11195888D01*
X12134467Y-11195888D02*
X12124944Y-11214936D01*
X12124944Y-11214936D02*
X12115420Y-11224460D01*
X12115420Y-11224460D02*
X12096372Y-11233984D01*
X12096372Y-11233984D02*
X12048753Y-11233984D01*
X12048753Y-11233984D02*
X12029706Y-11224460D01*
X12029706Y-11224460D02*
X12020182Y-11214936D01*
X12305896Y-11100650D02*
X12305896Y-11233984D01*
X12258277Y-11024460D02*
X12210658Y-11167317D01*
X12210658Y-11167317D02*
X12334467Y-11167317D01*
X12401134Y-11033984D02*
X12401134Y-11072079D01*
X12477325Y-11033984D02*
X12477325Y-11072079D01*
X12772563Y-11310174D02*
X12763039Y-11300650D01*
X12763039Y-11300650D02*
X12743991Y-11272079D01*
X12743991Y-11272079D02*
X12734468Y-11253031D01*
X12734468Y-11253031D02*
X12724944Y-11224460D01*
X12724944Y-11224460D02*
X12715420Y-11176841D01*
X12715420Y-11176841D02*
X12715420Y-11138746D01*
X12715420Y-11138746D02*
X12724944Y-11091127D01*
X12724944Y-11091127D02*
X12734468Y-11062555D01*
X12734468Y-11062555D02*
X12743991Y-11043508D01*
X12743991Y-11043508D02*
X12763039Y-11014936D01*
X12763039Y-11014936D02*
X12772563Y-11005412D01*
X12839229Y-11053031D02*
X12848753Y-11043508D01*
X12848753Y-11043508D02*
X12867801Y-11033984D01*
X12867801Y-11033984D02*
X12915420Y-11033984D01*
X12915420Y-11033984D02*
X12934468Y-11043508D01*
X12934468Y-11043508D02*
X12943991Y-11053031D01*
X12943991Y-11053031D02*
X12953515Y-11072079D01*
X12953515Y-11072079D02*
X12953515Y-11091127D01*
X12953515Y-11091127D02*
X12943991Y-11119698D01*
X12943991Y-11119698D02*
X12829706Y-11233984D01*
X12829706Y-11233984D02*
X12953515Y-11233984D01*
X13191610Y-11233984D02*
X13191610Y-11033984D01*
X13277325Y-11233984D02*
X13277325Y-11129222D01*
X13277325Y-11129222D02*
X13267801Y-11110174D01*
X13267801Y-11110174D02*
X13248753Y-11100650D01*
X13248753Y-11100650D02*
X13220182Y-11100650D01*
X13220182Y-11100650D02*
X13201134Y-11110174D01*
X13201134Y-11110174D02*
X13191610Y-11119698D01*
X13401134Y-11233984D02*
X13382087Y-11224460D01*
X13382087Y-11224460D02*
X13372563Y-11214936D01*
X13372563Y-11214936D02*
X13363039Y-11195888D01*
X13363039Y-11195888D02*
X13363039Y-11138746D01*
X13363039Y-11138746D02*
X13372563Y-11119698D01*
X13372563Y-11119698D02*
X13382087Y-11110174D01*
X13382087Y-11110174D02*
X13401134Y-11100650D01*
X13401134Y-11100650D02*
X13429706Y-11100650D01*
X13429706Y-11100650D02*
X13448753Y-11110174D01*
X13448753Y-11110174D02*
X13458277Y-11119698D01*
X13458277Y-11119698D02*
X13467801Y-11138746D01*
X13467801Y-11138746D02*
X13467801Y-11195888D01*
X13467801Y-11195888D02*
X13458277Y-11214936D01*
X13458277Y-11214936D02*
X13448753Y-11224460D01*
X13448753Y-11224460D02*
X13429706Y-11233984D01*
X13429706Y-11233984D02*
X13401134Y-11233984D01*
X13582087Y-11233984D02*
X13563039Y-11224460D01*
X13563039Y-11224460D02*
X13553515Y-11205412D01*
X13553515Y-11205412D02*
X13553515Y-11033984D01*
X13734468Y-11224460D02*
X13715420Y-11233984D01*
X13715420Y-11233984D02*
X13677325Y-11233984D01*
X13677325Y-11233984D02*
X13658277Y-11224460D01*
X13658277Y-11224460D02*
X13648753Y-11205412D01*
X13648753Y-11205412D02*
X13648753Y-11129222D01*
X13648753Y-11129222D02*
X13658277Y-11110174D01*
X13658277Y-11110174D02*
X13677325Y-11100650D01*
X13677325Y-11100650D02*
X13715420Y-11100650D01*
X13715420Y-11100650D02*
X13734468Y-11110174D01*
X13734468Y-11110174D02*
X13743991Y-11129222D01*
X13743991Y-11129222D02*
X13743991Y-11148270D01*
X13743991Y-11148270D02*
X13648753Y-11167317D01*
X13820182Y-11224460D02*
X13839230Y-11233984D01*
X13839230Y-11233984D02*
X13877325Y-11233984D01*
X13877325Y-11233984D02*
X13896372Y-11224460D01*
X13896372Y-11224460D02*
X13905896Y-11205412D01*
X13905896Y-11205412D02*
X13905896Y-11195888D01*
X13905896Y-11195888D02*
X13896372Y-11176841D01*
X13896372Y-11176841D02*
X13877325Y-11167317D01*
X13877325Y-11167317D02*
X13848753Y-11167317D01*
X13848753Y-11167317D02*
X13829706Y-11157793D01*
X13829706Y-11157793D02*
X13820182Y-11138746D01*
X13820182Y-11138746D02*
X13820182Y-11129222D01*
X13820182Y-11129222D02*
X13829706Y-11110174D01*
X13829706Y-11110174D02*
X13848753Y-11100650D01*
X13848753Y-11100650D02*
X13877325Y-11100650D01*
X13877325Y-11100650D02*
X13896372Y-11110174D01*
X13972563Y-11310174D02*
X13982087Y-11300650D01*
X13982087Y-11300650D02*
X14001134Y-11272079D01*
X14001134Y-11272079D02*
X14010658Y-11253031D01*
X14010658Y-11253031D02*
X14020182Y-11224460D01*
X14020182Y-11224460D02*
X14029706Y-11176841D01*
X14029706Y-11176841D02*
X14029706Y-11138746D01*
X14029706Y-11138746D02*
X14020182Y-11091127D01*
X14020182Y-11091127D02*
X14010658Y-11062555D01*
X14010658Y-11062555D02*
X14001134Y-11043508D01*
X14001134Y-11043508D02*
X13982087Y-11014936D01*
X13982087Y-11014936D02*
X13972563Y-11005412D01*
X14334468Y-11310174D02*
X14324944Y-11300650D01*
X14324944Y-11300650D02*
X14305896Y-11272079D01*
X14305896Y-11272079D02*
X14296372Y-11253031D01*
X14296372Y-11253031D02*
X14286849Y-11224460D01*
X14286849Y-11224460D02*
X14277325Y-11176841D01*
X14277325Y-11176841D02*
X14277325Y-11138746D01*
X14277325Y-11138746D02*
X14286849Y-11091127D01*
X14286849Y-11091127D02*
X14296372Y-11062555D01*
X14296372Y-11062555D02*
X14305896Y-11043508D01*
X14305896Y-11043508D02*
X14324944Y-11014936D01*
X14324944Y-11014936D02*
X14334468Y-11005412D01*
X14410658Y-11100650D02*
X14410658Y-11233984D01*
X14410658Y-11119698D02*
X14420182Y-11110174D01*
X14420182Y-11110174D02*
X14439230Y-11100650D01*
X14439230Y-11100650D02*
X14467801Y-11100650D01*
X14467801Y-11100650D02*
X14486849Y-11110174D01*
X14486849Y-11110174D02*
X14496372Y-11129222D01*
X14496372Y-11129222D02*
X14496372Y-11233984D01*
X14620182Y-11233984D02*
X14601134Y-11224460D01*
X14601134Y-11224460D02*
X14591611Y-11214936D01*
X14591611Y-11214936D02*
X14582087Y-11195888D01*
X14582087Y-11195888D02*
X14582087Y-11138746D01*
X14582087Y-11138746D02*
X14591611Y-11119698D01*
X14591611Y-11119698D02*
X14601134Y-11110174D01*
X14601134Y-11110174D02*
X14620182Y-11100650D01*
X14620182Y-11100650D02*
X14648753Y-11100650D01*
X14648753Y-11100650D02*
X14667801Y-11110174D01*
X14667801Y-11110174D02*
X14677325Y-11119698D01*
X14677325Y-11119698D02*
X14686849Y-11138746D01*
X14686849Y-11138746D02*
X14686849Y-11195888D01*
X14686849Y-11195888D02*
X14677325Y-11214936D01*
X14677325Y-11214936D02*
X14667801Y-11224460D01*
X14667801Y-11224460D02*
X14648753Y-11233984D01*
X14648753Y-11233984D02*
X14620182Y-11233984D01*
X14743992Y-11100650D02*
X14820182Y-11100650D01*
X14772563Y-11033984D02*
X14772563Y-11205412D01*
X14772563Y-11205412D02*
X14782087Y-11224460D01*
X14782087Y-11224460D02*
X14801134Y-11233984D01*
X14801134Y-11233984D02*
X14820182Y-11233984D01*
X15039230Y-11100650D02*
X15039230Y-11300650D01*
X15039230Y-11110174D02*
X15058277Y-11100650D01*
X15058277Y-11100650D02*
X15096373Y-11100650D01*
X15096373Y-11100650D02*
X15115420Y-11110174D01*
X15115420Y-11110174D02*
X15124944Y-11119698D01*
X15124944Y-11119698D02*
X15134468Y-11138746D01*
X15134468Y-11138746D02*
X15134468Y-11195888D01*
X15134468Y-11195888D02*
X15124944Y-11214936D01*
X15124944Y-11214936D02*
X15115420Y-11224460D01*
X15115420Y-11224460D02*
X15096373Y-11233984D01*
X15096373Y-11233984D02*
X15058277Y-11233984D01*
X15058277Y-11233984D02*
X15039230Y-11224460D01*
X15248753Y-11233984D02*
X15229706Y-11224460D01*
X15229706Y-11224460D02*
X15220182Y-11205412D01*
X15220182Y-11205412D02*
X15220182Y-11033984D01*
X15410658Y-11233984D02*
X15410658Y-11129222D01*
X15410658Y-11129222D02*
X15401134Y-11110174D01*
X15401134Y-11110174D02*
X15382087Y-11100650D01*
X15382087Y-11100650D02*
X15343992Y-11100650D01*
X15343992Y-11100650D02*
X15324944Y-11110174D01*
X15410658Y-11224460D02*
X15391611Y-11233984D01*
X15391611Y-11233984D02*
X15343992Y-11233984D01*
X15343992Y-11233984D02*
X15324944Y-11224460D01*
X15324944Y-11224460D02*
X15315420Y-11205412D01*
X15315420Y-11205412D02*
X15315420Y-11186365D01*
X15315420Y-11186365D02*
X15324944Y-11167317D01*
X15324944Y-11167317D02*
X15343992Y-11157793D01*
X15343992Y-11157793D02*
X15391611Y-11157793D01*
X15391611Y-11157793D02*
X15410658Y-11148270D01*
X15477325Y-11100650D02*
X15553515Y-11100650D01*
X15505896Y-11033984D02*
X15505896Y-11205412D01*
X15505896Y-11205412D02*
X15515420Y-11224460D01*
X15515420Y-11224460D02*
X15534468Y-11233984D01*
X15534468Y-11233984D02*
X15553515Y-11233984D01*
X15696373Y-11224460D02*
X15677325Y-11233984D01*
X15677325Y-11233984D02*
X15639230Y-11233984D01*
X15639230Y-11233984D02*
X15620182Y-11224460D01*
X15620182Y-11224460D02*
X15610658Y-11205412D01*
X15610658Y-11205412D02*
X15610658Y-11129222D01*
X15610658Y-11129222D02*
X15620182Y-11110174D01*
X15620182Y-11110174D02*
X15639230Y-11100650D01*
X15639230Y-11100650D02*
X15677325Y-11100650D01*
X15677325Y-11100650D02*
X15696373Y-11110174D01*
X15696373Y-11110174D02*
X15705896Y-11129222D01*
X15705896Y-11129222D02*
X15705896Y-11148270D01*
X15705896Y-11148270D02*
X15610658Y-11167317D01*
X15877325Y-11233984D02*
X15877325Y-11033984D01*
X15877325Y-11224460D02*
X15858277Y-11233984D01*
X15858277Y-11233984D02*
X15820182Y-11233984D01*
X15820182Y-11233984D02*
X15801134Y-11224460D01*
X15801134Y-11224460D02*
X15791611Y-11214936D01*
X15791611Y-11214936D02*
X15782087Y-11195888D01*
X15782087Y-11195888D02*
X15782087Y-11138746D01*
X15782087Y-11138746D02*
X15791611Y-11119698D01*
X15791611Y-11119698D02*
X15801134Y-11110174D01*
X15801134Y-11110174D02*
X15820182Y-11100650D01*
X15820182Y-11100650D02*
X15858277Y-11100650D01*
X15858277Y-11100650D02*
X15877325Y-11110174D01*
X15953515Y-11310174D02*
X15963039Y-11300650D01*
X15963039Y-11300650D02*
X15982087Y-11272079D01*
X15982087Y-11272079D02*
X15991611Y-11253031D01*
X15991611Y-11253031D02*
X16001134Y-11224460D01*
X16001134Y-11224460D02*
X16010658Y-11176841D01*
X16010658Y-11176841D02*
X16010658Y-11138746D01*
X16010658Y-11138746D02*
X16001134Y-11091127D01*
X16001134Y-11091127D02*
X15991611Y-11062555D01*
X15991611Y-11062555D02*
X15982087Y-11043508D01*
X15982087Y-11043508D02*
X15963039Y-11014936D01*
X15963039Y-11014936D02*
X15953515Y-11005412D01*
M02*
