%TF.GenerationSoftware,KiCad,Pcbnew,8.0.6*%
%TF.CreationDate,2025-02-18T13:58:59+01:00*%
%TF.ProjectId,DifferentialProbe,44696666-6572-4656-9e74-69616c50726f,rev?*%
%TF.SameCoordinates,Original*%
%TF.FileFunction,Drillmap*%
%TF.FilePolarity,Positive*%
%FSLAX45Y45*%
G04 Gerber Fmt 4.5, Leading zero omitted, Abs format (unit mm)*
G04 Created by KiCad (PCBNEW 8.0.6) date 2025-02-18 13:58:59*
%MOMM*%
%LPD*%
G01*
G04 APERTURE LIST*
%ADD10C,0.050000*%
%ADD11C,0.200000*%
%ADD12C,0.100000*%
%ADD13C,0.102000*%
G04 APERTURE END LIST*
D10*
X9200000Y-8100000D02*
X14300000Y-8100000D01*
X14300000Y-10500000D01*
X9200000Y-10500000D01*
X9200000Y-8100000D01*
X9200000Y-9200000D02*
X11000000Y-9200000D01*
X11000000Y-8900000D02*
X11000000Y-9200000D01*
X9200000Y-8900000D02*
X11000000Y-8900000D01*
D11*
D12*
X11105000Y-9185000D02*
X11135000Y-9215000D01*
X11135000Y-9185000D02*
X11105000Y-9215000D01*
X11185000Y-9085000D02*
X11215000Y-9115000D01*
X11215000Y-9085000D02*
X11185000Y-9115000D01*
X11385000Y-8185000D02*
X11415000Y-8215000D01*
X11415000Y-8185000D02*
X11385000Y-8215000D01*
X11385000Y-8285000D02*
X11415000Y-8315000D01*
X11415000Y-8285000D02*
X11385000Y-8315000D01*
X11385000Y-8385000D02*
X11415000Y-8415000D01*
X11415000Y-8385000D02*
X11385000Y-8415000D01*
X11385000Y-9885000D02*
X11415000Y-9915000D01*
X11415000Y-9885000D02*
X11385000Y-9915000D01*
X11385000Y-9985000D02*
X11415000Y-10015000D01*
X11415000Y-9985000D02*
X11385000Y-10015000D01*
X11385000Y-10085000D02*
X11415000Y-10115000D01*
X11415000Y-10085000D02*
X11385000Y-10115000D01*
X11385000Y-10185000D02*
X11415000Y-10215000D01*
X11415000Y-10185000D02*
X11385000Y-10215000D01*
X11385000Y-10285000D02*
X11415000Y-10315000D01*
X11415000Y-10285000D02*
X11385000Y-10315000D01*
X11385000Y-10385000D02*
X11415000Y-10415000D01*
X11415000Y-10385000D02*
X11385000Y-10415000D01*
X11485000Y-8185000D02*
X11515000Y-8215000D01*
X11515000Y-8185000D02*
X11485000Y-8215000D01*
X11485000Y-10385000D02*
X11515000Y-10415000D01*
X11515000Y-10385000D02*
X11485000Y-10415000D01*
X11585000Y-8185000D02*
X11615000Y-8215000D01*
X11615000Y-8185000D02*
X11585000Y-8215000D01*
X11585000Y-10385000D02*
X11615000Y-10415000D01*
X11615000Y-10385000D02*
X11585000Y-10415000D01*
X11685000Y-8185000D02*
X11715000Y-8215000D01*
X11715000Y-8185000D02*
X11685000Y-8215000D01*
X11685000Y-10385000D02*
X11715000Y-10415000D01*
X11715000Y-10385000D02*
X11685000Y-10415000D01*
X11765000Y-9695000D02*
X11795000Y-9725000D01*
X11795000Y-9695000D02*
X11765000Y-9725000D01*
X11775000Y-8475000D02*
X11805000Y-8505000D01*
X11805000Y-8475000D02*
X11775000Y-8505000D01*
X11785000Y-8185000D02*
X11815000Y-8215000D01*
X11815000Y-8185000D02*
X11785000Y-8215000D01*
X11785000Y-10385000D02*
X11815000Y-10415000D01*
X11815000Y-10385000D02*
X11785000Y-10415000D01*
X11885000Y-8185000D02*
X11915000Y-8215000D01*
X11915000Y-8185000D02*
X11885000Y-8215000D01*
X11885000Y-10385000D02*
X11915000Y-10415000D01*
X11915000Y-10385000D02*
X11885000Y-10415000D01*
X11935000Y-9685000D02*
X11965000Y-9715000D01*
X11965000Y-9685000D02*
X11935000Y-9715000D01*
X11985000Y-8185000D02*
X12015000Y-8215000D01*
X12015000Y-8185000D02*
X11985000Y-8215000D01*
X11985000Y-10385000D02*
X12015000Y-10415000D01*
X12015000Y-10385000D02*
X11985000Y-10415000D01*
X12037577Y-9282500D02*
X12067577Y-9312500D01*
X12067577Y-9282500D02*
X12037577Y-9312500D01*
X12085000Y-8185000D02*
X12115000Y-8215000D01*
X12115000Y-8185000D02*
X12085000Y-8215000D01*
X12085000Y-10385000D02*
X12115000Y-10415000D01*
X12115000Y-10385000D02*
X12085000Y-10415000D01*
X12185000Y-8185000D02*
X12215000Y-8215000D01*
X12215000Y-8185000D02*
X12185000Y-8215000D01*
X12185000Y-10385000D02*
X12215000Y-10415000D01*
X12215000Y-10385000D02*
X12185000Y-10415000D01*
X12285000Y-8185000D02*
X12315000Y-8215000D01*
X12315000Y-8185000D02*
X12285000Y-8215000D01*
X12285000Y-10385000D02*
X12315000Y-10415000D01*
X12315000Y-10385000D02*
X12285000Y-10415000D01*
X12385000Y-8185000D02*
X12415000Y-8215000D01*
X12415000Y-8185000D02*
X12385000Y-8215000D01*
X12385000Y-10385000D02*
X12415000Y-10415000D01*
X12415000Y-10385000D02*
X12385000Y-10415000D01*
X12485000Y-8185000D02*
X12515000Y-8215000D01*
X12515000Y-8185000D02*
X12485000Y-8215000D01*
X12485000Y-10385000D02*
X12515000Y-10415000D01*
X12515000Y-10385000D02*
X12485000Y-10415000D01*
X12525000Y-8455000D02*
X12555000Y-8485000D01*
X12555000Y-8455000D02*
X12525000Y-8485000D01*
X12585000Y-8185000D02*
X12615000Y-8215000D01*
X12615000Y-8185000D02*
X12585000Y-8215000D01*
X12685000Y-8185000D02*
X12715000Y-8215000D01*
X12715000Y-8185000D02*
X12685000Y-8215000D01*
X12742000Y-8585000D02*
X12772000Y-8615000D01*
X12772000Y-8585000D02*
X12742000Y-8615000D01*
X12785000Y-8185000D02*
X12815000Y-8215000D01*
X12815000Y-8185000D02*
X12785000Y-8215000D01*
X12885000Y-8185000D02*
X12915000Y-8215000D01*
X12915000Y-8185000D02*
X12885000Y-8215000D01*
X12975000Y-8465000D02*
X13005000Y-8495000D01*
X13005000Y-8465000D02*
X12975000Y-8495000D01*
X12985000Y-8185000D02*
X13015000Y-8215000D01*
X13015000Y-8185000D02*
X12985000Y-8215000D01*
X13085000Y-8185000D02*
X13115000Y-8215000D01*
X13115000Y-8185000D02*
X13085000Y-8215000D01*
X13185000Y-8185000D02*
X13215000Y-8215000D01*
X13215000Y-8185000D02*
X13185000Y-8215000D01*
X13185000Y-8585000D02*
X13215000Y-8615000D01*
X13215000Y-8585000D02*
X13185000Y-8615000D01*
X13185000Y-8685000D02*
X13215000Y-8715000D01*
X13215000Y-8685000D02*
X13185000Y-8715000D01*
X13185000Y-8785000D02*
X13215000Y-8815000D01*
X13215000Y-8785000D02*
X13185000Y-8815000D01*
X13185000Y-8885000D02*
X13215000Y-8915000D01*
X13215000Y-8885000D02*
X13185000Y-8915000D01*
X13185000Y-8985000D02*
X13215000Y-9015000D01*
X13215000Y-8985000D02*
X13185000Y-9015000D01*
X13185000Y-9285000D02*
X13215000Y-9315000D01*
X13215000Y-9285000D02*
X13185000Y-9315000D01*
X13185000Y-9385000D02*
X13215000Y-9415000D01*
X13215000Y-9385000D02*
X13185000Y-9415000D01*
X13185000Y-9485000D02*
X13215000Y-9515000D01*
X13215000Y-9485000D02*
X13185000Y-9515000D01*
X13185000Y-9585000D02*
X13215000Y-9615000D01*
X13215000Y-9585000D02*
X13185000Y-9615000D01*
X13185000Y-9685000D02*
X13215000Y-9715000D01*
X13215000Y-9685000D02*
X13185000Y-9715000D01*
X13285000Y-8185000D02*
X13315000Y-8215000D01*
X13315000Y-8185000D02*
X13285000Y-8215000D01*
X13385000Y-8185000D02*
X13415000Y-8215000D01*
X13415000Y-8185000D02*
X13385000Y-8215000D01*
X13385000Y-8285000D02*
X13415000Y-8315000D01*
X13415000Y-8285000D02*
X13385000Y-8315000D01*
X13385000Y-9185000D02*
X13415000Y-9215000D01*
X13415000Y-9185000D02*
X13385000Y-9215000D01*
X13485000Y-8185000D02*
X13515000Y-8215000D01*
X13515000Y-8185000D02*
X13485000Y-8215000D01*
X13485000Y-9085000D02*
X13515000Y-9115000D01*
X13515000Y-9085000D02*
X13485000Y-9115000D01*
X13585000Y-8585000D02*
X13615000Y-8615000D01*
X13615000Y-8585000D02*
X13585000Y-8615000D01*
X13585000Y-8985000D02*
X13615000Y-9015000D01*
X13615000Y-8985000D02*
X13585000Y-9015000D01*
X13685000Y-8485000D02*
X13715000Y-8515000D01*
X13715000Y-8485000D02*
X13685000Y-8515000D01*
X13685000Y-8885000D02*
X13715000Y-8915000D01*
X13715000Y-8885000D02*
X13685000Y-8915000D01*
X13729000Y-8262000D02*
G75*
G02*
X13683000Y-8262000I-23000J0D01*
G01*
X13683000Y-8262000D02*
G75*
G02*
X13729000Y-8262000I23000J0D01*
G01*
X13729000Y-9138000D02*
G75*
G02*
X13683000Y-9138000I-23000J0D01*
G01*
X13683000Y-9138000D02*
G75*
G02*
X13729000Y-9138000I23000J0D01*
G01*
X11620750Y-10171500D02*
X11620750Y-10271500D01*
X11570750Y-10221500D02*
X11670750Y-10221500D01*
X11874750Y-10171500D02*
X11874750Y-10271500D01*
X11824750Y-10221500D02*
X11924750Y-10221500D01*
X12128750Y-10171500D02*
X12128750Y-10271500D01*
X12078750Y-10221500D02*
X12178750Y-10221500D01*
X12636750Y-10171500D02*
X12636750Y-10271500D01*
X12586750Y-10221500D02*
X12686750Y-10221500D01*
X12890750Y-10171500D02*
X12890750Y-10271500D01*
X12840750Y-10221500D02*
X12940750Y-10221500D01*
D13*
X9536063Y-8828063D02*
X9536063Y-8755937D01*
X9463937Y-8755937D01*
X9463937Y-8828063D01*
X9536063Y-8828063D01*
X9536063Y-9336063D02*
X9536063Y-9263937D01*
X9463937Y-9263937D01*
X9463937Y-9336063D01*
X9536063Y-9336063D01*
D11*
X9458277Y-10813984D02*
X9458277Y-10613984D01*
X9458277Y-10613984D02*
X9505896Y-10613984D01*
X9505896Y-10613984D02*
X9534467Y-10623508D01*
X9534467Y-10623508D02*
X9553515Y-10642555D01*
X9553515Y-10642555D02*
X9563039Y-10661603D01*
X9563039Y-10661603D02*
X9572563Y-10699698D01*
X9572563Y-10699698D02*
X9572563Y-10728270D01*
X9572563Y-10728270D02*
X9563039Y-10766365D01*
X9563039Y-10766365D02*
X9553515Y-10785412D01*
X9553515Y-10785412D02*
X9534467Y-10804460D01*
X9534467Y-10804460D02*
X9505896Y-10813984D01*
X9505896Y-10813984D02*
X9458277Y-10813984D01*
X9658277Y-10813984D02*
X9658277Y-10680650D01*
X9658277Y-10718746D02*
X9667801Y-10699698D01*
X9667801Y-10699698D02*
X9677324Y-10690174D01*
X9677324Y-10690174D02*
X9696372Y-10680650D01*
X9696372Y-10680650D02*
X9715420Y-10680650D01*
X9782086Y-10813984D02*
X9782086Y-10680650D01*
X9782086Y-10613984D02*
X9772563Y-10623508D01*
X9772563Y-10623508D02*
X9782086Y-10633031D01*
X9782086Y-10633031D02*
X9791610Y-10623508D01*
X9791610Y-10623508D02*
X9782086Y-10613984D01*
X9782086Y-10613984D02*
X9782086Y-10633031D01*
X9905896Y-10813984D02*
X9886848Y-10804460D01*
X9886848Y-10804460D02*
X9877324Y-10785412D01*
X9877324Y-10785412D02*
X9877324Y-10613984D01*
X10010658Y-10813984D02*
X9991610Y-10804460D01*
X9991610Y-10804460D02*
X9982086Y-10785412D01*
X9982086Y-10785412D02*
X9982086Y-10613984D01*
X10239229Y-10813984D02*
X10239229Y-10613984D01*
X10239229Y-10613984D02*
X10305896Y-10756841D01*
X10305896Y-10756841D02*
X10372563Y-10613984D01*
X10372563Y-10613984D02*
X10372563Y-10813984D01*
X10553515Y-10813984D02*
X10553515Y-10709222D01*
X10553515Y-10709222D02*
X10543991Y-10690174D01*
X10543991Y-10690174D02*
X10524944Y-10680650D01*
X10524944Y-10680650D02*
X10486848Y-10680650D01*
X10486848Y-10680650D02*
X10467801Y-10690174D01*
X10553515Y-10804460D02*
X10534467Y-10813984D01*
X10534467Y-10813984D02*
X10486848Y-10813984D01*
X10486848Y-10813984D02*
X10467801Y-10804460D01*
X10467801Y-10804460D02*
X10458277Y-10785412D01*
X10458277Y-10785412D02*
X10458277Y-10766365D01*
X10458277Y-10766365D02*
X10467801Y-10747317D01*
X10467801Y-10747317D02*
X10486848Y-10737793D01*
X10486848Y-10737793D02*
X10534467Y-10737793D01*
X10534467Y-10737793D02*
X10553515Y-10728270D01*
X10648753Y-10680650D02*
X10648753Y-10880650D01*
X10648753Y-10690174D02*
X10667801Y-10680650D01*
X10667801Y-10680650D02*
X10705896Y-10680650D01*
X10705896Y-10680650D02*
X10724944Y-10690174D01*
X10724944Y-10690174D02*
X10734467Y-10699698D01*
X10734467Y-10699698D02*
X10743991Y-10718746D01*
X10743991Y-10718746D02*
X10743991Y-10775889D01*
X10743991Y-10775889D02*
X10734467Y-10794936D01*
X10734467Y-10794936D02*
X10724944Y-10804460D01*
X10724944Y-10804460D02*
X10705896Y-10813984D01*
X10705896Y-10813984D02*
X10667801Y-10813984D01*
X10667801Y-10813984D02*
X10648753Y-10804460D01*
X10829705Y-10794936D02*
X10839229Y-10804460D01*
X10839229Y-10804460D02*
X10829705Y-10813984D01*
X10829705Y-10813984D02*
X10820182Y-10804460D01*
X10820182Y-10804460D02*
X10829705Y-10794936D01*
X10829705Y-10794936D02*
X10829705Y-10813984D01*
X10829705Y-10690174D02*
X10839229Y-10699698D01*
X10839229Y-10699698D02*
X10829705Y-10709222D01*
X10829705Y-10709222D02*
X10820182Y-10699698D01*
X10820182Y-10699698D02*
X10829705Y-10690174D01*
X10829705Y-10690174D02*
X10829705Y-10709222D01*
D12*
X9167500Y-11127500D02*
X9197500Y-11157500D01*
X9197500Y-11127500D02*
X9167500Y-11157500D01*
D11*
X9496372Y-11033984D02*
X9515420Y-11033984D01*
X9515420Y-11033984D02*
X9534467Y-11043508D01*
X9534467Y-11043508D02*
X9543991Y-11053031D01*
X9543991Y-11053031D02*
X9553515Y-11072079D01*
X9553515Y-11072079D02*
X9563039Y-11110174D01*
X9563039Y-11110174D02*
X9563039Y-11157793D01*
X9563039Y-11157793D02*
X9553515Y-11195888D01*
X9553515Y-11195888D02*
X9543991Y-11214936D01*
X9543991Y-11214936D02*
X9534467Y-11224460D01*
X9534467Y-11224460D02*
X9515420Y-11233984D01*
X9515420Y-11233984D02*
X9496372Y-11233984D01*
X9496372Y-11233984D02*
X9477324Y-11224460D01*
X9477324Y-11224460D02*
X9467801Y-11214936D01*
X9467801Y-11214936D02*
X9458277Y-11195888D01*
X9458277Y-11195888D02*
X9448753Y-11157793D01*
X9448753Y-11157793D02*
X9448753Y-11110174D01*
X9448753Y-11110174D02*
X9458277Y-11072079D01*
X9458277Y-11072079D02*
X9467801Y-11053031D01*
X9467801Y-11053031D02*
X9477324Y-11043508D01*
X9477324Y-11043508D02*
X9496372Y-11033984D01*
X9648753Y-11214936D02*
X9658277Y-11224460D01*
X9658277Y-11224460D02*
X9648753Y-11233984D01*
X9648753Y-11233984D02*
X9639229Y-11224460D01*
X9639229Y-11224460D02*
X9648753Y-11214936D01*
X9648753Y-11214936D02*
X9648753Y-11233984D01*
X9724944Y-11033984D02*
X9848753Y-11033984D01*
X9848753Y-11033984D02*
X9782086Y-11110174D01*
X9782086Y-11110174D02*
X9810658Y-11110174D01*
X9810658Y-11110174D02*
X9829705Y-11119698D01*
X9829705Y-11119698D02*
X9839229Y-11129222D01*
X9839229Y-11129222D02*
X9848753Y-11148270D01*
X9848753Y-11148270D02*
X9848753Y-11195888D01*
X9848753Y-11195888D02*
X9839229Y-11214936D01*
X9839229Y-11214936D02*
X9829705Y-11224460D01*
X9829705Y-11224460D02*
X9810658Y-11233984D01*
X9810658Y-11233984D02*
X9753515Y-11233984D01*
X9753515Y-11233984D02*
X9734467Y-11224460D01*
X9734467Y-11224460D02*
X9724944Y-11214936D01*
X9972563Y-11033984D02*
X9991610Y-11033984D01*
X9991610Y-11033984D02*
X10010658Y-11043508D01*
X10010658Y-11043508D02*
X10020182Y-11053031D01*
X10020182Y-11053031D02*
X10029705Y-11072079D01*
X10029705Y-11072079D02*
X10039229Y-11110174D01*
X10039229Y-11110174D02*
X10039229Y-11157793D01*
X10039229Y-11157793D02*
X10029705Y-11195888D01*
X10029705Y-11195888D02*
X10020182Y-11214936D01*
X10020182Y-11214936D02*
X10010658Y-11224460D01*
X10010658Y-11224460D02*
X9991610Y-11233984D01*
X9991610Y-11233984D02*
X9972563Y-11233984D01*
X9972563Y-11233984D02*
X9953515Y-11224460D01*
X9953515Y-11224460D02*
X9943991Y-11214936D01*
X9943991Y-11214936D02*
X9934467Y-11195888D01*
X9934467Y-11195888D02*
X9924944Y-11157793D01*
X9924944Y-11157793D02*
X9924944Y-11110174D01*
X9924944Y-11110174D02*
X9934467Y-11072079D01*
X9934467Y-11072079D02*
X9943991Y-11053031D01*
X9943991Y-11053031D02*
X9953515Y-11043508D01*
X9953515Y-11043508D02*
X9972563Y-11033984D01*
X10163039Y-11033984D02*
X10182086Y-11033984D01*
X10182086Y-11033984D02*
X10201134Y-11043508D01*
X10201134Y-11043508D02*
X10210658Y-11053031D01*
X10210658Y-11053031D02*
X10220182Y-11072079D01*
X10220182Y-11072079D02*
X10229705Y-11110174D01*
X10229705Y-11110174D02*
X10229705Y-11157793D01*
X10229705Y-11157793D02*
X10220182Y-11195888D01*
X10220182Y-11195888D02*
X10210658Y-11214936D01*
X10210658Y-11214936D02*
X10201134Y-11224460D01*
X10201134Y-11224460D02*
X10182086Y-11233984D01*
X10182086Y-11233984D02*
X10163039Y-11233984D01*
X10163039Y-11233984D02*
X10143991Y-11224460D01*
X10143991Y-11224460D02*
X10134467Y-11214936D01*
X10134467Y-11214936D02*
X10124944Y-11195888D01*
X10124944Y-11195888D02*
X10115420Y-11157793D01*
X10115420Y-11157793D02*
X10115420Y-11110174D01*
X10115420Y-11110174D02*
X10124944Y-11072079D01*
X10124944Y-11072079D02*
X10134467Y-11053031D01*
X10134467Y-11053031D02*
X10143991Y-11043508D01*
X10143991Y-11043508D02*
X10163039Y-11033984D01*
X10315420Y-11233984D02*
X10315420Y-11100650D01*
X10315420Y-11119698D02*
X10324944Y-11110174D01*
X10324944Y-11110174D02*
X10343991Y-11100650D01*
X10343991Y-11100650D02*
X10372563Y-11100650D01*
X10372563Y-11100650D02*
X10391610Y-11110174D01*
X10391610Y-11110174D02*
X10401134Y-11129222D01*
X10401134Y-11129222D02*
X10401134Y-11233984D01*
X10401134Y-11129222D02*
X10410658Y-11110174D01*
X10410658Y-11110174D02*
X10429705Y-11100650D01*
X10429705Y-11100650D02*
X10458277Y-11100650D01*
X10458277Y-11100650D02*
X10477325Y-11110174D01*
X10477325Y-11110174D02*
X10486848Y-11129222D01*
X10486848Y-11129222D02*
X10486848Y-11233984D01*
X10582086Y-11233984D02*
X10582086Y-11100650D01*
X10582086Y-11119698D02*
X10591610Y-11110174D01*
X10591610Y-11110174D02*
X10610658Y-11100650D01*
X10610658Y-11100650D02*
X10639229Y-11100650D01*
X10639229Y-11100650D02*
X10658277Y-11110174D01*
X10658277Y-11110174D02*
X10667801Y-11129222D01*
X10667801Y-11129222D02*
X10667801Y-11233984D01*
X10667801Y-11129222D02*
X10677325Y-11110174D01*
X10677325Y-11110174D02*
X10696372Y-11100650D01*
X10696372Y-11100650D02*
X10724944Y-11100650D01*
X10724944Y-11100650D02*
X10743991Y-11110174D01*
X10743991Y-11110174D02*
X10753515Y-11129222D01*
X10753515Y-11129222D02*
X10753515Y-11233984D01*
X11143991Y-11024460D02*
X10972563Y-11281603D01*
X11401134Y-11033984D02*
X11420182Y-11033984D01*
X11420182Y-11033984D02*
X11439229Y-11043508D01*
X11439229Y-11043508D02*
X11448753Y-11053031D01*
X11448753Y-11053031D02*
X11458277Y-11072079D01*
X11458277Y-11072079D02*
X11467801Y-11110174D01*
X11467801Y-11110174D02*
X11467801Y-11157793D01*
X11467801Y-11157793D02*
X11458277Y-11195888D01*
X11458277Y-11195888D02*
X11448753Y-11214936D01*
X11448753Y-11214936D02*
X11439229Y-11224460D01*
X11439229Y-11224460D02*
X11420182Y-11233984D01*
X11420182Y-11233984D02*
X11401134Y-11233984D01*
X11401134Y-11233984D02*
X11382086Y-11224460D01*
X11382086Y-11224460D02*
X11372563Y-11214936D01*
X11372563Y-11214936D02*
X11363039Y-11195888D01*
X11363039Y-11195888D02*
X11353515Y-11157793D01*
X11353515Y-11157793D02*
X11353515Y-11110174D01*
X11353515Y-11110174D02*
X11363039Y-11072079D01*
X11363039Y-11072079D02*
X11372563Y-11053031D01*
X11372563Y-11053031D02*
X11382086Y-11043508D01*
X11382086Y-11043508D02*
X11401134Y-11033984D01*
X11553515Y-11214936D02*
X11563039Y-11224460D01*
X11563039Y-11224460D02*
X11553515Y-11233984D01*
X11553515Y-11233984D02*
X11543991Y-11224460D01*
X11543991Y-11224460D02*
X11553515Y-11214936D01*
X11553515Y-11214936D02*
X11553515Y-11233984D01*
X11686848Y-11033984D02*
X11705896Y-11033984D01*
X11705896Y-11033984D02*
X11724944Y-11043508D01*
X11724944Y-11043508D02*
X11734467Y-11053031D01*
X11734467Y-11053031D02*
X11743991Y-11072079D01*
X11743991Y-11072079D02*
X11753515Y-11110174D01*
X11753515Y-11110174D02*
X11753515Y-11157793D01*
X11753515Y-11157793D02*
X11743991Y-11195888D01*
X11743991Y-11195888D02*
X11734467Y-11214936D01*
X11734467Y-11214936D02*
X11724944Y-11224460D01*
X11724944Y-11224460D02*
X11705896Y-11233984D01*
X11705896Y-11233984D02*
X11686848Y-11233984D01*
X11686848Y-11233984D02*
X11667801Y-11224460D01*
X11667801Y-11224460D02*
X11658277Y-11214936D01*
X11658277Y-11214936D02*
X11648753Y-11195888D01*
X11648753Y-11195888D02*
X11639229Y-11157793D01*
X11639229Y-11157793D02*
X11639229Y-11110174D01*
X11639229Y-11110174D02*
X11648753Y-11072079D01*
X11648753Y-11072079D02*
X11658277Y-11053031D01*
X11658277Y-11053031D02*
X11667801Y-11043508D01*
X11667801Y-11043508D02*
X11686848Y-11033984D01*
X11943991Y-11233984D02*
X11829706Y-11233984D01*
X11886848Y-11233984D02*
X11886848Y-11033984D01*
X11886848Y-11033984D02*
X11867801Y-11062555D01*
X11867801Y-11062555D02*
X11848753Y-11081603D01*
X11848753Y-11081603D02*
X11829706Y-11091127D01*
X12134467Y-11233984D02*
X12020182Y-11233984D01*
X12077325Y-11233984D02*
X12077325Y-11033984D01*
X12077325Y-11033984D02*
X12058277Y-11062555D01*
X12058277Y-11062555D02*
X12039229Y-11081603D01*
X12039229Y-11081603D02*
X12020182Y-11091127D01*
X12248753Y-11119698D02*
X12229706Y-11110174D01*
X12229706Y-11110174D02*
X12220182Y-11100650D01*
X12220182Y-11100650D02*
X12210658Y-11081603D01*
X12210658Y-11081603D02*
X12210658Y-11072079D01*
X12210658Y-11072079D02*
X12220182Y-11053031D01*
X12220182Y-11053031D02*
X12229706Y-11043508D01*
X12229706Y-11043508D02*
X12248753Y-11033984D01*
X12248753Y-11033984D02*
X12286848Y-11033984D01*
X12286848Y-11033984D02*
X12305896Y-11043508D01*
X12305896Y-11043508D02*
X12315420Y-11053031D01*
X12315420Y-11053031D02*
X12324944Y-11072079D01*
X12324944Y-11072079D02*
X12324944Y-11081603D01*
X12324944Y-11081603D02*
X12315420Y-11100650D01*
X12315420Y-11100650D02*
X12305896Y-11110174D01*
X12305896Y-11110174D02*
X12286848Y-11119698D01*
X12286848Y-11119698D02*
X12248753Y-11119698D01*
X12248753Y-11119698D02*
X12229706Y-11129222D01*
X12229706Y-11129222D02*
X12220182Y-11138746D01*
X12220182Y-11138746D02*
X12210658Y-11157793D01*
X12210658Y-11157793D02*
X12210658Y-11195888D01*
X12210658Y-11195888D02*
X12220182Y-11214936D01*
X12220182Y-11214936D02*
X12229706Y-11224460D01*
X12229706Y-11224460D02*
X12248753Y-11233984D01*
X12248753Y-11233984D02*
X12286848Y-11233984D01*
X12286848Y-11233984D02*
X12305896Y-11224460D01*
X12305896Y-11224460D02*
X12315420Y-11214936D01*
X12315420Y-11214936D02*
X12324944Y-11195888D01*
X12324944Y-11195888D02*
X12324944Y-11157793D01*
X12324944Y-11157793D02*
X12315420Y-11138746D01*
X12315420Y-11138746D02*
X12305896Y-11129222D01*
X12305896Y-11129222D02*
X12286848Y-11119698D01*
X12401134Y-11033984D02*
X12401134Y-11072079D01*
X12477325Y-11033984D02*
X12477325Y-11072079D01*
X12772563Y-11310174D02*
X12763039Y-11300650D01*
X12763039Y-11300650D02*
X12743991Y-11272079D01*
X12743991Y-11272079D02*
X12734468Y-11253031D01*
X12734468Y-11253031D02*
X12724944Y-11224460D01*
X12724944Y-11224460D02*
X12715420Y-11176841D01*
X12715420Y-11176841D02*
X12715420Y-11138746D01*
X12715420Y-11138746D02*
X12724944Y-11091127D01*
X12724944Y-11091127D02*
X12734468Y-11062555D01*
X12734468Y-11062555D02*
X12743991Y-11043508D01*
X12743991Y-11043508D02*
X12763039Y-11014936D01*
X12763039Y-11014936D02*
X12772563Y-11005412D01*
X12934468Y-11033984D02*
X12896372Y-11033984D01*
X12896372Y-11033984D02*
X12877325Y-11043508D01*
X12877325Y-11043508D02*
X12867801Y-11053031D01*
X12867801Y-11053031D02*
X12848753Y-11081603D01*
X12848753Y-11081603D02*
X12839229Y-11119698D01*
X12839229Y-11119698D02*
X12839229Y-11195888D01*
X12839229Y-11195888D02*
X12848753Y-11214936D01*
X12848753Y-11214936D02*
X12858277Y-11224460D01*
X12858277Y-11224460D02*
X12877325Y-11233984D01*
X12877325Y-11233984D02*
X12915420Y-11233984D01*
X12915420Y-11233984D02*
X12934468Y-11224460D01*
X12934468Y-11224460D02*
X12943991Y-11214936D01*
X12943991Y-11214936D02*
X12953515Y-11195888D01*
X12953515Y-11195888D02*
X12953515Y-11148270D01*
X12953515Y-11148270D02*
X12943991Y-11129222D01*
X12943991Y-11129222D02*
X12934468Y-11119698D01*
X12934468Y-11119698D02*
X12915420Y-11110174D01*
X12915420Y-11110174D02*
X12877325Y-11110174D01*
X12877325Y-11110174D02*
X12858277Y-11119698D01*
X12858277Y-11119698D02*
X12848753Y-11129222D01*
X12848753Y-11129222D02*
X12839229Y-11148270D01*
X13020182Y-11033984D02*
X13153515Y-11033984D01*
X13153515Y-11033984D02*
X13067801Y-11233984D01*
X13382087Y-11233984D02*
X13382087Y-11033984D01*
X13467801Y-11233984D02*
X13467801Y-11129222D01*
X13467801Y-11129222D02*
X13458277Y-11110174D01*
X13458277Y-11110174D02*
X13439230Y-11100650D01*
X13439230Y-11100650D02*
X13410658Y-11100650D01*
X13410658Y-11100650D02*
X13391610Y-11110174D01*
X13391610Y-11110174D02*
X13382087Y-11119698D01*
X13591610Y-11233984D02*
X13572563Y-11224460D01*
X13572563Y-11224460D02*
X13563039Y-11214936D01*
X13563039Y-11214936D02*
X13553515Y-11195888D01*
X13553515Y-11195888D02*
X13553515Y-11138746D01*
X13553515Y-11138746D02*
X13563039Y-11119698D01*
X13563039Y-11119698D02*
X13572563Y-11110174D01*
X13572563Y-11110174D02*
X13591610Y-11100650D01*
X13591610Y-11100650D02*
X13620182Y-11100650D01*
X13620182Y-11100650D02*
X13639230Y-11110174D01*
X13639230Y-11110174D02*
X13648753Y-11119698D01*
X13648753Y-11119698D02*
X13658277Y-11138746D01*
X13658277Y-11138746D02*
X13658277Y-11195888D01*
X13658277Y-11195888D02*
X13648753Y-11214936D01*
X13648753Y-11214936D02*
X13639230Y-11224460D01*
X13639230Y-11224460D02*
X13620182Y-11233984D01*
X13620182Y-11233984D02*
X13591610Y-11233984D01*
X13772563Y-11233984D02*
X13753515Y-11224460D01*
X13753515Y-11224460D02*
X13743991Y-11205412D01*
X13743991Y-11205412D02*
X13743991Y-11033984D01*
X13924944Y-11224460D02*
X13905896Y-11233984D01*
X13905896Y-11233984D02*
X13867801Y-11233984D01*
X13867801Y-11233984D02*
X13848753Y-11224460D01*
X13848753Y-11224460D02*
X13839230Y-11205412D01*
X13839230Y-11205412D02*
X13839230Y-11129222D01*
X13839230Y-11129222D02*
X13848753Y-11110174D01*
X13848753Y-11110174D02*
X13867801Y-11100650D01*
X13867801Y-11100650D02*
X13905896Y-11100650D01*
X13905896Y-11100650D02*
X13924944Y-11110174D01*
X13924944Y-11110174D02*
X13934468Y-11129222D01*
X13934468Y-11129222D02*
X13934468Y-11148270D01*
X13934468Y-11148270D02*
X13839230Y-11167317D01*
X14010658Y-11224460D02*
X14029706Y-11233984D01*
X14029706Y-11233984D02*
X14067801Y-11233984D01*
X14067801Y-11233984D02*
X14086849Y-11224460D01*
X14086849Y-11224460D02*
X14096372Y-11205412D01*
X14096372Y-11205412D02*
X14096372Y-11195888D01*
X14096372Y-11195888D02*
X14086849Y-11176841D01*
X14086849Y-11176841D02*
X14067801Y-11167317D01*
X14067801Y-11167317D02*
X14039230Y-11167317D01*
X14039230Y-11167317D02*
X14020182Y-11157793D01*
X14020182Y-11157793D02*
X14010658Y-11138746D01*
X14010658Y-11138746D02*
X14010658Y-11129222D01*
X14010658Y-11129222D02*
X14020182Y-11110174D01*
X14020182Y-11110174D02*
X14039230Y-11100650D01*
X14039230Y-11100650D02*
X14067801Y-11100650D01*
X14067801Y-11100650D02*
X14086849Y-11110174D01*
X14163039Y-11310174D02*
X14172563Y-11300650D01*
X14172563Y-11300650D02*
X14191611Y-11272079D01*
X14191611Y-11272079D02*
X14201134Y-11253031D01*
X14201134Y-11253031D02*
X14210658Y-11224460D01*
X14210658Y-11224460D02*
X14220182Y-11176841D01*
X14220182Y-11176841D02*
X14220182Y-11138746D01*
X14220182Y-11138746D02*
X14210658Y-11091127D01*
X14210658Y-11091127D02*
X14201134Y-11062555D01*
X14201134Y-11062555D02*
X14191611Y-11043508D01*
X14191611Y-11043508D02*
X14172563Y-11014936D01*
X14172563Y-11014936D02*
X14163039Y-11005412D01*
D12*
X9197500Y-11406500D02*
G75*
G02*
X9151500Y-11406500I-23000J0D01*
G01*
X9151500Y-11406500D02*
G75*
G02*
X9197500Y-11406500I23000J0D01*
G01*
D11*
X9496372Y-11297984D02*
X9515420Y-11297984D01*
X9515420Y-11297984D02*
X9534467Y-11307508D01*
X9534467Y-11307508D02*
X9543991Y-11317031D01*
X9543991Y-11317031D02*
X9553515Y-11336079D01*
X9553515Y-11336079D02*
X9563039Y-11374174D01*
X9563039Y-11374174D02*
X9563039Y-11421793D01*
X9563039Y-11421793D02*
X9553515Y-11459888D01*
X9553515Y-11459888D02*
X9543991Y-11478936D01*
X9543991Y-11478936D02*
X9534467Y-11488460D01*
X9534467Y-11488460D02*
X9515420Y-11497984D01*
X9515420Y-11497984D02*
X9496372Y-11497984D01*
X9496372Y-11497984D02*
X9477324Y-11488460D01*
X9477324Y-11488460D02*
X9467801Y-11478936D01*
X9467801Y-11478936D02*
X9458277Y-11459888D01*
X9458277Y-11459888D02*
X9448753Y-11421793D01*
X9448753Y-11421793D02*
X9448753Y-11374174D01*
X9448753Y-11374174D02*
X9458277Y-11336079D01*
X9458277Y-11336079D02*
X9467801Y-11317031D01*
X9467801Y-11317031D02*
X9477324Y-11307508D01*
X9477324Y-11307508D02*
X9496372Y-11297984D01*
X9648753Y-11478936D02*
X9658277Y-11488460D01*
X9658277Y-11488460D02*
X9648753Y-11497984D01*
X9648753Y-11497984D02*
X9639229Y-11488460D01*
X9639229Y-11488460D02*
X9648753Y-11478936D01*
X9648753Y-11478936D02*
X9648753Y-11497984D01*
X9829705Y-11364650D02*
X9829705Y-11497984D01*
X9782086Y-11288460D02*
X9734467Y-11431317D01*
X9734467Y-11431317D02*
X9858277Y-11431317D01*
X10020182Y-11297984D02*
X9982086Y-11297984D01*
X9982086Y-11297984D02*
X9963039Y-11307508D01*
X9963039Y-11307508D02*
X9953515Y-11317031D01*
X9953515Y-11317031D02*
X9934467Y-11345603D01*
X9934467Y-11345603D02*
X9924944Y-11383698D01*
X9924944Y-11383698D02*
X9924944Y-11459888D01*
X9924944Y-11459888D02*
X9934467Y-11478936D01*
X9934467Y-11478936D02*
X9943991Y-11488460D01*
X9943991Y-11488460D02*
X9963039Y-11497984D01*
X9963039Y-11497984D02*
X10001134Y-11497984D01*
X10001134Y-11497984D02*
X10020182Y-11488460D01*
X10020182Y-11488460D02*
X10029705Y-11478936D01*
X10029705Y-11478936D02*
X10039229Y-11459888D01*
X10039229Y-11459888D02*
X10039229Y-11412269D01*
X10039229Y-11412269D02*
X10029705Y-11393222D01*
X10029705Y-11393222D02*
X10020182Y-11383698D01*
X10020182Y-11383698D02*
X10001134Y-11374174D01*
X10001134Y-11374174D02*
X9963039Y-11374174D01*
X9963039Y-11374174D02*
X9943991Y-11383698D01*
X9943991Y-11383698D02*
X9934467Y-11393222D01*
X9934467Y-11393222D02*
X9924944Y-11412269D01*
X10163039Y-11297984D02*
X10182086Y-11297984D01*
X10182086Y-11297984D02*
X10201134Y-11307508D01*
X10201134Y-11307508D02*
X10210658Y-11317031D01*
X10210658Y-11317031D02*
X10220182Y-11336079D01*
X10220182Y-11336079D02*
X10229705Y-11374174D01*
X10229705Y-11374174D02*
X10229705Y-11421793D01*
X10229705Y-11421793D02*
X10220182Y-11459888D01*
X10220182Y-11459888D02*
X10210658Y-11478936D01*
X10210658Y-11478936D02*
X10201134Y-11488460D01*
X10201134Y-11488460D02*
X10182086Y-11497984D01*
X10182086Y-11497984D02*
X10163039Y-11497984D01*
X10163039Y-11497984D02*
X10143991Y-11488460D01*
X10143991Y-11488460D02*
X10134467Y-11478936D01*
X10134467Y-11478936D02*
X10124944Y-11459888D01*
X10124944Y-11459888D02*
X10115420Y-11421793D01*
X10115420Y-11421793D02*
X10115420Y-11374174D01*
X10115420Y-11374174D02*
X10124944Y-11336079D01*
X10124944Y-11336079D02*
X10134467Y-11317031D01*
X10134467Y-11317031D02*
X10143991Y-11307508D01*
X10143991Y-11307508D02*
X10163039Y-11297984D01*
X10315420Y-11497984D02*
X10315420Y-11364650D01*
X10315420Y-11383698D02*
X10324944Y-11374174D01*
X10324944Y-11374174D02*
X10343991Y-11364650D01*
X10343991Y-11364650D02*
X10372563Y-11364650D01*
X10372563Y-11364650D02*
X10391610Y-11374174D01*
X10391610Y-11374174D02*
X10401134Y-11393222D01*
X10401134Y-11393222D02*
X10401134Y-11497984D01*
X10401134Y-11393222D02*
X10410658Y-11374174D01*
X10410658Y-11374174D02*
X10429705Y-11364650D01*
X10429705Y-11364650D02*
X10458277Y-11364650D01*
X10458277Y-11364650D02*
X10477325Y-11374174D01*
X10477325Y-11374174D02*
X10486848Y-11393222D01*
X10486848Y-11393222D02*
X10486848Y-11497984D01*
X10582086Y-11497984D02*
X10582086Y-11364650D01*
X10582086Y-11383698D02*
X10591610Y-11374174D01*
X10591610Y-11374174D02*
X10610658Y-11364650D01*
X10610658Y-11364650D02*
X10639229Y-11364650D01*
X10639229Y-11364650D02*
X10658277Y-11374174D01*
X10658277Y-11374174D02*
X10667801Y-11393222D01*
X10667801Y-11393222D02*
X10667801Y-11497984D01*
X10667801Y-11393222D02*
X10677325Y-11374174D01*
X10677325Y-11374174D02*
X10696372Y-11364650D01*
X10696372Y-11364650D02*
X10724944Y-11364650D01*
X10724944Y-11364650D02*
X10743991Y-11374174D01*
X10743991Y-11374174D02*
X10753515Y-11393222D01*
X10753515Y-11393222D02*
X10753515Y-11497984D01*
X11143991Y-11288460D02*
X10972563Y-11545603D01*
X11401134Y-11297984D02*
X11420182Y-11297984D01*
X11420182Y-11297984D02*
X11439229Y-11307508D01*
X11439229Y-11307508D02*
X11448753Y-11317031D01*
X11448753Y-11317031D02*
X11458277Y-11336079D01*
X11458277Y-11336079D02*
X11467801Y-11374174D01*
X11467801Y-11374174D02*
X11467801Y-11421793D01*
X11467801Y-11421793D02*
X11458277Y-11459888D01*
X11458277Y-11459888D02*
X11448753Y-11478936D01*
X11448753Y-11478936D02*
X11439229Y-11488460D01*
X11439229Y-11488460D02*
X11420182Y-11497984D01*
X11420182Y-11497984D02*
X11401134Y-11497984D01*
X11401134Y-11497984D02*
X11382086Y-11488460D01*
X11382086Y-11488460D02*
X11372563Y-11478936D01*
X11372563Y-11478936D02*
X11363039Y-11459888D01*
X11363039Y-11459888D02*
X11353515Y-11421793D01*
X11353515Y-11421793D02*
X11353515Y-11374174D01*
X11353515Y-11374174D02*
X11363039Y-11336079D01*
X11363039Y-11336079D02*
X11372563Y-11317031D01*
X11372563Y-11317031D02*
X11382086Y-11307508D01*
X11382086Y-11307508D02*
X11401134Y-11297984D01*
X11553515Y-11478936D02*
X11563039Y-11488460D01*
X11563039Y-11488460D02*
X11553515Y-11497984D01*
X11553515Y-11497984D02*
X11543991Y-11488460D01*
X11543991Y-11488460D02*
X11553515Y-11478936D01*
X11553515Y-11478936D02*
X11553515Y-11497984D01*
X11686848Y-11297984D02*
X11705896Y-11297984D01*
X11705896Y-11297984D02*
X11724944Y-11307508D01*
X11724944Y-11307508D02*
X11734467Y-11317031D01*
X11734467Y-11317031D02*
X11743991Y-11336079D01*
X11743991Y-11336079D02*
X11753515Y-11374174D01*
X11753515Y-11374174D02*
X11753515Y-11421793D01*
X11753515Y-11421793D02*
X11743991Y-11459888D01*
X11743991Y-11459888D02*
X11734467Y-11478936D01*
X11734467Y-11478936D02*
X11724944Y-11488460D01*
X11724944Y-11488460D02*
X11705896Y-11497984D01*
X11705896Y-11497984D02*
X11686848Y-11497984D01*
X11686848Y-11497984D02*
X11667801Y-11488460D01*
X11667801Y-11488460D02*
X11658277Y-11478936D01*
X11658277Y-11478936D02*
X11648753Y-11459888D01*
X11648753Y-11459888D02*
X11639229Y-11421793D01*
X11639229Y-11421793D02*
X11639229Y-11374174D01*
X11639229Y-11374174D02*
X11648753Y-11336079D01*
X11648753Y-11336079D02*
X11658277Y-11317031D01*
X11658277Y-11317031D02*
X11667801Y-11307508D01*
X11667801Y-11307508D02*
X11686848Y-11297984D01*
X11943991Y-11497984D02*
X11829706Y-11497984D01*
X11886848Y-11497984D02*
X11886848Y-11297984D01*
X11886848Y-11297984D02*
X11867801Y-11326555D01*
X11867801Y-11326555D02*
X11848753Y-11345603D01*
X11848753Y-11345603D02*
X11829706Y-11355127D01*
X12058277Y-11383698D02*
X12039229Y-11374174D01*
X12039229Y-11374174D02*
X12029706Y-11364650D01*
X12029706Y-11364650D02*
X12020182Y-11345603D01*
X12020182Y-11345603D02*
X12020182Y-11336079D01*
X12020182Y-11336079D02*
X12029706Y-11317031D01*
X12029706Y-11317031D02*
X12039229Y-11307508D01*
X12039229Y-11307508D02*
X12058277Y-11297984D01*
X12058277Y-11297984D02*
X12096372Y-11297984D01*
X12096372Y-11297984D02*
X12115420Y-11307508D01*
X12115420Y-11307508D02*
X12124944Y-11317031D01*
X12124944Y-11317031D02*
X12134467Y-11336079D01*
X12134467Y-11336079D02*
X12134467Y-11345603D01*
X12134467Y-11345603D02*
X12124944Y-11364650D01*
X12124944Y-11364650D02*
X12115420Y-11374174D01*
X12115420Y-11374174D02*
X12096372Y-11383698D01*
X12096372Y-11383698D02*
X12058277Y-11383698D01*
X12058277Y-11383698D02*
X12039229Y-11393222D01*
X12039229Y-11393222D02*
X12029706Y-11402746D01*
X12029706Y-11402746D02*
X12020182Y-11421793D01*
X12020182Y-11421793D02*
X12020182Y-11459888D01*
X12020182Y-11459888D02*
X12029706Y-11478936D01*
X12029706Y-11478936D02*
X12039229Y-11488460D01*
X12039229Y-11488460D02*
X12058277Y-11497984D01*
X12058277Y-11497984D02*
X12096372Y-11497984D01*
X12096372Y-11497984D02*
X12115420Y-11488460D01*
X12115420Y-11488460D02*
X12124944Y-11478936D01*
X12124944Y-11478936D02*
X12134467Y-11459888D01*
X12134467Y-11459888D02*
X12134467Y-11421793D01*
X12134467Y-11421793D02*
X12124944Y-11402746D01*
X12124944Y-11402746D02*
X12115420Y-11393222D01*
X12115420Y-11393222D02*
X12096372Y-11383698D01*
X12324944Y-11497984D02*
X12210658Y-11497984D01*
X12267801Y-11497984D02*
X12267801Y-11297984D01*
X12267801Y-11297984D02*
X12248753Y-11326555D01*
X12248753Y-11326555D02*
X12229706Y-11345603D01*
X12229706Y-11345603D02*
X12210658Y-11355127D01*
X12401134Y-11297984D02*
X12401134Y-11336079D01*
X12477325Y-11297984D02*
X12477325Y-11336079D01*
X12772563Y-11574174D02*
X12763039Y-11564650D01*
X12763039Y-11564650D02*
X12743991Y-11536079D01*
X12743991Y-11536079D02*
X12734468Y-11517031D01*
X12734468Y-11517031D02*
X12724944Y-11488460D01*
X12724944Y-11488460D02*
X12715420Y-11440841D01*
X12715420Y-11440841D02*
X12715420Y-11402746D01*
X12715420Y-11402746D02*
X12724944Y-11355127D01*
X12724944Y-11355127D02*
X12734468Y-11326555D01*
X12734468Y-11326555D02*
X12743991Y-11307508D01*
X12743991Y-11307508D02*
X12763039Y-11278936D01*
X12763039Y-11278936D02*
X12772563Y-11269412D01*
X12839229Y-11317031D02*
X12848753Y-11307508D01*
X12848753Y-11307508D02*
X12867801Y-11297984D01*
X12867801Y-11297984D02*
X12915420Y-11297984D01*
X12915420Y-11297984D02*
X12934468Y-11307508D01*
X12934468Y-11307508D02*
X12943991Y-11317031D01*
X12943991Y-11317031D02*
X12953515Y-11336079D01*
X12953515Y-11336079D02*
X12953515Y-11355127D01*
X12953515Y-11355127D02*
X12943991Y-11383698D01*
X12943991Y-11383698D02*
X12829706Y-11497984D01*
X12829706Y-11497984D02*
X12953515Y-11497984D01*
X13191610Y-11497984D02*
X13191610Y-11297984D01*
X13277325Y-11497984D02*
X13277325Y-11393222D01*
X13277325Y-11393222D02*
X13267801Y-11374174D01*
X13267801Y-11374174D02*
X13248753Y-11364650D01*
X13248753Y-11364650D02*
X13220182Y-11364650D01*
X13220182Y-11364650D02*
X13201134Y-11374174D01*
X13201134Y-11374174D02*
X13191610Y-11383698D01*
X13401134Y-11497984D02*
X13382087Y-11488460D01*
X13382087Y-11488460D02*
X13372563Y-11478936D01*
X13372563Y-11478936D02*
X13363039Y-11459888D01*
X13363039Y-11459888D02*
X13363039Y-11402746D01*
X13363039Y-11402746D02*
X13372563Y-11383698D01*
X13372563Y-11383698D02*
X13382087Y-11374174D01*
X13382087Y-11374174D02*
X13401134Y-11364650D01*
X13401134Y-11364650D02*
X13429706Y-11364650D01*
X13429706Y-11364650D02*
X13448753Y-11374174D01*
X13448753Y-11374174D02*
X13458277Y-11383698D01*
X13458277Y-11383698D02*
X13467801Y-11402746D01*
X13467801Y-11402746D02*
X13467801Y-11459888D01*
X13467801Y-11459888D02*
X13458277Y-11478936D01*
X13458277Y-11478936D02*
X13448753Y-11488460D01*
X13448753Y-11488460D02*
X13429706Y-11497984D01*
X13429706Y-11497984D02*
X13401134Y-11497984D01*
X13582087Y-11497984D02*
X13563039Y-11488460D01*
X13563039Y-11488460D02*
X13553515Y-11469412D01*
X13553515Y-11469412D02*
X13553515Y-11297984D01*
X13734468Y-11488460D02*
X13715420Y-11497984D01*
X13715420Y-11497984D02*
X13677325Y-11497984D01*
X13677325Y-11497984D02*
X13658277Y-11488460D01*
X13658277Y-11488460D02*
X13648753Y-11469412D01*
X13648753Y-11469412D02*
X13648753Y-11393222D01*
X13648753Y-11393222D02*
X13658277Y-11374174D01*
X13658277Y-11374174D02*
X13677325Y-11364650D01*
X13677325Y-11364650D02*
X13715420Y-11364650D01*
X13715420Y-11364650D02*
X13734468Y-11374174D01*
X13734468Y-11374174D02*
X13743991Y-11393222D01*
X13743991Y-11393222D02*
X13743991Y-11412269D01*
X13743991Y-11412269D02*
X13648753Y-11431317D01*
X13820182Y-11488460D02*
X13839230Y-11497984D01*
X13839230Y-11497984D02*
X13877325Y-11497984D01*
X13877325Y-11497984D02*
X13896372Y-11488460D01*
X13896372Y-11488460D02*
X13905896Y-11469412D01*
X13905896Y-11469412D02*
X13905896Y-11459888D01*
X13905896Y-11459888D02*
X13896372Y-11440841D01*
X13896372Y-11440841D02*
X13877325Y-11431317D01*
X13877325Y-11431317D02*
X13848753Y-11431317D01*
X13848753Y-11431317D02*
X13829706Y-11421793D01*
X13829706Y-11421793D02*
X13820182Y-11402746D01*
X13820182Y-11402746D02*
X13820182Y-11393222D01*
X13820182Y-11393222D02*
X13829706Y-11374174D01*
X13829706Y-11374174D02*
X13848753Y-11364650D01*
X13848753Y-11364650D02*
X13877325Y-11364650D01*
X13877325Y-11364650D02*
X13896372Y-11374174D01*
X13972563Y-11574174D02*
X13982087Y-11564650D01*
X13982087Y-11564650D02*
X14001134Y-11536079D01*
X14001134Y-11536079D02*
X14010658Y-11517031D01*
X14010658Y-11517031D02*
X14020182Y-11488460D01*
X14020182Y-11488460D02*
X14029706Y-11440841D01*
X14029706Y-11440841D02*
X14029706Y-11402746D01*
X14029706Y-11402746D02*
X14020182Y-11355127D01*
X14020182Y-11355127D02*
X14010658Y-11326555D01*
X14010658Y-11326555D02*
X14001134Y-11307508D01*
X14001134Y-11307508D02*
X13982087Y-11278936D01*
X13982087Y-11278936D02*
X13972563Y-11269412D01*
D12*
X9147500Y-11620500D02*
X9147500Y-11720500D01*
X9097500Y-11670500D02*
X9197500Y-11670500D01*
D11*
X9563039Y-11761984D02*
X9448753Y-11761984D01*
X9505896Y-11761984D02*
X9505896Y-11561984D01*
X9505896Y-11561984D02*
X9486848Y-11590555D01*
X9486848Y-11590555D02*
X9467801Y-11609603D01*
X9467801Y-11609603D02*
X9448753Y-11619127D01*
X9648753Y-11742936D02*
X9658277Y-11752460D01*
X9658277Y-11752460D02*
X9648753Y-11761984D01*
X9648753Y-11761984D02*
X9639229Y-11752460D01*
X9639229Y-11752460D02*
X9648753Y-11742936D01*
X9648753Y-11742936D02*
X9648753Y-11761984D01*
X9782086Y-11561984D02*
X9801134Y-11561984D01*
X9801134Y-11561984D02*
X9820182Y-11571508D01*
X9820182Y-11571508D02*
X9829705Y-11581031D01*
X9829705Y-11581031D02*
X9839229Y-11600079D01*
X9839229Y-11600079D02*
X9848753Y-11638174D01*
X9848753Y-11638174D02*
X9848753Y-11685793D01*
X9848753Y-11685793D02*
X9839229Y-11723888D01*
X9839229Y-11723888D02*
X9829705Y-11742936D01*
X9829705Y-11742936D02*
X9820182Y-11752460D01*
X9820182Y-11752460D02*
X9801134Y-11761984D01*
X9801134Y-11761984D02*
X9782086Y-11761984D01*
X9782086Y-11761984D02*
X9763039Y-11752460D01*
X9763039Y-11752460D02*
X9753515Y-11742936D01*
X9753515Y-11742936D02*
X9743991Y-11723888D01*
X9743991Y-11723888D02*
X9734467Y-11685793D01*
X9734467Y-11685793D02*
X9734467Y-11638174D01*
X9734467Y-11638174D02*
X9743991Y-11600079D01*
X9743991Y-11600079D02*
X9753515Y-11581031D01*
X9753515Y-11581031D02*
X9763039Y-11571508D01*
X9763039Y-11571508D02*
X9782086Y-11561984D01*
X9972563Y-11561984D02*
X9991610Y-11561984D01*
X9991610Y-11561984D02*
X10010658Y-11571508D01*
X10010658Y-11571508D02*
X10020182Y-11581031D01*
X10020182Y-11581031D02*
X10029705Y-11600079D01*
X10029705Y-11600079D02*
X10039229Y-11638174D01*
X10039229Y-11638174D02*
X10039229Y-11685793D01*
X10039229Y-11685793D02*
X10029705Y-11723888D01*
X10029705Y-11723888D02*
X10020182Y-11742936D01*
X10020182Y-11742936D02*
X10010658Y-11752460D01*
X10010658Y-11752460D02*
X9991610Y-11761984D01*
X9991610Y-11761984D02*
X9972563Y-11761984D01*
X9972563Y-11761984D02*
X9953515Y-11752460D01*
X9953515Y-11752460D02*
X9943991Y-11742936D01*
X9943991Y-11742936D02*
X9934467Y-11723888D01*
X9934467Y-11723888D02*
X9924944Y-11685793D01*
X9924944Y-11685793D02*
X9924944Y-11638174D01*
X9924944Y-11638174D02*
X9934467Y-11600079D01*
X9934467Y-11600079D02*
X9943991Y-11581031D01*
X9943991Y-11581031D02*
X9953515Y-11571508D01*
X9953515Y-11571508D02*
X9972563Y-11561984D01*
X10163039Y-11561984D02*
X10182086Y-11561984D01*
X10182086Y-11561984D02*
X10201134Y-11571508D01*
X10201134Y-11571508D02*
X10210658Y-11581031D01*
X10210658Y-11581031D02*
X10220182Y-11600079D01*
X10220182Y-11600079D02*
X10229705Y-11638174D01*
X10229705Y-11638174D02*
X10229705Y-11685793D01*
X10229705Y-11685793D02*
X10220182Y-11723888D01*
X10220182Y-11723888D02*
X10210658Y-11742936D01*
X10210658Y-11742936D02*
X10201134Y-11752460D01*
X10201134Y-11752460D02*
X10182086Y-11761984D01*
X10182086Y-11761984D02*
X10163039Y-11761984D01*
X10163039Y-11761984D02*
X10143991Y-11752460D01*
X10143991Y-11752460D02*
X10134467Y-11742936D01*
X10134467Y-11742936D02*
X10124944Y-11723888D01*
X10124944Y-11723888D02*
X10115420Y-11685793D01*
X10115420Y-11685793D02*
X10115420Y-11638174D01*
X10115420Y-11638174D02*
X10124944Y-11600079D01*
X10124944Y-11600079D02*
X10134467Y-11581031D01*
X10134467Y-11581031D02*
X10143991Y-11571508D01*
X10143991Y-11571508D02*
X10163039Y-11561984D01*
X10315420Y-11761984D02*
X10315420Y-11628650D01*
X10315420Y-11647698D02*
X10324944Y-11638174D01*
X10324944Y-11638174D02*
X10343991Y-11628650D01*
X10343991Y-11628650D02*
X10372563Y-11628650D01*
X10372563Y-11628650D02*
X10391610Y-11638174D01*
X10391610Y-11638174D02*
X10401134Y-11657222D01*
X10401134Y-11657222D02*
X10401134Y-11761984D01*
X10401134Y-11657222D02*
X10410658Y-11638174D01*
X10410658Y-11638174D02*
X10429705Y-11628650D01*
X10429705Y-11628650D02*
X10458277Y-11628650D01*
X10458277Y-11628650D02*
X10477325Y-11638174D01*
X10477325Y-11638174D02*
X10486848Y-11657222D01*
X10486848Y-11657222D02*
X10486848Y-11761984D01*
X10582086Y-11761984D02*
X10582086Y-11628650D01*
X10582086Y-11647698D02*
X10591610Y-11638174D01*
X10591610Y-11638174D02*
X10610658Y-11628650D01*
X10610658Y-11628650D02*
X10639229Y-11628650D01*
X10639229Y-11628650D02*
X10658277Y-11638174D01*
X10658277Y-11638174D02*
X10667801Y-11657222D01*
X10667801Y-11657222D02*
X10667801Y-11761984D01*
X10667801Y-11657222D02*
X10677325Y-11638174D01*
X10677325Y-11638174D02*
X10696372Y-11628650D01*
X10696372Y-11628650D02*
X10724944Y-11628650D01*
X10724944Y-11628650D02*
X10743991Y-11638174D01*
X10743991Y-11638174D02*
X10753515Y-11657222D01*
X10753515Y-11657222D02*
X10753515Y-11761984D01*
X11143991Y-11552460D02*
X10972563Y-11809603D01*
X11401134Y-11561984D02*
X11420182Y-11561984D01*
X11420182Y-11561984D02*
X11439229Y-11571508D01*
X11439229Y-11571508D02*
X11448753Y-11581031D01*
X11448753Y-11581031D02*
X11458277Y-11600079D01*
X11458277Y-11600079D02*
X11467801Y-11638174D01*
X11467801Y-11638174D02*
X11467801Y-11685793D01*
X11467801Y-11685793D02*
X11458277Y-11723888D01*
X11458277Y-11723888D02*
X11448753Y-11742936D01*
X11448753Y-11742936D02*
X11439229Y-11752460D01*
X11439229Y-11752460D02*
X11420182Y-11761984D01*
X11420182Y-11761984D02*
X11401134Y-11761984D01*
X11401134Y-11761984D02*
X11382086Y-11752460D01*
X11382086Y-11752460D02*
X11372563Y-11742936D01*
X11372563Y-11742936D02*
X11363039Y-11723888D01*
X11363039Y-11723888D02*
X11353515Y-11685793D01*
X11353515Y-11685793D02*
X11353515Y-11638174D01*
X11353515Y-11638174D02*
X11363039Y-11600079D01*
X11363039Y-11600079D02*
X11372563Y-11581031D01*
X11372563Y-11581031D02*
X11382086Y-11571508D01*
X11382086Y-11571508D02*
X11401134Y-11561984D01*
X11553515Y-11742936D02*
X11563039Y-11752460D01*
X11563039Y-11752460D02*
X11553515Y-11761984D01*
X11553515Y-11761984D02*
X11543991Y-11752460D01*
X11543991Y-11752460D02*
X11553515Y-11742936D01*
X11553515Y-11742936D02*
X11553515Y-11761984D01*
X11686848Y-11561984D02*
X11705896Y-11561984D01*
X11705896Y-11561984D02*
X11724944Y-11571508D01*
X11724944Y-11571508D02*
X11734467Y-11581031D01*
X11734467Y-11581031D02*
X11743991Y-11600079D01*
X11743991Y-11600079D02*
X11753515Y-11638174D01*
X11753515Y-11638174D02*
X11753515Y-11685793D01*
X11753515Y-11685793D02*
X11743991Y-11723888D01*
X11743991Y-11723888D02*
X11734467Y-11742936D01*
X11734467Y-11742936D02*
X11724944Y-11752460D01*
X11724944Y-11752460D02*
X11705896Y-11761984D01*
X11705896Y-11761984D02*
X11686848Y-11761984D01*
X11686848Y-11761984D02*
X11667801Y-11752460D01*
X11667801Y-11752460D02*
X11658277Y-11742936D01*
X11658277Y-11742936D02*
X11648753Y-11723888D01*
X11648753Y-11723888D02*
X11639229Y-11685793D01*
X11639229Y-11685793D02*
X11639229Y-11638174D01*
X11639229Y-11638174D02*
X11648753Y-11600079D01*
X11648753Y-11600079D02*
X11658277Y-11581031D01*
X11658277Y-11581031D02*
X11667801Y-11571508D01*
X11667801Y-11571508D02*
X11686848Y-11561984D01*
X11820182Y-11561984D02*
X11943991Y-11561984D01*
X11943991Y-11561984D02*
X11877325Y-11638174D01*
X11877325Y-11638174D02*
X11905896Y-11638174D01*
X11905896Y-11638174D02*
X11924944Y-11647698D01*
X11924944Y-11647698D02*
X11934467Y-11657222D01*
X11934467Y-11657222D02*
X11943991Y-11676269D01*
X11943991Y-11676269D02*
X11943991Y-11723888D01*
X11943991Y-11723888D02*
X11934467Y-11742936D01*
X11934467Y-11742936D02*
X11924944Y-11752460D01*
X11924944Y-11752460D02*
X11905896Y-11761984D01*
X11905896Y-11761984D02*
X11848753Y-11761984D01*
X11848753Y-11761984D02*
X11829706Y-11752460D01*
X11829706Y-11752460D02*
X11820182Y-11742936D01*
X12039229Y-11761984D02*
X12077325Y-11761984D01*
X12077325Y-11761984D02*
X12096372Y-11752460D01*
X12096372Y-11752460D02*
X12105896Y-11742936D01*
X12105896Y-11742936D02*
X12124944Y-11714365D01*
X12124944Y-11714365D02*
X12134467Y-11676269D01*
X12134467Y-11676269D02*
X12134467Y-11600079D01*
X12134467Y-11600079D02*
X12124944Y-11581031D01*
X12124944Y-11581031D02*
X12115420Y-11571508D01*
X12115420Y-11571508D02*
X12096372Y-11561984D01*
X12096372Y-11561984D02*
X12058277Y-11561984D01*
X12058277Y-11561984D02*
X12039229Y-11571508D01*
X12039229Y-11571508D02*
X12029706Y-11581031D01*
X12029706Y-11581031D02*
X12020182Y-11600079D01*
X12020182Y-11600079D02*
X12020182Y-11647698D01*
X12020182Y-11647698D02*
X12029706Y-11666746D01*
X12029706Y-11666746D02*
X12039229Y-11676269D01*
X12039229Y-11676269D02*
X12058277Y-11685793D01*
X12058277Y-11685793D02*
X12096372Y-11685793D01*
X12096372Y-11685793D02*
X12115420Y-11676269D01*
X12115420Y-11676269D02*
X12124944Y-11666746D01*
X12124944Y-11666746D02*
X12134467Y-11647698D01*
X12305896Y-11628650D02*
X12305896Y-11761984D01*
X12258277Y-11552460D02*
X12210658Y-11695317D01*
X12210658Y-11695317D02*
X12334467Y-11695317D01*
X12401134Y-11561984D02*
X12401134Y-11600079D01*
X12477325Y-11561984D02*
X12477325Y-11600079D01*
X12772563Y-11838174D02*
X12763039Y-11828650D01*
X12763039Y-11828650D02*
X12743991Y-11800079D01*
X12743991Y-11800079D02*
X12734468Y-11781031D01*
X12734468Y-11781031D02*
X12724944Y-11752460D01*
X12724944Y-11752460D02*
X12715420Y-11704841D01*
X12715420Y-11704841D02*
X12715420Y-11666746D01*
X12715420Y-11666746D02*
X12724944Y-11619127D01*
X12724944Y-11619127D02*
X12734468Y-11590555D01*
X12734468Y-11590555D02*
X12743991Y-11571508D01*
X12743991Y-11571508D02*
X12763039Y-11542936D01*
X12763039Y-11542936D02*
X12772563Y-11533412D01*
X12943991Y-11561984D02*
X12848753Y-11561984D01*
X12848753Y-11561984D02*
X12839229Y-11657222D01*
X12839229Y-11657222D02*
X12848753Y-11647698D01*
X12848753Y-11647698D02*
X12867801Y-11638174D01*
X12867801Y-11638174D02*
X12915420Y-11638174D01*
X12915420Y-11638174D02*
X12934468Y-11647698D01*
X12934468Y-11647698D02*
X12943991Y-11657222D01*
X12943991Y-11657222D02*
X12953515Y-11676269D01*
X12953515Y-11676269D02*
X12953515Y-11723888D01*
X12953515Y-11723888D02*
X12943991Y-11742936D01*
X12943991Y-11742936D02*
X12934468Y-11752460D01*
X12934468Y-11752460D02*
X12915420Y-11761984D01*
X12915420Y-11761984D02*
X12867801Y-11761984D01*
X12867801Y-11761984D02*
X12848753Y-11752460D01*
X12848753Y-11752460D02*
X12839229Y-11742936D01*
X13191610Y-11761984D02*
X13191610Y-11561984D01*
X13277325Y-11761984D02*
X13277325Y-11657222D01*
X13277325Y-11657222D02*
X13267801Y-11638174D01*
X13267801Y-11638174D02*
X13248753Y-11628650D01*
X13248753Y-11628650D02*
X13220182Y-11628650D01*
X13220182Y-11628650D02*
X13201134Y-11638174D01*
X13201134Y-11638174D02*
X13191610Y-11647698D01*
X13401134Y-11761984D02*
X13382087Y-11752460D01*
X13382087Y-11752460D02*
X13372563Y-11742936D01*
X13372563Y-11742936D02*
X13363039Y-11723888D01*
X13363039Y-11723888D02*
X13363039Y-11666746D01*
X13363039Y-11666746D02*
X13372563Y-11647698D01*
X13372563Y-11647698D02*
X13382087Y-11638174D01*
X13382087Y-11638174D02*
X13401134Y-11628650D01*
X13401134Y-11628650D02*
X13429706Y-11628650D01*
X13429706Y-11628650D02*
X13448753Y-11638174D01*
X13448753Y-11638174D02*
X13458277Y-11647698D01*
X13458277Y-11647698D02*
X13467801Y-11666746D01*
X13467801Y-11666746D02*
X13467801Y-11723888D01*
X13467801Y-11723888D02*
X13458277Y-11742936D01*
X13458277Y-11742936D02*
X13448753Y-11752460D01*
X13448753Y-11752460D02*
X13429706Y-11761984D01*
X13429706Y-11761984D02*
X13401134Y-11761984D01*
X13582087Y-11761984D02*
X13563039Y-11752460D01*
X13563039Y-11752460D02*
X13553515Y-11733412D01*
X13553515Y-11733412D02*
X13553515Y-11561984D01*
X13734468Y-11752460D02*
X13715420Y-11761984D01*
X13715420Y-11761984D02*
X13677325Y-11761984D01*
X13677325Y-11761984D02*
X13658277Y-11752460D01*
X13658277Y-11752460D02*
X13648753Y-11733412D01*
X13648753Y-11733412D02*
X13648753Y-11657222D01*
X13648753Y-11657222D02*
X13658277Y-11638174D01*
X13658277Y-11638174D02*
X13677325Y-11628650D01*
X13677325Y-11628650D02*
X13715420Y-11628650D01*
X13715420Y-11628650D02*
X13734468Y-11638174D01*
X13734468Y-11638174D02*
X13743991Y-11657222D01*
X13743991Y-11657222D02*
X13743991Y-11676269D01*
X13743991Y-11676269D02*
X13648753Y-11695317D01*
X13820182Y-11752460D02*
X13839230Y-11761984D01*
X13839230Y-11761984D02*
X13877325Y-11761984D01*
X13877325Y-11761984D02*
X13896372Y-11752460D01*
X13896372Y-11752460D02*
X13905896Y-11733412D01*
X13905896Y-11733412D02*
X13905896Y-11723888D01*
X13905896Y-11723888D02*
X13896372Y-11704841D01*
X13896372Y-11704841D02*
X13877325Y-11695317D01*
X13877325Y-11695317D02*
X13848753Y-11695317D01*
X13848753Y-11695317D02*
X13829706Y-11685793D01*
X13829706Y-11685793D02*
X13820182Y-11666746D01*
X13820182Y-11666746D02*
X13820182Y-11657222D01*
X13820182Y-11657222D02*
X13829706Y-11638174D01*
X13829706Y-11638174D02*
X13848753Y-11628650D01*
X13848753Y-11628650D02*
X13877325Y-11628650D01*
X13877325Y-11628650D02*
X13896372Y-11638174D01*
X13972563Y-11838174D02*
X13982087Y-11828650D01*
X13982087Y-11828650D02*
X14001134Y-11800079D01*
X14001134Y-11800079D02*
X14010658Y-11781031D01*
X14010658Y-11781031D02*
X14020182Y-11752460D01*
X14020182Y-11752460D02*
X14029706Y-11704841D01*
X14029706Y-11704841D02*
X14029706Y-11666746D01*
X14029706Y-11666746D02*
X14020182Y-11619127D01*
X14020182Y-11619127D02*
X14010658Y-11590555D01*
X14010658Y-11590555D02*
X14001134Y-11571508D01*
X14001134Y-11571508D02*
X13982087Y-11542936D01*
X13982087Y-11542936D02*
X13972563Y-11533412D01*
D13*
X9182563Y-11970563D02*
X9182563Y-11898437D01*
X9110437Y-11898437D01*
X9110437Y-11970563D01*
X9182563Y-11970563D01*
D11*
X9563039Y-12025984D02*
X9448753Y-12025984D01*
X9505896Y-12025984D02*
X9505896Y-11825984D01*
X9505896Y-11825984D02*
X9486848Y-11854555D01*
X9486848Y-11854555D02*
X9467801Y-11873603D01*
X9467801Y-11873603D02*
X9448753Y-11883127D01*
X9648753Y-12006936D02*
X9658277Y-12016460D01*
X9658277Y-12016460D02*
X9648753Y-12025984D01*
X9648753Y-12025984D02*
X9639229Y-12016460D01*
X9639229Y-12016460D02*
X9648753Y-12006936D01*
X9648753Y-12006936D02*
X9648753Y-12025984D01*
X9782086Y-11825984D02*
X9801134Y-11825984D01*
X9801134Y-11825984D02*
X9820182Y-11835508D01*
X9820182Y-11835508D02*
X9829705Y-11845031D01*
X9829705Y-11845031D02*
X9839229Y-11864079D01*
X9839229Y-11864079D02*
X9848753Y-11902174D01*
X9848753Y-11902174D02*
X9848753Y-11949793D01*
X9848753Y-11949793D02*
X9839229Y-11987888D01*
X9839229Y-11987888D02*
X9829705Y-12006936D01*
X9829705Y-12006936D02*
X9820182Y-12016460D01*
X9820182Y-12016460D02*
X9801134Y-12025984D01*
X9801134Y-12025984D02*
X9782086Y-12025984D01*
X9782086Y-12025984D02*
X9763039Y-12016460D01*
X9763039Y-12016460D02*
X9753515Y-12006936D01*
X9753515Y-12006936D02*
X9743991Y-11987888D01*
X9743991Y-11987888D02*
X9734467Y-11949793D01*
X9734467Y-11949793D02*
X9734467Y-11902174D01*
X9734467Y-11902174D02*
X9743991Y-11864079D01*
X9743991Y-11864079D02*
X9753515Y-11845031D01*
X9753515Y-11845031D02*
X9763039Y-11835508D01*
X9763039Y-11835508D02*
X9782086Y-11825984D01*
X9924944Y-11845031D02*
X9934467Y-11835508D01*
X9934467Y-11835508D02*
X9953515Y-11825984D01*
X9953515Y-11825984D02*
X10001134Y-11825984D01*
X10001134Y-11825984D02*
X10020182Y-11835508D01*
X10020182Y-11835508D02*
X10029705Y-11845031D01*
X10029705Y-11845031D02*
X10039229Y-11864079D01*
X10039229Y-11864079D02*
X10039229Y-11883127D01*
X10039229Y-11883127D02*
X10029705Y-11911698D01*
X10029705Y-11911698D02*
X9915420Y-12025984D01*
X9915420Y-12025984D02*
X10039229Y-12025984D01*
X10163039Y-11825984D02*
X10182086Y-11825984D01*
X10182086Y-11825984D02*
X10201134Y-11835508D01*
X10201134Y-11835508D02*
X10210658Y-11845031D01*
X10210658Y-11845031D02*
X10220182Y-11864079D01*
X10220182Y-11864079D02*
X10229705Y-11902174D01*
X10229705Y-11902174D02*
X10229705Y-11949793D01*
X10229705Y-11949793D02*
X10220182Y-11987888D01*
X10220182Y-11987888D02*
X10210658Y-12006936D01*
X10210658Y-12006936D02*
X10201134Y-12016460D01*
X10201134Y-12016460D02*
X10182086Y-12025984D01*
X10182086Y-12025984D02*
X10163039Y-12025984D01*
X10163039Y-12025984D02*
X10143991Y-12016460D01*
X10143991Y-12016460D02*
X10134467Y-12006936D01*
X10134467Y-12006936D02*
X10124944Y-11987888D01*
X10124944Y-11987888D02*
X10115420Y-11949793D01*
X10115420Y-11949793D02*
X10115420Y-11902174D01*
X10115420Y-11902174D02*
X10124944Y-11864079D01*
X10124944Y-11864079D02*
X10134467Y-11845031D01*
X10134467Y-11845031D02*
X10143991Y-11835508D01*
X10143991Y-11835508D02*
X10163039Y-11825984D01*
X10315420Y-12025984D02*
X10315420Y-11892650D01*
X10315420Y-11911698D02*
X10324944Y-11902174D01*
X10324944Y-11902174D02*
X10343991Y-11892650D01*
X10343991Y-11892650D02*
X10372563Y-11892650D01*
X10372563Y-11892650D02*
X10391610Y-11902174D01*
X10391610Y-11902174D02*
X10401134Y-11921222D01*
X10401134Y-11921222D02*
X10401134Y-12025984D01*
X10401134Y-11921222D02*
X10410658Y-11902174D01*
X10410658Y-11902174D02*
X10429705Y-11892650D01*
X10429705Y-11892650D02*
X10458277Y-11892650D01*
X10458277Y-11892650D02*
X10477325Y-11902174D01*
X10477325Y-11902174D02*
X10486848Y-11921222D01*
X10486848Y-11921222D02*
X10486848Y-12025984D01*
X10582086Y-12025984D02*
X10582086Y-11892650D01*
X10582086Y-11911698D02*
X10591610Y-11902174D01*
X10591610Y-11902174D02*
X10610658Y-11892650D01*
X10610658Y-11892650D02*
X10639229Y-11892650D01*
X10639229Y-11892650D02*
X10658277Y-11902174D01*
X10658277Y-11902174D02*
X10667801Y-11921222D01*
X10667801Y-11921222D02*
X10667801Y-12025984D01*
X10667801Y-11921222D02*
X10677325Y-11902174D01*
X10677325Y-11902174D02*
X10696372Y-11892650D01*
X10696372Y-11892650D02*
X10724944Y-11892650D01*
X10724944Y-11892650D02*
X10743991Y-11902174D01*
X10743991Y-11902174D02*
X10753515Y-11921222D01*
X10753515Y-11921222D02*
X10753515Y-12025984D01*
X11143991Y-11816460D02*
X10972563Y-12073603D01*
X11401134Y-11825984D02*
X11420182Y-11825984D01*
X11420182Y-11825984D02*
X11439229Y-11835508D01*
X11439229Y-11835508D02*
X11448753Y-11845031D01*
X11448753Y-11845031D02*
X11458277Y-11864079D01*
X11458277Y-11864079D02*
X11467801Y-11902174D01*
X11467801Y-11902174D02*
X11467801Y-11949793D01*
X11467801Y-11949793D02*
X11458277Y-11987888D01*
X11458277Y-11987888D02*
X11448753Y-12006936D01*
X11448753Y-12006936D02*
X11439229Y-12016460D01*
X11439229Y-12016460D02*
X11420182Y-12025984D01*
X11420182Y-12025984D02*
X11401134Y-12025984D01*
X11401134Y-12025984D02*
X11382086Y-12016460D01*
X11382086Y-12016460D02*
X11372563Y-12006936D01*
X11372563Y-12006936D02*
X11363039Y-11987888D01*
X11363039Y-11987888D02*
X11353515Y-11949793D01*
X11353515Y-11949793D02*
X11353515Y-11902174D01*
X11353515Y-11902174D02*
X11363039Y-11864079D01*
X11363039Y-11864079D02*
X11372563Y-11845031D01*
X11372563Y-11845031D02*
X11382086Y-11835508D01*
X11382086Y-11835508D02*
X11401134Y-11825984D01*
X11553515Y-12006936D02*
X11563039Y-12016460D01*
X11563039Y-12016460D02*
X11553515Y-12025984D01*
X11553515Y-12025984D02*
X11543991Y-12016460D01*
X11543991Y-12016460D02*
X11553515Y-12006936D01*
X11553515Y-12006936D02*
X11553515Y-12025984D01*
X11686848Y-11825984D02*
X11705896Y-11825984D01*
X11705896Y-11825984D02*
X11724944Y-11835508D01*
X11724944Y-11835508D02*
X11734467Y-11845031D01*
X11734467Y-11845031D02*
X11743991Y-11864079D01*
X11743991Y-11864079D02*
X11753515Y-11902174D01*
X11753515Y-11902174D02*
X11753515Y-11949793D01*
X11753515Y-11949793D02*
X11743991Y-11987888D01*
X11743991Y-11987888D02*
X11734467Y-12006936D01*
X11734467Y-12006936D02*
X11724944Y-12016460D01*
X11724944Y-12016460D02*
X11705896Y-12025984D01*
X11705896Y-12025984D02*
X11686848Y-12025984D01*
X11686848Y-12025984D02*
X11667801Y-12016460D01*
X11667801Y-12016460D02*
X11658277Y-12006936D01*
X11658277Y-12006936D02*
X11648753Y-11987888D01*
X11648753Y-11987888D02*
X11639229Y-11949793D01*
X11639229Y-11949793D02*
X11639229Y-11902174D01*
X11639229Y-11902174D02*
X11648753Y-11864079D01*
X11648753Y-11864079D02*
X11658277Y-11845031D01*
X11658277Y-11845031D02*
X11667801Y-11835508D01*
X11667801Y-11835508D02*
X11686848Y-11825984D01*
X11924944Y-11892650D02*
X11924944Y-12025984D01*
X11877325Y-11816460D02*
X11829706Y-11959317D01*
X11829706Y-11959317D02*
X11953515Y-11959317D01*
X12067801Y-11825984D02*
X12086848Y-11825984D01*
X12086848Y-11825984D02*
X12105896Y-11835508D01*
X12105896Y-11835508D02*
X12115420Y-11845031D01*
X12115420Y-11845031D02*
X12124944Y-11864079D01*
X12124944Y-11864079D02*
X12134467Y-11902174D01*
X12134467Y-11902174D02*
X12134467Y-11949793D01*
X12134467Y-11949793D02*
X12124944Y-11987888D01*
X12124944Y-11987888D02*
X12115420Y-12006936D01*
X12115420Y-12006936D02*
X12105896Y-12016460D01*
X12105896Y-12016460D02*
X12086848Y-12025984D01*
X12086848Y-12025984D02*
X12067801Y-12025984D01*
X12067801Y-12025984D02*
X12048753Y-12016460D01*
X12048753Y-12016460D02*
X12039229Y-12006936D01*
X12039229Y-12006936D02*
X12029706Y-11987888D01*
X12029706Y-11987888D02*
X12020182Y-11949793D01*
X12020182Y-11949793D02*
X12020182Y-11902174D01*
X12020182Y-11902174D02*
X12029706Y-11864079D01*
X12029706Y-11864079D02*
X12039229Y-11845031D01*
X12039229Y-11845031D02*
X12048753Y-11835508D01*
X12048753Y-11835508D02*
X12067801Y-11825984D01*
X12210658Y-11845031D02*
X12220182Y-11835508D01*
X12220182Y-11835508D02*
X12239229Y-11825984D01*
X12239229Y-11825984D02*
X12286848Y-11825984D01*
X12286848Y-11825984D02*
X12305896Y-11835508D01*
X12305896Y-11835508D02*
X12315420Y-11845031D01*
X12315420Y-11845031D02*
X12324944Y-11864079D01*
X12324944Y-11864079D02*
X12324944Y-11883127D01*
X12324944Y-11883127D02*
X12315420Y-11911698D01*
X12315420Y-11911698D02*
X12201134Y-12025984D01*
X12201134Y-12025984D02*
X12324944Y-12025984D01*
X12401134Y-11825984D02*
X12401134Y-11864079D01*
X12477325Y-11825984D02*
X12477325Y-11864079D01*
X12772563Y-12102174D02*
X12763039Y-12092650D01*
X12763039Y-12092650D02*
X12743991Y-12064079D01*
X12743991Y-12064079D02*
X12734468Y-12045031D01*
X12734468Y-12045031D02*
X12724944Y-12016460D01*
X12724944Y-12016460D02*
X12715420Y-11968841D01*
X12715420Y-11968841D02*
X12715420Y-11930746D01*
X12715420Y-11930746D02*
X12724944Y-11883127D01*
X12724944Y-11883127D02*
X12734468Y-11854555D01*
X12734468Y-11854555D02*
X12743991Y-11835508D01*
X12743991Y-11835508D02*
X12763039Y-11806936D01*
X12763039Y-11806936D02*
X12772563Y-11797412D01*
X12839229Y-11845031D02*
X12848753Y-11835508D01*
X12848753Y-11835508D02*
X12867801Y-11825984D01*
X12867801Y-11825984D02*
X12915420Y-11825984D01*
X12915420Y-11825984D02*
X12934468Y-11835508D01*
X12934468Y-11835508D02*
X12943991Y-11845031D01*
X12943991Y-11845031D02*
X12953515Y-11864079D01*
X12953515Y-11864079D02*
X12953515Y-11883127D01*
X12953515Y-11883127D02*
X12943991Y-11911698D01*
X12943991Y-11911698D02*
X12829706Y-12025984D01*
X12829706Y-12025984D02*
X12953515Y-12025984D01*
X13191610Y-12025984D02*
X13191610Y-11825984D01*
X13277325Y-12025984D02*
X13277325Y-11921222D01*
X13277325Y-11921222D02*
X13267801Y-11902174D01*
X13267801Y-11902174D02*
X13248753Y-11892650D01*
X13248753Y-11892650D02*
X13220182Y-11892650D01*
X13220182Y-11892650D02*
X13201134Y-11902174D01*
X13201134Y-11902174D02*
X13191610Y-11911698D01*
X13401134Y-12025984D02*
X13382087Y-12016460D01*
X13382087Y-12016460D02*
X13372563Y-12006936D01*
X13372563Y-12006936D02*
X13363039Y-11987888D01*
X13363039Y-11987888D02*
X13363039Y-11930746D01*
X13363039Y-11930746D02*
X13372563Y-11911698D01*
X13372563Y-11911698D02*
X13382087Y-11902174D01*
X13382087Y-11902174D02*
X13401134Y-11892650D01*
X13401134Y-11892650D02*
X13429706Y-11892650D01*
X13429706Y-11892650D02*
X13448753Y-11902174D01*
X13448753Y-11902174D02*
X13458277Y-11911698D01*
X13458277Y-11911698D02*
X13467801Y-11930746D01*
X13467801Y-11930746D02*
X13467801Y-11987888D01*
X13467801Y-11987888D02*
X13458277Y-12006936D01*
X13458277Y-12006936D02*
X13448753Y-12016460D01*
X13448753Y-12016460D02*
X13429706Y-12025984D01*
X13429706Y-12025984D02*
X13401134Y-12025984D01*
X13582087Y-12025984D02*
X13563039Y-12016460D01*
X13563039Y-12016460D02*
X13553515Y-11997412D01*
X13553515Y-11997412D02*
X13553515Y-11825984D01*
X13734468Y-12016460D02*
X13715420Y-12025984D01*
X13715420Y-12025984D02*
X13677325Y-12025984D01*
X13677325Y-12025984D02*
X13658277Y-12016460D01*
X13658277Y-12016460D02*
X13648753Y-11997412D01*
X13648753Y-11997412D02*
X13648753Y-11921222D01*
X13648753Y-11921222D02*
X13658277Y-11902174D01*
X13658277Y-11902174D02*
X13677325Y-11892650D01*
X13677325Y-11892650D02*
X13715420Y-11892650D01*
X13715420Y-11892650D02*
X13734468Y-11902174D01*
X13734468Y-11902174D02*
X13743991Y-11921222D01*
X13743991Y-11921222D02*
X13743991Y-11940269D01*
X13743991Y-11940269D02*
X13648753Y-11959317D01*
X13820182Y-12016460D02*
X13839230Y-12025984D01*
X13839230Y-12025984D02*
X13877325Y-12025984D01*
X13877325Y-12025984D02*
X13896372Y-12016460D01*
X13896372Y-12016460D02*
X13905896Y-11997412D01*
X13905896Y-11997412D02*
X13905896Y-11987888D01*
X13905896Y-11987888D02*
X13896372Y-11968841D01*
X13896372Y-11968841D02*
X13877325Y-11959317D01*
X13877325Y-11959317D02*
X13848753Y-11959317D01*
X13848753Y-11959317D02*
X13829706Y-11949793D01*
X13829706Y-11949793D02*
X13820182Y-11930746D01*
X13820182Y-11930746D02*
X13820182Y-11921222D01*
X13820182Y-11921222D02*
X13829706Y-11902174D01*
X13829706Y-11902174D02*
X13848753Y-11892650D01*
X13848753Y-11892650D02*
X13877325Y-11892650D01*
X13877325Y-11892650D02*
X13896372Y-11902174D01*
X13972563Y-12102174D02*
X13982087Y-12092650D01*
X13982087Y-12092650D02*
X14001134Y-12064079D01*
X14001134Y-12064079D02*
X14010658Y-12045031D01*
X14010658Y-12045031D02*
X14020182Y-12016460D01*
X14020182Y-12016460D02*
X14029706Y-11968841D01*
X14029706Y-11968841D02*
X14029706Y-11930746D01*
X14029706Y-11930746D02*
X14020182Y-11883127D01*
X14020182Y-11883127D02*
X14010658Y-11854555D01*
X14010658Y-11854555D02*
X14001134Y-11835508D01*
X14001134Y-11835508D02*
X13982087Y-11806936D01*
X13982087Y-11806936D02*
X13972563Y-11797412D01*
M02*
